<svg id="Check_Button" data-name="Check Button" xmlns="http://www.w3.org/2000/svg" xmlns:xlink="http://www.w3.org/1999/xlink" width="100px" height="100px" viewBox="0 0 100px 100px">
  <defs>
    <radialGradient id="radial-gradient" cx="0.5" cy="0.5" r="0.5" gradientUnits="objectBoundingBox">
      <stop offset="0" stop-color="#070707"/>
      <stop offset="0.611" stop-color="#393939"/>
      <stop offset="1" stop-color="#595959"/>
    </radialGradient>
  </defs>
  <g id="Button_-_Secondary" data-name="Button - Secondary">
    <g id="Ellipse_2" data-name="Ellipse 2" stroke="#707070" stroke-width="1" fill="url(#radial-gradient)">
      <circle cx="50" cy="50" r="50" stroke="none"/>
      <circle cx="50" cy="50" r="49.5" fill="none"/>
    </g>
    <g id="Ellipse_3" data-name="Ellipse 3" transform="translate(10 10)" fill="#00788a" stroke="#fff" stroke-width="3">
      <circle cx="40" cy="40" r="40" stroke="none"/>
      <circle cx="40" cy="40" r="38.5" fill="none"/>
    </g>
  </g>

  <g id="Layer_2" data-name="Layer 2" transform="translate(2 123.511) rotate(-135)">
    <g id="logos" transform="translate(10.792 63.666)">
      <path id="Path_3" data-name="Path 3" d="M23.785,1.739c.575.044,1.2,1.156,1.078,2.565l-.675,6.729c-.079.979-.49,1.658-.983,1.623L1.988,11.037c-.488-.064-.916-.8-1.037-1.778L.031,2.409C-.143.978.447-.048,1.014,0L23.785,1.739" transform="translate(0 0)" fill="#ea7200"/>
    </g>
    <g id="logos-2" data-name="logos" transform="translate(19.532 63.605) rotate(90)">
      <path id="Path_3-2" data-name="Path 3" d="M47.837,1.612a2.162,2.162,0,0,1,2.13,2.378l-1.334,6.238a1.85,1.85,0,0,1-1.943,1.505L1.527,9.759C.562,9.7.239,8.837,0,7.929l.881-5.7A1.832,1.832,0,0,1,2.825,0l45.013,1.61" transform="translate(0)" fill="#ea7200"/>
    </g>
  </g>
</svg>
