<svg id="Comerica_Logo" data-name="Comerica Logo" xmlns="http://www.w3.org/2000/svg" width="241.785" height="50" viewBox="0 0 241.785 50">
  <g id="g10">
    <g id="g12">
      <path id="path14" d="M221.1,6.1c5.341.04,11-4.851,9.574-11.3l-7.412-30.908a9.619,9.619,0,0,0-9.407-7.732H16.936a9.826,9.826,0,0,0-9.392,7.732L.208-5.207C-1.162,1.246,4.494,6.137,9.768,6.1H221.1" transform="translate(0 43.847)" fill="#213366"/>
      <path id="path16" d="M115.2-15.325c2.51,0,3.926-1.352,4.848-3.567l5.3-12.647h.786l7.915,18.655c.589,1.3,1.26,3.295,3.027,3.232l.088.763H128.7v-.76c3.094-.185,2.558-1.116,1.489-3.65l-1.132-2.742H120.6c-.427,1.288-1.709,3.808-1.733,5.029.024,1.213,1.447,1.342,2.222,1.36v.763H114.51v-.76a3.073,3.073,0,0,0,2.351-1.757,27.67,27.67,0,0,0,1.76-3.847,6.079,6.079,0,0,1-4.908,2.419c-3.569.032-6.173-3.352-6.155-7.519-.018-4.337,2.455-8.18,7.369-8.173,1.861,0,4.794,1.006,4.949,3.337a1.568,1.568,0,0,1-1.569,1.515,1.616,1.616,0,0,1-1.558-1.515c.014-1.283-.725-2.215-2.42-2.232-2.753.017-4.111,2.979-4.127,5.717,0,3.046,1.694,6.451,5,6.381Zm13.321-2.244-3.651-8.9-3.605,8.9Zm-76.4,3.811c1.524-.142,1.968-.7,1.945-2.094v-8.113c.118-1.8-.318-2.108-2.023-2.1v-.747L57-28.571v2.29c.012.288.059.3.282.111a7.206,7.206,0,0,1,.745-.719,6.67,6.67,0,0,1,4.032-1.639A3.541,3.541,0,0,1,65.4-25.761c1.209-1.4,3.2-2.774,5.025-2.767,3.971,0,4.2,3.451,4.2,6.406v6.271c0,1.515.562,1.965,2.029,2.115v.626H69.677v-.626c1.458-.15,2.023-.6,2.023-2.115V-22.66c.03-3.151-.489-3.94-2.489-3.94a3.861,3.861,0,0,0-3.362,1.983v8.766c-.023,1.52.554,1.965,2.027,2.115v.626H60.822v-.626c1.493-.15,2.069-.579,2.1-2.115l.007-6.946c0-1.719-.141-3.8-2.226-3.8A4.881,4.881,0,0,0,57-24.692v8.84c.026,1.528.611,1.965,2.106,2.115v.626H52.046v-.626Zm31.142-14.77c3.7,0,5.736,2.732,5.825,6.218H78.953c.073,3.136,1.623,7.117,5.189,7.128,2.2-.012,3.96-1.8,4.948-3.553l.694.173c-1.025,2.955-3.505,5.758-6.94,5.726-3.825.032-6.281-3.519-6.284-7.519C76.561-25.088,79.185-28.535,83.265-28.528ZM82.582-27.2c-2.2,0-3.2,1.625-3.491,3.64h6.514C85.493-25.433,84.621-27.223,82.582-27.2Zm-37.9-.219C42.342-27.6,40.925-25.49,40.65-22.6c-.405,4.661.841,8.376,3.844,8.645,2.452.217,3.854-2.388,4.1-5.25C48.862-22.215,48.3-27.078,44.681-27.422Zm-7.393-4.052h.8l.213,6.739a6.59,6.59,0,0,1,6.2-3.8,7.06,7.06,0,0,1,7.371,7.371c0,4.383-2.787,8.36-7.371,8.328-4.235.032-7.121-3.585-7.106-7.653-.047-5.156-1.545-9.256-7.08-9.528-5.047-.25-7.428,4.368-7.409,10.346-.018,4.631,2.347,9.587,7.614,9.6,3.238-.011,4.974-.884,7.233-3.161l.629.8a10.387,10.387,0,0,1-8.133,4.031c-6.407-.015-11.3-4.214-11.285-11.529-.016-6.666,4.611-11.6,11.219-11.591a10.659,10.659,0,0,1,2.867.386c.795.21,1.457.466,2,.647C36.22-30.129,36.773-30.192,37.288-31.474Zm63.181,17.716c1.952-.142,2.4-.715,2.431-2.094v-8.113c.075-2.227-.981-2.051-2.506-1.214a1.616,1.616,0,0,1-1.216.139,1.084,1.084,0,0,1-.726-.457l-.169-.223a1.5,1.5,0,0,0-1.259-.623c-.612,0-1.95,1.612-1.939,2.523v7.968c-.011,1.718.841,1.987,2.43,2.107v.634H89.727v-.634c1.968-.156,2.416-.729,2.43-2.107v-7.295c-.014-2.336.068-3.639-2.43-2.891v-.706l5.358-1.828v2.823c.7-1.141,2.056-2.787,3.635-2.78a2.06,2.06,0,0,1,2.177,1.646l4.857-1.969.067,13c-.031,1.722.846,1.987,2.443,2.107v.634H100.4v-.634Zm44.442-.658c.3-.244.471-.855.471-1.87v-12.3c0-1.012-.172-1.621-.485-1.87a4.46,4.46,0,0,0-2.212-.5v-.669h7.958a11.322,11.322,0,0,1,5.385,1.077,3.893,3.893,0,0,1,2.024,3.735,3.516,3.516,0,0,1-1.408,3.029,6.434,6.434,0,0,1-2.039.877,8.507,8.507,0,0,1,3,1.46,3.638,3.638,0,0,1,1.408,3.048,4.506,4.506,0,0,1-3.1,4.514,10.9,10.9,0,0,1-3.973.626h-9.249v-.647a4.886,4.886,0,0,0,2.227-.508Zm10.1-12.327a3.184,3.184,0,0,0-1.984-3.248,9.559,9.559,0,0,0-3.413-.464,2.216,2.216,0,0,0-1.037.131c-.086.061-.154.279-.154.728v6.169l2.56-.055a5.84,5.84,0,0,0,2.311-.441A2.82,2.82,0,0,0,155.01-26.743Zm.616,8.45a3.092,3.092,0,0,0-1.645-3.067,9.541,9.541,0,0,0-4.312-.848h-.811l-.436-.008v6.773c0,.445.119.726.353.83a5.281,5.281,0,0,0,1.883.2,7.126,7.126,0,0,0,3.564-.811C155.157-15.738,155.626-16.75,155.626-18.293Zm15.96,1.512a5.024,5.024,0,0,0,.108,1.269c.138.476.409.689.791.689a1.169,1.169,0,0,0,.573-.12,6.1,6.1,0,0,0,.976-.771v1.191a5.712,5.712,0,0,1-1.169,1.056,3.439,3.439,0,0,1-1.923.624,1.9,1.9,0,0,1-1.7-.785,3.307,3.307,0,0,1-.561-1.616,14.568,14.568,0,0,1-1.984,1.5,5.6,5.6,0,0,1-2.837.9,3.464,3.464,0,0,1-2.5-1.02,3.437,3.437,0,0,1-1.054-2.572,4.743,4.743,0,0,1,2.39-4.012,35.6,35.6,0,0,1,5.916-2.645V-24.4a5.629,5.629,0,0,0-.318-2.271,2.279,2.279,0,0,0-2.24-1.047,3.052,3.052,0,0,0-1.537.418,1.241,1.241,0,0,0-.705,1.131c0,.422.128.834.128,1.256a1.462,1.462,0,0,1-.646,1.357,1.553,1.553,0,0,1-.85.213,1.435,1.435,0,0,1-1.194-.511,1.7,1.7,0,0,1-.407-1.117,3.423,3.423,0,0,1,1.47-2.452,6.216,6.216,0,0,1,4.228-1.264c2.147,0,3.628.686,4.414,2.086a7.028,7.028,0,0,1,.626,3.307v6.513m-5.9-4c-1.525.96-2.259,2.031-2.259,3.207a2.431,2.431,0,0,0,.926,2.118,2.165,2.165,0,0,0,1.349.433,3.692,3.692,0,0,0,1.98-.582,1.681,1.681,0,0,0,.935-1.449V-22.1A14.2,14.2,0,0,0,165.687-20.783Zm9.918,6.489a2.608,2.608,0,0,0,.43-1.832v-8.285a3.776,3.776,0,0,0-.179-1.411,1.18,1.18,0,0,0-1.178-.569,1.362,1.362,0,0,0-.278.028l-.488.054v-.769c1.045-.294,2.168-.663,3.175-.99l1.525-.489c.109,0,.2.029.227.138a.651.651,0,0,1,.033.236V-26.1a17.007,17.007,0,0,1,2.232-1.749,5.133,5.133,0,0,1,2.7-.773,3.578,3.578,0,0,1,2.085.643c1.227.861,1.817,2.364,1.817,4.493v7.62a2.362,2.362,0,0,0,.441,1.607,2.506,2.506,0,0,0,1.721.489,4.571,4.571,0,0,0,2.1-.489,2.2,2.2,0,0,0,.465-1.687V-29.068c0-.777-.132-1.225-.351-1.4a1.738,1.738,0,0,0-1.078-.293c-.394,0-.781.037-1.162.064v-.625l1.568-.409c1.125-.29,2.089-.568,2.88-.827a5.035,5.035,0,0,1,.87-.243c.146,0,.217.039.248.182l0,.135v10.282l4.262-3.839a3.845,3.845,0,0,0,.634-.682.73.73,0,0,0,.149-.4.337.337,0,0,0-.289-.377,7.63,7.63,0,0,0-1.378-.146v-.646h6.965v.646a6.746,6.746,0,0,0-2.944.725,30.567,30.567,0,0,0-4.186,3.562l-.813.738,2.833,3.8a27.922,27.922,0,0,0,3.474,3.986,4.212,4.212,0,0,0,2.506,1.08v.645H199.19v-.652l.651-.024a1.445,1.445,0,0,0,.486-.111.249.249,0,0,0,.154-.258,1.107,1.107,0,0,0-.274-.652l-4.8-6.413v5.794A1.406,1.406,0,0,0,196.182-14a4.962,4.962,0,0,0,1.741.232v.652H182.609v-.645a2.889,2.889,0,0,0,1.679-.622,3.244,3.244,0,0,0,.441-2.073v-7.013a4.651,4.651,0,0,0-.514-2.305,1.96,1.96,0,0,0-1.867-.885,3.494,3.494,0,0,0-1.925.645,9.871,9.871,0,0,0-1.414,1.2v9.153a1.8,1.8,0,0,0,.491,1.5,2.979,2.979,0,0,0,1.7.4v.652h-7.219v-.645a3.014,3.014,0,0,0,1.628-.537" transform="translate(2.661 45.397)" fill="#fff"/>
      <path id="path18" d="M220.734,2.9c3.815.007,7.938-3.534,6.622-8.071L220.261-35.91a7.028,7.028,0,0,0-6.772-5.426H16.566A6.874,6.874,0,0,0,9.956-35.91L2.868-5.174C1.629-.637,5.647,2.9,9.4,2.9Zm0-2.4a4.579,4.579,0,0,0,4.312-4.938L217.638-35.1a4.053,4.053,0,0,0-4.149-3.671H16.566A4.249,4.249,0,0,0,12.418-35.1L5.091-4.437A4.6,4.6,0,0,0,9.4.5H220.734" transform="translate(0.37 44.199)" fill="#fff" fill-rule="evenodd"/>
      <path id="path20" d="M207.643-3.733l.894-.017c.962-.013,1.353-.143,1.338-.859-.009-.529-.333-.769-1.18-.745l-1.086.012Zm.071,3.012-.8.029-.1-5.319,2-.038c1.229-.028,1.856.46,1.875,1.472a1.362,1.362,0,0,1-1.259,1.469l1.484,2.324-.972.024-1.451-2.293-.829.007Zm4.551-2.789a3.688,3.688,0,0,0-3.755-3.718,3.7,3.7,0,0,0-3.629,3.868A3.7,3.7,0,0,0,208.665.392,3.691,3.691,0,0,0,212.265-3.509ZM204-3.341a4.544,4.544,0,0,1,4.5-4.611,4.534,4.534,0,0,1,4.659,4.431,4.523,4.523,0,0,1-4.476,4.636A4.54,4.54,0,0,1,204-3.341" transform="translate(28.631 48.885)" fill="#100f0d"/>
    </g>
  </g>
</svg>
