<?xml version="1.0" encoding="UTF-8"?>
<svg xmlns="http://www.w3.org/2000/svg" xmlns:xlink="http://www.w3.org/1999/xlink" width="425px" height="328px" viewBox="0 0 424 328" version="1.1">
<g id="surface1">
<path style=" stroke:none;fill-rule:nonzero;fill:rgb(0%,46.666667%,53.72549%);fill-opacity:1;" d="M 51.25 88.046875 C 51.25 88.046875 95.433594 151.996094 67.128906 206.175781 C 67.128906 206.175781 129.191406 164.378906 183.167969 158.925781 C 183.167969 158.925781 126.316406 94.675781 51.25 88.046875 Z M 51.25 88.046875 "/>
<path style=" stroke:none;fill-rule:nonzero;fill:rgb(0%,0%,0%);fill-opacity:1;" d="M 49.085938 226.351562 L 61.238281 203.089844 C 72.066406 182.363281 72.859375 157.507812 63.597656 129.210938 C 56.503906 107.550781 45.882812 91.984375 45.777344 91.832031 L 37.753906 80.179688 L 51.832031 81.417969 C 74.058594 83.378906 109 91.761719 149.226562 120.558594 C 173.160156 137.691406 187.546875 153.835938 188.144531 154.511719 L 196.757812 164.246094 L 183.835938 165.550781 C 132.117188 170.777344 71.449219 211.289062 70.84375 211.699219 Z M 63.988281 96.507812 C 67.761719 103.566406 72.355469 113.300781 76.117188 124.707031 C 83.894531 148.285156 85.257812 170.582031 80.253906 190.277344 C 100.183594 178.742188 134.925781 160.914062 169.195312 154.285156 C 152.183594 138.203125 112.617188 105.515625 63.988281 96.507812 Z M 63.988281 96.507812 "/>
<path style=" stroke:none;fill-rule:nonzero;fill:rgb(0%,46.666667%,53.72549%);fill-opacity:1;" d="M 54.070312 87.328125 C 54.070312 87.328125 100.132812 148.867188 72.945312 202.984375 C 72.945312 202.984375 138.269531 162.5625 183.167969 158.925781 C 183.167969 158.925781 126.46875 94.097656 54.070312 87.328125 Z M 54.070312 87.328125 "/>
<path style=" stroke:none;fill-rule:nonzero;fill:rgb(0%,0%,0%);fill-opacity:1;" d="M 75.015625 95.589844 C 75.015625 95.589844 103.40625 102.652344 123.519531 120.339844 L 131.414062 119.1875 C 131.414062 119.1875 106.722656 102.738281 75.015625 95.589844 Z M 75.015625 95.589844 "/>
<path style=" stroke:none;fill-rule:nonzero;fill:rgb(0%,0%,0%);fill-opacity:1;" d="M 143.347656 197.285156 C 143.347656 197.746094 143.347656 198.203125 143.347656 198.65625 C 143.347656 199.109375 143.324219 199.566406 143.28125 200.023438 C 143.191406 201 142.984375 201.925781 142.648438 202.796875 C 142.3125 203.667969 141.859375 204.429688 141.285156 205.085938 C 140.710938 205.742188 140.015625 206.261719 139.195312 206.644531 C 138.375 207.027344 137.4375 207.21875 136.375 207.21875 C 135.960938 207.21875 135.53125 207.183594 135.082031 207.113281 C 134.632812 207.042969 134.1875 206.9375 133.746094 206.796875 C 133.308594 206.65625 132.886719 206.484375 132.484375 206.273438 C 132.082031 206.066406 131.726562 205.828125 131.414062 205.554688 L 132.140625 200.703125 C 132.597656 201.148438 133.109375 201.511719 133.671875 201.789062 C 134.234375 202.066406 134.847656 202.203125 135.507812 202.203125 C 135.9375 202.203125 136.300781 202.140625 136.597656 202.015625 C 136.894531 201.890625 137.140625 201.71875 137.335938 201.5 C 137.53125 201.28125 137.683594 201.027344 137.796875 200.734375 C 137.910156 200.441406 137.992188 200.128906 138.042969 199.796875 C 138.09375 199.464844 138.125 199.125 138.136719 198.773438 C 138.148438 198.421875 138.152344 198.074219 138.152344 197.730469 C 138.152344 196.488281 138.089844 195.253906 137.964844 194.023438 C 137.839844 192.792969 137.734375 191.5625 137.636719 190.328125 L 143 189.976562 C 143.230469 192.410156 143.347656 194.847656 143.347656 197.285156 Z M 143.347656 197.285156 "/>
<path style=" stroke:none;fill-rule:nonzero;fill:rgb(0%,0%,0%);fill-opacity:1;" d="M 158.386719 193.910156 C 158.386719 194.488281 158.359375 195.125 158.304688 195.820312 C 158.25 196.515625 158.160156 197.234375 158.035156 197.976562 C 157.910156 198.71875 157.746094 199.46875 157.546875 200.230469 C 157.347656 200.992188 157.101562 201.722656 156.804688 202.425781 C 156.507812 203.128906 156.164062 203.789062 155.769531 204.402344 C 155.375 205.015625 154.921875 205.546875 154.414062 206.007812 C 153.902344 206.464844 153.328125 206.820312 152.699219 207.085938 C 152.066406 207.347656 151.363281 207.476562 150.589844 207.476562 C 149.6875 207.476562 148.902344 207.332031 148.234375 207.039062 C 147.566406 206.746094 146.996094 206.351562 146.519531 205.851562 C 146.042969 205.359375 145.652344 204.78125 145.351562 204.121094 C 145.046875 203.460938 144.808594 202.761719 144.636719 202.023438 C 144.464844 201.285156 144.347656 200.53125 144.277344 199.761719 C 144.214844 198.992188 144.179688 198.253906 144.179688 197.542969 C 144.179688 196.449219 144.234375 195.359375 144.34375 194.269531 C 144.453125 193.179688 144.609375 192.089844 144.8125 191.003906 L 150.289062 191.214844 C 150.078125 192.441406 149.894531 193.675781 149.742188 194.910156 C 149.59375 196.148438 149.515625 197.394531 149.515625 198.644531 C 149.515625 198.777344 149.523438 198.972656 149.535156 199.234375 C 149.546875 199.496094 149.566406 199.789062 149.597656 200.113281 C 149.628906 200.4375 149.671875 200.769531 149.730469 201.109375 C 149.789062 201.449219 149.871094 201.757812 149.972656 202.039062 C 150.074219 202.320312 150.195312 202.550781 150.339844 202.730469 C 150.484375 202.910156 150.65625 203 150.851562 203 C 151.074219 203 151.277344 202.894531 151.457031 202.679688 C 151.636719 202.464844 151.792969 202.175781 151.933594 201.816406 C 152.066406 201.460938 152.1875 201.046875 152.289062 200.578125 C 152.390625 200.109375 152.476562 199.621094 152.546875 199.113281 C 152.617188 198.605469 152.671875 198.097656 152.714844 197.589844 C 152.757812 197.082031 152.792969 196.609375 152.820312 196.171875 C 152.847656 195.734375 152.867188 195.347656 152.875 195.011719 C 152.882812 194.675781 152.886719 194.425781 152.886719 194.261719 C 152.886719 193.652344 152.875 193.046875 152.855469 192.441406 C 152.835938 191.835938 152.808594 191.234375 152.769531 190.632812 L 158.246094 190.632812 C 158.335938 191.707031 158.386719 192.800781 158.386719 193.910156 Z M 158.386719 193.910156 "/>
<path style=" stroke:none;fill-rule:nonzero;fill:rgb(0%,0%,0%);fill-opacity:1;" d="M 175.234375 190.140625 L 174.390625 206.023438 L 168.261719 206.585938 L 164.984375 198.082031 L 164.46875 206.75 L 159.203125 206.75 L 159.625 190.140625 L 165.476562 189.855469 L 169.523438 198.292969 L 169.710938 190.324219 Z M 175.234375 190.140625 "/>
<path style=" stroke:none;fill-rule:nonzero;fill:rgb(0%,0%,0%);fill-opacity:1;" d="M 182.5 190.441406 L 181.214844 206.398438 L 176.277344 206.65625 L 176.277344 190.769531 Z M 182.5 190.441406 "/>
<path style=" stroke:none;fill-rule:nonzero;fill:rgb(0%,0%,0%);fill-opacity:1;" d="M 197.597656 198.667969 C 197.597656 199.375 197.515625 200.0625 197.351562 200.722656 C 197.1875 201.382812 196.953125 202 196.644531 202.578125 C 196.335938 203.15625 195.960938 203.683594 195.519531 204.164062 C 195.078125 204.644531 194.582031 205.058594 194.035156 205.402344 C 193.484375 205.746094 192.886719 206.011719 192.238281 206.203125 C 191.589844 206.394531 190.902344 206.492188 190.179688 206.492188 C 189.476562 206.492188 188.808594 206.402344 188.171875 206.222656 C 187.535156 206.042969 186.941406 205.789062 186.386719 205.464844 C 185.832031 205.140625 185.332031 204.75 184.882812 204.296875 C 184.433594 203.839844 184.050781 203.328125 183.738281 202.773438 C 183.421875 202.214844 183.175781 201.613281 183 200.972656 C 182.824219 200.332031 182.734375 199.667969 182.734375 198.96875 C 182.734375 198.289062 182.820312 197.625 182.980469 196.972656 C 183.144531 196.320312 183.382812 195.707031 183.691406 195.128906 C 184 194.550781 184.371094 194.019531 184.808594 193.535156 C 185.242188 193.050781 185.734375 192.632812 186.277344 192.28125 C 186.816406 191.929688 187.40625 191.65625 188.039062 191.460938 C 188.667969 191.265625 189.335938 191.167969 190.039062 191.167969 C 191.167969 191.167969 192.199219 191.34375 193.132812 191.695312 C 194.066406 192.046875 194.859375 192.550781 195.519531 193.203125 C 196.179688 193.851562 196.691406 194.644531 197.054688 195.566406 C 197.414062 196.492188 197.597656 197.527344 197.597656 198.667969 Z M 192.402344 198.972656 C 192.402344 198.636719 192.351562 198.308594 192.253906 197.992188 C 192.15625 197.675781 192.015625 197.394531 191.828125 197.148438 C 191.640625 196.902344 191.410156 196.703125 191.132812 196.550781 C 190.855469 196.398438 190.535156 196.324219 190.179688 196.324219 C 189.8125 196.324219 189.484375 196.390625 189.195312 196.523438 C 188.90625 196.65625 188.660156 196.835938 188.453125 197.066406 C 188.246094 197.296875 188.085938 197.566406 187.976562 197.875 C 187.867188 198.183594 187.8125 198.511719 187.8125 198.855469 C 187.8125 199.183594 187.863281 199.507812 187.953125 199.835938 C 188.046875 200.167969 188.1875 200.460938 188.375 200.726562 C 188.5625 200.992188 188.796875 201.207031 189.074219 201.371094 C 189.347656 201.535156 189.671875 201.617188 190.039062 201.617188 C 190.40625 201.617188 190.734375 201.546875 191.027344 201.402344 C 191.320312 201.257812 191.566406 201.0625 191.769531 200.816406 C 191.972656 200.570312 192.128906 200.285156 192.238281 199.964844 C 192.347656 199.648438 192.402344 199.316406 192.402344 198.972656 Z M 192.402344 198.972656 "/>
<path style=" stroke:none;fill-rule:nonzero;fill:rgb(0%,0%,0%);fill-opacity:1;" d="M 212.128906 195.644531 C 212.128906 196.253906 212.078125 196.804688 211.972656 197.300781 C 211.867188 197.796875 211.699219 198.253906 211.472656 198.667969 C 211.246094 199.082031 210.953125 199.460938 210.597656 199.8125 C 210.238281 200.167969 209.804688 200.503906 209.296875 200.824219 L 212.082031 205.789062 L 206.816406 206.820312 L 205.015625 201.828125 L 203.5625 201.878906 L 203.351562 206.75 L 198.320312 206.75 C 198.359375 204.96875 198.398438 203.195312 198.433594 201.433594 C 198.46875 199.667969 198.507812 197.894531 198.554688 196.113281 C 198.570312 195.214844 198.585938 194.324219 198.601562 193.445312 C 198.617188 192.5625 198.648438 191.671875 198.695312 190.773438 C 199.242188 190.570312 199.78125 190.402344 200.3125 190.269531 C 200.839844 190.136719 201.375 190.03125 201.90625 189.957031 C 202.441406 189.882812 202.984375 189.835938 203.535156 189.804688 C 204.085938 189.777344 204.648438 189.765625 205.226562 189.765625 C 206.113281 189.765625 206.976562 189.886719 207.804688 190.132812 C 208.636719 190.378906 209.371094 190.75 210.011719 191.242188 C 210.648438 191.734375 211.164062 192.347656 211.550781 193.082031 C 211.9375 193.8125 212.128906 194.667969 212.128906 195.644531 Z M 206.886719 196.019531 C 206.886719 195.691406 206.84375 195.390625 206.753906 195.117188 C 206.664062 194.84375 206.53125 194.609375 206.355469 194.40625 C 206.179688 194.210938 205.960938 194.054688 205.699219 193.941406 C 205.4375 193.828125 205.132812 193.769531 204.78125 193.769531 C 204.625 193.769531 204.472656 193.78125 204.324219 193.800781 C 204.175781 193.820312 204.03125 193.847656 203.890625 193.886719 L 203.703125 198.246094 L 203.984375 198.246094 C 204.320312 198.246094 204.660156 198.203125 205.007812 198.117188 C 205.355469 198.03125 205.667969 197.898438 205.945312 197.71875 C 206.222656 197.539062 206.449219 197.308594 206.625 197.027344 C 206.800781 196.746094 206.886719 196.410156 206.886719 196.019531 Z M 206.886719 196.019531 "/>
<path style=" stroke:none;fill-rule:nonzero;fill:rgb(0%,47.058824%,54.117647%);fill-opacity:1;" d="M 236.886719 203.710938 C 236.390625 204.332031 235.78125 204.875 235.054688 205.339844 C 234.328125 205.804688 233.550781 206.1875 232.71875 206.492188 C 231.886719 206.800781 231.035156 207.027344 230.160156 207.183594 C 229.285156 207.335938 228.453125 207.410156 227.664062 207.410156 C 226.136719 207.410156 224.730469 207.136719 223.449219 206.589844 C 222.164062 206.042969 221.054688 205.285156 220.121094 204.320312 C 219.191406 203.355469 218.460938 202.222656 217.9375 200.914062 C 217.410156 199.605469 217.144531 198.199219 217.144531 196.691406 C 217.144531 195.542969 217.277344 194.417969 217.542969 193.316406 C 217.804688 192.214844 218.179688 191.175781 218.671875 190.203125 C 219.160156 189.226562 219.757812 188.332031 220.464844 187.511719 C 221.167969 186.695312 221.96875 185.992188 222.863281 185.402344 C 223.757812 184.8125 224.738281 184.355469 225.800781 184.027344 C 226.863281 183.703125 228 183.539062 229.210938 183.539062 C 229.664062 183.539062 230.148438 183.554688 230.664062 183.59375 C 231.179688 183.628906 231.695312 183.691406 232.207031 183.78125 C 232.714844 183.871094 233.210938 183.996094 233.699219 184.15625 C 234.183594 184.3125 234.625 184.507812 235.023438 184.738281 L 234.582031 190.78125 C 233.992188 190.558594 233.382812 190.40625 232.757812 190.328125 C 232.132812 190.25 231.519531 190.210938 230.917969 190.210938 C 230.074219 190.210938 229.289062 190.339844 228.554688 190.597656 C 227.824219 190.855469 227.1875 191.226562 226.644531 191.710938 C 226.101562 192.195312 225.675781 192.789062 225.359375 193.484375 C 225.042969 194.179688 224.886719 194.964844 224.886719 195.839844 C 224.886719 196.386719 224.957031 196.917969 225.105469 197.429688 C 225.253906 197.9375 225.476562 198.390625 225.777344 198.789062 C 226.078125 199.183594 226.449219 199.5 226.898438 199.742188 C 227.34375 199.984375 227.863281 200.109375 228.453125 200.109375 C 228.851562 200.109375 229.265625 200.054688 229.691406 199.949219 C 230.121094 199.84375 230.484375 199.664062 230.789062 199.410156 L 230.855469 198.179688 L 227.0625 198.113281 L 227.253906 193.371094 C 228.820312 193.320312 230.390625 193.273438 231.960938 193.238281 C 233.527344 193.199219 235.105469 193.152344 236.695312 193.085938 Z M 236.886719 203.710938 "/>
<path style=" stroke:none;fill-rule:nonzero;fill:rgb(0%,47.058824%,54.117647%);fill-opacity:1;" d="M 262.503906 183.882812 L 261.050781 207.09375 L 253.851562 207.410156 L 253.914062 195.171875 L 250.660156 205.039062 L 247.878906 205.039062 L 245.382812 196.21875 L 245.351562 206.460938 L 238.054688 206.683594 L 238.371094 184.832031 L 246.488281 184.515625 L 249.710938 194.984375 L 254.007812 183.882812 Z M 262.503906 183.882812 "/>
<path style=" stroke:none;fill-rule:nonzero;fill:rgb(0%,0%,0%);fill-opacity:1;" d="M 283.398438 195.667969 C 283.398438 196.425781 283.285156 197.097656 283.058594 197.683594 C 282.832031 198.269531 282.523438 198.78125 282.128906 199.21875 C 281.734375 199.65625 281.273438 200.023438 280.742188 200.328125 C 280.210938 200.632812 279.644531 200.882812 279.039062 201.074219 C 278.433594 201.265625 277.808594 201.40625 277.160156 201.496094 C 276.511719 201.585938 275.875 201.632812 275.253906 201.640625 L 275.253906 207.101562 L 269.800781 207.101562 C 269.800781 205.3125 269.804688 203.53125 269.8125 201.757812 C 269.820312 199.988281 269.832031 198.199219 269.847656 196.394531 C 269.863281 195.441406 269.867188 194.488281 269.859375 193.535156 C 269.851562 192.582031 269.871094 191.621094 269.917969 190.652344 C 270.914062 190.355469 271.914062 190.132812 272.910156 189.984375 C 273.910156 189.839844 274.941406 189.765625 276 189.765625 C 276.601562 189.765625 277.203125 189.8125 277.804688 189.910156 C 278.402344 190.007812 278.980469 190.160156 279.527344 190.371094 C 280.078125 190.582031 280.589844 190.847656 281.0625 191.164062 C 281.535156 191.480469 281.941406 191.855469 282.285156 192.292969 C 282.628906 192.730469 282.898438 193.230469 283.097656 193.789062 C 283.296875 194.347656 283.398438 194.972656 283.398438 195.667969 Z M 278.203125 196.066406 C 278.203125 195.558594 278.046875 195.164062 277.742188 194.878906 C 277.429688 194.59375 277.03125 194.449219 276.539062 194.449219 C 276.375 194.449219 276.207031 194.464844 276.03125 194.492188 C 275.855469 194.519531 275.691406 194.550781 275.535156 194.589844 L 275.394531 198.011719 C 275.503906 198.027344 275.609375 198.035156 275.710938 198.035156 C 275.8125 198.035156 275.917969 198.035156 276.027344 198.035156 C 276.308594 198.035156 276.578125 197.988281 276.839844 197.894531 C 277.101562 197.800781 277.332031 197.664062 277.535156 197.488281 C 277.738281 197.3125 277.902344 197.105469 278.019531 196.867188 C 278.140625 196.628906 278.203125 196.363281 278.203125 196.066406 Z M 278.203125 196.066406 "/>
<path style=" stroke:none;fill-rule:nonzero;fill:rgb(0%,0%,0%);fill-opacity:1;" d="M 297.753906 195.644531 C 297.753906 196.253906 297.703125 196.804688 297.597656 197.300781 C 297.492188 197.796875 297.328125 198.253906 297.097656 198.667969 C 296.871094 199.082031 296.578125 199.460938 296.222656 199.8125 C 295.863281 200.167969 295.429688 200.503906 294.921875 200.824219 L 297.707031 205.789062 L 292.441406 206.820312 L 290.640625 201.828125 L 289.1875 201.878906 L 288.976562 206.75 L 283.945312 206.75 C 283.984375 204.96875 284.023438 203.195312 284.058594 201.433594 C 284.09375 199.667969 284.132812 197.894531 284.179688 196.113281 C 284.195312 195.214844 284.210938 194.324219 284.226562 193.445312 C 284.242188 192.5625 284.273438 191.671875 284.320312 190.773438 C 284.867188 190.570312 285.40625 190.402344 285.9375 190.269531 C 286.46875 190.136719 287 190.03125 287.535156 189.957031 C 288.070312 189.882812 288.609375 189.835938 289.160156 189.804688 C 289.710938 189.777344 290.273438 189.765625 290.851562 189.765625 C 291.742188 189.765625 292.601562 189.886719 293.429688 190.132812 C 294.261719 190.378906 294.996094 190.75 295.636719 191.242188 C 296.277344 191.734375 296.789062 192.347656 297.175781 193.082031 C 297.5625 193.8125 297.753906 194.667969 297.753906 195.644531 Z M 292.511719 196.019531 C 292.511719 195.691406 292.46875 195.390625 292.378906 195.117188 C 292.289062 194.84375 292.15625 194.609375 291.980469 194.40625 C 291.804688 194.210938 291.585938 194.054688 291.324219 193.941406 C 291.0625 193.828125 290.757812 193.769531 290.40625 193.769531 C 290.25 193.769531 290.097656 193.78125 289.949219 193.800781 C 289.800781 193.820312 289.65625 193.847656 289.515625 193.886719 L 289.328125 198.246094 L 289.609375 198.246094 C 289.945312 198.246094 290.285156 198.203125 290.632812 198.117188 C 290.980469 198.03125 291.292969 197.898438 291.570312 197.71875 C 291.847656 197.539062 292.074219 197.308594 292.25 197.027344 C 292.425781 196.746094 292.511719 196.410156 292.511719 196.019531 Z M 292.511719 196.019531 "/>
<path style=" stroke:none;fill-rule:nonzero;fill:rgb(0%,0%,0%);fill-opacity:1;" d="M 312.871094 198.667969 C 312.871094 199.375 312.789062 200.0625 312.625 200.722656 C 312.460938 201.382812 312.226562 202 311.917969 202.578125 C 311.609375 203.15625 311.234375 203.683594 310.796875 204.164062 C 310.355469 204.644531 309.859375 205.058594 309.308594 205.402344 C 308.761719 205.746094 308.160156 206.011719 307.511719 206.203125 C 306.867188 206.394531 306.179688 206.492188 305.453125 206.492188 C 304.75 206.492188 304.082031 206.402344 303.449219 206.222656 C 302.8125 206.042969 302.214844 205.789062 301.664062 205.464844 C 301.109375 205.140625 300.609375 204.75 300.160156 204.296875 C 299.710938 203.839844 299.328125 203.328125 299.011719 202.773438 C 298.695312 202.214844 298.449219 201.613281 298.277344 200.972656 C 298.101562 200.332031 298.011719 199.667969 298.011719 198.96875 C 298.011719 198.289062 298.09375 197.625 298.257812 196.972656 C 298.421875 196.320312 298.65625 195.707031 298.964844 195.128906 C 299.273438 194.550781 299.644531 194.019531 300.082031 193.535156 C 300.519531 193.050781 301.007812 192.632812 301.550781 192.28125 C 302.09375 191.929688 302.679688 191.65625 303.3125 191.460938 C 303.945312 191.265625 304.613281 191.167969 305.3125 191.167969 C 306.445312 191.167969 307.476562 191.34375 308.410156 191.695312 C 309.339844 192.046875 310.136719 192.550781 310.796875 193.203125 C 311.457031 193.851562 311.964844 194.644531 312.328125 195.566406 C 312.691406 196.492188 312.871094 197.527344 312.871094 198.667969 Z M 307.675781 198.972656 C 307.675781 198.636719 307.628906 198.308594 307.53125 197.992188 C 307.433594 197.675781 307.289062 197.394531 307.105469 197.148438 C 306.917969 196.902344 306.683594 196.703125 306.40625 196.550781 C 306.132812 196.398438 305.8125 196.324219 305.453125 196.324219 C 305.085938 196.324219 304.761719 196.390625 304.472656 196.523438 C 304.183594 196.65625 303.933594 196.835938 303.730469 197.066406 C 303.523438 197.296875 303.363281 197.566406 303.253906 197.875 C 303.144531 198.183594 303.089844 198.511719 303.089844 198.855469 C 303.089844 199.183594 303.136719 199.507812 303.230469 199.835938 C 303.324219 200.167969 303.464844 200.460938 303.652344 200.726562 C 303.839844 200.992188 304.070312 201.207031 304.347656 201.371094 C 304.625 201.535156 304.949219 201.617188 305.3125 201.617188 C 305.679688 201.617188 306.011719 201.546875 306.304688 201.402344 C 306.59375 201.257812 306.84375 201.0625 307.046875 200.816406 C 307.25 200.570312 307.402344 200.285156 307.515625 199.964844 C 307.621094 199.648438 307.675781 199.316406 307.675781 198.972656 Z M 307.675781 198.972656 "/>
<path style=" stroke:none;fill-rule:nonzero;fill:rgb(0%,0%,0%);fill-opacity:1;" d="M 327.816406 204.546875 C 327.449219 205.007812 326.996094 205.410156 326.457031 205.753906 C 325.921875 206.097656 325.34375 206.382812 324.726562 206.609375 C 324.109375 206.835938 323.476562 207.003906 322.832031 207.117188 C 322.183594 207.230469 321.566406 207.289062 320.984375 207.289062 C 319.851562 207.289062 318.808594 207.085938 317.859375 206.679688 C 316.90625 206.273438 316.085938 205.710938 315.394531 204.996094 C 314.703125 204.28125 314.164062 203.441406 313.773438 202.472656 C 313.382812 201.503906 313.191406 200.460938 313.191406 199.34375 C 313.191406 198.496094 313.289062 197.660156 313.480469 196.84375 C 313.675781 196.027344 313.957031 195.257812 314.320312 194.539062 C 314.679688 193.816406 315.125 193.152344 315.648438 192.546875 C 316.167969 191.941406 316.761719 191.417969 317.425781 190.980469 C 318.085938 190.542969 318.8125 190.203125 319.601562 189.960938 C 320.390625 189.71875 321.234375 189.597656 322.128906 189.597656 C 322.464844 189.597656 322.824219 189.613281 323.207031 189.640625 C 323.589844 189.667969 323.96875 189.714844 324.347656 189.78125 C 324.726562 189.847656 325.09375 189.9375 325.453125 190.054688 C 325.8125 190.171875 326.140625 190.316406 326.4375 190.488281 L 326.105469 194.964844 C 325.671875 194.800781 325.21875 194.6875 324.757812 194.628906 C 324.292969 194.570312 323.835938 194.542969 323.394531 194.542969 C 322.769531 194.542969 322.183594 194.636719 321.644531 194.828125 C 321.101562 195.019531 320.628906 195.296875 320.226562 195.65625 C 319.824219 196.015625 319.507812 196.453125 319.273438 196.96875 C 319.039062 197.484375 318.921875 198.066406 318.921875 198.714844 C 318.921875 199.121094 318.976562 199.511719 319.085938 199.890625 C 319.195312 200.269531 319.363281 200.605469 319.585938 200.898438 C 319.808594 201.191406 320.085938 201.425781 320.414062 201.605469 C 320.746094 201.785156 321.128906 201.875 321.566406 201.875 C 321.863281 201.875 322.167969 201.835938 322.484375 201.757812 C 322.800781 201.679688 323.074219 201.546875 323.300781 201.359375 L 323.347656 200.445312 L 320.539062 200.402344 L 320.679688 196.886719 C 321.839844 196.847656 323.003906 196.8125 324.164062 196.785156 C 325.328125 196.757812 326.496094 196.722656 327.675781 196.675781 Z M 327.816406 204.546875 "/>
<path style=" stroke:none;fill-rule:nonzero;fill:rgb(0%,0%,0%);fill-opacity:1;" d="M 342.417969 195.644531 C 342.417969 196.253906 342.367188 196.804688 342.261719 197.300781 C 342.15625 197.796875 341.988281 198.253906 341.761719 198.667969 C 341.535156 199.082031 341.242188 199.460938 340.886719 199.8125 C 340.527344 200.167969 340.09375 200.503906 339.585938 200.824219 L 342.371094 205.789062 L 337.105469 206.820312 L 335.304688 201.828125 L 333.851562 201.878906 L 333.640625 206.75 L 328.609375 206.75 C 328.648438 204.96875 328.6875 203.195312 328.722656 201.433594 C 328.757812 199.667969 328.796875 197.894531 328.84375 196.113281 C 328.859375 195.214844 328.875 194.324219 328.890625 193.445312 C 328.90625 192.5625 328.9375 191.671875 328.984375 190.773438 C 329.53125 190.570312 330.070312 190.402344 330.601562 190.269531 C 331.132812 190.136719 331.664062 190.03125 332.199219 189.957031 C 332.730469 189.882812 333.273438 189.835938 333.824219 189.804688 C 334.375 189.777344 334.9375 189.765625 335.515625 189.765625 C 336.40625 189.765625 337.265625 189.886719 338.09375 190.132812 C 338.925781 190.378906 339.660156 190.75 340.300781 191.242188 C 340.941406 191.734375 341.453125 192.347656 341.839844 193.082031 C 342.226562 193.8125 342.417969 194.667969 342.417969 195.644531 Z M 337.175781 196.019531 C 337.175781 195.691406 337.132812 195.390625 337.042969 195.117188 C 336.953125 194.84375 336.820312 194.609375 336.644531 194.40625 C 336.46875 194.210938 336.25 194.054688 335.988281 193.941406 C 335.726562 193.828125 335.421875 193.769531 335.070312 193.769531 C 334.914062 193.769531 334.761719 193.78125 334.613281 193.800781 C 334.464844 193.820312 334.320312 193.847656 334.179688 193.886719 L 333.992188 198.246094 L 334.273438 198.246094 C 334.609375 198.246094 334.949219 198.203125 335.296875 198.117188 C 335.644531 198.03125 335.957031 197.898438 336.234375 197.71875 C 336.511719 197.539062 336.738281 197.308594 336.914062 197.027344 C 337.089844 196.746094 337.175781 196.410156 337.175781 196.019531 Z M 337.175781 196.019531 "/>
<path style=" stroke:none;fill-rule:nonzero;fill:rgb(0%,0%,0%);fill-opacity:1;" d="M 357.980469 205.929688 L 352.175781 206.679688 L 351.476562 204.03125 L 348.808594 204.03125 L 348.222656 206.679688 L 342.253906 206.09375 L 346.914062 190.492188 L 353.417969 190.160156 Z M 351.054688 200.445312 L 350.164062 196.371094 L 349.296875 200.445312 Z M 351.054688 200.445312 "/>
<path style=" stroke:none;fill-rule:nonzero;fill:rgb(0%,0%,0%);fill-opacity:1;" d="M 376.316406 189.855469 L 375.238281 207.054688 L 369.902344 207.289062 L 369.949219 198.222656 L 367.539062 205.53125 L 365.480469 205.53125 L 363.632812 198.996094 L 363.609375 206.585938 L 358.203125 206.75 L 358.4375 190.558594 L 364.449219 190.324219 L 366.839844 198.082031 L 370.019531 189.855469 Z M 376.316406 189.855469 "/>
<path style=" stroke:none;fill-rule:nonzero;fill:rgb(0%,0%,0%);fill-opacity:1;" d="M 136.578125 236.730469 C 136.578125 238.015625 135.710938 239.296875 134.191406 239.296875 C 133.4375 239.296875 132.945312 239 132.636719 238.601562 L 132.636719 241.035156 L 131.414062 241.035156 L 131.414062 234.28125 L 132.636719 234.28125 L 132.636719 234.859375 C 132.945312 234.453125 133.4375 234.164062 134.191406 234.164062 C 135.710938 234.164062 136.578125 235.445312 136.578125 236.730469 Z M 135.328125 236.730469 C 135.328125 235.976562 134.84375 235.339844 134.007812 235.339844 C 133.15625 235.339844 132.6875 235.976562 132.6875 236.730469 C 132.6875 237.484375 133.15625 238.121094 134.007812 238.121094 C 134.84375 238.121094 135.328125 237.484375 135.328125 236.730469 Z M 135.328125 236.730469 "/>
<path style=" stroke:none;fill-rule:nonzero;fill:rgb(0%,0%,0%);fill-opacity:1;" d="M 140.296875 234.164062 L 140.296875 235.496094 C 138.851562 235.324219 138.667969 236.25 138.667969 237.15625 L 138.667969 239.171875 L 137.445312 239.171875 L 137.445312 234.28125 L 138.667969 234.28125 L 138.667969 235.082031 C 139.035156 234.472656 139.710938 234.164062 140.296875 234.164062 Z M 140.296875 234.164062 "/>
<path style=" stroke:none;fill-rule:nonzero;fill:rgb(0%,0%,0%);fill-opacity:1;" d="M 145.703125 237.203125 L 142.078125 237.203125 C 142.253906 237.859375 142.792969 238.207031 143.46875 238.207031 C 144.027344 238.207031 144.414062 237.90625 144.558594 237.726562 L 145.539062 238.304688 C 145.144531 238.855469 144.394531 239.296875 143.46875 239.296875 C 141.847656 239.296875 140.777344 238.214844 140.777344 236.730469 C 140.777344 235.195312 141.925781 234.164062 143.273438 234.164062 C 144.75 234.164062 145.925781 235.273438 145.703125 237.203125 Z M 144.507812 236.257812 C 144.382812 235.621094 143.949219 235.253906 143.292969 235.253906 C 142.695312 235.253906 142.226562 235.628906 142.078125 236.257812 Z M 144.507812 236.257812 "/>
<path style=" stroke:none;fill-rule:nonzero;fill:rgb(0%,0%,0%);fill-opacity:1;" d="M 150.339844 237.667969 C 150.339844 238.632812 149.632812 239.296875 148.265625 239.296875 C 147.332031 239.296875 146.386719 238.921875 146.164062 238.101562 L 147.339844 237.734375 C 147.378906 237.9375 147.570312 238.265625 148.285156 238.265625 C 148.796875 238.265625 149.085938 238.082031 149.085938 237.753906 C 149.085938 237.289062 148.382812 237.308594 147.804688 237.183594 C 146.859375 236.992188 146.375 236.539062 146.375 235.699219 C 146.375 234.773438 147.148438 234.164062 148.292969 234.164062 C 149.132812 234.164062 149.960938 234.578125 150.164062 235.429688 L 149.054688 235.699219 C 148.996094 235.445312 148.757812 235.195312 148.292969 235.195312 C 147.9375 235.195312 147.570312 235.332031 147.570312 235.699219 C 147.570312 236.132812 148.226562 236.160156 148.613281 236.25 C 149.808594 236.507812 150.339844 236.835938 150.339844 237.667969 Z M 150.339844 237.667969 "/>
<path style=" stroke:none;fill-rule:nonzero;fill:rgb(0%,0%,0%);fill-opacity:1;" d="M 155.792969 237.203125 L 152.167969 237.203125 C 152.339844 237.859375 152.882812 238.207031 153.554688 238.207031 C 154.117188 238.207031 154.5 237.90625 154.644531 237.726562 L 155.628906 238.304688 C 155.234375 238.855469 154.480469 239.296875 153.554688 239.296875 C 151.9375 239.296875 150.867188 238.214844 150.867188 236.730469 C 150.867188 235.195312 152.011719 234.164062 153.363281 234.164062 C 154.839844 234.164062 156.015625 235.273438 155.792969 237.203125 Z M 154.597656 236.257812 C 154.472656 235.621094 154.039062 235.253906 153.382812 235.253906 C 152.785156 235.253906 152.3125 235.628906 152.167969 236.257812 Z M 154.597656 236.257812 "/>
<path style=" stroke:none;fill-rule:nonzero;fill:rgb(0%,0%,0%);fill-opacity:1;" d="M 161.121094 236.199219 L 161.121094 239.171875 L 159.894531 239.171875 L 159.894531 236.449219 C 159.894531 235.824219 159.636719 235.351562 158.941406 235.351562 C 158.21875 235.351562 157.898438 235.890625 157.898438 236.449219 L 157.898438 239.171875 L 156.6875 239.171875 L 156.6875 234.28125 L 157.898438 234.28125 L 157.898438 234.878906 C 158.167969 234.484375 158.613281 234.164062 159.328125 234.164062 C 160.5625 234.164062 161.121094 235.167969 161.121094 236.199219 Z M 161.121094 236.199219 "/>
<path style=" stroke:none;fill-rule:nonzero;fill:rgb(0%,0%,0%);fill-opacity:1;" d="M 163.808594 235.398438 L 163.808594 237.183594 C 163.808594 237.746094 163.882812 238.070312 164.558594 238.070312 C 164.644531 238.070312 164.761719 238.0625 164.847656 238.054688 L 164.847656 239.171875 C 164.722656 239.210938 164.589844 239.238281 164.339844 239.238281 C 163.085938 239.238281 162.582031 238.398438 162.582031 237.386719 L 162.582031 235.398438 L 161.890625 235.398438 L 161.890625 234.28125 L 162.582031 234.28125 L 162.582031 233.257812 L 163.808594 233.257812 L 163.808594 234.28125 L 164.847656 234.28125 L 164.847656 235.398438 Z M 163.808594 235.398438 "/>
<path style=" stroke:none;fill-rule:nonzero;fill:rgb(0%,0%,0%);fill-opacity:1;" d="M 170.398438 237.203125 L 166.773438 237.203125 C 166.949219 237.859375 167.488281 238.207031 168.164062 238.207031 C 168.722656 238.207031 169.109375 237.90625 169.253906 237.726562 L 170.238281 238.304688 C 169.839844 238.855469 169.089844 239.296875 168.164062 239.296875 C 166.542969 239.296875 165.472656 238.214844 165.472656 236.730469 C 165.472656 235.195312 166.621094 234.164062 167.972656 234.164062 C 169.445312 234.164062 170.621094 235.273438 170.398438 237.203125 Z M 169.203125 236.257812 C 169.078125 235.621094 168.644531 235.253906 167.988281 235.253906 C 167.390625 235.253906 166.917969 235.628906 166.773438 236.257812 Z M 169.203125 236.257812 "/>
<path style=" stroke:none;fill-rule:nonzero;fill:rgb(0%,0%,0%);fill-opacity:1;" d="M 176.171875 232.417969 L 176.171875 239.171875 L 174.945312 239.171875 L 174.945312 238.601562 C 174.628906 239 174.148438 239.296875 173.386719 239.296875 C 171.871094 239.296875 171.003906 238.015625 171.003906 236.730469 C 171.003906 235.445312 171.871094 234.164062 173.386719 234.164062 C 174.148438 234.164062 174.628906 234.453125 174.945312 234.859375 L 174.945312 232.417969 Z M 174.890625 236.730469 C 174.890625 235.976562 174.417969 235.339844 173.578125 235.339844 C 172.738281 235.339844 172.257812 235.976562 172.257812 236.730469 C 172.257812 237.484375 172.738281 238.121094 173.578125 238.121094 C 174.417969 238.121094 174.890625 237.484375 174.890625 236.730469 Z M 174.890625 236.730469 "/>
<path style=" stroke:none;fill-rule:nonzero;fill:rgb(0%,0%,0%);fill-opacity:1;" d="M 184.996094 236.730469 C 184.996094 238.015625 184.128906 239.296875 182.613281 239.296875 C 181.855469 239.296875 181.363281 239 181.054688 238.601562 L 181.054688 239.171875 L 179.828125 239.171875 L 179.828125 232.417969 L 181.054688 232.417969 L 181.054688 234.859375 C 181.363281 234.453125 181.855469 234.164062 182.613281 234.164062 C 184.128906 234.164062 184.996094 235.445312 184.996094 236.730469 Z M 183.742188 236.730469 C 183.742188 235.976562 183.261719 235.339844 182.421875 235.339844 C 181.585938 235.339844 181.101562 235.976562 181.101562 236.730469 C 181.101562 237.484375 181.585938 238.121094 182.421875 238.121094 C 183.261719 238.121094 183.742188 237.484375 183.742188 236.730469 Z M 183.742188 236.730469 "/>
<path style=" stroke:none;fill-rule:nonzero;fill:rgb(0%,0%,0%);fill-opacity:1;" d="M 190.289062 234.28125 L 187.617188 241.035156 L 186.363281 241.035156 L 187.257812 238.882812 L 185.234375 234.28125 L 186.554688 234.28125 L 187.820312 237.511719 L 188.964844 234.28125 Z M 190.289062 234.28125 "/>
<path style=" stroke:none;fill-rule:nonzero;fill:rgb(0%,0%,0%);fill-opacity:1;" d="M 198.363281 118.476562 C 206.796875 127.761719 213.609375 136.484375 218.804688 144.648438 C 219.785156 139.386719 222.125 123.816406 222.125 123.816406 L 236.492188 124.738281 L 223.617188 182.097656 C 223.617188 182.097656 210.652344 160.105469 206.128906 153.890625 L 202.785156 175.246094 L 187.167969 175.40625 C 187.167969 175.40625 193.027344 146.964844 198.363281 118.476562 Z M 198.363281 118.476562 "/>
<path style=" stroke:none;fill-rule:nonzero;fill:rgb(0%,46.666667%,53.72549%);fill-opacity:1;" d="M 199.375 122.09375 C 206.691406 130.355469 212.746094 138.230469 217.402344 145.546875 L 219.667969 149.101562 L 220.4375 144.957031 C 221.242188 140.636719 222.925781 129.628906 223.539062 125.574219 L 234.445312 126.273438 L 222.914062 177.648438 C 219.023438 171.121094 210.917969 157.648438 207.472656 152.914062 L 205.109375 149.664062 L 204.488281 153.636719 L 201.363281 173.597656 L 189.210938 173.722656 C 190.574219 167.042969 195.085938 144.828125 199.375 122.09375 M 198.363281 118.476562 C 193.027344 146.964844 187.167969 175.40625 187.167969 175.40625 L 202.785156 175.246094 L 206.128906 153.890625 C 210.652344 160.105469 223.617188 182.097656 223.617188 182.097656 L 236.492188 124.738281 L 222.125 123.816406 C 222.125 123.816406 219.785156 139.390625 218.804688 144.652344 C 213.609375 136.484375 206.796875 127.761719 198.363281 118.476562 Z M 198.363281 118.476562 "/>
<path style=" stroke:none;fill-rule:nonzero;fill:rgb(0%,0%,0%);fill-opacity:1;" d="M 180.371094 120.546875 C 184.371094 131.992188 189.367188 149.300781 195.359375 172.476562 C 190.648438 173.378906 186.328125 174.46875 182.402344 175.75 L 180.644531 167.695312 C 176.878906 167.742188 173.761719 168.039062 171.296875 168.585938 C 169.800781 171.859375 168.496094 174.730469 167.386719 177.195312 C 163.316406 176.589844 158.933594 176.152344 154.234375 175.882812 Z M 177.351562 153 C 176.414062 154.761719 175.652344 156.277344 175.074219 157.550781 C 176.285156 157.402344 177.433594 157.222656 178.527344 157.007812 C 178.414062 156.167969 178.023438 154.832031 177.351562 153 Z M 177.351562 153 "/>
<path style=" stroke:none;fill-rule:nonzero;fill:rgb(0%,46.666667%,53.72549%);fill-opacity:1;" d="M 180.117188 124.972656 C 183.757812 135.949219 188.183594 151.457031 193.308594 171.1875 C 189.882812 171.890625 186.644531 172.703125 183.636719 173.617188 L 182.269531 167.339844 L 181.980469 166.011719 L 180.621094 166.027344 C 176.761719 166.078125 173.503906 166.394531 170.9375 166.960938 L 170.128906 167.140625 L 169.785156 167.894531 C 168.511719 170.679688 167.382812 173.171875 166.386719 175.371094 C 163.363281 174.953125 160.144531 174.621094 156.785156 174.378906 L 180.117188 124.972656 M 172.328125 159.566406 L 175.277344 159.203125 C 176.519531 159.050781 177.71875 158.863281 178.84375 158.640625 L 180.378906 158.339844 L 180.171875 156.789062 C 180.046875 155.820312 179.632812 154.390625 178.914062 152.425781 L 177.632812 148.933594 L 175.886719 152.214844 C 174.933594 154 174.152344 155.566406 173.5625 156.859375 L 172.328125 159.566406 M 180.371094 120.546875 L 154.238281 175.882812 C 158.933594 176.152344 163.316406 176.589844 167.386719 177.195312 C 168.5 174.730469 169.800781 171.859375 171.296875 168.585938 C 173.761719 168.039062 176.878906 167.742188 180.644531 167.691406 L 182.402344 175.75 C 186.328125 174.46875 190.648438 173.375 195.359375 172.476562 C 189.367188 149.300781 184.371094 131.992188 180.371094 120.546875 Z M 175.074219 157.550781 C 175.652344 156.277344 176.414062 154.761719 177.351562 153 C 178.023438 154.832031 178.414062 156.167969 178.527344 157.007812 C 177.433594 157.222656 176.285156 157.402344 175.074219 157.550781 Z M 175.074219 157.550781 "/>
<path style=" stroke:none;fill-rule:nonzero;fill:rgb(0%,0%,0%);fill-opacity:1;" d="M 262.546875 156.191406 L 259.144531 172.496094 C 244.773438 174.359375 235.910156 170.449219 232.546875 160.773438 C 231.050781 154.769531 231.925781 148.09375 235.175781 140.746094 C 242.300781 127.652344 253.449219 122.0625 268.617188 123.984375 L 265.171875 142.105469 C 260.144531 140.535156 255.726562 141.0625 251.917969 143.695312 C 248.109375 146.324219 246.972656 149.671875 248.515625 153.742188 C 250.628906 157.128906 255.304688 157.945312 262.546875 156.191406 Z M 262.546875 156.191406 "/>
<path style=" stroke:none;fill-rule:nonzero;fill:rgb(0%,46.666667%,53.72549%);fill-opacity:1;" d="M 262.996094 125.28125 C 264.175781 125.28125 265.398438 125.335938 266.648438 125.445312 L 263.875 140.035156 C 262.46875 139.71875 261.101562 139.558594 259.785156 139.558594 C 256.59375 139.558594 253.628906 140.488281 250.972656 142.324219 C 246.53125 145.390625 245.144531 149.542969 246.960938 154.332031 L 247.015625 154.484375 L 247.105469 154.625 C 248.816406 157.363281 251.816406 158.753906 256.03125 158.753906 C 257.351562 158.753906 258.8125 158.613281 260.398438 158.339844 L 257.761719 170.988281 C 255.953125 171.183594 254.230469 171.285156 252.625 171.285156 C 242.789062 171.285156 236.742188 167.691406 234.144531 160.296875 C 232.773438 154.726562 233.621094 148.394531 236.667969 141.480469 C 242.621094 130.578125 251.234375 125.28125 262.996094 125.28125 M 262.996094 123.617188 C 250.667969 123.617188 241.390625 129.324219 235.175781 140.746094 C 231.925781 148.09375 231.050781 154.769531 232.546875 160.773438 C 235.367188 168.890625 242.058594 172.949219 252.625 172.949219 C 254.652344 172.949219 256.828125 172.796875 259.144531 172.5 L 262.546875 156.191406 C 260.074219 156.789062 257.90625 157.089844 256.03125 157.089844 C 252.414062 157.089844 249.90625 155.972656 248.515625 153.742188 C 246.972656 149.675781 248.105469 146.324219 251.917969 143.695312 C 254.300781 142.046875 256.925781 141.222656 259.785156 141.222656 C 261.496094 141.222656 263.292969 141.519531 265.171875 142.105469 L 268.617188 123.984375 C 266.675781 123.738281 264.804688 123.617188 262.996094 123.617188 Z M 262.996094 123.617188 "/>
<path style=" stroke:none;fill-rule:nonzero;fill:rgb(0%,0%,0%);fill-opacity:1;" d="M 287.867188 124.144531 L 277.53125 172.273438 L 262.15625 172.566406 L 271.25 124.597656 Z M 287.867188 124.144531 "/>
<path style=" stroke:none;fill-rule:nonzero;fill:rgb(0%,46.666667%,53.72549%);fill-opacity:1;" d="M 285.796875 125.863281 L 276.183594 170.632812 L 264.171875 170.863281 L 272.636719 126.222656 L 285.796875 125.863281 M 287.867188 124.144531 L 271.25 124.597656 L 262.15625 172.566406 L 277.53125 172.273438 Z M 287.867188 124.144531 "/>
<path style=" stroke:none;fill-rule:nonzero;fill:rgb(0%,0%,0%);fill-opacity:1;" d="M 338.621094 123.507812 L 331.457031 159.773438 L 346.058594 159.367188 L 342.613281 172.929688 L 314.863281 173.429688 L 325.070312 123.960938 Z M 338.621094 123.507812 "/>
<path style=" stroke:none;fill-rule:nonzero;fill:rgb(0%,46.666667%,53.72549%);fill-opacity:1;" d="M 336.585938 125.242188 L 329.828125 159.453125 L 329.425781 161.496094 L 331.507812 161.4375 L 343.90625 161.089844 L 341.316406 171.289062 L 316.910156 171.726562 L 326.4375 125.582031 L 336.585938 125.242188 M 338.621094 123.507812 L 325.074219 123.960938 L 314.863281 173.429688 L 342.613281 172.929688 L 346.058594 159.367188 L 331.460938 159.773438 Z M 338.621094 123.507812 "/>
<path style=" stroke:none;fill-rule:nonzero;fill:rgb(0%,0%,0%);fill-opacity:1;" d="M 364.3125 124.179688 L 366.234375 117.210938 C 369.503906 117.082031 372.742188 117.03125 375.953125 117.054688 C 375.664062 118.257812 374.417969 121.730469 373.878906 124.144531 C 375.785156 124.425781 377.765625 124.871094 379.820312 125.472656 L 376.003906 137.425781 C 366.34375 135.746094 361.78125 136.703125 361.097656 140.136719 C 360.769531 141.785156 362.261719 142.582031 364.472656 142.433594 C 366.683594 142.285156 369.269531 142.484375 372.226562 143.035156 C 375.183594 143.585938 377.21875 144.835938 378.335938 146.785156 C 379.726562 150.460938 379.902344 153.820312 378.859375 156.855469 C 376.429688 163.226562 371.691406 167.707031 364.652344 170.296875 C 364.023438 173.085938 362.710938 176.925781 362.371094 178.488281 C 359.289062 178.664062 356.09375 178.632812 352.785156 178.398438 L 354.539062 172.390625 C 350.367188 172.730469 347.039062 172.359375 344.554688 171.273438 C 345.683594 167.394531 346.855469 163.269531 348.070312 158.894531 C 350.652344 160.742188 354.902344 161.035156 360.816406 159.78125 C 363.949219 158.871094 365.484375 157.484375 365.421875 155.617188 C 365.433594 154.089844 363.824219 153.671875 360.589844 154.355469 C 355.878906 154.59375 352.390625 153.699219 350.128906 151.679688 C 347.867188 149.660156 346.679688 147.667969 346.566406 145.703125 C 346.003906 140.007812 347.769531 134.972656 351.867188 130.597656 C 355.414062 127.144531 359.5625 125.007812 364.3125 124.179688 Z M 364.3125 124.179688 "/>
<path style=" stroke:none;fill-rule:nonzero;fill:rgb(0%,46.666667%,53.72549%);fill-opacity:1;" d="M 373.71875 118.714844 C 373.707031 118.746094 373.699219 118.773438 373.6875 118.804688 C 373.203125 120.335938 372.601562 122.242188 372.257812 123.777344 L 371.867188 125.523438 L 373.636719 125.789062 C 374.949219 125.984375 376.3125 126.261719 377.710938 126.621094 L 374.859375 135.546875 C 372.277344 135.148438 370.097656 134.953125 368.230469 134.953125 C 363.058594 134.953125 360.109375 136.585938 359.46875 139.8125 C 359.257812 140.867188 359.488281 141.871094 360.113281 142.636719 C 360.90625 143.601562 362.238281 144.113281 363.964844 144.113281 C 364.164062 144.113281 364.371094 144.109375 364.582031 144.09375 C 365.011719 144.066406 365.464844 144.050781 365.929688 144.050781 C 367.6875 144.050781 369.703125 144.257812 371.921875 144.671875 C 374.339844 145.121094 375.945312 146.050781 376.828125 147.503906 C 378.023438 150.730469 378.183594 153.683594 377.296875 156.289062 C 375.023438 162.230469 370.699219 166.300781 364.078125 168.734375 L 363.226562 169.046875 L 363.027344 169.929688 C 362.691406 171.4375 362.140625 173.277344 361.652344 174.902344 C 361.433594 175.628906 361.234375 176.300781 361.070312 176.882812 C 360.171875 176.917969 359.257812 176.9375 358.347656 176.9375 C 357.238281 176.9375 356.109375 176.910156 354.964844 176.859375 L 356.132812 172.855469 L 356.8125 170.53125 L 354.402344 170.730469 C 353.449219 170.808594 352.535156 170.847656 351.683594 170.847656 C 349.726562 170.847656 348.023438 170.640625 346.589844 170.234375 C 347.40625 167.40625 348.253906 164.421875 349.121094 161.328125 C 350.621094 161.914062 352.40625 162.207031 354.453125 162.207031 C 356.410156 162.207031 358.664062 161.941406 361.160156 161.410156 L 361.21875 161.398438 L 361.277344 161.382812 C 366.160156 159.964844 367.132812 157.460938 367.082031 155.59375 C 367.082031 154.511719 366.621094 153.816406 366.230469 153.421875 C 365.53125 152.71875 364.515625 152.375 363.128906 152.375 C 362.347656 152.375 361.445312 152.480469 360.378906 152.703125 C 359.957031 152.722656 359.546875 152.730469 359.148438 152.730469 C 355.601562 152.730469 352.9375 151.960938 351.238281 150.4375 C 349.324219 148.730469 348.3125 147.105469 348.226562 145.609375 L 348.222656 145.574219 L 348.222656 145.539062 C 347.703125 140.308594 349.285156 135.800781 353.054688 131.765625 C 356.335938 128.582031 360.21875 126.582031 364.597656 125.820312 L 365.632812 125.640625 L 365.914062 124.621094 L 367.511719 118.832031 C 369.589844 118.761719 371.667969 118.722656 373.71875 118.714844 M 374.46875 117.046875 C 371.746094 117.046875 369 117.101562 366.234375 117.210938 L 364.3125 124.179688 C 359.5625 125.007812 355.414062 127.144531 351.871094 130.597656 C 347.773438 134.972656 346.003906 140.007812 346.570312 145.703125 C 346.683594 147.667969 347.867188 149.660156 350.132812 151.679688 C 352.15625 153.488281 355.160156 154.394531 359.152344 154.394531 C 359.617188 154.394531 360.097656 154.382812 360.589844 154.355469 C 361.59375 154.144531 362.441406 154.039062 363.132812 154.039062 C 364.667969 154.039062 365.429688 154.5625 365.421875 155.617188 C 365.484375 157.484375 363.949219 158.871094 360.816406 159.78125 C 358.425781 160.289062 356.304688 160.542969 354.457031 160.542969 C 351.738281 160.542969 349.609375 159.996094 348.074219 158.894531 C 346.855469 163.269531 345.683594 167.394531 344.558594 171.273438 C 346.445312 172.097656 348.820312 172.511719 351.683594 172.511719 C 352.585938 172.511719 353.539062 172.472656 354.539062 172.390625 L 352.785156 178.398438 C 354.675781 178.53125 356.53125 178.601562 358.347656 178.601562 C 359.710938 178.601562 361.050781 178.5625 362.375 178.488281 C 362.710938 176.925781 364.023438 173.085938 364.652344 170.296875 C 371.695312 167.707031 376.429688 163.226562 378.863281 156.855469 C 379.902344 153.820312 379.726562 150.460938 378.335938 146.785156 C 377.21875 144.835938 375.183594 143.585938 372.226562 143.035156 C 369.894531 142.601562 367.796875 142.386719 365.929688 142.386719 C 365.425781 142.386719 364.941406 142.402344 364.472656 142.433594 C 364.300781 142.445312 364.128906 142.449219 363.964844 142.449219 C 362.039062 142.449219 360.796875 141.652344 361.101562 140.136719 C 361.5625 137.808594 363.8125 136.617188 368.230469 136.617188 C 370.320312 136.617188 372.902344 136.882812 376.003906 137.425781 L 379.820312 125.472656 C 377.765625 124.871094 375.785156 124.425781 373.882812 124.144531 C 374.417969 121.730469 375.664062 118.257812 375.953125 117.054688 C 375.457031 117.050781 374.964844 117.046875 374.46875 117.046875 Z M 374.46875 117.046875 "/>
<path style=" stroke:none;fill-rule:nonzero;fill:rgb(0%,0%,0%);fill-opacity:1;" d="M 302.882812 118.207031 L 319.132812 169.488281 L 306.277344 173.339844 L 304.324219 165.359375 L 295.011719 166.667969 L 291.320312 175.457031 L 278.15625 174.730469 Z M 300.671875 150.804688 L 298.511719 155.460938 L 301.941406 154.765625 Z M 300.671875 150.804688 "/>
<path style=" stroke:none;fill-rule:nonzero;fill:rgb(0%,46.666667%,53.72549%);fill-opacity:1;" d="M 302.632812 122.925781 L 317.039062 168.378906 L 307.476562 171.242188 L 305.9375 164.964844 L 305.578125 163.503906 L 304.089844 163.710938 L 294.777344 165.019531 L 293.84375 165.152344 L 293.476562 166.023438 L 290.242188 173.730469 L 280.640625 173.199219 L 302.632812 122.925781 M 295.617188 157.746094 L 298.839844 157.09375 L 302.273438 156.394531 L 304.09375 156.027344 L 303.523438 154.253906 L 302.253906 150.296875 L 300.953125 146.246094 L 299.164062 150.105469 L 297.003906 154.761719 L 295.617188 157.746094 M 302.882812 118.207031 L 278.15625 174.730469 L 291.320312 175.457031 L 295.011719 166.667969 L 304.320312 165.359375 L 306.277344 173.339844 L 319.132812 169.488281 Z M 298.511719 155.460938 L 300.671875 150.804688 L 301.941406 154.765625 Z M 298.511719 155.460938 "/>
<path style=" stroke:none;fill-rule:nonzero;fill:rgb(100%,100%,100%);fill-opacity:1;" d="M 68.050781 122.101562 C 78.453125 118.503906 92.011719 116.753906 103.957031 114.546875 C 102.792969 119.25 101.90625 123.804688 101.300781 128.21875 C 95.351562 128.984375 89.199219 130.265625 82.847656 132.066406 L 81.519531 141.058594 C 86.480469 139.429688 90.832031 138.167969 94.578125 137.28125 C 93.515625 141.597656 92.644531 145.148438 91.960938 147.929688 C 89.097656 148.3125 85.125 149.222656 80.039062 150.664062 C 78.621094 159.582031 77.34375 166.8125 76.203125 172.351562 C 71.117188 174.65625 66.953125 176.441406 63.710938 177.710938 C 66.773438 162.652344 67.164062 127.378906 68.050781 122.101562 Z M 68.050781 122.101562 "/>
<path style=" stroke:none;fill-rule:nonzero;fill:rgb(0%,0%,0%);fill-opacity:1;" d="M 58.675781 183.710938 L 60.046875 176.964844 C 62.003906 167.351562 62.875 148.421875 63.449219 135.894531 C 63.8125 127.984375 64.035156 123.417969 64.359375 121.480469 L 64.730469 119.289062 L 66.828125 118.5625 C 75.082031 115.707031 85.066406 114.007812 94.722656 112.363281 C 97.695312 111.855469 100.503906 111.378906 103.277344 110.867188 L 108.984375 109.8125 L 107.585938 115.449219 C 106.460938 120 105.59375 124.46875 105.003906 128.730469 L 104.617188 131.566406 L 101.777344 131.929688 C 96.765625 132.578125 91.53125 133.621094 86.191406 135.03125 L 86.09375 135.699219 C 88.859375 134.875 91.410156 134.183594 93.71875 133.636719 L 99.675781 132.226562 L 94.984375 151.300781 L 92.457031 151.640625 C 90.21875 151.941406 87.160156 152.609375 83.351562 153.632812 C 82.074219 161.511719 80.90625 168.054688 79.867188 173.109375 L 79.480469 174.976562 L 77.742188 175.765625 C 72.640625 178.074219 68.378906 179.902344 65.078125 181.199219 Z M 71.519531 124.910156 C 71.324219 127.527344 71.128906 131.792969 70.921875 136.238281 C 70.421875 147.136719 69.769531 161.285156 68.453125 171.691406 C 69.84375 171.09375 71.332031 170.4375 72.917969 169.726562 C 73.945312 164.535156 75.09375 157.9375 76.34375 150.074219 L 76.71875 147.710938 L 79.019531 147.058594 C 82.976562 145.941406 86.242188 145.140625 88.917969 144.632812 L 89.4375 142.519531 C 87.332031 143.132812 85.074219 143.832031 82.683594 144.617188 L 76.933594 146.507812 L 79.503906 129.121094 L 81.832031 128.460938 C 87.339844 126.902344 92.769531 125.707031 98.015625 124.902344 C 98.316406 123.035156 98.664062 121.136719 99.0625 119.21875 C 98.027344 119.398438 96.996094 119.574219 95.976562 119.746094 C 87.511719 121.1875 78.785156 122.675781 71.519531 124.910156 Z M 71.519531 124.910156 "/>
<path style=" stroke:none;fill-rule:nonzero;fill:rgb(100%,100%,100%);fill-opacity:1;" d="M 97.160156 172.03125 C 100.425781 157.160156 105.234375 132.046875 107.035156 119.792969 C 110.753906 118.332031 114.804688 117.261719 119.183594 116.589844 C 116.726562 134.410156 112.246094 159.679688 110.296875 169.296875 C 105.007812 170.0625 100.628906 170.976562 97.160156 172.03125 Z M 97.160156 172.03125 "/>
<path style=" stroke:none;fill-rule:nonzero;fill:rgb(0%,0%,0%);fill-opacity:1;" d="M 92.136719 177.472656 L 93.507812 171.226562 C 96.636719 156.984375 101.503906 131.726562 103.332031 119.25 L 103.648438 117.101562 L 105.664062 116.308594 C 109.628906 114.75 113.984375 113.601562 118.617188 112.890625 L 123.574219 112.128906 L 122.886719 117.105469 C 120.335938 135.632812 115.789062 161.027344 113.964844 170.039062 L 113.441406 172.625 L 110.835938 173 C 105.757812 173.738281 101.523438 174.617188 98.25 175.613281 Z M 110.398438 122.546875 C 108.617188 133.992188 104.960938 153.183594 102.078125 166.933594 C 103.65625 166.601562 105.347656 166.289062 107.136719 165.992188 C 108.972656 156.527344 112.378906 137.3125 114.734375 121.285156 C 113.242188 121.648438 111.792969 122.070312 110.398438 122.546875 Z M 110.398438 122.546875 "/>
<path style=" stroke:none;fill-rule:nonzero;fill:rgb(100%,100%,100%);fill-opacity:1;" d="M 140.632812 113.363281 C 142.609375 120.722656 144.304688 129.285156 145.722656 139.046875 C 146.65625 131.347656 147.785156 124.082031 149.101562 117.246094 C 153.355469 116.910156 158.238281 115.929688 163.757812 114.296875 C 160.289062 137.175781 157.503906 156.25 155.402344 171.527344 C 152.113281 172.339844 148.175781 173.398438 143.597656 174.691406 C 138.609375 158.410156 135.660156 146.816406 134.75 139.910156 C 133.457031 149.09375 131.851562 159.261719 129.925781 170.410156 C 125.015625 171.851562 120.777344 173.050781 117.207031 174.007812 C 119.488281 157.703125 121.6875 142.964844 123.816406 129.800781 C 122.929688 130.015625 121.867188 130.375 120.625 130.878906 C 121.132812 126.347656 124.371094 115.289062 140.632812 113.363281 Z M 140.632812 113.363281 "/>
<path style=" stroke:none;fill-rule:nonzero;fill:rgb(0%,0%,0%);fill-opacity:1;" d="M 141.09375 179.289062 L 140.019531 175.789062 C 138.234375 169.953125 136.710938 164.742188 135.449219 160.125 C 134.871094 163.664062 134.257812 167.308594 133.613281 171.046875 L 133.21875 173.351562 L 130.976562 174.007812 C 126.039062 175.453125 121.730469 176.671875 118.179688 177.625 L 112.722656 179.089844 L 113.503906 173.488281 C 115.417969 159.792969 117.300781 147.058594 119.113281 135.535156 L 116.210938 136.710938 L 116.910156 130.464844 C 117.179688 128.019531 118.183594 123.25 121.820312 118.78125 C 125.976562 113.667969 132.160156 110.59375 140.195312 109.644531 L 143.40625 109.261719 L 144.246094 112.390625 C 144.632812 113.824219 145.003906 115.304688 145.371094 116.835938 C 145.390625 116.738281 145.410156 116.636719 145.425781 116.539062 L 145.96875 113.738281 L 148.808594 113.515625 C 152.785156 113.199219 157.457031 112.253906 162.695312 110.707031 L 168.335938 109.039062 L 167.453125 114.859375 C 164.011719 137.582031 161.203125 156.820312 159.109375 172.039062 L 158.761719 174.550781 L 156.300781 175.160156 C 153.078125 175.960938 149.144531 177.015625 144.613281 178.296875 Z M 135.664062 118.234375 L 138.457031 139.417969 C 139.273438 145.597656 141.84375 155.90625 146.113281 170.101562 C 148.25 169.511719 150.234375 168.984375 152.042969 168.515625 C 153.917969 154.988281 156.324219 138.496094 159.203125 119.378906 C 156.761719 119.949219 154.445312 120.382812 152.265625 120.671875 C 151.183594 126.617188 150.234375 132.9375 149.433594 139.496094 L 146.050781 167.328125 L 142.019531 139.582031 C 140.835938 131.4375 139.441406 124.070312 137.867188 117.628906 C 137.089844 117.808594 136.355469 118.011719 135.664062 118.234375 Z M 128.40625 124.832031 L 127.507812 130.398438 C 125.644531 141.945312 123.695312 154.867188 121.707031 168.882812 C 123.257812 168.445312 124.902344 167.972656 126.636719 167.46875 C 128.375 157.285156 129.855469 147.847656 131.046875 139.386719 L 133.925781 118.882812 C 130.035156 120.539062 127.703125 122.964844 126.3125 125.339844 Z M 128.40625 124.832031 "/>
<path style=" stroke:none;fill-rule:nonzero;fill:rgb(100%,100%,100%);fill-opacity:1;" d="M 68.882812 121.269531 C 79.285156 117.671875 92.84375 115.921875 104.789062 113.71875 C 103.625 118.417969 102.738281 122.972656 102.132812 127.386719 C 96.183594 128.152344 90.03125 129.4375 83.679688 131.234375 L 82.351562 140.226562 C 87.3125 138.597656 91.664062 137.335938 95.410156 136.449219 C 94.347656 140.765625 93.476562 144.316406 92.792969 147.097656 C 89.929688 147.480469 85.957031 148.390625 80.871094 149.832031 C 79.453125 158.75 78.175781 165.980469 77.035156 171.523438 C 71.945312 173.824219 67.785156 175.609375 64.542969 176.882812 C 67.605469 161.820312 67.996094 126.546875 68.882812 121.269531 Z M 68.882812 121.269531 "/>
<path style=" stroke:none;fill-rule:nonzero;fill:rgb(100%,100%,100%);fill-opacity:1;" d="M 97.992188 171.199219 C 101.257812 156.328125 106.066406 131.214844 107.863281 118.960938 C 111.585938 117.496094 115.632812 116.429688 120.015625 115.757812 C 117.558594 133.578125 113.078125 158.847656 111.128906 168.464844 C 105.839844 169.230469 101.460938 170.140625 97.992188 171.199219 Z M 97.992188 171.199219 "/>
<path style=" stroke:none;fill-rule:nonzero;fill:rgb(100%,100%,100%);fill-opacity:1;" d="M 141.464844 112.53125 C 143.4375 119.890625 145.136719 128.453125 146.550781 138.214844 C 147.488281 130.515625 148.613281 123.25 149.933594 116.414062 C 154.183594 116.078125 159.070312 115.097656 164.585938 113.464844 C 161.117188 136.34375 158.335938 155.417969 156.234375 170.695312 C 152.945312 171.507812 149.007812 172.566406 144.425781 173.859375 C 139.441406 157.578125 136.492188 145.984375 135.582031 139.078125 C 134.289062 148.261719 132.679688 158.429688 130.757812 169.582031 C 125.847656 171.019531 121.609375 172.21875 118.039062 173.175781 C 120.316406 156.871094 122.519531 142.132812 124.644531 128.96875 C 123.761719 129.183594 122.695312 129.546875 121.457031 130.046875 C 121.960938 125.515625 125.203125 114.457031 141.464844 112.53125 Z M 141.464844 112.53125 "/>
<path style=" stroke:none;fill-rule:nonzero;fill:rgb(0%,26.27451%,48.235294%);fill-opacity:1;" d="M 233.074219 238.839844 L 233.074219 239.214844 L 228.90625 239.214844 L 228.90625 238.839844 C 229.777344 238.75 230.113281 238.480469 230.113281 237.574219 L 230.113281 233.503906 C 230.132812 231.613281 229.824219 231.144531 228.625 231.144531 C 227.765625 231.144531 227.046875 231.605469 226.617188 232.332031 L 226.617188 237.574219 C 226.605469 238.484375 226.949219 238.75 227.828125 238.839844 L 227.828125 239.214844 L 223.617188 239.214844 L 223.617188 238.839844 C 224.507812 238.75 224.851562 238.492188 224.871094 237.574219 L 224.875 233.417969 C 224.875 232.390625 224.789062 231.144531 223.542969 231.144531 C 222.757812 231.144531 221.808594 231.605469 221.328125 232.289062 L 221.328125 237.578125 C 221.34375 238.488281 221.691406 238.753906 222.585938 238.839844 L 222.585938 239.214844 L 218.367188 239.214844 L 218.367188 238.832031 C 219.339844 238.746094 219.59375 238.410156 219.578125 237.574219 L 219.578125 232.722656 C 219.585938 231.636719 219.460938 231.476562 218.367188 231.464844 L 218.367188 231.019531 L 221.328125 229.964844 L 221.328125 231.578125 C 222.316406 230.484375 223.445312 229.988281 224.351562 229.992188 C 225.324219 229.992188 226.105469 230.703125 226.351562 231.648438 C 227.074219 230.808594 228.265625 229.988281 229.355469 229.992188 C 231.730469 229.992188 231.863281 232.054688 231.863281 233.828125 L 231.863281 237.574219 C 231.863281 238.480469 232.195312 238.75 233.074219 238.839844 Z M 240.503906 235.851562 C 239.914062 236.898438 238.863281 237.96875 237.546875 237.976562 C 235.417969 237.96875 234.492188 235.585938 234.449219 233.710938 L 240.503906 233.710938 C 240.453125 231.625 239.238281 229.992188 237.023438 229.992188 C 234.589844 229.988281 233.019531 232.050781 233.019531 234.882812 C 233.019531 237.273438 234.488281 239.398438 236.773438 239.378906 C 238.824219 239.398438 240.308594 237.722656 240.917969 235.953125 Z M 236.617188 230.78125 C 237.835938 230.769531 238.359375 231.84375 238.421875 232.960938 L 234.53125 232.960938 C 234.703125 231.753906 235.304688 230.78125 236.617188 230.78125 Z M 213.859375 229.988281 C 212.09375 229.988281 210.820312 230.890625 210.15625 232.261719 L 210.027344 228.230469 L 209.550781 228.230469 C 209.242188 228.996094 208.910156 229.035156 208.210938 228.816406 C 207.886719 228.707031 207.488281 228.554688 207.015625 228.429688 C 206.539062 228.296875 205.972656 228.199219 205.300781 228.199219 C 201.351562 228.191406 198.585938 231.144531 198.597656 235.132812 C 198.585938 239.507812 201.511719 242.015625 205.339844 242.03125 C 207.253906 242.015625 209.015625 241.125 210.199219 239.617188 L 209.824219 239.136719 C 208.476562 240.503906 207.4375 241.027344 205.5 241.03125 C 202.355469 241.027344 200.941406 238.0625 200.949219 235.289062 C 200.941406 231.714844 202.363281 228.949219 205.378906 229.101562 C 208.6875 229.265625 209.582031 231.714844 209.609375 234.800781 C 209.601562 237.234375 211.328125 239.398438 213.859375 239.378906 C 216.59375 239.398438 218.261719 237.019531 218.261719 234.394531 C 218.265625 231.804688 216.46875 230.007812 213.859375 229.988281 Z M 216.3125 235.570312 C 216.160156 237.28125 215.324219 238.84375 213.859375 238.710938 C 212.0625 238.550781 211.316406 236.328125 211.558594 233.539062 C 211.722656 231.808594 212.574219 230.546875 213.96875 230.652344 C 216.128906 230.859375 216.46875 233.765625 216.3125 235.570312 Z M 290.683594 238.136719 C 290.601562 238.183594 290.488281 238.210938 290.34375 238.210938 C 290.109375 238.210938 289.953125 238.085938 289.871094 237.796875 C 289.824219 237.667969 289.800781 237.417969 289.800781 237.039062 L 289.800781 233.21875 C 289.800781 232.363281 289.675781 231.699219 289.425781 231.242188 C 288.960938 230.402344 288.074219 229.992188 286.792969 229.992188 C 285.6875 229.992188 284.835938 230.242188 284.261719 230.75 C 283.679688 231.25 283.386719 231.738281 283.386719 232.214844 C 283.386719 232.460938 283.460938 232.683594 283.628906 232.886719 C 283.792969 233.09375 284.039062 233.191406 284.34375 233.191406 C 284.535156 233.191406 284.707031 233.15625 284.851562 233.0625 C 285.109375 232.90625 285.238281 232.628906 285.238281 232.25 C 285.238281 231.996094 285.160156 231.75 285.160156 231.5 C 285.160156 231.210938 285.292969 230.988281 285.582031 230.824219 C 285.875 230.65625 286.175781 230.574219 286.5 230.574219 C 287.191406 230.574219 287.628906 230.792969 287.839844 231.199219 C 287.960938 231.449219 288.027344 231.890625 288.027344 232.558594 L 288.027344 233.261719 C 286.269531 233.929688 285.089844 234.457031 284.496094 234.84375 C 283.546875 235.484375 283.066406 236.285156 283.066406 237.246094 C 283.066406 237.871094 283.277344 238.382812 283.695312 238.785156 C 284.113281 239.1875 284.605469 239.394531 285.183594 239.394531 C 285.722656 239.394531 286.285156 239.207031 286.882812 238.855469 C 287.21875 238.648438 287.613281 238.355469 288.070312 237.957031 C 288.101562 238.328125 288.214844 238.648438 288.40625 238.925781 C 288.617188 239.242188 288.953125 239.394531 289.417969 239.394531 C 289.804688 239.394531 290.191406 239.269531 290.570312 239.019531 C 290.832031 238.84375 291.058594 238.636719 291.265625 238.390625 L 291.265625 237.675781 C 291.078125 237.839844 290.898438 238.019531 290.683594 238.136719 Z M 288.027344 236.875 C 288.027344 237.21875 287.84375 237.511719 287.46875 237.742188 C 287.089844 237.976562 286.695312 238.089844 286.285156 238.089844 C 285.984375 238.089844 285.710938 238.007812 285.476562 237.828125 C 285.109375 237.5625 284.925781 237.140625 284.925781 236.5625 C 284.925781 235.859375 285.367188 235.21875 286.277344 234.644531 C 286.742188 234.359375 287.324219 234.09375 288.027344 233.851562 Z M 309.242188 238.1875 C 308.78125 237.792969 308.085938 237.003906 307.171875 235.800781 L 305.472656 233.527344 L 305.964844 233.089844 C 307.203125 231.90625 308.039062 231.203125 308.464844 230.957031 C 308.996094 230.65625 309.632812 230.554688 310.222656 230.523438 L 310.222656 230.136719 L 306.058594 230.136719 L 306.058594 230.523438 C 306.289062 230.53125 306.652344 230.546875 306.882812 230.613281 C 307.003906 230.640625 307.054688 230.710938 307.054688 230.835938 C 307.054688 230.894531 307.035156 230.976562 306.96875 231.074219 C 306.90625 231.171875 306.777344 231.304688 306.585938 231.480469 L 304.039062 233.777344 L 304.035156 227.390625 L 300.710938 228.324219 L 300.710938 228.695312 C 300.941406 228.675781 301.171875 228.65625 301.40625 228.65625 C 301.6875 228.65625 301.90625 228.714844 302.050781 228.832031 C 302.1875 228.9375 302.265625 229.207031 302.265625 229.671875 L 302.265625 237.523438 C 302.265625 238.058594 302.164062 238.382812 301.984375 238.53125 C 301.703125 238.753906 301.03125 238.8125 300.730469 238.828125 C 300.421875 238.824219 299.9375 238.789062 299.699219 238.53125 C 299.527344 238.34375 299.433594 238.027344 299.433594 237.570312 L 299.433594 233.0625 C 299.433594 231.792969 299.082031 230.890625 298.351562 230.378906 C 297.980469 230.117188 297.558594 229.992188 297.105469 229.992188 C 296.542969 229.992188 296.007812 230.144531 295.492188 230.457031 C 295.160156 230.652344 294.804688 230.929688 294.238281 231.425781 L 294.238281 229.949219 L 291.195312 230.914062 L 291.195312 231.371094 C 291.195312 231.371094 291.464844 231.328125 291.652344 231.328125 C 292.023438 231.320312 292.242188 231.445312 292.355469 231.664062 C 292.425781 231.816406 292.464844 232.09375 292.464844 232.507812 L 292.464844 237.414062 C 292.464844 238.003906 292.375 238.355469 292.203125 238.511719 C 291.96875 238.730469 291.523438 238.800781 291.234375 238.832031 L 291.234375 239.214844 L 295.546875 239.214844 L 295.546875 238.832031 C 295.234375 238.824219 294.800781 238.792969 294.535156 238.585938 C 294.34375 238.4375 294.242188 238.15625 294.242188 237.691406 L 294.242188 232.269531 C 294.585938 231.933594 294.863281 231.691406 295.085938 231.554688 C 295.476562 231.296875 295.855469 231.167969 296.234375 231.167969 C 296.789062 231.167969 297.148438 231.347656 297.351562 231.695312 C 297.554688 232.058594 297.65625 232.519531 297.65625 233.074219 L 297.65625 237.21875 C 297.65625 237.875 297.566406 238.28125 297.394531 238.460938 C 297.148438 238.710938 296.707031 238.792969 296.394531 238.832031 L 296.394531 239.21875 L 305.542969 239.21875 L 305.542969 238.832031 C 305.269531 238.828125 304.777344 238.816406 304.503906 238.6875 C 304.199219 238.550781 304.042969 238.273438 304.042969 237.832031 L 304.042969 234.363281 L 306.90625 238.203125 C 306.992188 238.316406 307.074219 238.449219 307.074219 238.589844 C 307.074219 238.667969 307.050781 238.714844 306.980469 238.746094 C 306.890625 238.785156 306.796875 238.808594 306.691406 238.816406 L 306.300781 238.832031 L 306.300781 239.21875 L 310.742188 239.21875 L 310.742188 238.835938 C 310.152344 238.78125 309.683594 238.5625 309.242188 238.1875 Z M 250.503906 237.574219 L 250.464844 229.800781 L 247.5625 230.976562 C 247.460938 230.351562 246.902344 229.992188 246.265625 229.992188 C 245.316406 229.988281 244.511719 230.972656 244.089844 231.65625 L 244.089844 229.964844 L 240.890625 231.058594 L 240.890625 231.484375 C 242.382812 231.035156 242.332031 231.8125 242.339844 233.210938 L 242.339844 237.574219 C 242.332031 238.398438 242.0625 238.742188 240.890625 238.835938 L 240.890625 239.214844 L 245.542969 239.214844 L 245.542969 238.835938 C 244.59375 238.761719 244.082031 238.601562 244.089844 237.574219 L 244.089844 232.808594 C 244.089844 232.269531 244.714844 231.339844 245.257812 231.300781 C 246.121094 231.242188 245.902344 232.082031 246.769531 232.109375 C 247.257812 232.121094 247.589844 231.6875 248.152344 231.652344 C 248.800781 231.613281 248.757812 232.347656 248.757812 232.882812 L 248.757812 237.574219 C 248.742188 238.398438 248.472656 238.753906 247.265625 238.832031 L 247.265625 239.214844 L 251.964844 239.214844 L 251.964844 238.835938 C 251.007812 238.761719 250.484375 238.605469 250.503906 237.574219 Z M 267.371094 239.351562 L 262.640625 228.191406 L 262.171875 228.191406 L 259.007812 235.753906 C 258.453125 237.082031 257.609375 237.890625 256.109375 237.890625 C 254.136719 237.929688 253.125 235.894531 253.125 234.074219 C 253.128906 232.4375 253.941406 230.664062 255.585938 230.652344 C 256.601562 230.664062 257.042969 231.222656 257.03125 231.984375 C 257.042969 232.453125 257.492188 232.910156 257.964844 232.894531 C 258.445312 232.910156 258.894531 232.488281 258.902344 231.984375 C 258.808594 230.589844 257.058594 229.992188 255.945312 229.992188 C 253.007812 229.988281 251.53125 232.289062 251.542969 234.882812 C 251.53125 237.375 253.085938 239.398438 255.21875 239.378906 C 256.515625 239.382812 257.449219 238.785156 258.152344 237.929688 C 257.847656 238.683594 257.515625 239.554688 257.101562 240.234375 C 256.769531 240.78125 256.378906 241.214844 255.695312 241.285156 L 255.695312 241.738281 L 259.625 241.738281 L 259.625 241.28125 C 259.164062 241.273438 258.3125 241.195312 258.296875 240.46875 C 258.3125 239.742188 259.078125 238.230469 259.332031 237.460938 L 264.386719 237.460938 L 265.066406 239.101562 C 265.707031 240.617188 266.03125 241.171875 264.175781 241.285156 L 264.175781 241.738281 L 269.234375 241.738281 L 269.234375 241.28125 C 268.070312 241.308594 267.722656 240.128906 267.371094 239.351562 Z M 259.730469 236.546875 L 261.886719 231.222656 L 264.070312 236.546875 Z M 281.445312 234.316406 C 280.9375 233.921875 280.347656 233.628906 279.65625 233.441406 C 280.175781 233.300781 280.585938 233.125 280.875 232.917969 C 281.4375 232.507812 281.714844 231.898438 281.714844 231.105469 C 281.714844 230.054688 281.316406 229.304688 280.503906 228.871094 C 279.707031 228.433594 278.628906 228.226562 277.285156 228.226562 L 272.535156 228.226562 L 272.535156 228.628906 C 272.804688 228.640625 273.578125 228.671875 273.855469 228.929688 C 274.042969 229.078125 274.144531 229.441406 274.144531 230.046875 L 274.144531 237.402344 C 274.144531 238.011719 274.039062 238.378906 273.863281 238.523438 C 273.578125 238.761719 272.800781 238.808594 272.535156 238.828125 L 272.535156 239.214844 L 278.058594 239.214844 C 278.992188 239.214844 279.789062 239.09375 280.433594 238.839844 C 281.664062 238.347656 282.285156 237.449219 282.285156 236.140625 C 282.285156 235.359375 282.003906 234.746094 281.445312 234.316406 Z M 275.960938 229.441406 C 275.960938 229.175781 276 229.042969 276.054688 229.003906 C 276.125 228.953125 276.316406 228.929688 276.671875 228.929688 C 277.589844 228.929688 278.265625 229.023438 278.710938 229.207031 C 279.507812 229.542969 279.902344 230.179688 279.902344 231.148438 C 279.902344 231.964844 279.558594 232.523438 278.871094 232.835938 C 278.507812 233 278.054688 233.089844 277.492188 233.097656 L 275.960938 233.132812 Z M 279.425781 238.035156 C 278.855469 238.363281 278.144531 238.523438 277.296875 238.523438 C 276.691406 238.523438 276.328125 238.484375 276.171875 238.40625 C 276.03125 238.34375 275.960938 238.175781 275.960938 237.910156 L 275.960938 233.855469 L 276.21875 233.859375 L 276.707031 233.859375 C 277.753906 233.859375 278.609375 234.03125 279.28125 234.367188 C 279.933594 234.6875 280.265625 235.296875 280.265625 236.203125 C 280.265625 237.125 279.984375 237.730469 279.425781 238.035156 Z M 279.425781 238.035156 "/>
<path style=" stroke:none;fill-rule:nonzero;fill:rgb(15.686275%,55.294118%,80%);fill-opacity:1;" d="M 213.847656 228.054688 C 220.136719 223.105469 251.253906 211.695312 286.976562 226.832031 L 294.363281 225.40625 C 252.101562 209.332031 220.210938 222.410156 213.847656 228.054688 Z M 213.847656 228.054688 "/>
<path style=" stroke:none;fill-rule:nonzero;fill:rgb(63.529412%,86.27451%,92.156863%);fill-opacity:1;" d="M 213.847656 228.054688 C 219.875 222.332031 248.808594 209.519531 290.582031 221.683594 L 297.367188 220.371094 C 250.175781 207.234375 220.015625 221.648438 213.847656 228.054688 Z M 213.847656 228.054688 "/>
<path style=" stroke:none;fill-rule:nonzero;fill:rgb(0%,26.27451%,48.235294%);fill-opacity:1;" d="M 213.847656 228.054688 C 219.335938 224.742188 243.460938 217.777344 264.707031 225.210938 L 271.644531 223.871094 C 244.386719 215.484375 219.417969 224.0625 213.847656 228.054688 Z M 213.847656 228.054688 "/>
<path style=" stroke:none;fill-rule:nonzero;fill:rgb(0%,0%,0%);fill-opacity:1;" d="M 311.429688 238.34375 C 311.429688 237.847656 311.832031 237.472656 312.3125 237.472656 C 312.789062 237.472656 313.191406 237.847656 313.191406 238.34375 C 313.191406 238.839844 312.789062 239.21875 312.3125 239.21875 C 311.832031 239.21875 311.429688 238.839844 311.429688 238.34375 Z M 313.019531 238.34375 C 313.019531 237.929688 312.710938 237.613281 312.3125 237.613281 C 311.910156 237.613281 311.601562 237.929688 311.601562 238.34375 C 311.601562 238.761719 311.910156 239.074219 312.3125 239.074219 C 312.710938 239.078125 313.019531 238.761719 313.019531 238.34375 Z M 312.132812 238.859375 L 311.980469 238.859375 L 311.980469 237.839844 L 312.367188 237.839844 C 312.601562 237.839844 312.71875 237.933594 312.71875 238.128906 C 312.71875 238.3125 312.597656 238.390625 312.472656 238.410156 L 312.746094 238.859375 L 312.5625 238.859375 L 312.292969 238.414062 L 312.132812 238.414062 Z M 312.132812 238.28125 L 312.304688 238.28125 C 312.488281 238.28125 312.5625 238.257812 312.5625 238.121094 C 312.5625 238.019531 312.503906 237.972656 312.339844 237.972656 L 312.132812 237.972656 Z M 312.132812 238.28125 "/>
</g>
</svg>
