<?xml version="1.0" encoding="UTF-8"?>
<svg xmlns="http://www.w3.org/2000/svg" xmlns:xlink="http://www.w3.org/1999/xlink" width="200px" height="155px" viewBox="0 0 200 155" version="1.1">
<g id="surface1">
<path style=" stroke:none;fill-rule:nonzero;fill:rgb(0%,46.666667%,53.72549%);fill-opacity:1;" d="M 24.171875 41.609375 C 24.171875 41.609375 45.015625 71.828125 31.664062 97.429688 C 31.664062 97.429688 60.941406 77.679688 86.398438 75.101562 C 86.398438 75.101562 59.582031 44.738281 24.171875 41.609375 Z M 24.171875 41.609375 "/>
<path style=" stroke:none;fill-rule:nonzero;fill:rgb(0%,0%,0%);fill-opacity:1;" d="M 23.152344 106.964844 L 28.886719 95.972656 C 33.992188 86.179688 34.367188 74.433594 30 61.0625 C 26.652344 50.824219 21.644531 43.46875 21.59375 43.394531 L 17.808594 37.890625 L 24.449219 38.476562 C 34.933594 39.402344 51.414062 43.363281 70.390625 56.972656 C 81.679688 65.066406 88.464844 72.695312 88.746094 73.015625 L 92.808594 77.617188 L 86.714844 78.234375 C 62.320312 80.703125 33.703125 99.847656 33.417969 100.039062 Z M 30.183594 45.605469 C 31.964844 48.941406 34.128906 53.542969 35.902344 58.933594 C 39.574219 70.074219 40.214844 80.609375 37.855469 89.917969 C 47.257812 84.464844 63.644531 76.042969 79.808594 72.910156 C 71.785156 65.308594 53.121094 49.863281 30.183594 45.605469 Z M 30.183594 45.605469 "/>
<path style=" stroke:none;fill-rule:nonzero;fill:rgb(0%,46.666667%,53.72549%);fill-opacity:1;" d="M 25.503906 41.269531 C 25.503906 41.269531 47.230469 70.347656 34.40625 95.921875 C 34.40625 95.921875 65.222656 76.820312 86.398438 75.101562 C 86.398438 75.101562 59.65625 44.46875 25.503906 41.269531 Z M 25.503906 41.269531 "/>
<path style=" stroke:none;fill-rule:nonzero;fill:rgb(0%,0%,0%);fill-opacity:1;" d="M 35.386719 45.171875 C 35.386719 45.171875 48.777344 48.507812 58.265625 56.867188 L 61.988281 56.324219 C 61.988281 56.324219 50.339844 48.550781 35.386719 45.171875 Z M 35.386719 45.171875 "/>
<path style=" stroke:none;fill-rule:nonzero;fill:rgb(0%,0%,0%);fill-opacity:1;" d="M 67.617188 93.230469 C 67.617188 93.445312 67.617188 93.664062 67.617188 93.875 C 67.617188 94.089844 67.605469 94.308594 67.585938 94.523438 C 67.542969 94.984375 67.445312 95.421875 67.285156 95.832031 C 67.128906 96.246094 66.914062 96.605469 66.644531 96.914062 C 66.371094 97.226562 66.042969 97.472656 65.65625 97.652344 C 65.273438 97.832031 64.828125 97.921875 64.328125 97.921875 C 64.132812 97.921875 63.929688 97.90625 63.71875 97.875 C 63.507812 97.839844 63.296875 97.789062 63.089844 97.722656 C 62.878906 97.65625 62.683594 97.574219 62.492188 97.476562 C 62.304688 97.378906 62.136719 97.265625 61.988281 97.136719 L 62.328125 94.84375 C 62.546875 95.054688 62.789062 95.226562 63.054688 95.355469 C 63.316406 95.488281 63.605469 95.554688 63.917969 95.554688 C 64.121094 95.554688 64.292969 95.523438 64.433594 95.464844 C 64.574219 95.40625 64.6875 95.324219 64.78125 95.222656 C 64.871094 95.117188 64.945312 94.996094 65 94.859375 C 65.050781 94.71875 65.089844 94.574219 65.113281 94.417969 C 65.136719 94.257812 65.152344 94.097656 65.160156 93.933594 C 65.164062 93.765625 65.167969 93.601562 65.167969 93.441406 C 65.167969 92.851562 65.136719 92.269531 65.078125 91.6875 C 65.019531 91.105469 64.96875 90.523438 64.921875 89.941406 L 67.453125 89.773438 C 67.5625 90.925781 67.617188 92.078125 67.617188 93.230469 Z M 67.617188 93.230469 "/>
<path style=" stroke:none;fill-rule:nonzero;fill:rgb(0%,0%,0%);fill-opacity:1;" d="M 74.710938 91.632812 C 74.710938 91.90625 74.695312 92.207031 74.671875 92.535156 C 74.644531 92.867188 74.605469 93.203125 74.542969 93.554688 C 74.484375 93.90625 74.410156 94.261719 74.316406 94.621094 C 74.222656 94.980469 74.105469 95.328125 73.964844 95.660156 C 73.824219 95.992188 73.664062 96.300781 73.476562 96.59375 C 73.289062 96.882812 73.078125 97.132812 72.835938 97.351562 C 72.59375 97.566406 72.324219 97.734375 72.027344 97.859375 C 71.730469 97.984375 71.398438 98.046875 71.035156 98.046875 C 70.605469 98.046875 70.238281 97.976562 69.921875 97.835938 C 69.605469 97.699219 69.335938 97.511719 69.113281 97.277344 C 68.886719 97.042969 68.703125 96.769531 68.5625 96.460938 C 68.417969 96.148438 68.304688 95.816406 68.226562 95.46875 C 68.144531 95.121094 68.085938 94.761719 68.054688 94.398438 C 68.023438 94.035156 68.007812 93.6875 68.007812 93.351562 C 68.007812 92.835938 68.035156 92.320312 68.085938 91.804688 C 68.136719 91.289062 68.210938 90.773438 68.308594 90.261719 L 70.890625 90.363281 C 70.792969 90.941406 70.707031 91.523438 70.632812 92.109375 C 70.5625 92.691406 70.527344 93.28125 70.527344 93.871094 C 70.527344 93.933594 70.527344 94.027344 70.535156 94.152344 C 70.539062 94.273438 70.550781 94.414062 70.566406 94.566406 C 70.578125 94.71875 70.601562 94.875 70.628906 95.035156 C 70.65625 95.195312 70.695312 95.34375 70.742188 95.476562 C 70.789062 95.609375 70.847656 95.71875 70.914062 95.804688 C 70.984375 95.886719 71.0625 95.929688 71.15625 95.929688 C 71.261719 95.929688 71.359375 95.878906 71.441406 95.777344 C 71.527344 95.675781 71.601562 95.542969 71.664062 95.371094 C 71.730469 95.203125 71.785156 95.007812 71.835938 94.785156 C 71.882812 94.5625 71.921875 94.332031 71.957031 94.09375 C 71.988281 93.851562 72.015625 93.613281 72.035156 93.375 C 72.054688 93.132812 72.074219 92.910156 72.085938 92.703125 C 72.097656 92.496094 72.105469 92.3125 72.109375 92.15625 C 72.113281 91.996094 72.117188 91.878906 72.117188 91.800781 C 72.117188 91.511719 72.113281 91.226562 72.101562 90.941406 C 72.09375 90.652344 72.078125 90.371094 72.0625 90.085938 L 74.644531 90.085938 C 74.6875 90.59375 74.710938 91.109375 74.710938 91.632812 Z M 74.710938 91.632812 "/>
<path style=" stroke:none;fill-rule:nonzero;fill:rgb(0%,0%,0%);fill-opacity:1;" d="M 82.65625 89.851562 L 82.261719 97.359375 L 79.367188 97.625 L 77.824219 93.605469 L 77.578125 97.703125 L 75.097656 97.703125 L 75.296875 89.851562 L 78.054688 89.71875 L 79.964844 93.703125 L 80.050781 89.941406 Z M 82.65625 89.851562 "/>
<path style=" stroke:none;fill-rule:nonzero;fill:rgb(0%,0%,0%);fill-opacity:1;" d="M 86.085938 89.996094 L 85.480469 97.535156 L 83.148438 97.65625 L 83.148438 90.152344 Z M 86.085938 89.996094 "/>
<path style=" stroke:none;fill-rule:nonzero;fill:rgb(0%,0%,0%);fill-opacity:1;" d="M 93.207031 93.882812 C 93.207031 94.21875 93.167969 94.542969 93.089844 94.851562 C 93.011719 95.164062 92.902344 95.457031 92.757812 95.730469 C 92.609375 96.003906 92.433594 96.253906 92.226562 96.480469 C 92.019531 96.707031 91.785156 96.902344 91.523438 97.066406 C 91.265625 97.226562 90.984375 97.355469 90.679688 97.445312 C 90.371094 97.535156 90.046875 97.578125 89.707031 97.578125 C 89.375 97.578125 89.058594 97.539062 88.761719 97.453125 C 88.460938 97.367188 88.179688 97.25 87.917969 97.09375 C 87.65625 96.941406 87.421875 96.757812 87.207031 96.542969 C 86.996094 96.324219 86.816406 96.085938 86.667969 95.820312 C 86.519531 95.558594 86.402344 95.273438 86.320312 94.972656 C 86.238281 94.667969 86.195312 94.355469 86.195312 94.027344 C 86.195312 93.703125 86.234375 93.390625 86.3125 93.082031 C 86.390625 92.773438 86.5 92.484375 86.644531 92.210938 C 86.792969 91.9375 86.96875 91.6875 87.171875 91.457031 C 87.378906 91.230469 87.609375 91.03125 87.867188 90.863281 C 88.121094 90.699219 88.398438 90.570312 88.695312 90.476562 C 88.996094 90.386719 89.308594 90.339844 89.640625 90.339844 C 90.175781 90.339844 90.660156 90.421875 91.101562 90.589844 C 91.539062 90.753906 91.914062 90.992188 92.226562 91.300781 C 92.539062 91.609375 92.777344 91.980469 92.949219 92.417969 C 93.121094 92.855469 93.207031 93.34375 93.207031 93.882812 Z M 90.753906 94.027344 C 90.753906 93.867188 90.730469 93.714844 90.6875 93.5625 C 90.640625 93.414062 90.574219 93.28125 90.484375 93.164062 C 90.398438 93.050781 90.289062 92.953125 90.15625 92.882812 C 90.027344 92.8125 89.875 92.773438 89.707031 92.773438 C 89.535156 92.773438 89.378906 92.804688 89.242188 92.867188 C 89.105469 92.933594 88.988281 93.015625 88.890625 93.125 C 88.796875 93.234375 88.71875 93.363281 88.667969 93.507812 C 88.617188 93.652344 88.589844 93.808594 88.589844 93.96875 C 88.589844 94.125 88.613281 94.28125 88.65625 94.433594 C 88.703125 94.589844 88.769531 94.730469 88.855469 94.855469 C 88.945312 94.980469 89.054688 95.082031 89.183594 95.160156 C 89.316406 95.238281 89.46875 95.277344 89.640625 95.277344 C 89.8125 95.277344 89.96875 95.242188 90.105469 95.175781 C 90.246094 95.105469 90.363281 95.015625 90.457031 94.898438 C 90.554688 94.78125 90.625 94.648438 90.679688 94.496094 C 90.730469 94.34375 90.753906 94.1875 90.753906 94.027344 Z M 90.753906 94.027344 "/>
<path style=" stroke:none;fill-rule:nonzero;fill:rgb(0%,0%,0%);fill-opacity:1;" d="M 100.0625 92.453125 C 100.0625 92.742188 100.035156 93.003906 99.988281 93.238281 C 99.9375 93.472656 99.859375 93.6875 99.75 93.882812 C 99.644531 94.078125 99.507812 94.257812 99.335938 94.425781 C 99.167969 94.589844 98.964844 94.75 98.726562 94.902344 L 100.039062 97.246094 L 97.554688 97.734375 L 96.703125 95.375 L 96.019531 95.398438 L 95.921875 97.703125 L 93.546875 97.703125 C 93.566406 96.859375 93.582031 96.023438 93.601562 95.1875 C 93.617188 94.355469 93.636719 93.515625 93.65625 92.675781 C 93.664062 92.25 93.671875 91.832031 93.679688 91.414062 C 93.6875 90.996094 93.703125 90.578125 93.722656 90.152344 C 93.980469 90.054688 94.234375 89.976562 94.484375 89.914062 C 94.738281 89.851562 94.988281 89.800781 95.238281 89.765625 C 95.492188 89.730469 95.746094 89.707031 96.007812 89.695312 C 96.265625 89.683594 96.53125 89.675781 96.804688 89.675781 C 97.222656 89.675781 97.628906 89.734375 98.019531 89.851562 C 98.414062 89.964844 98.761719 90.140625 99.0625 90.375 C 99.363281 90.605469 99.605469 90.894531 99.789062 91.242188 C 99.96875 91.589844 100.0625 91.992188 100.0625 92.453125 Z M 97.589844 92.632812 C 97.589844 92.476562 97.566406 92.332031 97.523438 92.203125 C 97.480469 92.074219 97.417969 91.964844 97.335938 91.871094 C 97.253906 91.777344 97.152344 91.703125 97.027344 91.648438 C 96.90625 91.59375 96.761719 91.566406 96.59375 91.566406 C 96.519531 91.566406 96.449219 91.574219 96.378906 91.582031 C 96.308594 91.589844 96.242188 91.605469 96.175781 91.625 L 96.085938 93.683594 L 96.21875 93.683594 C 96.378906 93.683594 96.539062 93.664062 96.703125 93.621094 C 96.867188 93.582031 97.011719 93.519531 97.144531 93.433594 C 97.273438 93.347656 97.382812 93.238281 97.464844 93.105469 C 97.546875 92.972656 97.589844 92.816406 97.589844 92.632812 Z M 97.589844 92.632812 "/>
<path style=" stroke:none;fill-rule:nonzero;fill:rgb(0%,47.058824%,54.117647%);fill-opacity:1;" d="M 111.738281 96.265625 C 111.503906 96.558594 111.21875 96.816406 110.875 97.035156 C 110.53125 97.253906 110.164062 97.4375 109.773438 97.582031 C 109.378906 97.726562 108.976562 97.832031 108.566406 97.90625 C 108.152344 97.976562 107.761719 98.015625 107.390625 98.015625 C 106.667969 98.015625 106.003906 97.886719 105.398438 97.625 C 104.792969 97.367188 104.269531 97.007812 103.832031 96.554688 C 103.390625 96.097656 103.046875 95.5625 102.800781 94.945312 C 102.550781 94.328125 102.425781 93.660156 102.425781 92.949219 C 102.425781 92.40625 102.488281 91.875 102.613281 91.355469 C 102.738281 90.832031 102.914062 90.34375 103.144531 89.882812 C 103.378906 89.421875 103.660156 88.996094 103.992188 88.613281 C 104.324219 88.226562 104.703125 87.894531 105.125 87.613281 C 105.546875 87.335938 106.007812 87.117188 106.511719 86.964844 C 107.011719 86.808594 107.546875 86.734375 108.117188 86.734375 C 108.332031 86.734375 108.5625 86.742188 108.804688 86.757812 C 109.046875 86.777344 109.289062 86.804688 109.53125 86.847656 C 109.769531 86.890625 110.007812 86.949219 110.234375 87.023438 C 110.464844 87.097656 110.671875 87.191406 110.859375 87.300781 L 110.652344 90.15625 C 110.375 90.050781 110.085938 89.980469 109.792969 89.941406 C 109.496094 89.90625 109.207031 89.886719 108.921875 89.886719 C 108.527344 89.886719 108.15625 89.945312 107.808594 90.070312 C 107.464844 90.191406 107.164062 90.367188 106.910156 90.59375 C 106.652344 90.824219 106.449219 91.105469 106.300781 91.433594 C 106.152344 91.761719 106.078125 92.132812 106.078125 92.546875 C 106.078125 92.804688 106.113281 93.054688 106.183594 93.296875 C 106.25 93.539062 106.355469 93.753906 106.5 93.9375 C 106.640625 94.125 106.816406 94.277344 107.027344 94.390625 C 107.238281 94.503906 107.484375 94.5625 107.761719 94.5625 C 107.949219 94.5625 108.144531 94.539062 108.347656 94.488281 C 108.546875 94.4375 108.71875 94.355469 108.863281 94.234375 L 108.894531 93.652344 L 107.105469 93.621094 L 107.195312 91.378906 C 107.933594 91.355469 108.675781 91.335938 109.414062 91.316406 C 110.15625 91.300781 110.898438 91.277344 111.648438 91.246094 Z M 111.738281 96.265625 "/>
<path style=" stroke:none;fill-rule:nonzero;fill:rgb(0%,47.058824%,54.117647%);fill-opacity:1;" d="M 123.824219 86.898438 L 123.136719 97.867188 L 119.742188 98.015625 L 119.769531 92.230469 L 118.234375 96.894531 L 116.925781 96.894531 L 115.746094 92.722656 L 115.734375 97.566406 L 112.289062 97.671875 L 112.441406 87.34375 L 116.269531 87.195312 L 117.789062 92.140625 L 119.816406 86.898438 Z M 123.824219 86.898438 "/>
<path style=" stroke:none;fill-rule:nonzero;fill:rgb(0%,0%,0%);fill-opacity:1;" d="M 133.679688 92.464844 C 133.679688 92.824219 133.625 93.140625 133.519531 93.417969 C 133.410156 93.695312 133.265625 93.9375 133.078125 94.140625 C 132.894531 94.347656 132.675781 94.523438 132.425781 94.667969 C 132.175781 94.8125 131.90625 94.929688 131.621094 95.019531 C 131.335938 95.109375 131.042969 95.175781 130.734375 95.21875 C 130.429688 95.261719 130.128906 95.285156 129.835938 95.289062 L 129.835938 97.867188 L 127.265625 97.867188 C 127.265625 97.023438 127.265625 96.179688 127.269531 95.34375 C 127.273438 94.507812 127.277344 93.660156 127.285156 92.808594 C 127.292969 92.359375 127.296875 91.90625 127.292969 91.457031 C 127.289062 91.007812 127.296875 90.554688 127.320312 90.097656 C 127.789062 89.957031 128.261719 89.851562 128.730469 89.78125 C 129.203125 89.710938 129.6875 89.675781 130.1875 89.675781 C 130.472656 89.675781 130.757812 89.699219 131.039062 89.742188 C 131.324219 89.789062 131.59375 89.863281 131.851562 89.960938 C 132.113281 90.0625 132.355469 90.1875 132.578125 90.335938 C 132.800781 90.484375 132.992188 90.664062 133.152344 90.871094 C 133.316406 91.078125 133.441406 91.3125 133.535156 91.578125 C 133.632812 91.839844 133.679688 92.136719 133.679688 92.464844 Z M 131.226562 92.652344 C 131.226562 92.414062 131.15625 92.226562 131.007812 92.089844 C 130.863281 91.957031 130.675781 91.890625 130.445312 91.890625 C 130.367188 91.890625 130.285156 91.894531 130.203125 91.910156 C 130.121094 91.921875 130.042969 91.9375 129.96875 91.957031 L 129.902344 93.570312 C 129.953125 93.578125 130.003906 93.582031 130.050781 93.582031 C 130.101562 93.582031 130.148438 93.582031 130.199219 93.582031 C 130.332031 93.582031 130.460938 93.5625 130.585938 93.515625 C 130.707031 93.472656 130.816406 93.410156 130.914062 93.324219 C 131.007812 93.242188 131.085938 93.144531 131.140625 93.03125 C 131.199219 92.921875 131.226562 92.792969 131.226562 92.652344 Z M 131.226562 92.652344 "/>
<path style=" stroke:none;fill-rule:nonzero;fill:rgb(0%,0%,0%);fill-opacity:1;" d="M 140.449219 92.453125 C 140.449219 92.742188 140.425781 93.003906 140.375 93.238281 C 140.328125 93.472656 140.25 93.6875 140.140625 93.882812 C 140.035156 94.078125 139.894531 94.257812 139.726562 94.425781 C 139.558594 94.589844 139.355469 94.75 139.113281 94.902344 L 140.429688 97.246094 L 137.945312 97.734375 L 137.09375 95.375 L 136.410156 95.398438 L 136.3125 97.703125 L 133.9375 97.703125 C 133.957031 96.859375 133.972656 96.023438 133.988281 95.1875 C 134.007812 94.355469 134.027344 93.515625 134.046875 92.675781 C 134.054688 92.25 134.0625 91.832031 134.070312 91.414062 C 134.078125 90.996094 134.089844 90.578125 134.113281 90.152344 C 134.371094 90.054688 134.625 89.976562 134.875 89.914062 C 135.125 89.851562 135.378906 89.800781 135.628906 89.765625 C 135.882812 89.730469 136.136719 89.707031 136.394531 89.695312 C 136.65625 89.683594 136.921875 89.675781 137.195312 89.675781 C 137.613281 89.675781 138.019531 89.734375 138.410156 89.851562 C 138.804688 89.964844 139.148438 90.140625 139.453125 90.375 C 139.753906 90.605469 139.996094 90.894531 140.175781 91.242188 C 140.359375 91.589844 140.449219 91.992188 140.449219 92.453125 Z M 137.976562 92.632812 C 137.976562 92.476562 137.957031 92.332031 137.914062 92.203125 C 137.871094 92.074219 137.808594 91.964844 137.726562 91.871094 C 137.644531 91.777344 137.539062 91.703125 137.417969 91.648438 C 137.292969 91.59375 137.148438 91.566406 136.984375 91.566406 C 136.910156 91.566406 136.839844 91.574219 136.769531 91.582031 C 136.699219 91.589844 136.628906 91.605469 136.566406 91.625 L 136.476562 93.683594 L 136.609375 93.683594 C 136.765625 93.683594 136.929688 93.664062 137.089844 93.621094 C 137.253906 93.582031 137.402344 93.519531 137.53125 93.433594 C 137.664062 93.347656 137.769531 93.238281 137.851562 93.105469 C 137.9375 92.972656 137.976562 92.816406 137.976562 92.632812 Z M 137.976562 92.632812 "/>
<path style=" stroke:none;fill-rule:nonzero;fill:rgb(0%,0%,0%);fill-opacity:1;" d="M 147.582031 93.882812 C 147.582031 94.21875 147.542969 94.542969 147.464844 94.851562 C 147.386719 95.164062 147.277344 95.457031 147.132812 95.730469 C 146.984375 96.003906 146.808594 96.253906 146.601562 96.480469 C 146.394531 96.707031 146.160156 96.902344 145.902344 97.066406 C 145.640625 97.226562 145.359375 97.355469 145.054688 97.445312 C 144.746094 97.535156 144.425781 97.578125 144.082031 97.578125 C 143.75 97.578125 143.4375 97.539062 143.136719 97.453125 C 142.835938 97.367188 142.554688 97.25 142.292969 97.09375 C 142.03125 96.941406 141.796875 96.757812 141.585938 96.542969 C 141.371094 96.324219 141.191406 96.085938 141.042969 95.820312 C 140.894531 95.558594 140.777344 95.273438 140.695312 94.972656 C 140.613281 94.667969 140.570312 94.355469 140.570312 94.027344 C 140.570312 93.703125 140.609375 93.390625 140.6875 93.082031 C 140.765625 92.773438 140.875 92.484375 141.023438 92.210938 C 141.167969 91.9375 141.34375 91.6875 141.546875 91.457031 C 141.753906 91.230469 141.984375 91.03125 142.242188 90.863281 C 142.496094 90.699219 142.773438 90.570312 143.070312 90.476562 C 143.371094 90.386719 143.683594 90.339844 144.015625 90.339844 C 144.550781 90.339844 145.035156 90.421875 145.476562 90.589844 C 145.914062 90.753906 146.289062 90.992188 146.601562 91.300781 C 146.914062 91.609375 147.152344 91.980469 147.324219 92.417969 C 147.496094 92.855469 147.582031 93.34375 147.582031 93.882812 Z M 145.128906 94.027344 C 145.128906 93.867188 145.109375 93.714844 145.0625 93.5625 C 145.015625 93.414062 144.949219 93.28125 144.859375 93.164062 C 144.773438 93.050781 144.664062 92.953125 144.53125 92.882812 C 144.402344 92.8125 144.25 92.773438 144.082031 92.773438 C 143.910156 92.773438 143.753906 92.804688 143.617188 92.867188 C 143.480469 92.933594 143.367188 93.015625 143.269531 93.125 C 143.171875 93.234375 143.097656 93.363281 143.042969 93.507812 C 142.992188 93.652344 142.96875 93.808594 142.96875 93.96875 C 142.96875 94.125 142.988281 94.28125 143.035156 94.433594 C 143.078125 94.589844 143.144531 94.730469 143.234375 94.855469 C 143.320312 94.980469 143.429688 95.082031 143.5625 95.160156 C 143.691406 95.238281 143.84375 95.277344 144.015625 95.277344 C 144.1875 95.277344 144.34375 95.242188 144.484375 95.175781 C 144.621094 95.105469 144.738281 95.015625 144.832031 94.898438 C 144.929688 94.78125 145.003906 94.648438 145.054688 94.496094 C 145.105469 94.34375 145.128906 94.1875 145.128906 94.027344 Z M 145.128906 94.027344 "/>
<path style=" stroke:none;fill-rule:nonzero;fill:rgb(0%,0%,0%);fill-opacity:1;" d="M 154.628906 96.660156 C 154.457031 96.878906 154.242188 97.070312 153.988281 97.230469 C 153.734375 97.394531 153.464844 97.527344 153.171875 97.636719 C 152.882812 97.742188 152.585938 97.824219 152.277344 97.875 C 151.972656 97.929688 151.683594 97.957031 151.40625 97.957031 C 150.875 97.957031 150.382812 97.859375 149.933594 97.667969 C 149.484375 97.476562 149.097656 97.210938 148.769531 96.875 C 148.445312 96.535156 148.191406 96.136719 148.007812 95.679688 C 147.824219 95.222656 147.730469 94.730469 147.730469 94.203125 C 147.730469 93.800781 147.777344 93.40625 147.867188 93.019531 C 147.960938 92.636719 148.09375 92.273438 148.261719 91.929688 C 148.433594 91.589844 148.644531 91.277344 148.890625 90.988281 C 149.136719 90.703125 149.417969 90.457031 149.730469 90.25 C 150.042969 90.042969 150.382812 89.882812 150.753906 89.769531 C 151.128906 89.65625 151.523438 89.597656 151.949219 89.597656 C 152.105469 89.597656 152.273438 89.605469 152.457031 89.617188 C 152.636719 89.628906 152.816406 89.652344 152.992188 89.683594 C 153.171875 89.714844 153.347656 89.757812 153.515625 89.8125 C 153.683594 89.867188 153.839844 89.9375 153.980469 90.019531 L 153.824219 92.132812 C 153.617188 92.054688 153.40625 92.003906 153.1875 91.972656 C 152.96875 91.945312 152.753906 91.933594 152.542969 91.933594 C 152.25 91.933594 151.972656 91.980469 151.71875 92.070312 C 151.464844 92.160156 151.238281 92.289062 151.050781 92.460938 C 150.863281 92.628906 150.710938 92.835938 150.601562 93.078125 C 150.492188 93.324219 150.433594 93.597656 150.433594 93.90625 C 150.433594 94.097656 150.460938 94.28125 150.511719 94.460938 C 150.5625 94.640625 150.640625 94.796875 150.746094 94.9375 C 150.851562 95.074219 150.984375 95.1875 151.140625 95.269531 C 151.296875 95.355469 151.476562 95.398438 151.683594 95.398438 C 151.824219 95.398438 151.96875 95.378906 152.117188 95.34375 C 152.265625 95.304688 152.394531 95.242188 152.5 95.15625 L 152.523438 94.722656 L 151.195312 94.703125 L 151.261719 93.039062 C 151.8125 93.023438 152.359375 93.007812 152.90625 92.992188 C 153.457031 92.980469 154.007812 92.964844 154.5625 92.941406 Z M 154.628906 96.660156 "/>
<path style=" stroke:none;fill-rule:nonzero;fill:rgb(0%,0%,0%);fill-opacity:1;" d="M 161.519531 92.453125 C 161.519531 92.742188 161.492188 93.003906 161.445312 93.238281 C 161.394531 93.472656 161.316406 93.6875 161.207031 93.882812 C 161.101562 94.078125 160.964844 94.257812 160.796875 94.425781 C 160.625 94.589844 160.421875 94.75 160.183594 94.902344 L 161.496094 97.246094 L 159.011719 97.734375 L 158.164062 95.375 L 157.476562 95.398438 L 157.378906 97.703125 L 155.003906 97.703125 C 155.023438 96.859375 155.042969 96.023438 155.058594 95.1875 C 155.074219 94.355469 155.09375 93.515625 155.117188 92.675781 C 155.121094 92.25 155.128906 91.832031 155.136719 91.414062 C 155.144531 90.996094 155.160156 90.578125 155.183594 90.152344 C 155.4375 90.054688 155.691406 89.976562 155.945312 89.914062 C 156.195312 89.851562 156.445312 89.800781 156.695312 89.765625 C 156.949219 89.730469 157.203125 89.707031 157.464844 89.695312 C 157.722656 89.683594 157.988281 89.675781 158.261719 89.675781 C 158.679688 89.675781 159.085938 89.734375 159.480469 89.851562 C 159.871094 89.964844 160.21875 90.140625 160.519531 90.375 C 160.820312 90.605469 161.0625 90.894531 161.246094 91.242188 C 161.425781 91.589844 161.519531 91.992188 161.519531 92.453125 Z M 159.046875 92.632812 C 159.046875 92.476562 159.023438 92.332031 158.980469 92.203125 C 158.9375 92.074219 158.875 91.964844 158.792969 91.871094 C 158.710938 91.777344 158.609375 91.703125 158.484375 91.648438 C 158.363281 91.59375 158.21875 91.566406 158.050781 91.566406 C 157.976562 91.566406 157.90625 91.574219 157.835938 91.582031 C 157.765625 91.589844 157.699219 91.605469 157.632812 91.625 L 157.542969 93.683594 L 157.675781 93.683594 C 157.835938 93.683594 157.996094 93.664062 158.160156 93.621094 C 158.324219 93.582031 158.46875 93.519531 158.601562 93.433594 C 158.730469 93.347656 158.839844 93.238281 158.921875 93.105469 C 159.003906 92.972656 159.046875 92.816406 159.046875 92.632812 Z M 159.046875 92.632812 "/>
<path style=" stroke:none;fill-rule:nonzero;fill:rgb(0%,0%,0%);fill-opacity:1;" d="M 168.859375 97.3125 L 166.121094 97.667969 L 165.789062 96.417969 L 164.53125 96.417969 L 164.253906 97.667969 L 161.441406 97.390625 L 163.636719 90.019531 L 166.707031 89.863281 Z M 165.589844 94.722656 L 165.171875 92.796875 L 164.761719 94.722656 Z M 165.589844 94.722656 "/>
<path style=" stroke:none;fill-rule:nonzero;fill:rgb(0%,0%,0%);fill-opacity:1;" d="M 177.507812 89.71875 L 177 97.84375 L 174.484375 97.957031 L 174.503906 93.671875 L 173.367188 97.125 L 172.394531 97.125 L 171.523438 94.035156 L 171.511719 97.625 L 168.964844 97.703125 L 169.074219 90.050781 L 171.910156 89.941406 L 173.035156 93.605469 L 174.539062 89.71875 Z M 177.507812 89.71875 "/>
<path style=" stroke:none;fill-rule:nonzero;fill:rgb(0%,0%,0%);fill-opacity:1;" d="M 64.425781 111.871094 C 64.425781 112.476562 64.015625 113.082031 63.296875 113.082031 C 62.941406 113.082031 62.710938 112.941406 62.566406 112.753906 L 62.566406 113.902344 L 61.988281 113.902344 L 61.988281 110.710938 L 62.566406 110.710938 L 62.566406 110.984375 C 62.710938 110.792969 62.941406 110.65625 63.296875 110.65625 C 64.015625 110.65625 64.425781 111.261719 64.425781 111.871094 Z M 63.832031 111.871094 C 63.832031 111.515625 63.605469 111.214844 63.210938 111.214844 C 62.808594 111.214844 62.585938 111.515625 62.585938 111.871094 C 62.585938 112.226562 62.808594 112.527344 63.210938 112.527344 C 63.605469 112.527344 63.832031 112.226562 63.832031 111.871094 Z M 63.832031 111.871094 "/>
<path style=" stroke:none;fill-rule:nonzero;fill:rgb(0%,0%,0%);fill-opacity:1;" d="M 66.179688 110.65625 L 66.179688 111.285156 C 65.496094 111.203125 65.410156 111.640625 65.410156 112.070312 L 65.410156 113.023438 L 64.832031 113.023438 L 64.832031 110.710938 L 65.410156 110.710938 L 65.410156 111.089844 C 65.582031 110.800781 65.902344 110.65625 66.179688 110.65625 Z M 66.179688 110.65625 "/>
<path style=" stroke:none;fill-rule:nonzero;fill:rgb(0%,0%,0%);fill-opacity:1;" d="M 68.726562 112.09375 L 67.019531 112.09375 C 67.101562 112.402344 67.355469 112.566406 67.671875 112.566406 C 67.9375 112.566406 68.117188 112.425781 68.1875 112.339844 L 68.652344 112.613281 C 68.464844 112.875 68.109375 113.082031 67.671875 113.082031 C 66.910156 113.082031 66.40625 112.570312 66.40625 111.871094 C 66.40625 111.144531 66.945312 110.65625 67.582031 110.65625 C 68.277344 110.65625 68.832031 111.179688 68.726562 112.09375 Z M 68.164062 111.644531 C 68.105469 111.34375 67.902344 111.171875 67.589844 111.171875 C 67.308594 111.171875 67.085938 111.351562 67.019531 111.644531 Z M 68.164062 111.644531 "/>
<path style=" stroke:none;fill-rule:nonzero;fill:rgb(0%,0%,0%);fill-opacity:1;" d="M 70.914062 112.3125 C 70.914062 112.769531 70.582031 113.082031 69.9375 113.082031 C 69.496094 113.082031 69.050781 112.90625 68.945312 112.515625 L 69.5 112.34375 C 69.519531 112.441406 69.609375 112.59375 69.945312 112.59375 C 70.1875 112.59375 70.324219 112.507812 70.324219 112.351562 C 70.324219 112.132812 69.992188 112.144531 69.71875 112.085938 C 69.273438 111.992188 69.046875 111.777344 69.046875 111.382812 C 69.046875 110.945312 69.410156 110.65625 69.949219 110.65625 C 70.347656 110.65625 70.738281 110.851562 70.832031 111.253906 L 70.308594 111.382812 C 70.28125 111.261719 70.167969 111.144531 69.949219 111.144531 C 69.78125 111.144531 69.609375 111.207031 69.609375 111.382812 C 69.609375 111.585938 69.917969 111.601562 70.101562 111.640625 C 70.664062 111.765625 70.914062 111.917969 70.914062 112.3125 Z M 70.914062 112.3125 "/>
<path style=" stroke:none;fill-rule:nonzero;fill:rgb(0%,0%,0%);fill-opacity:1;" d="M 73.488281 112.09375 L 71.777344 112.09375 C 71.859375 112.402344 72.113281 112.566406 72.433594 112.566406 C 72.695312 112.566406 72.878906 112.425781 72.945312 112.339844 L 73.410156 112.613281 C 73.222656 112.875 72.867188 113.082031 72.433594 113.082031 C 71.667969 113.082031 71.164062 112.570312 71.164062 111.871094 C 71.164062 111.144531 71.703125 110.65625 72.339844 110.65625 C 73.035156 110.65625 73.589844 111.179688 73.488281 112.09375 Z M 72.921875 111.644531 C 72.863281 111.34375 72.660156 111.171875 72.351562 111.171875 C 72.070312 111.171875 71.847656 111.351562 71.777344 111.644531 Z M 72.921875 111.644531 "/>
<path style=" stroke:none;fill-rule:nonzero;fill:rgb(0%,0%,0%);fill-opacity:1;" d="M 76 111.617188 L 76 113.023438 L 75.421875 113.023438 L 75.421875 111.738281 C 75.421875 111.441406 75.300781 111.21875 74.972656 111.21875 C 74.632812 111.21875 74.480469 111.472656 74.480469 111.738281 L 74.480469 113.023438 L 73.910156 113.023438 L 73.910156 110.710938 L 74.480469 110.710938 L 74.480469 110.996094 C 74.609375 110.808594 74.816406 110.65625 75.152344 110.65625 C 75.738281 110.65625 76 111.132812 76 111.617188 Z M 76 111.617188 "/>
<path style=" stroke:none;fill-rule:nonzero;fill:rgb(0%,0%,0%);fill-opacity:1;" d="M 77.265625 111.242188 L 77.265625 112.085938 C 77.265625 112.347656 77.304688 112.503906 77.621094 112.503906 C 77.664062 112.503906 77.71875 112.5 77.757812 112.496094 L 77.757812 113.023438 C 77.699219 113.042969 77.636719 113.054688 77.519531 113.054688 C 76.925781 113.054688 76.691406 112.660156 76.691406 112.179688 L 76.691406 111.242188 L 76.363281 111.242188 L 76.363281 110.710938 L 76.691406 110.710938 L 76.691406 110.226562 L 77.269531 110.226562 L 77.269531 110.710938 L 77.757812 110.710938 L 77.757812 111.242188 Z M 77.265625 111.242188 "/>
<path style=" stroke:none;fill-rule:nonzero;fill:rgb(0%,0%,0%);fill-opacity:1;" d="M 80.378906 112.09375 L 78.667969 112.09375 C 78.75 112.402344 79.003906 112.566406 79.320312 112.566406 C 79.585938 112.566406 79.769531 112.425781 79.835938 112.339844 L 80.300781 112.613281 C 80.113281 112.875 79.757812 113.082031 79.320312 113.082031 C 78.558594 113.082031 78.054688 112.570312 78.054688 111.871094 C 78.054688 111.144531 78.59375 110.65625 79.230469 110.65625 C 79.925781 110.65625 80.480469 111.179688 80.378906 112.09375 Z M 79.8125 111.644531 C 79.753906 111.34375 79.550781 111.171875 79.242188 111.171875 C 78.957031 111.171875 78.734375 111.351562 78.667969 111.644531 Z M 79.8125 111.644531 "/>
<path style=" stroke:none;fill-rule:nonzero;fill:rgb(0%,0%,0%);fill-opacity:1;" d="M 83.097656 109.832031 L 83.097656 113.023438 L 82.523438 113.023438 L 82.523438 112.753906 C 82.371094 112.941406 82.144531 113.082031 81.785156 113.082031 C 81.070312 113.082031 80.664062 112.476562 80.664062 111.871094 C 80.664062 111.261719 81.070312 110.65625 81.785156 110.65625 C 82.144531 110.65625 82.371094 110.792969 82.523438 110.984375 L 82.523438 109.832031 Z M 82.496094 111.871094 C 82.496094 111.515625 82.273438 111.214844 81.875 111.214844 C 81.480469 111.214844 81.253906 111.515625 81.253906 111.871094 C 81.253906 112.226562 81.480469 112.527344 81.875 112.527344 C 82.273438 112.527344 82.496094 112.226562 82.496094 111.871094 Z M 82.496094 111.871094 "/>
<path style=" stroke:none;fill-rule:nonzero;fill:rgb(0%,0%,0%);fill-opacity:1;" d="M 87.261719 111.871094 C 87.261719 112.476562 86.851562 113.082031 86.140625 113.082031 C 85.78125 113.082031 85.546875 112.941406 85.402344 112.753906 L 85.402344 113.023438 L 84.824219 113.023438 L 84.824219 109.832031 L 85.402344 109.832031 L 85.402344 110.984375 C 85.546875 110.792969 85.78125 110.65625 86.140625 110.65625 C 86.851562 110.65625 87.261719 111.261719 87.261719 111.871094 Z M 86.671875 111.871094 C 86.671875 111.515625 86.445312 111.214844 86.046875 111.214844 C 85.652344 111.214844 85.425781 111.515625 85.425781 111.871094 C 85.425781 112.226562 85.652344 112.527344 86.046875 112.527344 C 86.445312 112.527344 86.671875 112.226562 86.671875 111.871094 Z M 86.671875 111.871094 "/>
<path style=" stroke:none;fill-rule:nonzero;fill:rgb(0%,0%,0%);fill-opacity:1;" d="M 89.757812 110.710938 L 88.5 113.902344 L 87.90625 113.902344 L 88.328125 112.886719 L 87.375 110.710938 L 87.996094 110.710938 L 88.59375 112.238281 L 89.136719 110.710938 Z M 89.757812 110.710938 "/>
<path style=" stroke:none;fill-rule:nonzero;fill:rgb(0%,0%,0%);fill-opacity:1;" d="M 93.566406 55.988281 C 97.546875 60.375 100.757812 64.496094 103.210938 68.355469 C 103.671875 65.871094 104.777344 58.511719 104.777344 58.511719 L 111.554688 58.945312 L 105.480469 86.050781 C 105.480469 86.050781 99.363281 75.660156 97.230469 72.722656 L 95.652344 82.816406 L 88.285156 82.890625 C 88.285156 82.890625 91.050781 69.449219 93.566406 55.988281 Z M 93.566406 55.988281 "/>
<path style=" stroke:none;fill-rule:nonzero;fill:rgb(0%,46.666667%,53.72549%);fill-opacity:1;" d="M 94.046875 57.699219 C 97.496094 61.601562 100.351562 65.324219 102.546875 68.777344 L 103.617188 70.460938 L 103.980469 68.5 C 104.359375 66.457031 105.152344 61.257812 105.445312 59.339844 L 110.585938 59.671875 L 105.148438 83.949219 C 103.3125 80.863281 99.492188 74.496094 97.863281 72.261719 L 96.75 70.726562 L 96.457031 72.601562 L 94.980469 82.035156 L 89.25 82.09375 C 89.894531 78.9375 92.019531 68.441406 94.046875 57.699219 M 93.566406 55.988281 C 91.050781 69.449219 88.285156 82.890625 88.285156 82.890625 L 95.652344 82.816406 L 97.230469 72.722656 C 99.363281 75.660156 105.480469 86.050781 105.480469 86.050781 L 111.554688 58.945312 L 104.773438 58.511719 C 104.773438 58.511719 103.671875 65.871094 103.210938 68.355469 C 100.757812 64.496094 97.546875 60.375 93.566406 55.988281 Z M 93.566406 55.988281 "/>
<path style=" stroke:none;fill-rule:nonzero;fill:rgb(0%,0%,0%);fill-opacity:1;" d="M 85.078125 56.964844 C 86.96875 62.375 89.324219 70.554688 92.148438 81.503906 C 89.929688 81.929688 87.890625 82.445312 86.039062 83.050781 L 85.210938 79.246094 C 83.433594 79.269531 81.960938 79.410156 80.800781 79.667969 C 80.09375 81.214844 79.480469 82.570312 78.957031 83.734375 C 77.035156 83.449219 74.96875 83.242188 72.753906 83.117188 Z M 83.65625 72.300781 C 83.214844 73.132812 82.855469 73.851562 82.582031 74.453125 C 83.152344 74.382812 83.695312 74.296875 84.210938 74.195312 C 84.15625 73.800781 83.972656 73.167969 83.65625 72.300781 Z M 83.65625 72.300781 "/>
<path style=" stroke:none;fill-rule:nonzero;fill:rgb(0%,46.666667%,53.72549%);fill-opacity:1;" d="M 84.960938 59.058594 C 86.679688 64.246094 88.765625 71.574219 91.183594 80.894531 C 89.566406 81.230469 88.039062 81.613281 86.621094 82.042969 L 85.839844 78.449219 L 85.199219 78.457031 C 83.378906 78.484375 81.839844 78.632812 80.632812 78.898438 L 80.25 78.984375 L 80.085938 79.339844 C 79.488281 80.65625 78.953125 81.832031 78.484375 82.875 C 77.058594 82.675781 75.539062 82.519531 73.957031 82.40625 L 84.960938 59.058594 M 81.289062 75.402344 L 82.679688 75.234375 C 83.261719 75.160156 83.828125 75.070312 84.359375 74.96875 L 85.082031 74.824219 L 84.988281 74.09375 C 84.925781 73.632812 84.734375 72.957031 84.394531 72.03125 L 83.789062 70.378906 L 82.964844 71.929688 C 82.515625 72.773438 82.148438 73.515625 81.867188 74.125 L 81.289062 75.402344 M 85.078125 56.964844 L 72.753906 83.117188 C 74.96875 83.242188 77.035156 83.449219 78.957031 83.734375 C 79.480469 82.570312 80.09375 81.214844 80.800781 79.667969 C 81.964844 79.410156 83.433594 79.269531 85.210938 79.246094 L 86.039062 83.050781 C 87.890625 82.445312 89.929688 81.929688 92.152344 81.503906 C 89.324219 70.554688 86.96875 62.375 85.078125 56.964844 Z M 82.582031 74.453125 C 82.855469 73.851562 83.214844 73.132812 83.65625 72.300781 C 83.972656 73.167969 84.15625 73.800781 84.210938 74.195312 C 83.695312 74.296875 83.152344 74.382812 82.582031 74.453125 Z M 82.582031 74.453125 "/>
<path style=" stroke:none;fill-rule:nonzero;fill:rgb(0%,0%,0%);fill-opacity:1;" d="M 123.84375 73.808594 L 122.238281 81.515625 C 115.460938 82.394531 111.277344 80.546875 109.691406 75.972656 C 108.984375 73.136719 109.398438 69.984375 110.929688 66.511719 C 114.292969 60.324219 119.550781 57.683594 126.707031 58.589844 L 125.082031 67.152344 C 122.710938 66.410156 120.625 66.660156 118.828125 67.902344 C 117.03125 69.148438 116.496094 70.730469 117.222656 72.652344 C 118.222656 74.253906 120.425781 74.640625 123.84375 73.808594 Z M 123.84375 73.808594 "/>
<path style=" stroke:none;fill-rule:nonzero;fill:rgb(0%,46.666667%,53.72549%);fill-opacity:1;" d="M 124.054688 59.203125 C 124.613281 59.203125 125.1875 59.230469 125.777344 59.28125 L 124.46875 66.175781 C 123.804688 66.027344 123.160156 65.949219 122.539062 65.949219 C 121.035156 65.949219 119.636719 66.390625 118.382812 67.257812 C 116.289062 68.707031 115.632812 70.667969 116.488281 72.929688 L 116.515625 73.003906 L 116.558594 73.070312 C 117.367188 74.363281 118.78125 75.019531 120.769531 75.019531 C 121.390625 75.019531 122.082031 74.957031 122.832031 74.824219 L 121.585938 80.800781 C 120.734375 80.894531 119.921875 80.941406 119.164062 80.941406 C 114.523438 80.941406 111.671875 79.242188 110.445312 75.75 C 109.796875 73.117188 110.199219 70.125 111.636719 66.859375 C 114.445312 61.707031 118.507812 59.203125 124.054688 59.203125 M 124.054688 58.414062 C 118.238281 58.414062 113.863281 61.113281 110.929688 66.511719 C 109.398438 69.984375 108.984375 73.136719 109.691406 75.976562 C 111.023438 79.8125 114.179688 81.730469 119.164062 81.730469 C 120.121094 81.730469 121.144531 81.65625 122.238281 81.515625 L 123.84375 73.808594 C 122.675781 74.09375 121.652344 74.234375 120.769531 74.234375 C 119.0625 74.234375 117.878906 73.707031 117.222656 72.652344 C 116.496094 70.730469 117.03125 69.148438 118.828125 67.902344 C 119.953125 67.125 121.191406 66.738281 122.539062 66.738281 C 123.347656 66.738281 124.195312 66.875 125.082031 67.152344 L 126.707031 58.589844 C 125.792969 58.472656 124.90625 58.414062 124.054688 58.414062 Z M 124.054688 58.414062 "/>
<path style=" stroke:none;fill-rule:nonzero;fill:rgb(0%,0%,0%);fill-opacity:1;" d="M 135.789062 58.664062 L 130.910156 81.410156 L 123.660156 81.546875 L 127.949219 58.878906 Z M 135.789062 58.664062 "/>
<path style=" stroke:none;fill-rule:nonzero;fill:rgb(0%,46.666667%,53.72549%);fill-opacity:1;" d="M 134.8125 59.480469 L 130.277344 80.632812 L 124.609375 80.742188 L 128.601562 59.648438 L 134.8125 59.480469 M 135.789062 58.664062 L 127.949219 58.878906 L 123.660156 81.546875 L 130.910156 81.410156 Z M 135.789062 58.664062 "/>
<path style=" stroke:none;fill-rule:nonzero;fill:rgb(0%,0%,0%);fill-opacity:1;" d="M 159.726562 58.363281 L 156.347656 75.503906 L 163.234375 75.308594 L 161.609375 81.71875 L 148.519531 81.957031 L 153.335938 58.578125 Z M 159.726562 58.363281 "/>
<path style=" stroke:none;fill-rule:nonzero;fill:rgb(0%,46.666667%,53.72549%);fill-opacity:1;" d="M 158.765625 59.183594 L 155.578125 75.351562 L 155.390625 76.316406 L 156.371094 76.289062 L 162.21875 76.125 L 160.996094 80.945312 L 149.488281 81.152344 L 153.980469 59.34375 L 158.765625 59.183594 M 159.726562 58.363281 L 153.335938 58.578125 L 148.519531 81.957031 L 161.609375 81.71875 L 163.234375 75.308594 L 156.347656 75.503906 Z M 159.726562 58.363281 "/>
<path style=" stroke:none;fill-rule:nonzero;fill:rgb(0%,0%,0%);fill-opacity:1;" d="M 171.84375 58.683594 L 172.75 55.390625 C 174.292969 55.328125 175.824219 55.304688 177.335938 55.316406 C 177.199219 55.882812 176.613281 57.527344 176.359375 58.664062 C 177.257812 58.800781 178.191406 59.007812 179.160156 59.292969 L 177.359375 64.941406 C 172.804688 64.148438 170.652344 64.601562 170.328125 66.222656 C 170.175781 67 170.878906 67.378906 171.921875 67.308594 C 172.964844 67.238281 174.183594 67.332031 175.578125 67.59375 C 176.972656 67.851562 177.933594 68.445312 178.460938 69.363281 C 179.117188 71.101562 179.199219 72.6875 178.707031 74.125 C 177.5625 77.136719 175.328125 79.253906 172.003906 80.476562 C 171.710938 81.792969 171.089844 83.609375 170.929688 84.347656 C 169.476562 84.429688 167.96875 84.414062 166.40625 84.304688 L 167.234375 81.464844 C 165.265625 81.625 163.695312 81.449219 162.527344 80.9375 C 163.058594 79.105469 163.609375 77.15625 164.183594 75.089844 C 165.402344 75.960938 167.40625 76.097656 170.195312 75.507812 C 171.671875 75.078125 172.398438 74.421875 172.367188 73.539062 C 172.375 72.816406 171.613281 72.621094 170.089844 72.941406 C 167.867188 73.054688 166.222656 72.632812 165.15625 71.679688 C 164.089844 70.722656 163.527344 69.78125 163.476562 68.855469 C 163.210938 66.160156 164.042969 63.78125 165.976562 61.714844 C 167.648438 60.085938 169.605469 59.074219 171.84375 58.683594 Z M 171.84375 58.683594 "/>
<path style=" stroke:none;fill-rule:nonzero;fill:rgb(0%,46.666667%,53.72549%);fill-opacity:1;" d="M 176.28125 56.097656 C 176.277344 56.113281 176.273438 56.128906 176.269531 56.144531 C 176.039062 56.867188 175.753906 57.765625 175.59375 58.492188 L 175.410156 59.320312 L 176.242188 59.441406 C 176.863281 59.535156 177.503906 59.667969 178.164062 59.835938 L 176.820312 64.054688 C 175.601562 63.867188 174.574219 63.773438 173.691406 63.773438 C 171.253906 63.773438 169.863281 64.546875 169.558594 66.070312 C 169.460938 66.570312 169.570312 67.042969 169.863281 67.402344 C 170.238281 67.863281 170.867188 68.101562 171.683594 68.101562 C 171.777344 68.101562 171.875 68.101562 171.972656 68.09375 C 172.175781 68.078125 172.390625 68.074219 172.609375 68.074219 C 173.4375 68.074219 174.386719 68.171875 175.433594 68.367188 C 176.574219 68.578125 177.332031 69.015625 177.75 69.707031 C 178.3125 71.230469 178.386719 72.625 177.96875 73.855469 C 176.898438 76.664062 174.855469 78.585938 171.734375 79.738281 L 171.332031 79.886719 L 171.238281 80.304688 C 171.082031 81.015625 170.820312 81.882812 170.589844 82.652344 C 170.488281 82.996094 170.394531 83.3125 170.316406 83.589844 C 169.890625 83.605469 169.460938 83.613281 169.03125 83.613281 C 168.507812 83.613281 167.976562 83.601562 167.4375 83.578125 L 167.988281 81.683594 L 168.308594 80.585938 L 167.171875 80.679688 C 166.722656 80.71875 166.289062 80.738281 165.886719 80.738281 C 164.964844 80.738281 164.160156 80.640625 163.484375 80.445312 C 163.871094 79.109375 164.269531 77.699219 164.679688 76.238281 C 165.386719 76.515625 166.230469 76.652344 167.195312 76.652344 C 168.117188 76.652344 169.179688 76.527344 170.359375 76.277344 L 170.414062 76.261719 C 172.714844 75.59375 173.175781 74.410156 173.152344 73.527344 C 173.152344 73.015625 172.933594 72.6875 172.75 72.5 C 172.417969 72.167969 171.941406 72.007812 171.289062 72.007812 C 170.917969 72.007812 170.492188 72.058594 169.988281 72.160156 C 169.792969 72.171875 169.597656 72.175781 169.410156 72.175781 C 167.734375 72.175781 166.480469 71.808594 165.675781 71.089844 C 164.777344 70.285156 164.296875 69.515625 164.257812 68.808594 L 164.257812 68.792969 L 164.253906 68.777344 C 164.011719 66.304688 164.757812 64.175781 166.535156 62.265625 C 168.082031 60.761719 169.914062 59.816406 171.980469 59.457031 L 172.46875 59.371094 L 172.601562 58.890625 L 173.355469 56.15625 C 174.335938 56.121094 175.316406 56.101562 176.28125 56.097656 M 176.636719 55.3125 C 175.351562 55.3125 174.058594 55.339844 172.753906 55.390625 L 171.84375 58.683594 C 169.605469 59.074219 167.648438 60.085938 165.976562 61.714844 C 164.042969 63.78125 163.210938 66.160156 163.476562 68.855469 C 163.527344 69.78125 164.089844 70.722656 165.15625 71.679688 C 166.113281 72.53125 167.527344 72.960938 169.410156 72.960938 C 169.632812 72.960938 169.859375 72.953125 170.089844 72.941406 C 170.5625 72.84375 170.960938 72.792969 171.289062 72.792969 C 172.011719 72.792969 172.371094 73.039062 172.367188 73.539062 C 172.398438 74.421875 171.675781 75.078125 170.195312 75.507812 C 169.066406 75.746094 168.066406 75.867188 167.195312 75.867188 C 165.914062 75.867188 164.910156 75.605469 164.183594 75.089844 C 163.613281 77.15625 163.058594 79.105469 162.527344 80.9375 C 163.417969 81.328125 164.539062 81.523438 165.886719 81.523438 C 166.316406 81.523438 166.761719 81.503906 167.234375 81.464844 L 166.410156 84.304688 C 167.300781 84.367188 168.175781 84.398438 169.03125 84.398438 C 169.675781 84.398438 170.308594 84.382812 170.929688 84.347656 C 171.089844 83.609375 171.710938 81.792969 172.003906 80.476562 C 175.328125 79.253906 177.5625 77.136719 178.707031 74.125 C 179.199219 72.6875 179.117188 71.101562 178.460938 69.363281 C 177.933594 68.445312 176.972656 67.851562 175.578125 67.59375 C 174.480469 67.386719 173.488281 67.285156 172.609375 67.285156 C 172.371094 67.285156 172.140625 67.292969 171.921875 67.308594 C 171.839844 67.3125 171.757812 67.316406 171.683594 67.316406 C 170.773438 67.316406 170.1875 66.941406 170.328125 66.222656 C 170.546875 65.121094 171.609375 64.558594 173.695312 64.558594 C 174.679688 64.558594 175.894531 64.6875 177.359375 64.941406 L 179.160156 59.292969 C 178.191406 59.007812 177.257812 58.800781 176.359375 58.664062 C 176.613281 57.527344 177.199219 55.882812 177.335938 55.316406 C 177.101562 55.3125 176.871094 55.3125 176.636719 55.3125 Z M 176.636719 55.3125 "/>
<path style=" stroke:none;fill-rule:nonzero;fill:rgb(0%,0%,0%);fill-opacity:1;" d="M 142.867188 55.859375 L 150.535156 80.09375 L 144.46875 81.914062 L 143.546875 78.144531 L 139.15625 78.761719 L 137.414062 82.914062 L 131.207031 82.570312 Z M 141.828125 71.265625 L 140.804688 73.464844 L 142.425781 73.136719 Z M 141.828125 71.265625 "/>
<path style=" stroke:none;fill-rule:nonzero;fill:rgb(0%,46.666667%,53.72549%);fill-opacity:1;" d="M 142.75 58.089844 L 149.546875 79.570312 L 145.035156 80.921875 L 144.308594 77.957031 L 144.140625 77.265625 L 143.4375 77.363281 L 139.046875 77.984375 L 138.605469 78.042969 L 138.433594 78.457031 L 136.90625 82.097656 L 132.378906 81.847656 L 142.75 58.089844 M 139.441406 74.546875 L 140.960938 74.234375 L 142.582031 73.90625 L 143.441406 73.730469 L 143.171875 72.894531 L 142.574219 71.023438 L 141.960938 69.109375 L 141.113281 70.933594 L 140.09375 73.132812 L 139.441406 74.546875 M 142.867188 55.859375 L 131.207031 82.570312 L 137.414062 82.914062 L 139.15625 78.761719 L 143.546875 78.144531 L 144.46875 81.914062 L 150.535156 80.09375 Z M 140.804688 73.464844 L 141.828125 71.265625 L 142.425781 73.136719 Z M 140.804688 73.464844 "/>
<path style=" stroke:none;fill-rule:nonzero;fill:rgb(100%,100%,100%);fill-opacity:1;" d="M 32.097656 57.699219 C 37.007812 56 43.402344 55.175781 49.035156 54.132812 C 48.488281 56.351562 48.070312 58.503906 47.78125 60.589844 C 44.976562 60.953125 42.074219 61.558594 39.078125 62.410156 L 38.453125 66.660156 C 40.792969 65.886719 42.847656 65.292969 44.613281 64.875 C 44.113281 66.914062 43.699219 68.589844 43.378906 69.90625 C 42.027344 70.085938 40.152344 70.515625 37.753906 71.195312 C 37.085938 75.414062 36.480469 78.828125 35.945312 81.449219 C 33.546875 82.535156 31.582031 83.378906 30.054688 83.980469 C 31.496094 76.863281 31.679688 60.195312 32.097656 57.699219 Z M 32.097656 57.699219 "/>
<path style=" stroke:none;fill-rule:nonzero;fill:rgb(0%,0%,0%);fill-opacity:1;" d="M 27.675781 86.816406 L 28.324219 83.628906 C 29.246094 79.082031 29.65625 70.136719 29.929688 64.21875 C 30.101562 60.480469 30.207031 58.320312 30.359375 57.40625 L 30.53125 56.371094 L 31.523438 56.027344 C 35.417969 54.679688 40.125 53.875 44.679688 53.097656 C 46.082031 52.859375 47.40625 52.632812 48.714844 52.390625 L 51.40625 51.894531 L 50.75 54.558594 C 50.21875 56.707031 49.808594 58.816406 49.53125 60.832031 L 49.347656 62.171875 L 48.007812 62.34375 C 45.644531 62.652344 43.175781 63.144531 40.65625 63.8125 L 40.609375 64.125 C 41.914062 63.734375 43.117188 63.410156 44.207031 63.152344 L 47.019531 62.484375 L 44.804688 71.5 L 43.613281 71.660156 C 42.554688 71.800781 41.113281 72.117188 39.316406 72.601562 C 38.714844 76.324219 38.164062 79.414062 37.671875 81.804688 L 37.492188 82.6875 L 36.671875 83.058594 C 34.265625 84.152344 32.253906 85.015625 30.695312 85.628906 Z M 33.734375 59.027344 C 33.644531 60.261719 33.550781 62.28125 33.453125 64.382812 C 33.21875 69.53125 32.910156 76.214844 32.289062 81.136719 C 32.945312 80.851562 33.648438 80.542969 34.394531 80.207031 C 34.878906 77.753906 35.421875 74.632812 36.011719 70.917969 L 36.1875 69.800781 L 37.273438 69.496094 C 39.140625 68.964844 40.679688 68.585938 41.941406 68.347656 L 42.1875 67.347656 C 41.195312 67.636719 40.128906 67.96875 39.003906 68.339844 L 36.289062 69.234375 L 37.5 61.015625 L 38.597656 60.707031 C 41.199219 59.96875 43.757812 59.40625 46.234375 59.023438 C 46.375 58.140625 46.539062 57.242188 46.726562 56.339844 C 46.238281 56.421875 45.753906 56.503906 45.273438 56.585938 C 41.277344 57.269531 37.164062 57.972656 33.734375 59.027344 Z M 33.734375 59.027344 "/>
<path style=" stroke:none;fill-rule:nonzero;fill:rgb(100%,100%,100%);fill-opacity:1;" d="M 45.832031 81.292969 C 47.371094 74.269531 49.640625 62.398438 50.488281 56.609375 C 52.242188 55.917969 54.152344 55.414062 56.21875 55.097656 C 55.058594 63.515625 52.945312 75.457031 52.027344 80.003906 C 49.53125 80.363281 47.464844 80.796875 45.832031 81.292969 Z M 45.832031 81.292969 "/>
<path style=" stroke:none;fill-rule:nonzero;fill:rgb(0%,0%,0%);fill-opacity:1;" d="M 43.460938 83.867188 L 44.109375 80.914062 C 45.582031 74.183594 47.878906 62.25 48.742188 56.351562 L 48.890625 55.335938 L 49.84375 54.960938 C 51.710938 54.226562 53.765625 53.683594 55.953125 53.347656 L 58.289062 52.988281 L 57.964844 55.339844 C 56.761719 64.09375 54.617188 76.097656 53.757812 80.355469 L 53.507812 81.574219 L 52.28125 81.753906 C 49.886719 82.101562 47.886719 82.515625 46.34375 82.988281 Z M 52.074219 57.910156 C 51.234375 63.320312 49.511719 72.390625 48.152344 78.886719 C 48.894531 78.730469 49.691406 78.582031 50.535156 78.441406 C 51.402344 73.96875 53.007812 64.886719 54.121094 57.3125 C 53.414062 57.488281 52.734375 57.6875 52.074219 57.910156 Z M 52.074219 57.910156 "/>
<path style=" stroke:none;fill-rule:nonzero;fill:rgb(100%,100%,100%);fill-opacity:1;" d="M 66.335938 53.570312 C 67.269531 57.050781 68.066406 61.09375 68.738281 65.707031 C 69.179688 62.070312 69.710938 58.636719 70.332031 55.40625 C 72.335938 55.246094 74.640625 54.785156 77.242188 54.011719 C 75.609375 64.824219 74.292969 73.839844 73.304688 81.058594 C 71.75 81.441406 69.894531 81.941406 67.734375 82.550781 C 65.382812 74.859375 63.992188 69.378906 63.5625 66.117188 C 62.953125 70.457031 62.195312 75.261719 61.285156 80.53125 C 58.96875 81.210938 56.96875 81.777344 55.289062 82.230469 C 56.363281 74.523438 57.402344 67.558594 58.402344 61.339844 C 57.984375 61.441406 57.484375 61.609375 56.898438 61.847656 C 57.136719 59.707031 58.664062 54.480469 66.335938 53.570312 Z M 66.335938 53.570312 "/>
<path style=" stroke:none;fill-rule:nonzero;fill:rgb(0%,0%,0%);fill-opacity:1;" d="M 66.554688 84.726562 L 66.046875 83.070312 C 65.203125 80.3125 64.488281 77.851562 63.890625 75.667969 C 63.617188 77.339844 63.328125 79.0625 63.023438 80.832031 L 62.839844 81.917969 L 61.78125 82.226562 C 59.453125 82.910156 57.421875 83.488281 55.746094 83.9375 L 53.171875 84.632812 L 53.539062 81.984375 C 54.441406 75.511719 55.328125 69.496094 56.1875 64.046875 L 54.816406 64.605469 L 55.144531 61.652344 C 55.273438 60.496094 55.746094 58.242188 57.460938 56.128906 C 59.421875 53.714844 62.339844 52.261719 66.128906 51.8125 L 67.644531 51.632812 L 68.039062 53.113281 C 68.222656 53.789062 68.398438 54.488281 68.570312 55.210938 C 68.578125 55.164062 68.589844 55.117188 68.597656 55.070312 L 68.851562 53.75 L 70.191406 53.640625 C 72.066406 53.496094 74.273438 53.046875 76.742188 52.316406 L 79.402344 51.527344 L 78.988281 54.277344 C 77.363281 65.015625 76.039062 74.105469 75.050781 81.296875 L 74.886719 82.488281 L 73.726562 82.773438 C 72.207031 83.152344 70.351562 83.648438 68.214844 84.253906 Z M 63.992188 55.875 L 65.308594 65.882812 C 65.695312 68.804688 66.910156 73.675781 68.921875 80.382812 C 69.929688 80.105469 70.863281 79.855469 71.71875 79.632812 C 72.601562 73.242188 73.738281 65.449219 75.097656 56.414062 C 73.945312 56.683594 72.851562 56.886719 71.824219 57.023438 C 71.3125 59.835938 70.863281 62.820312 70.488281 65.921875 L 68.890625 79.074219 L 66.992188 65.960938 C 66.433594 62.113281 65.773438 58.628906 65.03125 55.585938 C 64.664062 55.671875 64.316406 55.765625 63.992188 55.875 Z M 60.570312 58.992188 L 60.144531 61.621094 C 59.265625 67.078125 58.347656 73.183594 57.410156 79.808594 C 58.140625 79.601562 58.914062 79.378906 59.734375 79.140625 C 60.554688 74.328125 61.253906 69.867188 61.8125 65.867188 L 63.171875 56.179688 C 61.335938 56.960938 60.238281 58.109375 59.582031 59.230469 Z M 60.570312 58.992188 "/>
<path style=" stroke:none;fill-rule:nonzero;fill:rgb(100%,100%,100%);fill-opacity:1;" d="M 32.492188 57.308594 C 37.398438 55.609375 43.792969 54.78125 49.429688 53.738281 C 48.878906 55.960938 48.460938 58.113281 48.175781 60.199219 C 45.371094 60.558594 42.46875 61.167969 39.472656 62.015625 L 38.84375 66.265625 C 41.183594 65.496094 43.238281 64.898438 45.003906 64.480469 C 44.503906 66.519531 44.09375 68.199219 43.769531 69.511719 C 42.421875 69.695312 40.546875 70.125 38.144531 70.804688 C 37.476562 75.019531 36.875 78.4375 36.335938 81.054688 C 33.9375 82.140625 31.972656 82.984375 30.445312 83.585938 C 31.890625 76.472656 32.074219 59.800781 32.492188 57.308594 Z M 32.492188 57.308594 "/>
<path style=" stroke:none;fill-rule:nonzero;fill:rgb(100%,100%,100%);fill-opacity:1;" d="M 46.222656 80.902344 C 47.761719 73.875 50.03125 62.007812 50.878906 56.214844 C 52.632812 55.523438 54.542969 55.019531 56.609375 54.703125 C 55.453125 63.125 53.339844 75.066406 52.417969 79.609375 C 49.925781 79.972656 47.859375 80.402344 46.222656 80.902344 Z M 46.222656 80.902344 "/>
<path style=" stroke:none;fill-rule:nonzero;fill:rgb(100%,100%,100%);fill-opacity:1;" d="M 66.730469 53.175781 C 67.660156 56.65625 68.460938 60.703125 69.128906 65.3125 C 69.570312 61.675781 70.101562 58.242188 70.722656 55.011719 C 72.730469 54.855469 75.03125 54.390625 77.636719 53.621094 C 76 64.429688 74.6875 73.445312 73.695312 80.664062 C 72.144531 81.046875 70.285156 81.546875 68.125 82.160156 C 65.773438 74.464844 64.382812 68.984375 63.953125 65.722656 C 63.34375 70.0625 62.585938 74.867188 61.679688 80.136719 C 59.363281 80.816406 57.363281 81.382812 55.679688 81.835938 C 56.753906 74.128906 57.792969 67.167969 58.796875 60.945312 C 58.378906 61.046875 57.875 61.21875 57.289062 61.457031 C 57.53125 59.3125 59.058594 54.089844 66.730469 53.175781 Z M 66.730469 53.175781 "/>
<path style=" stroke:none;fill-rule:nonzero;fill:rgb(0%,26.27451%,48.235294%);fill-opacity:1;" d="M 109.941406 112.867188 L 109.941406 113.042969 L 107.972656 113.042969 L 107.972656 112.867188 C 108.386719 112.824219 108.542969 112.695312 108.542969 112.269531 L 108.542969 110.34375 C 108.550781 109.453125 108.40625 109.230469 107.84375 109.230469 C 107.4375 109.230469 107.097656 109.445312 106.894531 109.789062 L 106.894531 112.269531 C 106.890625 112.699219 107.050781 112.824219 107.464844 112.867188 L 107.464844 113.042969 L 105.480469 113.042969 L 105.480469 112.867188 C 105.898438 112.824219 106.0625 112.703125 106.070312 112.269531 L 106.070312 110.304688 C 106.070312 109.820312 106.03125 109.230469 105.445312 109.230469 C 105.074219 109.230469 104.625 109.445312 104.402344 109.769531 L 104.402344 112.269531 C 104.40625 112.699219 104.570312 112.824219 104.992188 112.867188 L 104.992188 113.042969 L 103.003906 113.042969 L 103.003906 112.863281 C 103.460938 112.824219 103.582031 112.664062 103.574219 112.269531 L 103.574219 109.976562 C 103.578125 109.464844 103.519531 109.386719 103.003906 109.382812 L 103.003906 109.171875 L 104.402344 108.671875 L 104.402344 109.433594 C 104.867188 108.917969 105.398438 108.683594 105.828125 108.683594 C 106.285156 108.683594 106.652344 109.023438 106.769531 109.46875 C 107.109375 109.070312 107.671875 108.683594 108.1875 108.683594 C 109.304688 108.683594 109.371094 109.660156 109.371094 110.496094 L 109.371094 112.269531 C 109.367188 112.695312 109.527344 112.824219 109.941406 112.867188 Z M 113.445312 111.453125 C 113.167969 111.949219 112.671875 112.453125 112.050781 112.457031 C 111.046875 112.453125 110.609375 111.328125 110.589844 110.441406 L 113.445312 110.441406 C 113.421875 109.457031 112.847656 108.683594 111.804688 108.683594 C 110.65625 108.683594 109.914062 109.65625 109.914062 110.996094 C 109.914062 112.125 110.609375 113.128906 111.6875 113.121094 C 112.652344 113.128906 113.351562 112.339844 113.640625 111.503906 Z M 111.613281 109.058594 C 112.1875 109.054688 112.433594 109.558594 112.464844 110.089844 L 110.628906 110.089844 C 110.710938 109.519531 110.992188 109.058594 111.613281 109.058594 Z M 100.875 108.683594 C 100.042969 108.683594 99.445312 109.109375 99.128906 109.757812 L 99.070312 107.851562 L 98.84375 107.851562 C 98.699219 108.214844 98.542969 108.234375 98.210938 108.128906 C 98.058594 108.078125 97.871094 108.007812 97.648438 107.945312 C 97.421875 107.882812 97.15625 107.835938 96.839844 107.835938 C 94.976562 107.832031 93.671875 109.230469 93.679688 111.113281 C 93.671875 113.183594 95.050781 114.367188 96.859375 114.375 C 97.761719 114.367188 98.59375 113.945312 99.152344 113.234375 L 98.972656 113.007812 C 98.335938 113.652344 97.847656 113.898438 96.933594 113.902344 C 95.449219 113.898438 94.785156 112.5 94.789062 111.1875 C 94.785156 109.5 95.453125 108.191406 96.875 108.265625 C 98.4375 108.339844 98.859375 109.5 98.871094 110.957031 C 98.867188 112.109375 99.683594 113.128906 100.875 113.121094 C 102.167969 113.128906 102.953125 112.007812 102.953125 110.765625 C 102.953125 109.542969 102.109375 108.691406 100.875 108.683594 Z M 102.035156 111.320312 C 101.964844 112.128906 101.566406 112.867188 100.878906 112.804688 C 100.03125 112.730469 99.679688 111.679688 99.792969 110.363281 C 99.871094 109.542969 100.269531 108.949219 100.929688 108.996094 C 101.949219 109.09375 102.109375 110.46875 102.035156 111.320312 Z M 137.113281 112.535156 C 137.074219 112.558594 137.023438 112.570312 136.953125 112.570312 C 136.84375 112.570312 136.769531 112.507812 136.730469 112.375 C 136.710938 112.3125 136.699219 112.195312 136.699219 112.015625 L 136.699219 110.210938 C 136.699219 109.804688 136.640625 109.492188 136.523438 109.277344 C 136.300781 108.878906 135.886719 108.6875 135.277344 108.6875 C 134.757812 108.6875 134.355469 108.800781 134.085938 109.042969 C 133.8125 109.28125 133.671875 109.511719 133.671875 109.734375 C 133.671875 109.851562 133.707031 109.957031 133.785156 110.054688 C 133.863281 110.152344 133.980469 110.195312 134.125 110.195312 C 134.214844 110.195312 134.296875 110.179688 134.363281 110.136719 C 134.484375 110.0625 134.546875 109.929688 134.546875 109.753906 C 134.546875 109.632812 134.507812 109.515625 134.507812 109.398438 C 134.507812 109.261719 134.574219 109.15625 134.707031 109.078125 C 134.847656 109 134.988281 108.960938 135.140625 108.960938 C 135.46875 108.960938 135.671875 109.0625 135.773438 109.253906 C 135.832031 109.371094 135.863281 109.582031 135.863281 109.898438 L 135.863281 110.230469 C 135.03125 110.546875 134.476562 110.792969 134.195312 110.976562 C 133.75 111.28125 133.519531 111.660156 133.519531 112.113281 C 133.519531 112.40625 133.621094 112.648438 133.820312 112.839844 C 134.015625 113.03125 134.25 113.128906 134.519531 113.128906 C 134.773438 113.128906 135.039062 113.039062 135.320312 112.875 C 135.480469 112.777344 135.667969 112.636719 135.882812 112.449219 C 135.898438 112.625 135.949219 112.777344 136.039062 112.90625 C 136.140625 113.054688 136.300781 113.128906 136.519531 113.128906 C 136.699219 113.128906 136.882812 113.070312 137.0625 112.953125 C 137.183594 112.867188 137.292969 112.769531 137.390625 112.652344 L 137.390625 112.316406 C 137.300781 112.394531 137.214844 112.480469 137.113281 112.535156 Z M 135.863281 111.9375 C 135.863281 112.101562 135.777344 112.238281 135.597656 112.347656 C 135.417969 112.460938 135.234375 112.511719 135.039062 112.511719 C 134.898438 112.511719 134.769531 112.472656 134.660156 112.390625 C 134.484375 112.261719 134.398438 112.0625 134.398438 111.789062 C 134.398438 111.457031 134.605469 111.15625 135.039062 110.882812 C 135.253906 110.75 135.53125 110.621094 135.863281 110.507812 Z M 145.871094 112.558594 C 145.652344 112.371094 145.324219 112 144.890625 111.429688 L 144.089844 110.355469 L 144.324219 110.148438 C 144.90625 109.589844 145.300781 109.257812 145.503906 109.140625 C 145.753906 109 146.054688 108.949219 146.332031 108.9375 L 146.332031 108.753906 L 144.367188 108.753906 L 144.367188 108.9375 C 144.476562 108.941406 144.648438 108.949219 144.757812 108.976562 C 144.8125 108.992188 144.835938 109.027344 144.835938 109.082031 C 144.835938 109.113281 144.828125 109.152344 144.796875 109.195312 C 144.765625 109.242188 144.707031 109.304688 144.617188 109.390625 L 143.414062 110.472656 L 143.414062 107.457031 L 141.84375 107.894531 L 141.84375 108.074219 C 141.953125 108.0625 142.0625 108.054688 142.171875 108.054688 C 142.304688 108.054688 142.40625 108.082031 142.476562 108.136719 C 142.539062 108.1875 142.578125 108.3125 142.578125 108.535156 L 142.578125 112.246094 C 142.578125 112.496094 142.53125 112.652344 142.445312 112.722656 C 142.3125 112.824219 141.996094 112.851562 141.851562 112.859375 C 141.707031 112.859375 141.480469 112.84375 141.367188 112.722656 C 141.285156 112.632812 141.242188 112.480469 141.242188 112.265625 L 141.242188 110.136719 C 141.242188 109.535156 141.078125 109.109375 140.730469 108.867188 C 140.554688 108.746094 140.359375 108.683594 140.144531 108.683594 C 139.878906 108.683594 139.625 108.757812 139.382812 108.90625 C 139.226562 108.996094 139.058594 109.128906 138.792969 109.363281 L 138.792969 108.664062 L 137.355469 109.121094 L 137.355469 109.335938 C 137.355469 109.335938 137.484375 109.316406 137.570312 109.316406 C 137.746094 109.3125 137.851562 109.371094 137.902344 109.472656 C 137.9375 109.546875 137.953125 109.679688 137.953125 109.875 L 137.953125 112.191406 C 137.953125 112.472656 137.914062 112.636719 137.832031 112.710938 C 137.722656 112.8125 137.511719 112.847656 137.375 112.863281 L 137.375 113.042969 L 139.410156 113.042969 L 139.410156 112.863281 C 139.261719 112.859375 139.058594 112.84375 138.933594 112.746094 C 138.84375 112.675781 138.792969 112.542969 138.792969 112.324219 L 138.792969 109.761719 C 138.957031 109.601562 139.085938 109.488281 139.191406 109.421875 C 139.375 109.300781 139.554688 109.242188 139.734375 109.242188 C 139.996094 109.242188 140.164062 109.328125 140.261719 109.492188 C 140.355469 109.660156 140.40625 109.878906 140.40625 110.140625 L 140.40625 112.101562 C 140.40625 112.410156 140.363281 112.601562 140.28125 112.6875 C 140.164062 112.804688 139.957031 112.84375 139.808594 112.863281 L 139.808594 113.042969 L 144.125 113.042969 L 144.125 112.863281 C 143.996094 112.859375 143.761719 112.855469 143.632812 112.796875 C 143.492188 112.730469 143.414062 112.597656 143.414062 112.390625 L 143.414062 110.75 L 144.765625 112.566406 C 144.808594 112.617188 144.847656 112.679688 144.847656 112.75 C 144.847656 112.785156 144.835938 112.804688 144.800781 112.824219 C 144.761719 112.839844 144.714844 112.851562 144.664062 112.855469 L 144.480469 112.863281 L 144.480469 113.042969 L 146.578125 113.042969 L 146.578125 112.863281 C 146.296875 112.839844 146.078125 112.734375 145.871094 112.558594 Z M 118.164062 112.269531 L 118.144531 108.59375 L 116.773438 109.148438 C 116.726562 108.855469 116.460938 108.683594 116.164062 108.683594 C 115.714844 108.683594 115.335938 109.148438 115.136719 109.472656 L 115.136719 108.671875 L 113.625 109.191406 L 113.625 109.390625 C 114.332031 109.175781 114.308594 109.546875 114.3125 110.207031 L 114.3125 112.269531 C 114.308594 112.660156 114.179688 112.820312 113.625 112.867188 L 113.625 113.042969 L 115.820312 113.042969 L 115.820312 112.867188 C 115.375 112.832031 115.132812 112.753906 115.136719 112.269531 L 115.136719 110.015625 C 115.136719 109.761719 115.433594 109.320312 115.6875 109.304688 C 116.09375 109.273438 115.992188 109.671875 116.398438 109.683594 C 116.632812 109.691406 116.789062 109.488281 117.050781 109.46875 C 117.359375 109.449219 117.339844 109.796875 117.339844 110.050781 L 117.339844 112.269531 C 117.332031 112.660156 117.203125 112.824219 116.636719 112.863281 L 116.636719 113.042969 L 118.851562 113.042969 L 118.851562 112.867188 C 118.402344 112.828125 118.152344 112.753906 118.164062 112.269531 Z M 126.117188 113.109375 L 123.886719 107.832031 L 123.664062 107.832031 L 122.171875 111.40625 C 121.914062 112.035156 121.511719 112.417969 120.808594 112.417969 C 119.875 112.4375 119.398438 111.472656 119.398438 110.613281 C 119.402344 109.839844 119.785156 109.003906 120.558594 108.996094 C 121.039062 109.003906 121.246094 109.265625 121.242188 109.628906 C 121.246094 109.847656 121.460938 110.066406 121.679688 110.058594 C 121.910156 110.066406 122.121094 109.867188 122.125 109.628906 C 122.078125 108.96875 121.253906 108.683594 120.730469 108.683594 C 119.34375 108.683594 118.644531 109.769531 118.652344 110.996094 C 118.644531 112.175781 119.378906 113.128906 120.386719 113.121094 C 120.996094 113.125 121.4375 112.839844 121.769531 112.4375 C 121.625 112.792969 121.46875 113.203125 121.273438 113.523438 C 121.117188 113.785156 120.933594 113.988281 120.613281 114.023438 L 120.613281 114.238281 L 122.464844 114.238281 L 122.464844 114.019531 C 122.246094 114.015625 121.84375 113.980469 121.839844 113.636719 C 121.84375 113.292969 122.207031 112.578125 122.328125 112.214844 L 124.710938 112.214844 L 125.03125 112.992188 C 125.332031 113.707031 125.484375 113.96875 124.609375 114.019531 L 124.609375 114.234375 L 126.996094 114.234375 L 126.996094 114.019531 C 126.449219 114.03125 126.285156 113.476562 126.117188 113.109375 Z M 122.515625 111.785156 L 123.53125 109.265625 L 124.5625 111.785156 Z M 132.757812 110.726562 C 132.519531 110.542969 132.238281 110.40625 131.914062 110.316406 C 132.15625 110.25 132.351562 110.167969 132.488281 110.066406 C 132.753906 109.875 132.886719 109.585938 132.886719 109.210938 C 132.886719 108.714844 132.695312 108.359375 132.3125 108.15625 C 131.9375 107.949219 131.429688 107.851562 130.796875 107.851562 L 128.554688 107.851562 L 128.554688 108.039062 C 128.679688 108.046875 129.046875 108.0625 129.175781 108.183594 C 129.265625 108.253906 129.3125 108.425781 129.3125 108.710938 L 129.3125 112.1875 C 129.3125 112.476562 129.265625 112.648438 129.179688 112.71875 C 129.046875 112.828125 128.679688 112.851562 128.554688 112.859375 L 128.554688 113.042969 L 131.160156 113.042969 C 131.601562 113.042969 131.976562 112.988281 132.28125 112.867188 C 132.859375 112.632812 133.152344 112.210938 133.152344 111.589844 C 133.152344 111.222656 133.019531 110.929688 132.757812 110.726562 Z M 130.171875 108.425781 C 130.171875 108.296875 130.1875 108.238281 130.214844 108.21875 C 130.246094 108.195312 130.339844 108.183594 130.503906 108.183594 C 130.9375 108.183594 131.257812 108.226562 131.46875 108.3125 C 131.84375 108.472656 132.027344 108.773438 132.027344 109.230469 C 132.027344 109.617188 131.867188 109.882812 131.542969 110.027344 C 131.371094 110.105469 131.15625 110.148438 130.894531 110.152344 L 130.171875 110.167969 Z M 131.804688 112.488281 C 131.535156 112.640625 131.199219 112.71875 130.800781 112.71875 C 130.515625 112.71875 130.34375 112.699219 130.269531 112.660156 C 130.203125 112.632812 130.171875 112.550781 130.171875 112.425781 L 130.171875 110.511719 L 130.523438 110.511719 C 131.015625 110.511719 131.417969 110.59375 131.738281 110.753906 C 132.042969 110.90625 132.199219 111.191406 132.199219 111.621094 C 132.199219 112.058594 132.070312 112.34375 131.804688 112.488281 Z M 131.804688 112.488281 "/>
<path style=" stroke:none;fill-rule:nonzero;fill:rgb(15.686275%,55.294118%,80%);fill-opacity:1;" d="M 100.871094 107.769531 C 103.835938 105.429688 118.515625 100.039062 135.367188 107.191406 L 138.851562 106.519531 C 118.917969 98.921875 103.875 105.101562 100.871094 107.769531 Z M 100.871094 107.769531 "/>
<path style=" stroke:none;fill-rule:nonzero;fill:rgb(63.529412%,86.27451%,92.156863%);fill-opacity:1;" d="M 100.871094 107.769531 C 103.714844 105.066406 117.363281 99.011719 137.066406 104.757812 L 140.265625 104.140625 C 118.007812 97.929688 103.78125 104.742188 100.871094 107.769531 Z M 100.871094 107.769531 "/>
<path style=" stroke:none;fill-rule:nonzero;fill:rgb(0%,26.27451%,48.235294%);fill-opacity:1;" d="M 100.871094 107.769531 C 103.460938 106.207031 114.839844 102.914062 124.863281 106.425781 L 128.136719 105.792969 C 115.277344 101.828125 103.5 105.882812 100.871094 107.769531 Z M 100.871094 107.769531 "/>
<path style=" stroke:none;fill-rule:nonzero;fill:rgb(0%,0%,0%);fill-opacity:1;" d="M 146.902344 112.632812 C 146.902344 112.398438 147.089844 112.21875 147.316406 112.21875 C 147.542969 112.21875 147.730469 112.398438 147.730469 112.632812 C 147.730469 112.867188 147.542969 113.042969 147.316406 113.042969 C 147.089844 113.042969 146.902344 112.867188 146.902344 112.632812 Z M 147.652344 112.632812 C 147.652344 112.4375 147.503906 112.285156 147.316406 112.285156 C 147.125 112.285156 146.980469 112.4375 146.980469 112.632812 C 146.980469 112.828125 147.125 112.976562 147.316406 112.976562 C 147.503906 112.976562 147.652344 112.828125 147.652344 112.632812 Z M 147.234375 112.875 L 147.160156 112.875 L 147.160156 112.394531 L 147.34375 112.394531 C 147.453125 112.394531 147.507812 112.4375 147.507812 112.53125 C 147.507812 112.617188 147.453125 112.652344 147.394531 112.664062 L 147.523438 112.875 L 147.433594 112.875 L 147.308594 112.664062 L 147.234375 112.664062 Z M 147.234375 112.601562 L 147.3125 112.601562 C 147.402344 112.601562 147.4375 112.589844 147.4375 112.527344 C 147.4375 112.476562 147.40625 112.457031 147.332031 112.457031 L 147.234375 112.457031 Z M 147.234375 112.601562 "/>
</g>
</svg>
