<svg id="scout" xmlns="http://www.w3.org/2000/svg" xmlns:xlink="http://www.w3.org/1999/xlink" width="312" height="161" viewBox="0 0 312 161">
  <defs>
    <clipPath id="clip-path">
      <rect id="Rectangle_77" data-name="Rectangle 77" width="312" height="161" transform="translate(-4 -95)" fill="none" stroke="#707070" stroke-width="1"/>
    </clipPath>
  </defs>
  <g id="Mask_Group_15" data-name="Mask Group 15" transform="translate(4 95)" clip-path="url(#clip-path)">
    <g id="shape" transform="translate(-285.663 -485.848)">
      <g id="Group_76" data-name="Group 76" transform="translate(0 0)">
        <g id="Layer_2" data-name="Layer 2" transform="translate(337.699 478.77)">
          <g id="logos" transform="translate(0)">
            <path id="Path_4" data-name="Path 4" d="M10.532,380.448a9.042,9.042,0,0,1-5.283-1.9c-.173-.124-.343-.255-.68-.533-.118-.1-.235-.2-.513-.45-2.688-2.417-4.784-7.283-3.816-13.07l8.028-43.547c.963-6.326,5.2-10.9,10.115-10.917H229.8c4.817.169,9.007,4.683,10.035,10.917l7.931,43.547c1.477,9.121-4.608,16-10.259,15.954H10.532" transform="translate(0 -310.03)" fill="#ea7200" stroke="#000" stroke-width="2"/>
          </g>
        </g>
        <path id="Path_5" data-name="Path 5" d="M497.177,474.932a29.684,29.684,0,0,1-12.788-3.493c-5.194-2.757-12.373-8.028-20.679-17.773l-16.5-24.476-27.664-42.257-18.351-27.393-26.154-42.118-19.764-31.4-28.354-42.779-33.845-52.207-32.111-49.351-29.59-46.065L193.242,37.042,171.7,4.581s-8.068-16.13-25.006-3.739c-8.566,6.082-4.5,15.5-2.8,19,2.89,5.789,34.68,55.677,34.68,55.677l21.065,32.107,21.595,34.226,23.537,36.192L266.5,211.735l16.939,27.255,28.626,45.144,41.744,62.955,23.3,36.268,21.61,33.781,29.574,45.543L449.9,495.846l21.768,31.373,4.509,6.118,5.764,7.821" transform="translate(-141.425 3.838)" fill="#ea7200" stroke="#000" stroke-width="2"/>
      </g>
    </g>
  </g>
  <text id="Text" transform="translate(146 96)" fill="#fff" stroke="#000" stroke-width="2" font-size="40" font-family="MADETOMMY-Bold, MADE TOMMY" font-weight="700"><tspan x="11" y="39">Scout</tspan></text>
  <g id="Group_457" data-name="Group 457" transform="translate(-4 0.732)">
    <g id="Group_456" data-name="Group 456" transform="translate(80.841 104.364)">
      <path id="Path_33" data-name="Path 33" d="M140.37,64.869l-4.015-.923a1.588,1.588,0,0,0-1.465.414l-.007.007a2.642,2.642,0,0,1-.444-1.467V61.085a9.444,9.444,0,0,0,1.712-2.742c1.065.709,1.987-1.538,1.987-2.516a.991.991,0,0,0-1.1-1.1c.031-.342.046-.681.046-1.012,0-4.232-3.313-5.813-7.4-5.813s-7.4,1.58-7.4,5.813c0,.334.015.676.046,1.021-.673-.08-1.1.337-1.1,1.094,0,1.021.917,3.417,1.945,2.412a9.52,9.52,0,0,0,1.748,2.846v1.82a2.642,2.642,0,0,1-.444,1.467h0A1.585,1.585,0,0,0,123,63.959l-4.047.953a5.285,5.285,0,0,0-4.074,5.144v4.792a1.583,1.583,0,0,0,1.585,1.585h26.423a1.585,1.585,0,0,0,1.586-1.585V70.021a5.285,5.285,0,0,0-4.1-5.151Z" transform="translate(-114.877 -43.666)" fill="#d7bb91"/>
      <path id="Path_34" data-name="Path 34" d="M193.162,144a2.643,2.643,0,0,1-.938-2.02V140.71H182.71c.5,1.432,3.876,4.556,6.936,5.845A12.371,12.371,0,0,0,193.162,144Z" transform="translate(-172.669 -122.742)" fill="#c5a578"/>
      <path id="Path_35" data-name="Path 35" d="M134.866,156.507c-.784.774-1.529,1.434-2.2,1.984a4.735,4.735,0,0,1-6.024,0c-.666-.549-1.409-1.208-2.192-1.98a1.585,1.585,0,0,0-1.472-.413l-4.047.953a5.284,5.284,0,0,0-4.074,5.144v4.8a1.583,1.583,0,0,0,1.585,1.585h26.426a1.585,1.585,0,0,0,1.586-1.585v-4.827a5.285,5.285,0,0,0-4.1-5.151l-4.014-.923A1.588,1.588,0,0,0,134.866,156.507Z" transform="translate(-114.86 -135.813)" fill="#006b77"/>
      <path id="Path_36" data-name="Path 36" d="M141.028,206.912a3.044,3.044,0,0,1-1.465-.367l-1.839-1.017a3.05,3.05,0,0,0-1.467-.368h-13.2a3.044,3.044,0,0,0-1.465.368l-1.839,1.017a3.048,3.048,0,0,1-1.469.367H114.86v2.19a1.468,1.468,0,0,0,1.585,1.314h26.426a1.472,1.472,0,0,0,1.586-1.314v-2.19Z" transform="translate(-114.86 -177.654)" fill="#006b77"/>
      <path id="Path_37" data-name="Path 37" d="M173.521,54.705c.031-.342.046-.681.046-1.012,0-4.232-3.313-5.813-7.4-5.813s-7.4,1.58-7.4,5.813c0,.334.015.676.046,1.021-.673-.08-1.1.337-1.1,1.094,0,1.021.917,3.417,1.945,2.412,1.113,2.738,3.275,4.987,6.511,4.987,3.195,0,5.344-2.192,6.468-4.884,1.065.709,1.987-1.538,1.987-2.516A.987.987,0,0,0,173.521,54.705Z" transform="translate(-151.369 -43.649)" fill="#d1ba96"/>
      <path id="Path_38" data-name="Path 38" d="M169.217,94.141c-5.409,0-7.928-6.307-7.928-10.571h1.057c0,3.837,2.184,9.514,6.871,9.514s6.871-5.677,6.871-9.514h1.057C177.145,87.833,174.625,94.141,169.217,94.141Z" transform="translate(-154.419 -74.057)" fill="#231f20"/>
      <path id="Path_39" data-name="Path 39" d="M172.727,19.945a.467.467,0,0,0-.249-.07h-.707a.5.5,0,0,0-.373.173h0a.491.491,0,0,1-.74,0l-.374-.416a1,1,0,0,0-.761-.343h-1.239a1.006,1.006,0,0,0-.74.343l-.373.416a.491.491,0,0,1-.74,0h0a.5.5,0,0,0-.374-.173h-.707a.463.463,0,0,0-.247.07,10.469,10.469,0,0,0-4.173,4.629h15.982A10.561,10.561,0,0,0,172.727,19.945Z" transform="translate(-154.112 -19.29)" fill="#231f20"/>
      <path id="Path_40" data-name="Path 40" d="M157.71,80l.4,2.792a1.057,1.057,0,0,0,1.046.907h.669V80Z" transform="translate(-151.369 -71.016)" fill="#231f20"/>
      <path id="Path_41" data-name="Path 41" d="M259.825,80l-.4,2.792a1.055,1.055,0,0,1-1.046.907h-.669V80Z" transform="translate(-236.57 -71.016)" fill="#231f20"/>
      <path id="Path_42" data-name="Path 42" d="M171.5,55H155.521a.53.53,0,0,0-.525.463l-.4,3.171a.53.53,0,0,0,.525.592H171.9a.528.528,0,0,0,.524-.592l-.4-3.171A.527.527,0,0,0,171.5,55Z" transform="translate(-148.715 -49.715)" fill="#231f20"/>
      <path id="Path_43" data-name="Path 43" d="M180.71,87.8H169.892a1.055,1.055,0,0,1-1.049-.925l-.413-3.3h13.742l-.413,3.3A1.058,1.058,0,0,1,180.71,87.8Z" transform="translate(-160.502 -74.057)" fill="#d1ba96"/>
      <path id="Path_44" data-name="Path 44" d="M170.606,163.331l7.7-7-1.015-.235a1.588,1.588,0,0,0-1.465.414c-.784.774-1.529,1.434-2.2,1.985a4.735,4.735,0,0,1-6.024,0c-.666-.549-1.409-1.208-2.192-1.98a1.585,1.585,0,0,0-1.472-.413l-1.017.241Z" transform="translate(-155.808 -135.821)" fill="#fff"/>
      <path id="Path_45" data-name="Path 45" d="M196.62,174.14l2.7,2.452,2.7-2.452A4.736,4.736,0,0,1,196.62,174.14Z" transform="translate(-184.521 -151.224)" fill="#006472"/>
    </g>
    <g id="Group_458" data-name="Group 458" transform="translate(104.403 104.501)">
      <path id="Path_33-2" data-name="Path 33" d="M135.274,61.477l-3.212-.739a1.271,1.271,0,0,0-1.172.332l-.006.006a2.113,2.113,0,0,1-.355-1.173V58.449a7.556,7.556,0,0,0,1.37-2.194c.852.567,1.59-1.23,1.59-2.013a.793.793,0,0,0-.882-.882c.025-.273.037-.545.037-.81,0-3.386-2.651-4.651-5.92-4.651s-5.92,1.265-5.92,4.651c0,.268.012.541.037.817-.539-.064-.883.27-.883.875,0,.817.734,2.734,1.556,1.93a7.617,7.617,0,0,0,1.4,2.277v1.456a2.114,2.114,0,0,1-.355,1.173h0a1.268,1.268,0,0,0-1.178-.33l-3.238.763a4.228,4.228,0,0,0-3.26,4.116v3.834a1.267,1.267,0,0,0,1.268,1.268h21.14a1.268,1.268,0,0,0,1.269-1.268V65.6a4.228,4.228,0,0,0-3.284-4.122Z" transform="translate(-114.878 -44.513)" fill="#948468"/>
      <path id="Path_34-2" data-name="Path 34" d="M191.073,143.34a2.115,2.115,0,0,1-.751-1.616V140.71H182.71c.4,1.146,3.1,3.646,5.549,4.677A9.9,9.9,0,0,0,191.073,143.34Z" transform="translate(-174.677 -126.334)" fill="#987c54"/>
      <path id="Path_35-2" data-name="Path 35" d="M130.866,156.416c-.628.619-1.223,1.147-1.757,1.588a3.789,3.789,0,0,1-4.82,0c-.533-.439-1.127-.966-1.754-1.584a1.268,1.268,0,0,0-1.178-.33l-3.238.762a4.228,4.228,0,0,0-3.26,4.116v3.84a1.267,1.267,0,0,0,1.268,1.268h21.143a1.268,1.268,0,0,0,1.269-1.268v-3.862a4.228,4.228,0,0,0-3.284-4.122l-3.212-.739A1.271,1.271,0,0,0,130.866,156.416Z" transform="translate(-114.86 -139.859)" fill="#006b77"/>
      <path id="Path_36-2" data-name="Path 36" d="M135.8,206.562a2.435,2.435,0,0,1-1.172-.294l-1.472-.813a2.441,2.441,0,0,0-1.173-.295h-10.56a2.435,2.435,0,0,0-1.172.295l-1.472.813a2.439,2.439,0,0,1-1.176.294h-2.74v1.752a1.174,1.174,0,0,0,1.268,1.051h21.143a1.178,1.178,0,0,0,1.269-1.051v-1.752Z" transform="translate(-114.86 -183.153)" fill="#006b77"/>
      <path id="Path_37-2" data-name="Path 37" d="M170.36,53.341c.025-.274.037-.545.037-.81,0-3.386-2.651-4.651-5.92-4.651s-5.92,1.265-5.92,4.651c0,.268.012.541.037.817-.539-.064-.883.27-.883.875,0,.817.734,2.734,1.556,1.93.89,2.19,2.62,3.99,5.21,3.99,2.556,0,4.275-1.754,5.175-3.907.852.567,1.59-1.23,1.59-2.013A.79.79,0,0,0,170.36,53.341Z" transform="translate(-152.637 -44.495)" fill="#948468"/>
      <path id="Path_38-2" data-name="Path 38" d="M167.633,92.027c-4.328,0-6.343-5.046-6.343-8.457h.845c0,3.07,1.748,7.612,5.5,7.612s5.5-4.542,5.5-7.612h.845C173.975,86.981,171.959,92.027,167.633,92.027Z" transform="translate(-155.793 -75.959)" fill="#231f20"/>
      <path id="Path_39-2" data-name="Path 39" d="M170.369,19.814a.374.374,0,0,0-.2-.056H169.6a.4.4,0,0,0-.3.139h0a.393.393,0,0,1-.592,0l-.3-.333a.8.8,0,0,0-.609-.275h-.991a.805.805,0,0,0-.592.275l-.3.333a.393.393,0,0,1-.592,0h0a.4.4,0,0,0-.3-.139h-.566a.371.371,0,0,0-.2.056,8.376,8.376,0,0,0-3.339,3.7h12.787A8.45,8.45,0,0,0,170.369,19.814Z" transform="translate(-155.475 -19.29)" fill="#231f20"/>
      <path id="Path_40-2" data-name="Path 40" d="M157.71,80l.32,2.234a.845.845,0,0,0,.837.726h.535V80Z" transform="translate(-152.637 -72.812)" fill="#231f20"/>
      <path id="Path_41-2" data-name="Path 41" d="M259.4,80l-.32,2.234a.844.844,0,0,1-.837.726h-.535V80Z" transform="translate(-240.797 -72.812)" fill="#231f20"/>
      <path id="Path_42-2" data-name="Path 42" d="M168.123,55H155.336a.424.424,0,0,0-.42.371l-.317,2.537a.424.424,0,0,0,.42.474H168.44a.423.423,0,0,0,.419-.474l-.317-2.537A.422.422,0,0,0,168.123,55Z" transform="translate(-149.891 -50.772)" fill="#231f20"/>
      <path id="Path_43-2" data-name="Path 43" d="M178.255,86.953H169.6a.844.844,0,0,1-.839-.74l-.33-2.643h10.995l-.33,2.643A.847.847,0,0,1,178.255,86.953Z" transform="translate(-162.087 -75.959)" fill="#948468"/>
      <path id="Path_44-2" data-name="Path 44" d="M169.07,161.878l6.157-5.6-.812-.188a1.27,1.27,0,0,0-1.172.331c-.628.619-1.223,1.147-1.757,1.588a3.789,3.789,0,0,1-4.82,0c-.533-.439-1.127-.966-1.754-1.584a1.268,1.268,0,0,0-1.178-.33l-.813.193Z" transform="translate(-157.23 -139.867)" fill="#fff"/>
      <path id="Path_45-2" data-name="Path 45" d="M196.62,174.14l2.16,1.962,2.158-1.962A3.789,3.789,0,0,1,196.62,174.14Z" transform="translate(-186.94 -155.806)" fill="#006472"/>
    </g>
    <g id="Group_459" data-name="Group 459" transform="translate(63 104.052)">
      <path id="Path_33-3" data-name="Path 33" d="M135.274,61.477l-3.212-.739a1.271,1.271,0,0,0-1.172.332l-.006.006a2.113,2.113,0,0,1-.355-1.173V58.449a7.556,7.556,0,0,0,1.37-2.194c.852.567,1.59-1.23,1.59-2.013a.793.793,0,0,0-.882-.882c.025-.273.037-.545.037-.81,0-3.386-2.651-4.651-5.92-4.651s-5.92,1.265-5.92,4.651c0,.268.012.541.037.817-.539-.064-.883.27-.883.875,0,.817.734,2.734,1.556,1.93a7.617,7.617,0,0,0,1.4,2.277v1.456a2.114,2.114,0,0,1-.355,1.173h0a1.268,1.268,0,0,0-1.178-.33l-3.238.763a4.228,4.228,0,0,0-3.26,4.116v3.834a1.267,1.267,0,0,0,1.268,1.268h21.14a1.268,1.268,0,0,0,1.269-1.268V65.6a4.228,4.228,0,0,0-3.284-4.122Z" transform="translate(-114.878 -44.513)" fill="#ffe1b4"/>
      <path id="Path_34-3" data-name="Path 34" d="M191.073,143.34a2.115,2.115,0,0,1-.751-1.616V140.71H182.71c.4,1.146,3.1,3.646,5.549,4.677A9.9,9.9,0,0,0,191.073,143.34Z" transform="translate(-174.677 -126.334)" fill="rgba(197,165,120,0.26)"/>
      <path id="Path_35-3" data-name="Path 35" d="M130.866,156.416c-.628.619-1.223,1.147-1.757,1.588a3.789,3.789,0,0,1-4.82,0c-.533-.439-1.127-.966-1.754-1.584a1.268,1.268,0,0,0-1.178-.33l-3.238.762a4.228,4.228,0,0,0-3.26,4.116v3.84a1.267,1.267,0,0,0,1.268,1.268h21.143a1.268,1.268,0,0,0,1.269-1.268v-3.862a4.228,4.228,0,0,0-3.284-4.122l-3.212-.739A1.271,1.271,0,0,0,130.866,156.416Z" transform="translate(-114.86 -139.859)" fill="#006b77"/>
      <path id="Path_36-3" data-name="Path 36" d="M135.8,206.562a2.435,2.435,0,0,1-1.172-.294l-1.472-.813a2.441,2.441,0,0,0-1.173-.295h-10.56a2.435,2.435,0,0,0-1.172.295l-1.472.813a2.439,2.439,0,0,1-1.176.294h-2.74v1.752a1.174,1.174,0,0,0,1.268,1.051h21.143a1.178,1.178,0,0,0,1.269-1.051v-1.752Z" transform="translate(-114.86 -183.153)" fill="#006b77"/>
      <path id="Path_37-3" data-name="Path 37" d="M170.36,53.341c.025-.274.037-.545.037-.81,0-3.386-2.651-4.651-5.92-4.651s-5.92,1.265-5.92,4.651c0,.268.012.541.037.817-.539-.064-.883.27-.883.875,0,.817.734,2.734,1.556,1.93.89,2.19,2.62,3.99,5.21,3.99,2.556,0,4.275-1.754,5.175-3.907.852.567,1.59-1.23,1.59-2.013A.79.79,0,0,0,170.36,53.341Z" transform="translate(-152.637 -44.495)" fill="#ffe1b4"/>
      <path id="Path_38-3" data-name="Path 38" d="M167.633,92.027c-4.328,0-6.343-5.046-6.343-8.457h.845c0,3.07,1.748,7.612,5.5,7.612s5.5-4.542,5.5-7.612h.845C173.975,86.981,171.959,92.027,167.633,92.027Z" transform="translate(-155.793 -75.959)" fill="#231f20"/>
      <path id="Path_39-3" data-name="Path 39" d="M170.369,19.814a.374.374,0,0,0-.2-.056H169.6a.4.4,0,0,0-.3.139h0a.393.393,0,0,1-.592,0l-.3-.333a.8.8,0,0,0-.609-.275h-.991a.805.805,0,0,0-.592.275l-.3.333a.393.393,0,0,1-.592,0h0a.4.4,0,0,0-.3-.139h-.566a.371.371,0,0,0-.2.056,8.376,8.376,0,0,0-3.339,3.7h12.787A8.45,8.45,0,0,0,170.369,19.814Z" transform="translate(-155.475 -19.29)" fill="#231f20"/>
      <path id="Path_40-3" data-name="Path 40" d="M157.71,80l.32,2.234a.845.845,0,0,0,.837.726h.535V80Z" transform="translate(-152.637 -72.812)" fill="#231f20"/>
      <path id="Path_41-3" data-name="Path 41" d="M259.4,80l-.32,2.234a.844.844,0,0,1-.837.726h-.535V80Z" transform="translate(-240.797 -72.812)" fill="#231f20"/>
      <path id="Path_42-3" data-name="Path 42" d="M168.123,55H155.336a.424.424,0,0,0-.42.371l-.317,2.537a.424.424,0,0,0,.42.474H168.44a.423.423,0,0,0,.419-.474l-.317-2.537A.422.422,0,0,0,168.123,55Z" transform="translate(-149.891 -50.772)" fill="#231f20"/>
      <path id="Path_43-3" data-name="Path 43" d="M178.255,86.953H169.6a.844.844,0,0,1-.839-.74l-.33-2.643h10.995l-.33,2.643A.847.847,0,0,1,178.255,86.953Z" transform="translate(-162.087 -75.959)" fill="#ffe1b4"/>
      <path id="Path_44-3" data-name="Path 44" d="M169.07,161.878l6.157-5.6-.812-.188a1.27,1.27,0,0,0-1.172.331c-.628.619-1.223,1.147-1.757,1.588a3.789,3.789,0,0,1-4.82,0c-.533-.439-1.127-.966-1.754-1.584a1.268,1.268,0,0,0-1.178-.33l-.813.193Z" transform="translate(-157.23 -139.867)" fill="#fff"/>
      <path id="Path_45-3" data-name="Path 45" d="M196.62,174.14l2.16,1.962,2.158-1.962A3.789,3.789,0,0,1,196.62,174.14Z" transform="translate(-186.94 -155.806)" fill="#006472"/>
    </g>
    <g id="Ellipse_23" data-name="Ellipse 23" transform="translate(74 100)" fill="none" stroke="#ffd782" stroke-width="4">
      <circle cx="21.499" cy="21.499" r="21.499" stroke="none"/>
      <circle cx="21.499" cy="21.499" r="19.499" fill="none"/>
    </g>
    <rect id="Rectangle_159" data-name="Rectangle 159" width="18.568" height="5.356" rx="2.678" transform="translate(109.733 133.353) rotate(45)" fill="#ffd782"/>
  </g>
</svg>
