<svg xmlns="http://www.w3.org/2000/svg" xmlns:xlink="http://www.w3.org/1999/xlink" width="430" height="210" viewBox="0 0 430 210">
  <defs>
    <clipPath id="clip-path">
      <rect id="Rectangle_100" data-name="Rectangle 100" width="430" height="210" transform="translate(594 286)" fill="none" stroke="#707070" stroke-width="1"/>
    </clipPath>
    <filter id="shadow" x="6.739" y="102" width="356" height="132" filterUnits="userSpaceOnUse">
      <feOffset dx="6" dy="12" input="SourceAlpha"/>
      <feGaussianBlur stdDeviation="6" result="blur"/>
      <feFlood flood-opacity="0.329"/>
      <feComposite operator="in" in2="blur"/>
      <feComposite in="SourceGraphic"/>
    </filter>
  </defs>
  <g id="Mask_Group_23" data-name="Mask Group 23" transform="translate(-594 -286)" clip-path="url(#clip-path)">
    <g id="Budget_Button_-_Main" data-name="Budget Button - Main" transform="translate(602 -281.838)">
      <g transform="matrix(1, 0, 0, 1, -8, 567.84)" filter="url(#shadow)">
        <path id="shadow-2" data-name="shadow" d="M10,0H310a10,10,0,0,1,10,10V86a10,10,0,0,1-10,10H10A10,10,0,0,1,0,86V10A10,10,0,0,1,10,0Z" transform="translate(18.74 108)" fill="#fff"/>
      </g>
      <g id="shape">
        <g id="Group_46" data-name="Group 46" transform="translate(0 3.839)">
          <g id="Layer_2" data-name="Layer 2" transform="translate(0 671.021)">
            <g id="logos">
              <path id="Path_4" data-name="Path 4" d="M333.733,409.289a12.685,12.685,0,0,0,7.425-2.678c.243-.175.482-.359.955-.752.166-.136.33-.277.72-.635,3.777-3.407,6.723-10.266,5.363-18.423l-11.282-61.382c-1.354-8.917-7.311-15.367-14.216-15.389H25.566c-6.77.238-12.659,6.6-14.1,15.389L.316,386.8c-2.076,12.856,6.476,22.553,14.419,22.488h319" transform="translate(0 -310.03)" fill="#002f6c" stroke="#000" stroke-width="2"/>
            </g>
          </g>
          <path id="Path_5" data-name="Path 5" d="M141.425,671.022A41.62,41.62,0,0,0,159.4,666.1c7.3-3.887,17.39-11.316,29.063-25.053l23.2-34.5,38.88-59.564,25.791-38.612L313.086,449l27.777-44.262,39.849-60.3,47.566-73.589,45.13-69.563L515,136.356l53.592-82.571L598.869,8.03s11.34-22.736,35.144-5.27c12.039,8.573,6.323,21.842,3.938,26.784-4.062,8.16-48.74,78.481-48.74,78.481l-29.6,45.257-30.35,48.244-33.08,51.015-30.553,47.487-23.806,38.418-40.233,63.633-58.669,88.74L310.175,541.94,279.8,589.556l-41.564,64.2L207.866,700.5l-30.593,44.223-6.337,8.623-8.1,11.024" transform="translate(181.737 0)" fill="#002f6c" stroke="#000" stroke-width="2"/>
        </g>
      </g>
      <text id="Icon_" data-name="Icon " transform="translate(217 684.839)" fill="#00788a" stroke="#000" stroke-width="2" font-size="68.58" font-family="Helvetica-Bold, Helvetica" font-weight="700"><tspan x="-0.845" y="53">$</tspan></text>
      <text id="Text" transform="translate(16.477 691.839)" fill="#fff" stroke="#000" stroke-width="2" font-size="54" font-family="Helvetica"><tspan x="20.425" y="42">Budget</tspan></text>
      <text id="Subtext" transform="translate(2 783.839)" fill="#006b77" font-size="30" font-family="Helvetica"><tspan x="18.568" y="23">Manage your team&apos;s </tspan></text>
    </g>
  </g>
</svg>
