<svg id="_Cancel" data-name=" Cancel" xmlns="http://www.w3.org/2000/svg" xmlns:xlink="http://www.w3.org/1999/xlink" width="40" height="40" viewBox="0 0 40 40">
  <defs>
    <radialGradient id="radial-gradient" cx="0.5" cy="0.5" r="0.5" gradientUnits="objectBoundingBox">
      <stop offset="0" stop-color="#070707"/>
      <stop offset="0.611" stop-color="#393939"/>
      <stop offset="1" stop-color="#595959"/>
    </radialGradient>
    <radialGradient id="radial-gradient-2" cx="0.5" cy="0.5" r="0.597" gradientUnits="objectBoundingBox">
      <stop offset="0"/>
      <stop offset="1" stop-color="#595959"/>
    </radialGradient>
  </defs>
  <g id="Puck_Button" data-name="Puck Button">
    <g id="Ellipse_2" data-name="Ellipse 2" stroke="#707070" stroke-width="1" fill="url(#radial-gradient)">
      <circle cx="20" cy="20" r="20" stroke="none"/>
      <circle cx="20" cy="20" r="19.5" fill="none"/>
    </g>
    <g id="Ellipse_3" data-name="Ellipse 3" transform="translate(4 4)" stroke="#fff" stroke-width="1" fill="url(#radial-gradient-2)">
      <circle cx="16" cy="16" r="16" stroke="none"/>
      <circle cx="16" cy="16" r="15.5" fill="none"/>
    </g>
  </g>
  <path id="Path_3" data-name="Path 3" d="M21.293,5.514a.867.867,0,0,0,.9-1.075l-.842-3.06A1.038,1.038,0,0,0,20.4.584L1.067-.139A.878.878,0,0,0,.179.587L-.433,3.593A1.029,1.029,0,0,0,.546,4.738l20.748.776" transform="translate(14.189 10.414) rotate(45)" fill="#fff"/>
  <path id="Path_3-2" data-name="Path 3" d="M22.45,7.461a1.025,1.025,0,0,0,.982-1.146L22.817,3.31a.861.861,0,0,0-.9-.725l-19.33.723a1.06,1.06,0,0,0-.945.794L.808,7.161a.869.869,0,0,0,.9,1.075L22.45,7.461" transform="translate(7.596 24.752) rotate(-45)" fill="#fff"/>
</svg>
