<svg id="Dual_Logo" data-name="Dual Logo" xmlns="http://www.w3.org/2000/svg" width="98.714" height="149.897" viewBox="0 0 98.714 149.897">
  <g id="Comerica_Logo" data-name="Comerica Logo" transform="translate(2 129.897)">
    <g id="g10" transform="translate(0)">
      <g id="g12">
        <path id="path14" d="M88.442-23.869a3.827,3.827,0,0,0,3.83-4.522L89.307-40.754a3.848,3.848,0,0,0-3.763-3.093H6.774a3.93,3.93,0,0,0-3.757,3.093L.083-28.391a3.847,3.847,0,0,0,3.824,4.522H88.442" transform="translate(0 43.847)" fill="#213366"/>
        <path id="path16" d="M57.456-25.813a1.976,1.976,0,0,0,1.939-1.427L61.514-32.3h.314l3.166,7.462c.236.521.5,1.318,1.211,1.293l.035.305H62.857v-.3c1.237-.074,1.023-.446.6-1.46L63-26.1H59.613a10.526,10.526,0,0,0-.693,2.012c.01.485.579.537.889.544v.305h-2.63v-.3a1.229,1.229,0,0,0,.94-.7,11.068,11.068,0,0,0,.7-1.539,2.431,2.431,0,0,1-1.963.968c-1.428.013-2.469-1.341-2.462-3.008a2.95,2.95,0,0,1,2.948-3.269c.744,0,1.917.4,1.979,1.335a.627.627,0,0,1-.627.606.646.646,0,0,1-.623-.606c.006-.513-.29-.886-.968-.893-1.1.007-1.644,1.191-1.651,2.287,0,1.218.678,2.581,2,2.552Zm5.328-.9-1.46-3.562L59.881-26.71ZM32.224-25.186c.61-.057.787-.28.778-.837v-3.245c.047-.718-.127-.843-.809-.839v-.3l1.981-.7v.916c0,.115.024.118.113.044a2.883,2.883,0,0,1,.3-.288,2.668,2.668,0,0,1,1.613-.656,1.416,1.416,0,0,1,1.339,1.107,2.986,2.986,0,0,1,2.01-1.107c1.588,0,1.678,1.38,1.678,2.562v2.508c0,.606.225.786.812.846v.25H39.246v-.25c.583-.06.809-.24.809-.846v-2.724c.012-1.261-.2-1.576-1-1.576a1.545,1.545,0,0,0-1.345.793v3.507c-.009.608.222.786.811.846v.25H35.7v-.25c.6-.06.827-.231.84-.846l0-2.778c0-.687-.057-1.521-.89-1.521a1.952,1.952,0,0,0-1.482.764v3.536c.01.611.244.786.842.846v.25H32.193v-.25Zm12.457-5.908a2.3,2.3,0,0,1,2.33,2.487H42.956c.029,1.254.649,2.847,2.075,2.851a2.5,2.5,0,0,0,1.979-1.421l.278.069a3.1,3.1,0,0,1-2.776,2.29C42.983-24.8,42-26.225,42-27.825,42-29.718,43.049-31.1,44.681-31.094Zm-.273.53c-.88,0-1.281.65-1.4,1.456h2.605C45.572-29.856,45.223-30.572,44.408-30.564Zm-15.16-.088c-.936-.071-1.5.773-1.612,1.931-.162,1.865.336,3.35,1.538,3.458.981.087,1.542-.955,1.641-2.1C30.92-28.569,30.694-30.514,29.248-30.652ZM26.29-32.272h.319l.085,2.7a2.636,2.636,0,0,1,2.478-1.52,2.824,2.824,0,0,1,2.948,2.948,3.07,3.07,0,0,1-2.948,3.331,2.906,2.906,0,0,1-2.842-3.061c-.019-2.063-.618-3.7-2.832-3.811-2.019-.1-2.971,1.747-2.964,4.139-.007,1.852.939,3.835,3.046,3.839a3.552,3.552,0,0,0,2.893-1.265l.252.319a4.155,4.155,0,0,1-3.253,1.612,4.3,4.3,0,0,1-4.514-4.612,4.394,4.394,0,0,1,4.488-4.636,4.264,4.264,0,0,1,1.147.154c.318.084.583.186.8.259C25.863-31.734,26.084-31.76,26.29-32.272Zm25.273,7.087c.781-.057.961-.286.972-.837v-3.245c.03-.891-.393-.82-1-.486a.646.646,0,0,1-.487.056.433.433,0,0,1-.291-.183l-.067-.089a.6.6,0,0,0-.5-.249c-.245,0-.78.645-.776,1.009v3.187c0,.687.336.795.972.843v.253H47.266v-.253c.787-.062.966-.292.972-.843v-2.918c-.006-.934.027-1.456-.972-1.156v-.283l2.143-.731v1.129c.281-.456.823-1.115,1.454-1.112a.824.824,0,0,1,.871.658l1.943-.788.027,5.2c-.013.689.338.795.977.843v.253H51.537v-.253Zm17.777-.263c.12-.1.188-.342.188-.748v-4.919c0-.4-.069-.649-.194-.748a1.784,1.784,0,0,0-.885-.2v-.268h3.183a4.529,4.529,0,0,1,2.154.431,1.557,1.557,0,0,1,.809,1.494,1.406,1.406,0,0,1-.563,1.212,2.574,2.574,0,0,1-.816.351,3.4,3.4,0,0,1,1.2.584,1.455,1.455,0,0,1,.563,1.219,1.8,1.8,0,0,1-1.242,1.806,4.36,4.36,0,0,1-1.589.25h-3.7v-.259A1.955,1.955,0,0,0,69.34-25.449Zm4.039-4.931a1.274,1.274,0,0,0-.794-1.3,3.823,3.823,0,0,0-1.365-.186.886.886,0,0,0-.415.052c-.034.024-.062.111-.062.291v2.468l1.024-.022a2.336,2.336,0,0,0,.924-.176A1.128,1.128,0,0,0,73.379-30.38ZM73.625-27a1.237,1.237,0,0,0-.658-1.227,3.816,3.816,0,0,0-1.725-.339h-.325l-.175,0v2.709c0,.178.048.291.141.332a2.113,2.113,0,0,0,.753.079,2.851,2.851,0,0,0,1.426-.324A1.265,1.265,0,0,0,73.625-27Zm6.384.6a2.01,2.01,0,0,0,.043.508c.055.191.164.276.316.276a.468.468,0,0,0,.229-.048,2.441,2.441,0,0,0,.39-.308v.477a2.285,2.285,0,0,1-.468.422,1.376,1.376,0,0,1-.769.25.759.759,0,0,1-.679-.314,1.323,1.323,0,0,1-.224-.646,5.827,5.827,0,0,1-.794.6,2.239,2.239,0,0,1-1.135.361,1.386,1.386,0,0,1-1-.408,1.375,1.375,0,0,1-.421-1.029,1.9,1.9,0,0,1,.956-1.6,14.238,14.238,0,0,1,2.366-1.058v-.524a2.252,2.252,0,0,0-.127-.908.912.912,0,0,0-.9-.419,1.221,1.221,0,0,0-.615.167.5.5,0,0,0-.282.453c0,.169.051.334.051.5a.585.585,0,0,1-.258.543.621.621,0,0,1-.34.085.574.574,0,0,1-.477-.2.682.682,0,0,1-.163-.447,1.369,1.369,0,0,1,.588-.981,2.487,2.487,0,0,1,1.691-.506,1.845,1.845,0,0,1,1.766.834A2.811,2.811,0,0,1,80.009-29v2.605M77.65-28a1.576,1.576,0,0,0-.9,1.283.972.972,0,0,0,.37.847.866.866,0,0,0,.539.173,1.477,1.477,0,0,0,.792-.233.672.672,0,0,0,.374-.579v-2.019A5.68,5.68,0,0,0,77.65-28Zm3.967,2.6a1.043,1.043,0,0,0,.172-.733v-3.314a1.51,1.51,0,0,0-.072-.564.472.472,0,0,0-.471-.228.545.545,0,0,0-.111.011l-.2.022v-.307c.418-.118.867-.265,1.27-.4l.61-.2c.044,0,.08.012.091.055a.26.26,0,0,1,.013.094v.835a6.8,6.8,0,0,1,.893-.7,2.053,2.053,0,0,1,1.08-.309,1.431,1.431,0,0,1,.834.257,2.042,2.042,0,0,1,.727,1.8v3.048a.945.945,0,0,0,.176.643,1,1,0,0,0,.688.2,1.829,1.829,0,0,0,.841-.2.88.88,0,0,0,.186-.675v-5.25c0-.311-.053-.49-.141-.562a.7.7,0,0,0-.431-.117c-.158,0-.313.015-.465.026v-.25l.627-.163c.45-.116.836-.227,1.152-.331a2.014,2.014,0,0,1,.348-.1c.058,0,.087.015.1.073v4.167l1.7-1.536a1.538,1.538,0,0,0,.254-.273.292.292,0,0,0,.06-.158.135.135,0,0,0-.116-.151,3.052,3.052,0,0,0-.551-.058V-31h2.786v.258a2.7,2.7,0,0,0-1.177.29,12.226,12.226,0,0,0-1.674,1.425l-.325.3,1.133,1.519a11.168,11.168,0,0,0,1.39,1.594,1.685,1.685,0,0,0,1,.432v.258H91.051v-.261l.26-.01a.578.578,0,0,0,.195-.044.1.1,0,0,0,.061-.1.443.443,0,0,0-.109-.261L89.54-28.172v2.317a.562.562,0,0,0,.308.573,1.985,1.985,0,0,0,.7.093v.261H84.419v-.258a1.156,1.156,0,0,0,.671-.249,1.3,1.3,0,0,0,.176-.829v-2.805a1.861,1.861,0,0,0-.206-.922.784.784,0,0,0-.747-.354,1.4,1.4,0,0,0-.77.258,3.948,3.948,0,0,0-.566.479v3.661a.722.722,0,0,0,.2.6,1.192,1.192,0,0,0,.678.16v.261H80.965v-.258a1.206,1.206,0,0,0,.651-.215" transform="translate(-10.311 37.841)" fill="#fff"/>
        <path id="path18" d="M89.877-23.642a2.635,2.635,0,0,0,2.649-3.228L89.688-39.165a2.811,2.811,0,0,0-2.709-2.17H8.21a2.75,2.75,0,0,0-2.644,2.17L2.73-26.871a2.637,2.637,0,0,0,2.612,3.228Zm0-.959A1.832,1.832,0,0,0,91.6-26.576L88.639-38.843a1.621,1.621,0,0,0-1.66-1.468H8.21a1.7,1.7,0,0,0-1.659,1.468L3.62-26.576A1.841,1.841,0,0,0,5.342-24.6H89.877" transform="translate(-1.435 42.481)" fill="#fff" fill-rule="evenodd"/>
        <path id="path20" d="M205.455-6.265l.358-.007c.385-.005.541-.057.535-.344,0-.212-.133-.307-.472-.3l-.434,0Zm.029,1.2-.322.011-.041-2.127.8-.015c.491-.011.743.184.75.589a.545.545,0,0,1-.5.588l.594.93-.389.009-.58-.917-.331,0Zm1.82-1.115a1.475,1.475,0,0,0-1.5-1.487,1.482,1.482,0,0,0-1.452,1.547,1.478,1.478,0,0,0,1.514,1.5A1.476,1.476,0,0,0,207.3-6.176ZM204-6.108a1.818,1.818,0,0,1,1.8-1.845A1.814,1.814,0,0,1,207.66-6.18a1.809,1.809,0,0,1-1.79,1.854A1.816,1.816,0,0,1,204-6.108" transform="translate(-110.946 24.326)" fill="#100f0d"/>
      </g>
    </g>
  </g>
  <g id="Sharks_Logo" data-name="Sharks Logo">
    <g id="Layer_2" data-name="Layer 2">
      <g id="Layer_1" data-name="Layer 1" style="isolation: isolate">
        <path id="Path_180" data-name="Path 180" d="M307.967,195.437a1.376,1.376,0,0,1-.165-.413,1.35,1.35,0,0,1,0-.306l.085-.514-.407-.29a2.532,2.532,0,0,0-1.98-.253l-.484.13c-.745.194-1.392.362-1.349,1.1a2.715,2.715,0,0,0,.149.655l.09.266.157.3c2.254,1.373,2.6,1.1,2.9.969l.043-.019.037-.024c.774-.46.95-.7,1.022-1l.077-.314-.165-.3Z" transform="translate(-222.84 -142.045)" fill="#fff"/>
        <path id="Path_181" data-name="Path 181" d="M221.13,243.422c-.165-.248-.556-.367-.713-.8-.072-.194-.117-.437-.279-.532a3.434,3.434,0,0,0-.335,2.43c.652.16,1.309-.508,1.309-.508s.13-.431.019-.6Zm-3.918-1.288a1.884,1.884,0,0,0-1.041.892,1.726,1.726,0,0,1,.314.349,1.515,1.515,0,0,1,.2.641c0,.1.846-.016.846-.016.237-.061.889-1.815.889-1.815s.136-.391.072-.476S218.006,241.828,217.212,242.134Z" transform="translate(-158.636 -177.361)" fill="#fff"/>
        <path id="Path_182" data-name="Path 182" d="M219.4,240.466a1.9,1.9,0,0,0-.45-.46.989.989,0,0,1-.165-.146l-.029-.085a1.446,1.446,0,0,0-.673-.921l-.665-.349-.423.647c0,.016-.032.051-.059.1a1.006,1.006,0,0,0-.2-.532c-.45-.583-1.043-.343-1.791-.043l-.466.184a2.234,2.234,0,0,0-1.528,1.365c-.415.695.588,1.038.532,1.714-.053.719,1.168.7,1.616.628a2.205,2.205,0,0,0,1.331-1.6,4.711,4.711,0,0,0,.085,1.331,1.618,1.618,0,0,0,.647.687c.532.37,2-.636,2.1-.74l.154-.157.066-.216a2.312,2.312,0,0,0,.106-.663,1.3,1.3,0,0,0-.2-.732Z" transform="translate(-156.198 -174.918)" fill="#fff"/>
        <path id="Path_183" data-name="Path 183" d="M115.676,228.485c.349-.082,1.506-.886,1.581-1.488l-.25-.836-.1-.1a4.31,4.31,0,0,1-.333-.351,2.13,2.13,0,0,0-.285-.908c-.144-.327-.508-.727-1.429-.719l-.434-.043a3.6,3.6,0,0,0-1.331,0l-.242.043a36.753,36.753,0,0,1-7.051.466c-.072,0-6.47.032-9.635-.2l-2.9-.25c-1.666-.16-2.113-.2-2.51.064a78.456,78.456,0,0,0-7.985,6.947c-2.358,2.5-4.307,5.014-5.733,6.851l-.732.94c-2.268,2.88-2.129,3.372-2.068,3.668l.274.575.16.282c.25.633.647.607,2.848.453l2.529-.141,1.264-.029c3.761-.088,3.878-.1,4.184-.532l.194-.4a25.338,25.338,0,0,1,4.067-6.593,67.331,67.331,0,0,1,5.856-6.029c1.482,0,8.373-.266,11.57-.6,2.906-.3,8.69-.892,8.477-1.065Z" transform="translate(-54.459 -164.356)" fill="#fff"/>
        <path id="Path_184" data-name="Path 184" d="M84.293,62.593a45.649,45.649,0,0,0-1.863-6.122c-.857-1.916-1.1-2.531-1.147-2.662-.226-1.019-1-4.293-1.781-5.262a6.31,6.31,0,0,0-1.882-1.488,72.743,72.743,0,0,0,4.173-8.922c2.148-5.589,3.46-8.727,3.135-10.756-2.1,1.009-4.067,1.967-4.724,2.294-1.331.663-2.944,1.461-4.493,2.2l8.352-13.465-3.215.735-4.586.913c-.136.027-10.58,2.081-20.628,3.093,0,0-2.76-4.123-4.591-6.558C46.578,10.646,37.529,3.034,32.586.756A14.043,14.043,0,0,0,30.609,0a28.516,28.516,0,0,0,1.2,3.194L33.14,5.943a119.643,119.643,0,0,1,5.179,11.589A20.714,20.714,0,0,1,39.6,23.388c-10.62-.852-22.786-3.221-23.406-3.34L8.477,18.586l15.059,24.33c-2.662.2-2.332.181-5.691.266l-10,.229L3.8,43.563c-2.129.1-3.016.149-3.8.157.325,1.142,2.9,2.686,4.413,3.356,1.238.532,2.443,1.065,4.81,2.06a153.9,153.9,0,0,0,22.451,7.242l14.551,23.2,9.427-15.238c2.97,1.884,5.014,3.087,5.965,3.247H61.7a29.055,29.055,0,0,0,4.937.572,7.617,7.617,0,0,0,1.863-.3,12.94,12.94,0,0,0,3.127.442,7.016,7.016,0,0,0,2.678-.532,11.2,11.2,0,0,0,3.654.833c.3.024,1.834.141,3.308.122.482,0,2.978.027,3.649-.8.287-.357.532-.663-.615-5.337Z" transform="translate(0)" fill="#fff"/>
        <path id="Path_185" data-name="Path 185" d="M313.6,115.239a12.778,12.778,0,0,0-2.438-.439,16.687,16.687,0,0,0-2.4.216l-.362.059-.2.3a12.555,12.555,0,0,0-1.065,1.863.769.769,0,0,0-.059.319,7.55,7.55,0,0,0,.176,1.222c-.245.466-1.906,3.668-1.906,3.668-1.2,2.414-2.576,4.889-4.091,7.359L298,135.164l.162.391,1.02,2.473,1.254-.966.657.056.282-.333s.886-1.046,2-2.217a49.288,49.288,0,0,0,3.62-5.158l1.794-2.712a43.351,43.351,0,0,0,3.085-5.616,4.524,4.524,0,0,0,1.065-.3,2.13,2.13,0,0,0,1.049-1.573v-.085l.122-1.288h0a15.142,15.142,0,0,0,.12-1.786V115.4l-.618-.168Z" transform="translate(-218.684 -84.244)" fill="#fff"/>
        <path id="Path_186" data-name="Path 186" d="M109.118,74.285l-4.6.916c-.184.037-18.562,3.66-30.151,3.66-11.445,0-29.469-3.511-30.233-3.66L38.3,74.088l36.03,58.22L110.4,74l-1.286.293Z" transform="translate(-28.106 -54.304)" fill="#231f20"/>
        <path id="Path_187" data-name="Path 187" d="M113.094,82.6c-.761.152-18.794,3.686-30.417,3.686C71.1,86.3,52.952,82.761,52.186,82.6L49.62,82.09l33,52.628L115.657,82.1Z" transform="translate(-36.413 -60.241)" fill="#e87200"/>
        <path id="Path_188" data-name="Path 188" d="M115.721,84.862h0c-.764.152-18.82,3.694-30.5,3.694-11.615,0-29.81-3.545-30.579-3.694l-1.554-.309L85.184,135.71l32.1-51.159Z" transform="translate(-38.96 -62.047)" fill="#006072"/>
        <path id="Path_189" data-name="Path 189" d="M121.151,90.165c-3.056.57-18.831,3.417-29.469,3.417s-26.369-2.928-29.414-3.508L61.89,90l29.754,47.39L121.54,90.1l-.375.069Z" transform="translate(-45.417 -66.045)" fill="#fff"/>
        <path id="Path_190" data-name="Path 190" d="M45.3,79,58.262,99.678s-.956-8.408,3.609-10.516a68.114,68.114,0,0,0,10.04-6.231Z" transform="translate(-33.243 -57.973)" fill="#231f20"/>
        <path id="Path_191" data-name="Path 191" d="M87.815,65.455A45.519,45.519,0,0,0,85.973,59.4h0c-.889-1.986-1.121-2.587-1.163-2.707-.173-.775-.961-4.205-1.717-5.145a6.388,6.388,0,0,0-2.033-1.536l-.043-.056a71.881,71.881,0,0,0,4.312-9.167c2.2-5.73,2.965-7.8,2.965-8.738a.9.9,0,0,0-.226-.657.74.74,0,0,0-.833-.173c-.343.125-1.288.594-2.928,1.405-2.108,1.049-5,2.486-7.064,3.372-4.855,2.081-6,2.755-6.343,3.215l-.013.021a98.178,98.178,0,0,0-11.046-8.387s2.369-.093,1.908-.389a63.719,63.719,0,0,0-6.055-9.411c-6.218-8.581-14.492-14.958-19.4-17.2a.586.586,0,0,0-.695.144.634.634,0,0,0-.168.437,4.1,4.1,0,0,0,.5,1.4L37.26,8.569a119.958,119.958,0,0,1,5.193,11.626c1.15,3.3,2.986,5.8,3.641,7.809-.9.069-3.194.6-3.83.681a23.108,23.108,0,0,0-3.04.684c-8.424,1.8-11.392,5.762-11.525,5.989l.133.266.072.431c0,.061,1.208.112,1.208.91,0,1.863,1.091,5.856,2.662,9.664-2.747.25-6.037-.232-9.888-.075-3.6.146-7.322.234-10.311.3l-3.939.1c-1.735.059-2.262-.237-2.382.266a.82.82,0,0,0-.024.192c0,.532.9,1.182,2.51,1.89,1.23.532,2.965,1.224,5.014,1.967,4.692,1.7,9.3,3.622,14.043,4.9l.993.532c13.356,3.588,14.285,4.04,21.516,3.886h.564c1.331.873,2.837,1.863,4.309,2.749.881.532,2.047,1.286,3.282,2.079,4.011,2.582,6.936,4.421,8.046,4.61l.083.013a28.764,28.764,0,0,0,4.871.57,7.311,7.311,0,0,0,1.863-.309,12.831,12.831,0,0,0,3.133.452A6.867,6.867,0,0,0,78.14,70.2a10.846,10.846,0,0,0,3.684.854c.067,0,1.706.141,3.276.12,1.03.024,2.928-.093,3.407-.689.186-.234.423-.532-.684-5.03Z" transform="translate(-3.838 -2.777)" fill="#fff"/>
        <path id="Path_192" data-name="Path 192" d="M96.233,159.157c.1.266.341.671.532,1.123,1.53,0,2.643-.266,3.62-.3,0,0,4.28,4.445,4.368,2.827s-2.662-4.921-5.1-4.557-3.756-.266-3.418.9Z" transform="translate(-70.583 -116.111)" fill="#006072"/>
        <path id="Path_193" data-name="Path 193" d="M142.519,124.394c-1.043-2.324-1.2-2.789-1.2-2.789s-.886-4.038-1.6-4.927a5.978,5.978,0,0,0-1.954-1.435s-.136-.181-.383-.492a72.463,72.463,0,0,0,4.472-9.441c2.443-6.356,3.46-9.073,2.638-8.765s-6.494,3.279-9.96,4.767-5.757,2.55-6.1,3.01c-.152.2-.266.381-.367.532A97.875,97.875,0,0,0,116.621,96.1c-5.408-3.484-6.132-3.835-8.672-4.032a56.355,56.355,0,0,0-9.193.354,17.176,17.176,0,0,0-2.56.583A35.417,35.417,0,0,0,83,98.523a71.493,71.493,0,0,0,3.569,12.039c1.528,0,2.733-.24,3.71-.266,5.273,3.173,4.562,4.591,2.928,5.472,2.462,1.81,6.553,5.177,7.317,5.435a21.508,21.508,0,0,1,3.013,1.278c1.61.87,4.884,3.178,8.009,5.073s9.616,6.359,11.131,6.617a29.677,29.677,0,0,0,4.836.575,6.124,6.124,0,0,0,1.863-.335,12.538,12.538,0,0,0,3.149.479,6.12,6.12,0,0,0,2.691-.617,9.083,9.083,0,0,0,3.713.921s1.663.141,3.226.12a5.594,5.594,0,0,0,2.968-.471c.3-.373-1.565-8.115-2.606-10.439Z" transform="translate(-60.909 -67.515)" fill="#231f20"/>
        <path id="Path_194" data-name="Path 194" d="M213.782,228.206a36.312,36.312,0,0,1-4.365-.162l-.391-.069.343-.213a16.687,16.687,0,0,0,1.48-1,24.346,24.346,0,0,1-4.525-.2l-.266-.069.2-.194c.189-.186.474-.418.774-.663a11.525,11.525,0,0,0,.913-.8,30.785,30.785,0,0,1-3.46.218h-.322l.266-.309a6.887,6.887,0,0,0,.889-1.166h-.045a17.885,17.885,0,0,1-2.526.343h-.266l.154-.232c.221-.327.447-.668.6-.926l-.221.045a4.416,4.416,0,0,1-1.807.165l-.194-.061.12-.176a2.5,2.5,0,0,0,.381-.727,2.941,2.941,0,0,1-1.6.088l-.2-.085.154-.165a1.531,1.531,0,0,0,.285-.492,10.05,10.05,0,0,0-2.765.293c2.736.1,5.5,4.341,6.217,5.126s2.864,1.813,5.565,2.129a11.95,11.95,0,0,0,3.91-.138,5.325,5.325,0,0,0,.676-.532Z" transform="translate(-144.846 -162.435)" fill="#fff"/>
        <path id="Path_195" data-name="Path 195" d="M219.458,225.5c-2.962-1.6-4.754-3.074-8.334-3.793a16.474,16.474,0,0,0-2.723-.319,2.045,2.045,0,0,1-.232.5,4.126,4.126,0,0,0,1.44-.213l.186-.056v.2a1.957,1.957,0,0,1-.349.908,6.347,6.347,0,0,0,1.451-.2l.8-.16-.109.266a7.444,7.444,0,0,1-.6,1c.567-.042,1.52-.21,2.188-.327l.532-.1-.061.232a4.067,4.067,0,0,1-.889,1.331c.873,0,2.358-.133,3.46-.266l.319-.037-.181.266a6.941,6.941,0,0,1-1.224,1.142c-.194.16-.37.3-.532.439a28.357,28.357,0,0,0,4.543.12l.354-.027-.234.282a7.8,7.8,0,0,1-1.48,1.107c1.046.1,2.9.1,3.958.1h.668l-.25.266a6.049,6.049,0,0,1-.689.636,15.085,15.085,0,0,0,1.943.3,10.755,10.755,0,0,0,3.125-.136c-1.6-.751-4.134-1.879-7.1-3.487Z" transform="translate(-152.763 -162.465)" fill="#fff"/>
        <path id="Path_196" data-name="Path 196" d="M133.278,103.452a19.75,19.75,0,0,1,3.46,3.692c1.759,2.4,2.928,4.237,2.6,4.442s-1.626-.41-1.626-.41a47.133,47.133,0,0,1,5.435,4.232c2.6,2.4,3.939,3.766,3.939,3.766s4.232-.069,4.687,1.025.652,1.57.977,2.188a21.916,21.916,0,0,0,2.616,3.689c.266,0,1.049,0,1.246-.208a5.263,5.263,0,0,0,.514-.884,3.715,3.715,0,0,1-.266,2.254,63.1,63.1,0,0,0,9.542,5.531c3.657,1.616,6.936,2.928,7.261,2.582s-1.44-7.157-2.481-9.481-1.2-2.789-1.2-2.789-.886-4.038-1.6-4.927a6.023,6.023,0,0,0-1.954-1.435A81.451,81.451,0,0,0,159.6,109,97.261,97.261,0,0,0,145.255,97.58c-5.4-3.484-6.122-3.827-8.658-4.032a39.881,39.881,0,0,0-8.722.607,36.815,36.815,0,0,0-5.014,1.5,34.2,34.2,0,0,1,5.991,3.966Z" transform="translate(-90.16 -68.608)" fill="#006072"/>
        <path id="Path_197" data-name="Path 197" d="M223.8,199.09a15.4,15.4,0,0,1,1.82,2.129c.687,1.027,1.823,2.906,1.823,2.906s-1.528-.719-1.951-.958a8.022,8.022,0,0,1-.783-.511,12.13,12.13,0,0,1-.617-1.879c-.13-.719-.293-1.677-.293-1.677Z" transform="translate(-164.234 -146.1)" fill="#e87200"/>
        <path id="Path_198" data-name="Path 198" d="M192.766,187.32l.775,1.118a27.176,27.176,0,0,0-.745,4.687A15.338,15.338,0,0,1,192.766,187.32Z" transform="translate(-141.266 -137.463)" fill="#006072"/>
        <path id="Path_199" data-name="Path 199" d="M185.781,180.422l.772,1.283a30.154,30.154,0,0,0-.532,5.355,16.934,16.934,0,0,1-.242-6.638Z" transform="translate(-136.171 -132.401)" fill="#006072"/>
        <path id="Path_200" data-name="Path 200" d="M178.788,174.141l.772,1.118a37.2,37.2,0,0,0-.431,5.981A17.653,17.653,0,0,1,178.788,174.141Z" transform="translate(-131.047 -127.791)" fill="#006072"/>
        <path id="Path_201" data-name="Path 201" d="M115.82,128.966s-6.737-4.445-11.163-5.709-4.818-1.435-5.078-1.23l-1.009.8s.649-1.365.977-1.365a29.415,29.415,0,0,1,6.933,2.049,45.878,45.878,0,0,1,9.34,5.47Z" transform="translate(-72.335 -89.132)" fill="#006072"/>
        <path id="Path_202" data-name="Path 202" d="M35.409,162.553s-4.056.439-11.575.745-15.531.378-15.568.532c-.146.615,9.691,5.342,21.559,8.642,12.821,3.561,14.511,4.176,21.687,4.022a14.919,14.919,0,0,0-2.976-3.127c-1.413-1.179-8.3-8.15-13.135-10.817Z" transform="translate(-6.064 -119.286)" fill="#231f20"/>
        <path id="Path_203" data-name="Path 203" d="M126.844,39.57a24.38,24.38,0,0,1,8.251.154c4.4.873,11.943,3.7,12.382,3.4.8-.511-5.69-13.635-11.594-21.053-5.265-6.627-12.848-13.364-18.464-15.927-.607-.266,4.738,9.281,6.933,15.584s1.831,9.486,1.831,9.486a36.593,36.593,0,0,0-8.959.615c-3.71.921,2.294,6.05,9.619,7.74Z" transform="translate(-85.195 -4.505)" fill="#231f20"/>
        <path id="Path_204" data-name="Path 204" d="M118.614,229.107a4.4,4.4,0,0,1-.609-.673,1.444,1.444,0,0,0-.224-.841c-.035-.21-.346-.285-.7-.282a5.929,5.929,0,0,0-1.648-.051,37.347,37.347,0,0,1-7.423.532s-6.457.037-9.688-.2-4.647-.506-4.913-.333a76.971,76.971,0,0,0-7.846,6.83,98.379,98.379,0,0,0-6.415,7.732,11.6,11.6,0,0,0-1.911,2.9c.019.069.349.6.394.711a43.208,43.208,0,0,0,4.615-.184,41.045,41.045,0,0,0,4.81-.221,27.541,27.541,0,0,1,4.325-7.064c2.811-3.183,5.946-6.335,6.268-6.3s8.07-.224,11.684-.6,8.323-.9,8.61-1.107.9-.575.671-.844Z" transform="translate(-56.678 -166.73)" fill="#231f20"/>
        <path id="Path_205" data-name="Path 205" d="M113.713,247.737c-1.278-.082-2.273-.117-3.042-.128-.711.652-1.395,1.315-1.988,1.943l-.4.428a32.655,32.655,0,0,1,7.314-.216c.381-.426.764-.852,1.142-1.262A6.673,6.673,0,0,0,113.713,247.737Z" transform="translate(-79.46 -181.705)" fill="#fff"/>
        <path id="Path_206" data-name="Path 206" d="M102.11,256.759c-.639.7-1.243,1.395-1.81,2.071.8-.083,1.962-.154,3.7-.21a11.908,11.908,0,0,1,3.407.266c.1-.128.192-.237.266-.325l.035-.043c.532-.609,1.142-1.331,1.786-2.049a36.285,36.285,0,0,0-7.386.29Z" transform="translate(-73.604 -188.137)" fill="#fff"/>
        <path id="Path_207" data-name="Path 207" d="M101.589,265.935c-1.98.061-3.194.149-3.992.242l-.6.721c.583-.1,1.379-.218,2.457-.341l.349-.04a20.163,20.163,0,0,1,4.881-.229l.112-.149a11.969,11.969,0,0,0-3.194-.216Z" transform="translate(-71.182 -195.136)" fill="#fff"/>
        <path id="Path_208" data-name="Path 208" d="M91.017,276.229a12.227,12.227,0,0,1,3.519.107c.266-.492.554-.977.836-1.437a7.454,7.454,0,0,0-2.805-.5c-1.647-.019-3.143,0-4.365.069-.421.532-.8,1.035-1.166,1.5l-.546.7a36.467,36.467,0,0,1,3.992-.41l.532-.024Z" transform="translate(-63.469 -201.36)" fill="#fff"/>
        <path id="Path_209" data-name="Path 209" d="M97.512,268.416l-.349.04c-1.3.146-2.193.293-2.781.4l-.532.665c1.176-.056,2.582-.077,4.118-.061a7.587,7.587,0,0,1,2.968.532c.437-.7.865-1.331,1.232-1.863a23.24,23.24,0,0,0-4.658.266Z" transform="translate(-68.87 -196.731)" fill="#fff"/>
        <path id="Path_210" data-name="Path 210" d="M118.655,246.06l-.125.112c.724.016,1.621.053,2.733.125a6.879,6.879,0,0,1,3.215.841c.085-.088.165-.176.248-.266a6.505,6.505,0,0,0-.676-.266,33.821,33.821,0,0,0-5.4-.532Z" transform="translate(-86.982 -180.569)" fill="#fff"/>
        <path id="Path_211" data-name="Path 211" d="M122.232,238.323c-.649.532-1.355,1.144-2.052,1.765a32.064,32.064,0,0,1,5.161.532,6.233,6.233,0,0,1,.8.338c.665-.7,1.278-1.312,1.765-1.738a8.089,8.089,0,0,0-2.683-.708,21.411,21.411,0,0,0-2.992-.194Z" transform="translate(-88.192 -174.886)" fill="#fff"/>
        <path id="Path_212" data-name="Path 212" d="M121,271.708c.024.138.048.279.069.412q.554-.886,1.155-1.685c-.024-.146-.051-.309-.077-.476C121.8,270.459,121.4,271.058,121,271.708Z" transform="translate(-88.795 -198.106)" fill="#fff"/>
        <path id="Path_213" data-name="Path 213" d="M127.606,261.16c.154-.186.306-.37.463-.548.019-.021.644-.727,1.5-1.661-.019-.162-.048-.373-.083-.6-.508.572-1.041,1.182-1.573,1.823l-.04.045c-.1.112-.218.266-.354.436l.1.506Z" transform="translate(-93.58 -189.587)" fill="#fff"/>
        <path id="Path_214" data-name="Path 214" d="M141,250.745l.152.591.232-.242c-.024-.2-.053-.439-.082-.673Z" transform="translate(-103.471 -183.768)" fill="#fff"/>
        <path id="Path_215" data-name="Path 215" d="M144.694,243.216c-.426.4-.977.956-1.624,1.64.027.213.056.453.085.681.556-.572,1.1-1.1,1.557-1.528,0-.266,0-.532-.019-.8Z" transform="translate(-104.991 -178.478)" fill="#fff"/>
        <path id="Path_216" data-name="Path 216" d="M118.331,278.376c-.024-.141-.048-.282-.069-.415-.232.383-.46.782-.681,1.184.021.141.043.293.064.437Q117.979,278.959,118.331,278.376Z" transform="translate(-86.285 -203.979)" fill="#fff"/>
        <path id="Path_217" data-name="Path 217" d="M136.985,252.6q-.532.583-1.126,1.246c.029.2.061.418.088.607.37-.4.775-.836,1.187-1.267C137.081,252.975,137.028,252.773,136.985,252.6Z" transform="translate(-99.699 -185.367)" fill="#fff"/>
        <path id="Path_218" data-name="Path 218" d="M126.319,268.191l-.1.133c.027.168.053.335.082.5l.109-.144C126.38,268.5,126.346,268.332,126.319,268.191Z" transform="translate(-92.626 -196.809)" fill="#fff"/>
        <path id="Path_219" data-name="Path 219" d="M156.088,230.558a.684.684,0,0,1-.46-.551v-.213c0-.351-.027-.362-.221-.359a3.392,3.392,0,0,1-.615-.056,2.521,2.521,0,0,0-.99,0l-.237.04a37.67,37.67,0,0,1-7.229.482c-.066,0-6.508.032-9.712-.2l-2.928-.266a10.274,10.274,0,0,0-1.818-.1c-.141.1-1.214.921-2.6,2.066a22.011,22.011,0,0,1,2.662.192,7.852,7.852,0,0,1,2.893.8c.333-.266.583-.418.721-.407.474.035,8.238-.09,11.791-.463l6.329-.641a14.8,14.8,0,0,0,1.568-.178h.051c.242,0,.631-.024.969-.056a1.006,1.006,0,0,0-.16-.093Z" transform="translate(-94.871 -168.276)" fill="#e87200"/>
        <path id="Path_220" data-name="Path 220" d="M86.187,282.238l-.532.024a35.266,35.266,0,0,0-4.283.463,15.445,15.445,0,0,0-1.482,2.129c.532-.027,1.344-.075,2.052-.12l2.308-.125c1.291-.037,3.726-.114,4.259-.17.287-.689.644-1.416,1.03-2.129a12.636,12.636,0,0,0-3.354-.08Z" transform="translate(-58.626 -207.066)" fill="#e87200"/>
        <path id="Path_221" data-name="Path 221" d="M315.845,120.044a14.484,14.484,0,0,0,.114-1.677,12.5,12.5,0,0,0-2.238-.407,16.139,16.139,0,0,0-2.238.2,12.826,12.826,0,0,0-.969,1.679,9.654,9.654,0,0,0,.208,1.379s-1.2,2.249-2.033,3.918-2.193,4.259-4.126,7.423c-1.743,2.845-3.053,4.993-3.053,4.993l.6,1.456.564-.431.141-.059.49.043s.889-1.065,2.033-2.257,3.7-5.384,5.323-7.764a45.327,45.327,0,0,0,3.194-5.9,5.229,5.229,0,0,0,1.275-.306c.463-.218.572-.94.572-.94s.029-.591.128-1.352Z" transform="translate(-221.259 -86.564)" fill="#231f20"/>
        <path id="Path_222" data-name="Path 222" d="M339.357,121.516l1.815.037a5.8,5.8,0,0,0,.7-.985c-.354-.045-1.065-.125-1.658-.138a7.185,7.185,0,0,0-1.823.287,9.078,9.078,0,0,0-.6.95A6.653,6.653,0,0,1,339.357,121.516Z" transform="translate(-247.882 -88.376)" fill="#e87200"/>
        <path id="Path_223" data-name="Path 223" d="M304.4,143.862l.218-.216-.109.327a1.084,1.084,0,0,1-.069.266c.1-.032.415-.2.415-.2s-.49.913-.628,1.1c.037-.024.471-.383.508-.407a56.387,56.387,0,0,0,5.392-8.038c1.083-1.863,3.63-6.473,5.038-8.727-.25-.029-.62-.051-.942-.069a2.064,2.064,0,0,0-1.065.194l-.306.109a6.2,6.2,0,0,0-.391.657c0,.013-1.171,2.22-1.994,3.873-.8,1.613-2.427,4.623-4.016,7.322a34.148,34.148,0,0,1-3.042,4.426c.165-.146.892-.532.987-.62Z" transform="translate(-222.654 -93.853)" fill="#e87200"/>
        <path id="Path_224" data-name="Path 224" d="M303.908,190.4l-.17.048a2.041,2.041,0,0,1-.7.343l.362.764.224-.17c-.027-.072-.056-.165-.091-.266.128-.229.266-.556.373-.708Z" transform="translate(-222.383 -139.721)" fill="#e87200"/>
        <path id="Path_225" data-name="Path 225" d="M217.533,244s-.838.114-.846.016a1.515,1.515,0,0,0-.2-.642,1.722,1.722,0,0,0-.314-.349,1.884,1.884,0,0,1,1.041-.892c.8-.306,1.219-.508,1.283-.426s-.072.476-.072.476S217.77,243.94,217.533,244Z" transform="translate(-158.634 -177.362)" fill="#231f20"/>
        <path id="Path_226" data-name="Path 226" d="M219.06,243.15l-.266.106-.476.192a1.709,1.709,0,0,0-.8.6,1.961,1.961,0,0,1,.21.266,3.229,3.229,0,0,1,.253.46,9.27,9.27,0,0,0,1.081-1.616Z" transform="translate(-159.624 -178.433)" fill="#e87200"/>
        <path id="Path_227" data-name="Path 227" d="M308.748,198.51s.729-.434.671-.532a2.015,2.015,0,0,1-.266-.737,2.087,2.087,0,0,1,.013-.532,1.823,1.823,0,0,0-1.4-.16c-.822.224-1.291.311-1.283.431a2.84,2.84,0,0,0,.112.45,10.213,10.213,0,0,0,2.159,1.081Z" transform="translate(-224.907 -144.181)" fill="#231f20"/>
        <path id="Path_228" data-name="Path 228" d="M308.559,197.909l.282-.077.5-.13a1.6,1.6,0,0,1,1.019.048,2.312,2.312,0,0,0,0,.378,1.5,1.5,0,0,0,.08.359,10.8,10.8,0,0,0-1.887-.578Z" transform="translate(-226.426 -145.036)" fill="#e87200"/>
        <path id="Path_229" data-name="Path 229" d="M230.893,244.53c-.165-.247-.556-.367-.713-.8-.072-.194-.117-.436-.279-.532a3.434,3.434,0,0,0-.335,2.43c.652.16,1.31-.508,1.31-.508s.13-.431.019-.6Z" transform="translate(-168.398 -178.469)" fill="#231f20"/>
        <path id="Path_230" data-name="Path 230" d="M231.24,246.824l.04-.037-.035-.053a6.049,6.049,0,0,1-.487-.9l-.056-.128-.037.122a3.384,3.384,0,0,0-.125,1.278v.083l.237-.067a1.787,1.787,0,0,0,.455-.293Z" transform="translate(-169.169 -180.305)" fill="#e87200"/>
        <path id="Path_231" data-name="Path 231" d="M185.319,290.1h.2c.234,0,.431-.085.431-.3,0-.154-.114-.311-.431-.311a1.243,1.243,0,0,0-.2.016Zm0,.979h-.282v-1.77a3.174,3.174,0,0,1,.5-.043.936.936,0,0,1,.551.133.423.423,0,0,1,.162.367.439.439,0,0,1-.346.431v.013c.154.029.266.168.3.431a1.4,1.4,0,0,0,.114.436h-.3a1.275,1.275,0,0,1-.12-.452.333.333,0,0,0-.383-.309h-.2Zm.3-2.265a1.347,1.347,0,1,0,1.275,1.349,1.307,1.307,0,0,0-1.275-1.349Zm0-.245a1.6,1.6,0,1,1-1.578,1.6,1.565,1.565,0,0,1,1.578-1.6Z" transform="translate(-135.054 -211.762)" fill="#fff"/>
      </g>
    </g>
  </g>
</svg>
