<svg id="sign" xmlns="http://www.w3.org/2000/svg" xmlns:xlink="http://www.w3.org/1999/xlink" width="248" height="94" viewBox="0 0 248 94">
  <defs>
    <clipPath id="clip-path">
      <rect id="Rectangle_70" data-name="Rectangle 70" width="248" height="94" transform="translate(69 472)" fill="none"/>
    </clipPath>
  </defs>
  <g id="Mask_Group_14" data-name="Mask Group 14" transform="translate(-69 -472)" clip-path="url(#clip-path)">
    <g id="shape" transform="translate(-233.149 46.881)">
      <g id="Group_76" data-name="Group 76">
        <g id="Layer_2" data-name="Layer 2" transform="translate(315.796 449.697)">
          <g id="logos" transform="translate(0)">
            <path id="Path_4" data-name="Path 4" d="M9.849,376.172a8.432,8.432,0,0,1-4.941-1.784c-.161-.117-.321-.24-.636-.5-.11-.091-.22-.185-.479-.423C1.28,371.193-.68,366.622.225,361.187l7.507-40.9c.9-5.942,4.865-10.24,9.459-10.254H214.9c4.5.159,8.423,4.4,9.384,10.254l7.417,40.9c1.382,8.567-4.309,15.028-9.594,14.985H9.849" transform="translate(0 -310.03)" fill="#ea7200" stroke="#000" stroke-width="2"/>
          </g>
        </g>
        <path id="Path_5" data-name="Path 5" d="M474.1,445.859a27.66,27.66,0,0,1-11.958-3.28c-4.858-2.59-11.571-7.541-19.338-16.694L427.373,402.9,401.5,363.2l-17.161-25.73-24.458-39.561L341.4,268.42l-26.515-40.181L283.238,179.2,253.21,132.849,225.539,89.581,189.881,34.559,169.732,4.07S162.187-11.08,146.348.558c-8.011,5.713-4.207,14.554-2.62,17.848,2.7,5.437,32.43,52.3,32.43,52.3l19.7,30.157,20.194,32.148L238.061,167l20.329,31.643,15.84,25.6,26.77,42.4,39.037,59.132,21.785,34.066,20.209,31.729,27.656,42.777L429.9,465.5l20.356,29.468,4.216,5.746,5.39,7.346" transform="translate(-141.425 3.838)" fill="#ea7200" stroke="#000" stroke-width="2"/>
      </g>
    </g>
  </g>
  <text id="Text" transform="translate(101 32)" fill="#fff" stroke="#000" stroke-width="2" font-size="42" font-family="Interstate-RegularComp, Interstate"><tspan x="45.012" y="38">Sign</tspan></text>
  <g id="Group_44" data-name="Group 44" transform="translate(-789.886 -413)">
    <g id="Layer_2-2" data-name="Layer 2" transform="translate(840 443)">
      <g id="Layer_1" data-name="Layer 1" transform="translate(0)">
        <g id="Layer_2-3" data-name="Layer 2">
          <g id="Layer_1-2" data-name="Layer 1-2">
            <g id="Group_38" data-name="Group 38">
              <path id="Path_111" data-name="Path 111" d="M38.9,54.5l-6.126-1.418a2.423,2.423,0,0,0-2.236.632h-.011a4.024,4.024,0,0,1-.677-2.238V48.73a14.411,14.411,0,0,0,2.613-4.184C34.089,45.627,35.5,42.2,35.5,40.707a1.513,1.513,0,0,0-1.682-1.682c.047-.522.07-1.039.07-1.545,0-6.458-5.056-8.87-11.291-8.87S11.3,31.022,11.3,37.48c0,.51.023,1.032.07,1.558-1.027-.122-1.685.515-1.685,1.669,0,1.558,1.4,5.214,2.967,3.681a14.486,14.486,0,0,0,2.667,4.342v2.775a4.024,4.024,0,0,1-.677,2.238h0a2.419,2.419,0,0,0-2.247-.63L6.221,54.567A8.064,8.064,0,0,0,0,62.419v7.312a2.416,2.416,0,0,0,2.414,2.418H42.742a2.418,2.418,0,0,0,2.421-2.416h0V62.365A8.064,8.064,0,0,0,38.9,54.5Z" transform="translate(0 -22.149)" fill="#d7bb91"/>
              <path id="Path_112" data-name="Path 112" d="M83.8,126.451a4.033,4.033,0,0,1-1.432-3.078V121.44H67.85c.761,2.186,5.914,6.953,10.584,8.92A18.907,18.907,0,0,0,83.8,126.451Z" transform="translate(-52.528 -94.017)" fill="#c5a578"/>
              <path id="Path_113" data-name="Path 113" d="M30.528,137.432c-1.2,1.181-2.333,2.188-3.351,3.028a7.226,7.226,0,0,1-9.193,0c-1.016-.838-2.15-1.843-3.344-3.021a2.418,2.418,0,0,0-2.247-.63l-6.176,1.454A8.064,8.064,0,0,0,0,146.113v7.323a2.416,2.416,0,0,0,2.414,2.418H42.742a2.418,2.418,0,0,0,2.421-2.416h0V146.07a8.064,8.064,0,0,0-6.263-7.861l-6.126-1.418A2.425,2.425,0,0,0,30.528,137.432Z" transform="translate(0 -105.854)" fill="#006b77"/>
              <path id="Path_114" data-name="Path 114" d="M39.931,188.544a4.627,4.627,0,0,1-2.236-.56l-2.807-1.551a4.663,4.663,0,0,0-2.238-.562H12.51a4.654,4.654,0,0,0-2.236.562l-2.807,1.551a4.652,4.652,0,0,1-2.242.56H0v3.342a2.24,2.24,0,0,0,2.418,2.005H42.742a2.246,2.246,0,0,0,2.421-2.005v-3.342Z" transform="translate(0 -143.898)" fill="#006b77"/>
              <path id="Path_115" data-name="Path 115" d="M66.976,39c.047-.522.07-1.039.07-1.545,0-6.458-5.056-8.87-11.291-8.87S44.465,31,44.465,37.46c0,.51.023,1.032.07,1.558-1.027-.122-1.685.515-1.685,1.669,0,1.558,1.4,5.214,2.967,3.681,1.7,4.178,5,7.61,9.936,7.61,4.875,0,8.154-3.344,9.87-7.452,1.626,1.082,3.033-2.346,3.033-3.839A1.506,1.506,0,0,0,66.976,39Z" transform="translate(-33.174 -22.134)" fill="#d1ba96"/>
              <path id="Path_116" data-name="Path 116" d="M58.527,80.41c-8.254,0-12.1-9.624-12.1-16.13h1.612c0,5.855,3.333,14.518,10.485,14.518S69.012,70.135,69.012,64.28h1.612C70.624,70.786,66.778,80.41,58.527,80.41Z" transform="translate(-35.945 -49.765)" fill="#231f20"/>
              <path id="Path_117" data-name="Path 117" d="M64.072,1a.723.723,0,0,0-.379-.1H62.613a.763.763,0,0,0-.569.264h0a.75.75,0,0,1-1.057.072.727.727,0,0,1-.072-.072L60.344.533A1.536,1.536,0,0,0,59.183,0h-1.89a1.536,1.536,0,0,0-1.129.524l-.569.635a.75.75,0,0,1-1.057.072.727.727,0,0,1-.072-.072h0A.772.772,0,0,0,53.894.9H52.815a.716.716,0,0,0-.377.106c-.89.526-4.846,3.089-6.368,7.054H70.458C68.916,4.1,64.959,1.536,64.072,1Z" transform="translate(-35.667)" fill="#231f20"/>
              <path id="Path_118" data-name="Path 118" d="M42.85,60.71l.61,4.261a1.612,1.612,0,0,0,1.6,1.384h1.021V60.71Z" transform="translate(-33.174 -47.001)" fill="#231f20"/>
              <path id="Path_119" data-name="Path 119" d="M146.077,60.71l-.61,4.261a1.608,1.608,0,0,1-1.6,1.384H142.85V60.71Z" transform="translate(-110.592 -47.001)" fill="#231f20"/>
              <path id="Path_120" data-name="Path 120" d="M65.537,35.71H41.149a.808.808,0,0,0-.8.707l-.607,4.839a.811.811,0,0,0,.709.9H66.14a.806.806,0,0,0,.806-.806.676.676,0,0,0,0-.1l-.605-4.839A.8.8,0,0,0,65.537,35.71Z" transform="translate(-30.761 -27.646)" fill="#231f20"/>
              <path id="Path_121" data-name="Path 121" d="M72.308,70.732H55.8a1.608,1.608,0,0,1-1.6-1.411l-.63-5.04H74.539l-.63,5.04A1.615,1.615,0,0,1,72.308,70.732Z" transform="translate(-41.473 -49.765)" fill="#d1ba96"/>
              <path id="Path_122" data-name="Path 122" d="M59.789,147.834,71.531,137.16l-1.549-.368a2.423,2.423,0,0,0-2.236.632c-1.2,1.181-2.333,2.188-3.351,3.028a7.226,7.226,0,0,1-9.193,0c-1.016-.838-2.15-1.843-3.344-3.021a2.418,2.418,0,0,0-2.247-.63l-1.551.368Z" transform="translate(-37.207 -105.855)" fill="#fff"/>
              <path id="Path_123" data-name="Path 123" d="M81.76,154.85l4.119,3.742L90,154.85A7.226,7.226,0,0,1,81.76,154.85Z" transform="translate(-63.297 -119.883)" fill="#006472"/>
            </g>
            <g id="Group_40" data-name="Group 40" transform="translate(38.788 9.879)">
              <path id="Path_124" data-name="Path 124" d="M274.63,128.783l.483.483.486-.483V120.9h-.969Z" transform="translate(-251.403 -103.478)" fill="#006b77"/>
              <rect id="Rectangle_32" data-name="Rectangle 32" width="0.969" height="7.743" transform="translate(23.227 8.71)" fill="#006b77"/>
              <path id="Path_125" data-name="Path 125" d="M200.447,51.316V71.068a1.452,1.452,0,0,0,.969-1.355V49.39a1.34,1.34,0,0,0-1.452-1.31H186.415c-.63,0-1.163,0-1.355.966h12.975A2.291,2.291,0,0,1,200.447,51.316Z" transform="translate(-182.059 -47.101)" fill="#fff"/>
              <circle id="Ellipse_4" data-name="Ellipse 4" cx="1.452" cy="1.452" r="1.452" transform="translate(7.743 4.698)" fill="#ea7200"/>
              <path id="Path_126" data-name="Path 126" d="M192.513,58.022a1.452,1.452,0,0,0-1.452-1.452H177.512a1.452,1.452,0,0,0-1.452,1.452V78.345a1.452,1.452,0,0,0,1.452,1.452h13.549a1.452,1.452,0,0,0,1.452-1.452Zm-1.935,18.871H186.7v-.969h3.873Zm0-2.9H179.93v-.966h10.647Zm0-1.935H179.93V71.1h10.647Zm0-1.935H179.93V69.15h10.647Zm0-1.935H179.93v-.969h10.647Zm-6.291-10.778a2.421,2.421,0,1,1-2.421,2.423,2.421,2.421,0,0,1,2.421-2.423ZM178,63.353h12.582v.969H178Zm0,1.935h12.582v.969H178Zm0,1.8h.969v.966H178Zm0,1.935h.969v.971H178Zm0,1.935h.969v.969H178Zm0,1.935h.969v.969H178Zm0,3.044h3.87V76.9H178Z" transform="translate(-175.091 -53.674)" fill="#f2f996"/>
              <g id="Group_39" data-name="Group 39">
                <path id="Path_127" data-name="Path 127" d="M189.675,43.747H176.126a2.36,2.36,0,0,0-2.376,1.91,2.346,2.346,0,0,0-1.98,2.3V68.285a2.547,2.547,0,0,0,2.421,2.561H187.74a2.484,2.484,0,0,0,2.373-2.05,2.5,2.5,0,0,0,1.978-2.446V46.026A2.3,2.3,0,0,0,189.675,43.747Zm-.483,24.67a1.452,1.452,0,0,1-1.452,1.452H174.191a1.452,1.452,0,0,1-1.452-1.452V48.094a1.452,1.452,0,0,1,1.452-1.452H187.74a1.452,1.452,0,0,1,1.452,1.452Zm1.935-2.077a1.452,1.452,0,0,1-.969,1.355V47.961a2.306,2.306,0,0,0-2.418-2.278H174.758c.2-.966.732-.966,1.355-.966h13.549a1.34,1.34,0,0,1,1.452,1.31Z" transform="translate(-171.77 -43.747)"/>
                <path id="Path_128" data-name="Path 128" d="M204.191,65.1a2.421,2.421,0,1,0-2.421-2.416A2.421,2.421,0,0,0,204.191,65.1Zm0-3.87a1.452,1.452,0,1,1-1.452,1.454A1.452,1.452,0,0,1,204.191,61.231Z" transform="translate(-194.996 -56.531)"/>
                <rect id="Rectangle_33" data-name="Rectangle 33" width="12.58" height="0.969" transform="translate(2.904 9.679)"/>
                <rect id="Rectangle_34" data-name="Rectangle 34" width="12.58" height="0.969" transform="translate(2.904 11.614)"/>
                <rect id="Rectangle_35" data-name="Rectangle 35" width="10.645" height="0.969" transform="translate(4.839 13.55)"/>
                <rect id="Rectangle_36" data-name="Rectangle 36" width="10.645" height="0.969" transform="translate(4.839 15.485)"/>
                <rect id="Rectangle_37" data-name="Rectangle 37" width="10.645" height="0.969" transform="translate(4.839 17.422)"/>
                <rect id="Rectangle_38" data-name="Rectangle 38" width="10.645" height="0.969" transform="translate(4.839 19.358)"/>
                <rect id="Rectangle_39" data-name="Rectangle 39" width="3.87" height="0.969" transform="translate(2.904 22.259)"/>
                <rect id="Rectangle_40" data-name="Rectangle 40" width="3.87" height="0.969" transform="translate(11.614 22.259)"/>
                <rect id="Rectangle_41" data-name="Rectangle 41" width="0.969" height="0.969" transform="translate(2.904 13.41)"/>
                <rect id="Rectangle_42" data-name="Rectangle 42" width="0.969" height="0.969" transform="translate(2.904 15.345)"/>
                <rect id="Rectangle_43" data-name="Rectangle 43" width="0.969" height="0.969" transform="translate(2.904 17.28)"/>
                <rect id="Rectangle_44" data-name="Rectangle 44" width="0.969" height="0.969" transform="translate(2.904 19.215)"/>
                <path id="Path_129" data-name="Path 129" d="M275.187,84.189v-3.87a1.339,1.339,0,0,0-1.45-1.312h-.485v-.623c0-.269-.226-.343-.483-.343h-1.935c-.266,0-.483.075-.483.343V95.8a.481.481,0,0,0,.14.341l.969.969a.483.483,0,0,0,.677,0l.966-.969a.472.472,0,0,0,.142-.341V79.975h.485c.266,0,.483.075.483.343v3.755l-.434.867a.488.488,0,0,0,0,.434l.434.865v1.479h.966V86.124a.483.483,0,0,0-.05-.226l-.377-.75.377-.752a.484.484,0,0,0,.056-.208ZM272.285,79v7.743h-.969V79.006ZM271.8,96.1l-.483-.483V87.718h.969V95.6Z" transform="translate(-248.089 -70.296)" fill="#006b77"/>
              </g>
            </g>
          </g>
        </g>
      </g>
    </g>
    <g id="Group_42" data-name="Group 42">
      <g id="Group_41" data-name="Group 41" transform="translate(50 103)">
        <g id="Path_131" data-name="Path 131" transform="translate(768 360)" fill="#f2f996">
          <path d="M 27 7.5 L 3 7.5 C 1.621500015258789 7.5 0.5 6.378499984741211 0.5 5 L 0.5 3 C 0.5 1.621500015258789 1.621500015258789 0.5 3 0.5 L 27 0.5 C 28.37849998474121 0.5 29.5 1.621500015258789 29.5 3 L 29.5 5 C 29.5 6.378499984741211 28.37849998474121 7.5 27 7.5 Z" stroke="none"/>
          <path d="M 3 1 C 1.897199630737305 1 1 1.897200107574463 1 3 L 1 5 C 1 6.102799892425537 1.897199630737305 7 3 7 L 27 7 C 28.1028003692627 7 29 6.102799892425537 29 5 L 29 3 C 29 1.897200107574463 28.1028003692627 1 27 1 L 3 1 M 3 0 L 27 0 C 28.65685081481934 0 30 1.34315013885498 30 3 L 30 5 C 30 6.65684986114502 28.65685081481934 8 27 8 L 3 8 C 1.3431396484375 8 0 6.65684986114502 0 5 L 0 3 C 0 1.34315013885498 1.3431396484375 0 3 0 Z" stroke="none" fill="#707070"/>
        </g>
        <g id="Path_130" data-name="Path 130" transform="translate(787 350) rotate(90)" fill="#f2f996">
          <path d="M 27 7.5 L 3 7.5 C 1.621500015258789 7.5 0.5 6.378499984741211 0.5 5 L 0.5 3 C 0.5 1.621500015258789 1.621500015258789 0.5 3 0.5 L 27 0.5 C 28.37849998474121 0.5 29.5 1.621500015258789 29.5 3 L 29.5 5 C 29.5 6.378499984741211 28.37849998474121 7.5 27 7.5 Z" stroke="none"/>
          <path d="M 3 1 C 1.897199630737305 1 1 1.897200107574463 1 3 L 1 5 C 1 6.102799892425537 1.897199630737305 7 3 7 L 27 7 C 28.1028003692627 7 29 6.102799892425537 29 5 L 29 3 C 29 1.897200107574463 28.1028003692627 1 27 1 L 3 1 M 3 0 L 27 0 C 28.65685081481934 0 30 1.34315013885498 30 3 L 30 5 C 30 6.65684986114502 28.65685081481934 8 27 8 L 3 8 C 1.3431396484375 8 0 6.65684986114502 0 5 L 0 3 C 0 1.34315013885498 1.3431396484375 0 3 0 Z" stroke="none" fill="#707070"/>
        </g>
      </g>
      <rect id="Rectangle_45" data-name="Rectangle 45" width="8" height="6" transform="translate(829 464)" fill="#f2f996"/>
    </g>
  </g>
</svg>
