<?xml version="1.0" encoding="UTF-8" standalone="no"?>
<svg xmlns:dc="http://purl.org/dc/elements/1.1/" xmlns:cc="http://creativecommons.org/ns#"
   xmlns:rdf="http://www.w3.org/1999/02/22-rdf-syntax-ns#" xmlns:svg="http://www.w3.org/2000/svg"
   xmlns="http://www.w3.org/2000/svg" xmlns:sodipodi="http://sodipodi.sourceforge.net/DTD/sodipodi-0.dtd"
   xmlns:inkscape="http://www.inkscape.org/namespaces/inkscape" id="Component_43_4" data-name="Component 43 – 4"
   width="60" viewBox="0 0 60 60" version="1.1" sodipodi:docname="back-btn-reversed.svg"
   inkscape:version="1.0 (4035a4fb49, 2020-05-01)">
   <metadata id="metadata35">
      <rdf:RDF>
         <cc:Work rdf:about="">
            <dc:format>image/svg+xml</dc:format>
            <dc:type rdf:resource="http://purl.org/dc/dcmitype/StillImage" />
            <dc:title />
         </cc:Work>
      </rdf:RDF>
   </metadata>
   <sodipodi:namedview inkscape:document-rotation="0" pagecolor="#ffffff" bordercolor="#666666" borderopacity="1"
      objecttolerance="10" gridtolerance="10" guidetolerance="10" inkscape:pageopacity="0" inkscape:pageshadow="2"
      inkscape:window-width="1920" inkscape:window-height="1051" id="namedview33" showgrid="false"
      inkscape:zoom="14.666667" inkscape:cx="30" inkscape:cy="30" inkscape:window-x="-9" inkscape:window-y="207"
      inkscape:window-maximized="1" inkscape:current-layer="Component_43_4" />
   <defs id="defs14">
      <radialGradient id="radial-gradient" cx="0.5" cy="0.5" r="0.5" gradientUnits="objectBoundingBox">
         <stop offset="0" stop-color="#070707" id="stop2" />
         <stop offset="0.611" stop-color="#393939" id="stop4" />
         <stop offset="1" stop-color="#595959" id="stop6" />
      </radialGradient>
      <radialGradient id="radial-gradient-2" cx="0.5" cy="0.5" r="0.597" gradientUnits="objectBoundingBox">
         <stop offset="0" id="stop9" />
         <stop offset="1" stop-color="#595959" id="stop11" />
      </radialGradient>
   </defs>
   <g id="Ellipse_2" data-name="Ellipse 2" stroke="#707070" stroke-width="1" fill="url(#radial-gradient)">
      <circle cx="30" cy="30" r="30" stroke="none" id="circle16" />
      <circle cx="30" cy="30" r="29.5" fill="none" id="circle18" />
   </g>
   <g id="Ellipse_3" data-name="Ellipse 3" transform="translate(6 6)" stroke="#fff" stroke-width="3"
      fill="url(#radial-gradient-2)">
      <circle cx="24" cy="24" r="24" stroke="none" id="circle21" />
      <circle cx="24" cy="24" r="22.5" fill="none" id="circle23" />
   </g>
   <g id="Layer_2" data-name="Layer 2"
      transform="matrix(-0.70710678,-0.70710678,-0.70710678,0.70710678,41.266544,29.646)">
      <g id="logos">
         <path id="Path_3" data-name="Path 3"
            d="m 20.308,4.57 a 0.961,0.961 0 0 0 0.92,-1.074 L 20.652,0.68 A 0.807,0.807 0 0 0 19.813,0 L 1.7,0.678 A 0.994,0.994 0 0 0 0.815,1.422 L 0.026,4.29 A 0.815,0.815 0 0 0 0.866,5.3 L 20.308,4.57"
            fill="#ffffff" />
      </g>
   </g>
   <g id="Layer_2-2" data-name="Layer 2"
      transform="matrix(0.70710678,-0.70710678,-0.70710678,-0.70710678,25.891545,45.767)">
      <g id="logos-2" data-name="logos">
         <path id="Path_3-2" data-name="Path 3"
            d="m 20.309,0.728 a 0.961,0.961 0 0 1 0.92,1.074 l -0.576,2.817 a 0.807,0.807 0 0 1 -0.839,0.68 L 1.7,4.62 A 0.994,0.994 0 0 1 0.815,3.876 L 0.026,1.009 A 0.815,0.815 0 0 1 0.866,0 l 19.443,0.728"
            fill="#ffffff" />
      </g>
   </g>
</svg>