<svg xmlns="http://www.w3.org/2000/svg" width="273.22" viewBox="0 0 273.22 272.084">
  <g id="Exit_Button" data-name="Exit Button" transform="translate(1.008 1.084)">
    <g id="Shape" transform="translate(0)">
      <g id="Group_1" data-name="Group 1" transform="translate(0)">
        <g id="Layer_2" data-name="Layer 2" transform="translate(0 235.207)">
          <g id="logos">
            <path id="Path_4" data-name="Path 4"
              d="M110.169,344.823c2.659,0,5.482-3.376,4.775-7.883l-3.724-21.515c-.447-3.126-2.413-5.387-4.693-5.394H8.44c-2.235.083-4.179,2.314-4.655,5.394L.1,336.94c-.685,4.507,2.138,7.906,4.76,7.883h105.3"
              transform="translate(0 -310.03)" fill="#4b4b4b" stroke="#000" stroke-width="2" />
          </g>
        </g>
        <path id="Path_5" data-name="Path 5"
          d="M144.64,235.187s5.959.144,14.466-10.485l7.657-12.093L179.6,191.731l8.514-13.535,12.134-20.81,9.17-15.515,13.155-21.136,15.7-25.795,14.9-24.384L266.9,47.8l17.691-28.943,10-16.038s-.38-2.041,4.469-2.6c0,0,3.069-.91,5.043,1.039l3.389,3.642a6.611,6.611,0,0,1,0,5.462c-1.341,2.86-16.09,27.509-16.09,27.509l-9.773,15.864L271.606,70.64l-10.92,17.882L250.6,105.167l-7.859,13.466L229.46,140.938l-19.367,31.1-10.808,17.92-10.026,16.691-13.721,22.5-10.026,16.387-9.832,15.864-5.319,6.828"
          transform="translate(-36.9 0)" fill="#4b4b4b" stroke="#000" stroke-width="2" />
      </g>
    </g>
    <text id="Text" transform="translate(3 239)" fill="#fff" font-size="20" font-family="made-tommy">
      <tspan x="10" y="23">Log out</tspan>
    </text>
  </g>
</svg>