<svg xmlns="http://www.w3.org/2000/svg" xmlns:xlink="http://www.w3.org/1999/xlink" width="49.6" viewBox="0 0 49.6 49.6">
  <defs>
    <clipPath id="clip-path">
      <circle id="Ellipse_13" data-name="Ellipse 13" cx="22.906" cy="22.906" r="22.906" transform="translate(23.678 35)"
        fill="#fff" stroke="#707070" stroke-width="2" />
    </clipPath>
  </defs>
  <g id="Image" transform="translate(-20.783 -34.4)">
    <g id="Mask_Group_21" data-name="Mask Group 21" transform="translate(-1 1.4)" clip-path="url(#clip-path)">
      <g id="Group_77" data-name="Group 77" transform="translate(26.757 36.811)">
        <path id="Path_33" data-name="Path 33"
          d="M149.109,70.687l-5.391-1.24a2.132,2.132,0,0,0-1.967.556l-.01.01a3.547,3.547,0,0,1-.6-1.969V65.606a12.682,12.682,0,0,0,2.3-3.682c1.431.952,2.669-2.065,2.669-3.378a1.331,1.331,0,0,0-1.48-1.48c.042-.459.062-.914.062-1.359,0-5.683-4.449-7.806-9.936-7.806s-9.936,2.122-9.936,7.806c0,.449.02.908.062,1.371-.9-.107-1.482.453-1.482,1.469,0,1.371,1.232,4.588,2.611,3.239a12.783,12.783,0,0,0,2.347,3.821V68.05a3.547,3.547,0,0,1-.6,1.969h0a2.128,2.128,0,0,0-1.977-.554l-5.435,1.28a7.1,7.1,0,0,0-5.471,6.907v6.434a2.126,2.126,0,0,0,2.128,2.128h35.481a2.128,2.128,0,0,0,2.13-2.128V77.6a7.1,7.1,0,0,0-5.511-6.917Z"
          transform="translate(-114.876 -42.215)" fill="#d7bb91" />
        <path id="Path_34" data-name="Path 34"
          d="M196.745,145.123a3.549,3.549,0,0,1-1.26-2.712v-1.7H182.71c.67,1.924,5.2,6.118,9.314,7.849A16.61,16.61,0,0,0,196.745,145.123Z"
          transform="translate(-169.227 -116.582)" fill="#c5a578" />
        <path id="Path_35" data-name="Path 35"
          d="M141.725,156.663c-1.053,1.039-2.053,1.926-2.949,2.665a6.359,6.359,0,0,1-8.09,0c-.894-.737-1.892-1.622-2.943-2.659a2.128,2.128,0,0,0-1.977-.554l-5.435,1.28a7.1,7.1,0,0,0-5.471,6.907v6.444a2.126,2.126,0,0,0,2.128,2.128h35.485a2.128,2.128,0,0,0,2.13-2.128v-6.482a7.1,7.1,0,0,0-5.511-6.917l-5.391-1.24A2.132,2.132,0,0,0,141.725,156.663Z"
          transform="translate(-114.86 -128.875)" fill="#006b77" />
        <path id="Path_36" data-name="Path 36"
          d="M150,207.513a4.087,4.087,0,0,1-1.967-.493l-2.47-1.365a4.1,4.1,0,0,0-1.969-.495H125.869a4.088,4.088,0,0,0-1.967.495l-2.47,1.365a4.094,4.094,0,0,1-1.973.493h-4.6v2.941a1.971,1.971,0,0,0,2.128,1.765h35.485a1.977,1.977,0,0,0,2.13-1.765v-2.941Z"
          transform="translate(-114.86 -168.224)" fill="#006b77" />
        <path id="Path_37" data-name="Path 37"
          d="M178.941,57.045c.042-.459.062-.914.062-1.359,0-5.683-4.449-7.806-9.936-7.806s-9.936,2.122-9.936,7.806c0,.449.02.908.062,1.371-.9-.107-1.482.453-1.482,1.469,0,1.371,1.232,4.588,2.611,3.239,1.494,3.676,4.4,6.7,8.744,6.7,4.29,0,7.176-2.943,8.686-6.558,1.431.952,2.669-2.065,2.669-3.378A1.326,1.326,0,0,0,178.941,57.045Z"
          transform="translate(-149.195 -42.199)" fill="#d1ba96" />
        <path id="Path_38" data-name="Path 38"
          d="M171.935,97.764c-7.263,0-10.645-8.469-10.645-14.194h1.419c0,5.153,2.933,12.776,9.226,12.776s9.226-7.623,9.226-12.776h1.419C182.581,89.3,179.2,97.764,171.935,97.764Z"
          transform="translate(-152.064 -70.796)" fill="#231f20" />
        <path id="Path_39" data-name="Path 39"
          d="M176.772,20.17a.628.628,0,0,0-.334-.093h-.95a.674.674,0,0,0-.5.233h0a.66.66,0,0,1-.994,0l-.5-.558a1.347,1.347,0,0,0-1.021-.461h-1.663a1.351,1.351,0,0,0-.994.461l-.5.558a.66.66,0,0,1-.994,0h0a.674.674,0,0,0-.5-.233h-.95a.622.622,0,0,0-.332.093c-.783.471-4.264,2.726-5.6,6.216h21.461C181.034,22.9,177.553,20.641,176.772,20.17Z"
          transform="translate(-151.775 -19.29)" fill="#231f20" />
        <path id="Path_40" data-name="Path 40" d="M157.71,80l.537,3.75a1.419,1.419,0,0,0,1.4,1.218h.9V80Z"
          transform="translate(-149.195 -67.936)" fill="#231f20" />
        <path id="Path_41" data-name="Path 41" d="M260.55,80l-.537,3.75a1.417,1.417,0,0,1-1.4,1.218h-.9V80Z"
          transform="translate(-229.323 -67.936)" fill="#231f20" />
        <path id="Path_42" data-name="Path 42"
          d="M177.3,55H155.838a.711.711,0,0,0-.705.622L154.6,59.88a.711.711,0,0,0,.705.795h22.527a.709.709,0,0,0,.7-.795L178,55.622A.707.707,0,0,0,177.3,55Z"
          transform="translate(-146.699 -47.904)" fill="#231f20" />
        <path id="Path_43" data-name="Path 43"
          d="M184.92,89.247H170.393a1.417,1.417,0,0,1-1.409-1.242l-.554-4.435h18.453l-.554,4.435A1.421,1.421,0,0,1,184.92,89.247Z"
          transform="translate(-157.785 -70.796)" fill="#d1ba96" />
        <path id="Path_44" data-name="Path 44"
          d="M173.241,165.824l10.333-9.393-1.363-.316a2.132,2.132,0,0,0-1.967.556c-1.053,1.039-2.053,1.926-2.949,2.665a6.359,6.359,0,0,1-8.09,0c-.894-.737-1.892-1.622-2.943-2.659a2.128,2.128,0,0,0-1.977-.554l-1.365.324Z"
          transform="translate(-153.37 -128.882)" fill="#fff" />
        <path id="Path_45" data-name="Path 45"
          d="M196.62,174.14l3.625,3.293,3.623-3.293A6.359,6.359,0,0,1,196.62,174.14Z"
          transform="translate(-180.373 -143.369)" fill="#006472" />
      </g>
    </g>
    <g id="Ellipse_15" data-name="Ellipse 15" transform="translate(20.783 34.4)" fill="none" stroke="#707070"
      stroke-width="2">
      <circle cx="24.8" cy="24.8" r="24.8" stroke="none" />
      <circle cx="24.8" cy="24.8" r="23.8" fill="none" />
    </g>
  </g>
</svg>