<svg id="Team_Button_-_Main" data-name="Team PLayers - Main" xmlns="http://www.w3.org/2000/svg"
  xmlns:xlink="http://www.w3.org/1999/xlink" width="75" viewBox="0 0 75 80">
  <g id="Group_21" data-name="Group 21">
    <g id="Layer_2-2" data-name="Layer 2" transform="translate(20 70)">
      <g id="logos-2" data-name="logos">
        <path id="Path_3" data-name="Path 3"
          d="M30.866,10c.745,0,1.534-.971,1.337-2.265L31.167,1.549C31.042.651,30.493,0,29.853,0H2.367C1.736.024,1.2.664,1.064,1.549L.033,7.735C-.158,9.029.631,10.006,1.365,10h29.5"
          transform="translate(-0.004)" fill="#231f20" />
      </g>
    </g>
    <g id="Layer_2-3" data-name="Layer 2">
      <g id="Layer_1" data-name="Layer 1" transform="translate(0 0)">
        <g id="Group_1" data-name="Group 1">
          <g id="Layer_2-4" data-name="Layer 2" transform="translate(41.277 58.564)">
            <g id="logos-3" data-name="logos">
              <path id="Path_4-2" data-name="Path 4"
                d="M1.292,318.693A1.573,1.573,0,0,1,.029,316.73l.985-5.357a1.418,1.418,0,0,1,1.241-1.343H28.187a1.456,1.456,0,0,1,1.231,1.343l.973,5.357a1.578,1.578,0,0,1-1.258,1.963H1.292"
                transform="translate(0 -310.03)" class='fill-primary' />
            </g>
          </g>
          <path id="Path_5-2" data-name="Path 5"
            d="M187.85,58.558s-1.576.036-3.825-2.611L182,52.937l-3.393-5.2-2.251-3.37-3.208-5.181-2.424-3.863-3.478-5.263L163.1,23.639l-3.939-6.071-3.63-5.667L150.85,4.694,148.207.7s.1-.508-1.182-.648a1.536,1.536,0,0,0-1.333.259l-.9.907a1.559,1.559,0,0,0,0,1.36c.354.712,4.254,6.849,4.254,6.849l2.584,3.95,2.649,4.211,2.887,4.452,2.667,4.144,2.078,3.353,3.511,5.554,5.12,7.745L173.4,47.3l2.651,4.156,3.628,5.6,2.651,4.08,2.6,3.95,1.406,1.7"
            transform="translate(-144.64 0)" class='fill-primary' />
        </g>
      </g>
    </g>
    <g id="Layer_2-5" data-name="Layer 2">
      <g id="Layer_1-2" data-name="Layer 1" transform="translate(0 0)">
        <g id="Group_1-2" data-name="Group 1">
          <g id="Layer_2-6" data-name="Layer 2" transform="translate(0 58.564)">
            <g id="logos-4" data-name="logos">
              <path id="Path_4-3" data-name="Path 4"
                d="M29.127,318.693a1.573,1.573,0,0,0,1.262-1.963l-.985-5.357a1.419,1.419,0,0,0-1.241-1.343H2.231A1.456,1.456,0,0,0,1,311.373L.028,316.73a1.578,1.578,0,0,0,1.258,1.963H29.127"
                transform="translate(0 -310.03)" class='fill-primary' />
            </g>
          </g>
          <path id="Path_5-3" data-name="Path 5"
            d="M144.64,58.558s1.576.036,3.824-2.611l2.025-3.011,3.393-5.2,2.251-3.37,3.208-5.181,2.424-3.863,3.478-5.263,4.151-6.423,3.939-6.071,3.63-5.667,4.677-7.206L184.283.7s-.1-.508,1.182-.648A1.536,1.536,0,0,1,186.8.312l.9.907a1.559,1.559,0,0,1,0,1.36c-.354.712-4.254,6.849-4.254,6.849l-2.584,3.95-2.649,4.211-2.887,4.452-2.667,4.144-2.078,3.353-3.511,5.554-5.12,7.745L159.087,47.3l-2.651,4.156-3.628,5.6-2.651,4.08-2.6,3.95-1.406,1.7"
            transform="translate(-116.155 0)" class='fill-primary' />
        </g>
      </g>
    </g>
  </g>
</svg>