<svg xmlns="http://www.w3.org/2000/svg" width="60.849" height="55.128" viewBox="0 0 60.849 55.128">
  <g id="Arrow" transform="translate(60.849 55.126) rotate(180)">
    <path id="Path_3" data-name="Path 3" d="M37.477,8.456A1.628,1.628,0,0,0,39.1,6.538L37.845,1.3C37.693.54,38.031.12,37.255.118L2.87,0A1.666,1.666,0,0,0,1.287,1.312L.033,6.549A1.63,1.63,0,0,0,1.651,8.466l35.825-.01" transform="translate(33.165 0) rotate(45)" fill="#00788a"/>
    <path id="Path_290" data-name="Path 290" d="M47.043,4.232c1.135,0,2.339-.411,2.038-.959L47.5.656C47.312.275,46.475,0,45.5,0H3.6A2.5,2.5,0,0,0,1.618.656L.078,3.981c-.291.548.88.254,2,.251H47.043" transform="translate(-0.008 24.003)" fill="#00788a"/>
    <path id="Path_291" data-name="Path 291" d="M47.039,0c1.135,0,2.339.411,2.038.959L47.5,3.576c-.191.38-1.028.655-2,.656H3.606A2.5,2.5,0,0,1,1.62,3.576L.048.959C-.243.411.96,0,2.079,0h44.96" transform="translate(-0.004 27.389)" fill="#00788a"/>
    <path id="Path_289" data-name="Path 289" d="M37.479.01a1.241,1.241,0,0,1,1.332,1.644l-.14,5.366c-.152.761-1.643,1.454-2.419,1.456L2.873,8.468A1.666,1.666,0,0,1,1.29,7.155L.036,1.918A1.63,1.63,0,0,1,1.654,0L37.479.01" transform="translate(27.304 49.132) rotate(-45)" fill="#00788a"/>
  </g>
</svg>
