<svg id="_Cancel" data-name=" Cancel" xmlns="http://www.w3.org/2000/svg" xmlns:xlink="http://www.w3.org/1999/xlink" width="150" height="150" viewBox="0 0 150 150">
  <defs>
    <radialGradient id="radial-gradient" cx="0.5" cy="0.5" r="0.5" gradientUnits="objectBoundingBox">
      <stop offset="0" stop-color="#070707"/>
      <stop offset="0.611" stop-color="#393939"/>
      <stop offset="1" stop-color="#595959"/>
    </radialGradient>
    <radialGradient id="radial-gradient-2" cx="0.5" cy="0.5" r="0.597" gradientUnits="objectBoundingBox">
      <stop offset="0"/>
      <stop offset="1" stop-color="#595959"/>
    </radialGradient>
  </defs>
  <g id="Puck_Button" data-name="Puck Button">
    <g id="Ellipse_2" data-name="Ellipse 2" stroke="#707070" stroke-width="1" fill="url(#radial-gradient)">
      <circle cx="75" cy="75" r="75" stroke="none"/>
      <circle cx="75" cy="75" r="74.5" fill="none"/>
    </g>
    <g id="Ellipse_3" data-name="Ellipse 3" transform="translate(15 15)" stroke="#fff" stroke-width="1" fill="url(#radial-gradient-2)">
      <circle cx="60" cy="60" r="60" stroke="none"/>
      <circle cx="60" cy="60" r="59.5" fill="none"/>
    </g>
  </g>
  <path id="Path_3" data-name="Path 3" d="M81.526,21.2A3.252,3.252,0,0,0,84.9,17.165L81.74,5.689a3.892,3.892,0,0,0-3.571-2.979L5.677,0a3.291,3.291,0,0,0-3.33,2.721L.052,13.993a3.857,3.857,0,0,0,3.671,4.3l77.8,2.909" transform="translate(52.39 37.5) rotate(45)" fill="#fff"/>
  <path id="Path_3-2" data-name="Path 3" d="M81.262,18.288a3.846,3.846,0,0,0,3.682-4.3L82.638,2.721A3.228,3.228,0,0,0,79.28,0L6.794,2.712A3.976,3.976,0,0,0,3.251,5.69L.105,17.164A3.26,3.26,0,0,0,3.465,21.2l77.8-2.909" transform="translate(37.405 97.603) rotate(-45)" fill="#fff"/>
</svg>
