<svg xmlns="http://www.w3.org/2000/svg" xmlns:xlink="http://www.w3.org/1999/xlink" width="150" height="150" viewBox="0 0 150 150">
  <defs>
    <radialGradient id="radial-gradient" cx="0.5" cy="0.5" r="0.5" gradientUnits="objectBoundingBox">
      <stop offset="0" stop-color="#070707"/>
      <stop offset="0.611" stop-color="#393939"/>
      <stop offset="1" stop-color="#595959"/>
    </radialGradient>
  </defs>
  <g id="Group_489" data-name="Group 489" transform="translate(-666 -594)">
    <g id="Button_-_Secondary" data-name="Button - Secondary" transform="translate(666 594)">
      <g id="Ellipse_2" data-name="Ellipse 2" stroke="#707070" stroke-width="1" fill="url(#radial-gradient)">
        <circle cx="75" cy="75" r="75" stroke="none"/>
        <circle cx="75" cy="75" r="74.5" fill="none"/>
      </g>
      <path id="Path_132" data-name="Path 132" d="M60,0A60,60,0,1,1,0,60,60,60,0,0,1,60,0Z" transform="translate(15 15)" fill="#006b77"/>
    </g>
    <g id="Layer_2" data-name="Layer 2" transform="translate(732.057 695.894) rotate(-135)">
      <g id="logos" transform="translate(6.339 0.093)">
        <path id="Path_3" data-name="Path 3" d="M35.315.42C36.167.432,37,2.029,36.681,4.136L35.052,14.212c-.208,1.465-.882,2.513-1.613,2.507l-31.422-.44c-.72-.05-1.289-1.1-1.378-2.549L-.1,3.621C-.221,1.507.752-.074,1.591-.053L35.315.42" transform="translate(0 0)" fill="#ea7200"/>
      </g>
      <g id="logos-2" data-name="logos" transform="translate(20.718 -0.701) rotate(90)">
        <path id="Path_3-2" data-name="Path 3" d="M71.143,6.932c1.722.172,3.7,1.945,3.458,4.017l-1.393,9.888a2.439,2.439,0,0,1-2.786,2.233L6.882,16.71a4.108,4.108,0,0,1-3.263-2.838L.233,3.506A2.527,2.527,0,0,1,2.947.107l68.2,6.825" transform="translate(0 0)" fill="#ea7200"/>
      </g>
    </g>
  </g>
</svg>
