<svg xmlns="http://www.w3.org/2000/svg" xmlns:xlink="http://www.w3.org/1999/xlink" width="212.643" height="211.344" viewBox="0 0 212.643 211.344">
  <defs>
    <clipPath id="clip-path">
      <rect id="Rectangle_72" data-name="Rectangle 72" width="64" height="96" transform="translate(800 288)" fill="none" stroke="#707070" stroke-width="1"/>
    </clipPath>
  </defs>
  <g id="Hockey_Visual" data-name="Hockey Visual" transform="translate(0 2.122) rotate(-0.5)">
    <g id="shape" transform="matrix(0.839, 0.545, -0.545, 0.839, 80.519, 0)">
      <g id="Group_76" data-name="Group 76">
        <g id="Layer_2" data-name="Layer 2" transform="translate(89.585 128.883)">
          <g id="logos" transform="translate(0)">
            <path id="Path_4" data-name="Path 4" d="M2.794,328.986a2.377,2.377,0,0,1-1.4-.511c-.046-.033-.091-.069-.18-.144-.031-.026-.062-.053-.136-.121a3.948,3.948,0,0,1-1.012-3.518l2.13-11.723c.256-1.7,1.38-2.935,2.683-2.939H60.962c1.278.045,2.389,1.261,2.662,2.939l2.1,11.723c.392,2.455-1.222,4.307-2.722,4.295H2.794" transform="translate(0 -310.03)" fill="#fff" stroke="#000" stroke-width="2"/>
          </g>
        </g>
        <path id="Path_5" data-name="Path 5" d="M235.8,125.044a7.782,7.782,0,0,1-3.392-.94,19.619,19.619,0,0,1-5.486-4.784l-4.378-6.589L215.2,101.356l-4.868-7.374L203.4,82.643l-5.243-8.453-7.522-11.516-8.978-14.054-8.518-13.285-7.85-12.4L155.171,7.166l-5.716-8.738s-2.14-4.342-6.634-1.006c-2.272,1.637-1.194,4.171-.743,5.115.767,1.558,9.2,14.988,9.2,14.988l5.588,8.643,5.729,9.213,6.244,9.743,5.767,9.069L179.1,61.53l7.594,12.152,11.074,16.947,6.18,9.763,5.733,9.094,7.845,12.26,5.733,8.928,5.775,8.446,1.2,1.647,1.529,2.105" transform="translate(-141.425 3.838)" fill="#fff" stroke="#000" stroke-width="2"/>
      </g>
    </g>
    <g id="Mask_Group_11" data-name="Mask Group 11" transform="translate(-725.218 -174.77)" clip-path="url(#clip-path)">
      <g id="shape-2" data-name="shape" transform="matrix(0.839, 0.545, -0.545, 0.839, 805.737, 175.77)">
        <g id="Group_76-2" data-name="Group 76">
          <g id="Layer_2-2" data-name="Layer 2" transform="translate(89.585 128.883)">
            <g id="logos-2" data-name="logos" transform="translate(0)">
              <path id="Path_4-2" data-name="Path 4" d="M2.794,328.986a2.377,2.377,0,0,1-1.4-.511c-.046-.033-.091-.069-.18-.144-.031-.026-.062-.053-.136-.121a3.948,3.948,0,0,1-1.012-3.518l2.13-11.723c.256-1.7,1.38-2.935,2.683-2.939H60.962c1.278.045,2.389,1.261,2.662,2.939l2.1,11.723c.392,2.455-1.222,4.307-2.722,4.295H2.794" transform="translate(0 -310.03)" fill="#002f6c" stroke="#000" stroke-width="2"/>
            </g>
          </g>
          <path id="Path_5-2" data-name="Path 5" d="M235.8,125.044a7.782,7.782,0,0,1-3.392-.94,19.619,19.619,0,0,1-5.486-4.784l-4.378-6.589L215.2,101.356l-4.868-7.374L203.4,82.643l-5.243-8.453-7.522-11.516-8.978-14.054-8.518-13.285-7.85-12.4L155.171,7.166l-5.716-8.738s-2.14-4.342-6.634-1.006c-2.272,1.637-1.194,4.171-.743,5.115.767,1.558,9.2,14.988,9.2,14.988l5.588,8.643,5.729,9.213,6.244,9.743,5.767,9.069L179.1,61.53l7.594,12.152,11.074,16.947,6.18,9.763,5.733,9.094,7.845,12.26,5.733,8.928,5.775,8.446,1.2,1.647,1.529,2.105" transform="translate(-141.425 3.838)" fill="#002f6c" stroke="#000" stroke-width="2"/>
        </g>
      </g>
    </g>
  </g>
</svg>
