<svg xmlns="http://www.w3.org/2000/svg" width="173.714" height="144.762" viewBox="0 0 173.714 144.762">
  <g id="Group_460" data-name="Group 460" transform="translate(-76.943 -226.952)">
    <g id="Rectangle_84" data-name="Rectangle 84" transform="translate(87.8 236)" fill="#fff" stroke="#707070" stroke-width="1">
      <rect width="152" height="126.667" rx="10" stroke="none"/>
      <rect x="0.5" y="0.5" width="151" height="125.667" rx="9.5" fill="none"/>
    </g>
    <g id="Jr_Sharks_Logo" data-name="Jr Sharks Logo" transform="translate(93.379 244)">
      <g id="Layer_1" data-name="Layer 1">
        <path id="Path_138" data-name="Path 138" d="M15.178,46.871C21.585,45.5,29.874,44,37.466,42.816a28.561,28.561,0,0,1,1.243-3.173c1.414-3,4.832-6.589,8.323-8.789a29.62,29.62,0,0,1,5.139-2.722C52.659,19.216,50.709,8.87,39.421,0,59.134,2.367,72.7,16.955,78.5,24.4a78,78,0,0,1,28.665,7.482c.171.081.551.233,1.034.426a53.417,53.417,0,0,1,6.412,2.955,116.452,116.452,0,0,1,21.5,17.2c1.638,1.683,4.388,4.729,4.305,6.29-.063,1.44-1.8,2.3-6.207,3.041-3.047.507-6.777.877-10.025,1.161h-.3a3.472,3.472,0,0,1-1.019-.1,18.27,18.27,0,0,1-7.207,1.521A17.828,17.828,0,0,1,108.9,62.98l.634-.309a15.528,15.528,0,0,1-4.315-1.754l2.4-.7a30.239,30.239,0,0,1-3.164-.943,9.819,9.819,0,0,0-3.559,2.9,10.316,10.316,0,0,0,2.248-.324,7.808,7.808,0,0,1-.868,2.266c1.043-.071,2.652-.355,2.652-.355a9.453,9.453,0,0,1-.839,2.306h.029l1.492-.4a10.9,10.9,0,0,1-.668,2.4l1.282-.1A7.7,7.7,0,0,1,103,72.154a3.078,3.078,0,0,1,.107.674c4.949,3.6,7.128,5.16,8.362,8.358a71.241,71.241,0,0,1-12.872-5.373H98.3a4.513,4.513,0,0,1-.59.035c-2.745,0-5.851-2.19-10.19-5.221-2.106-1.48-4.5-3.158-7.27-4.886-3.823-2.387-9.5-4.384-16.051-5.672-.3,2.534.9,6.437,3.316,10.685,1.668.431,6.265,1.592,8.084,4.014a6.254,6.254,0,0,1-3.584,1.521l-.731.112A81.913,81.913,0,0,0,83.879,89.358l.2.167A91.873,91.873,0,0,1,102.485,94.8c6.061,2.605,13.725,6.326,17.709,10.006a5.879,5.879,0,0,1,1.858,3.589c-1.243-.3-4.876-2.083-7.387-2.347a12.007,12.007,0,0,0-1.243-.041,7.053,7.053,0,0,0-.941.035h-.351a1.427,1.427,0,0,1-.975-.34,5.7,5.7,0,0,1-1.063-1.683,13.185,13.185,0,0,0-.819-1.434c-2.438-1.992-11.039-3.234-15.656-3.71a1.455,1.455,0,0,1-.176.821c-.488.811-2.438.4-2.487.4-1.185,1.906-2.155,5.348-2.1,10.579-6.4-4.39-7.772-14.882-8.016-17.847-3.286-2.387-11.019-8.11-19.216-15.009C51.035,68.88,43.522,61.282,39.314,55.25c-14.359-1.9-23.76-2.671-32.376-2.671-1.292,0-4.569-.035-6.938,0,2.014-2.828,5.758-3.644,15.178-5.662" transform="translate(0)" fill="#fff"/>
        <path id="Path_139" data-name="Path 139" d="M137.761,54.354a114.6,114.6,0,0,0-21.293-17.036,67.934,67.934,0,0,0-7.372-3.34,76.726,76.726,0,0,0-28.743-7.416c-5.471-7.1-17.836-20.417-35.9-24.092C54.477,10.681,56,22.507,55.37,30.029a28.953,28.953,0,0,0-5.544,2.864,22.878,22.878,0,0,0-7.977,8.4A27.87,27.87,0,0,0,40.474,44.9C25.681,47.177,6.45,50.983,4.5,52.889c10.688-.365,21.415.507,37.641,2.656,9.688,14.243,36.081,33.728,41.932,37.97h0s.57,11.1,6.339,16.5c0-6.671,2.2-9.342,2.306-9.56s1.463-.1,2.111-.035c.151,0,.249-.1.2-.223l-.575-1.217s14.179,1.135,17.748,4.055c.488.4,1.5,2.8,1.863,3.1s.449,0,2.979.127,4.847,1.455,5.851,1.8c-.756-2.195-8.265-6.817-18.45-11.2a91.785,91.785,0,0,0-18.445-5.251l-.39-.324A79.367,79.367,0,0,1,71.221,75.917c.366.253.853.568,1.341.887,1.833-.406,2.872-.289,4.081-.983-1.224-1.262-5.061-2.458-7.416-3.041C66.062,67.34,65,62.834,65.814,60.137c6.8,1.252,13.014,3.325,17.246,5.961,8.723,5.439,13.721,10.4,17.465,9.94l.57-.066a77.4,77.4,0,0,0,11.117,5.114c-.336-1.014-3.467-3.548-7.753-6.64a1.724,1.724,0,0,0-.078-1.054c-.049-.147-.112-.319-.18-.507a7.491,7.491,0,0,0,2.857-2.681c-.541.041-1.048.056-1.521.061a6.154,6.154,0,0,0,1.136-2.114,22.916,22.916,0,0,1-2.925.552,6.965,6.965,0,0,0,2.209-2.626,22.27,22.27,0,0,1-3.472.238,6.415,6.415,0,0,0,1.619-2.134c-.741.112-1.424.172-2.033.208a3.285,3.285,0,0,1,1.107-2.565,15.054,15.054,0,0,1,5.188-3.1,18.161,18.161,0,0,0,3.252-.071,29.156,29.156,0,0,1-2.711,1.475,20.7,20.7,0,0,0,5,.826,17.87,17.87,0,0,1-3.823,1.338,15.605,15.605,0,0,0,4.993,1.014l-1.3.634a16.342,16.342,0,0,0,11.346-.948,2.759,2.759,0,0,0,1.282.213c6.1-.507,15.305-1.45,15.383-3.295.034-.74-1.36-2.828-4.042-5.576" transform="translate(-2.306 -1.218)"/>
        <path id="Path_140" data-name="Path 140" d="M210.995,77.335a21.919,21.919,0,0,1,2.989,2.357c1.175,1.191,3.169,3.4,3.169,3.4s-2.262-.608-2.9-.831a9.921,9.921,0,0,1-1.19-.507,15.248,15.248,0,0,1-1.282-2.311c-.351-.907-.795-2.119-.795-2.119" transform="translate(-108.115 -38.128)" fill="#e87200"/>
        <path id="Path_141" data-name="Path 141" d="M123.043,28.009h1.824c-5.022-6.361-15.8-17.9-30.966-22.439,12.78,4.684,24.1,15.379,29.143,22.439" transform="translate(-48.116 -2.747)" fill="#006072"/>
        <path id="Path_142" data-name="Path 142" d="M152.689,71.634a18.511,18.511,0,0,0-9.869,11.78c.1-5.226,2.852-9.915,5.895-12.064a28.473,28.473,0,0,1,3.974.284" transform="translate(-73.183 -35.184)" fill="#006072"/>
        <path id="Path_143" data-name="Path 143" d="M143,71.161a15.208,15.208,0,0,0-6.592,10.756c-.4-4.339.975-8.581,3.281-10.644A23.851,23.851,0,0,1,143,71.156" transform="translate(-69.862 -35.082)" fill="#006072"/>
        <path id="Path_144" data-name="Path 144" d="M133.643,71.6c-2.384,1.891-4.193,4.43-4.388,9.408-.81-3.888-.1-7.02,1.419-8.972a21.636,21.636,0,0,1,2.979-.436" transform="translate(-66.059 -35.308)" fill="#006072"/>
        <path id="Path_145" data-name="Path 145" d="M73.265,95.673a93.937,93.937,0,0,1-18.123,1.46c-9.318-.3-19.016-2.93-37.261-2.57,23.35-5.474,42.337-1.718,33.156-5.576,12.56-.147,18.182,6.377,22.253,6.676" transform="translate(-9.162 -43.88)" fill="#006072"/>
        <path id="Path_146" data-name="Path 146" d="M171.364,180.89s-7.241-4.886-11.214-9.6c0,0,6.739,5.743,11.214,9.6" transform="translate(-82.063 -84.467)" fill="#006072"/>
        <path id="Path_147" data-name="Path 147" d="M123,115.25a13.082,13.082,0,0,1,2.258.223s-2.209,7.852,10.556,22.809c-5.949-6.346-12.034-12.895-12.814-23.022" transform="translate(-63.027 -56.832)" fill="#006072"/>
        <path id="Path_148" data-name="Path 148" d="M101.6,53.765c14.276-3.437,30.23-2.342,47.217,5.576a88.738,88.738,0,0,1,8.289,3.918,115.6,115.6,0,0,1,23.8,20.387c-2.311-.041-5.563-2.661-7.909-3.984-2.926-1.637-12.9-7.6-17.192-9.387a2.775,2.775,0,0,0,.273-2.028,7.489,7.489,0,0,1-1.794.948,1.1,1.1,0,0,1-1.175-.37,30.115,30.115,0,0,0-6.27-6.133c-.673-.446-2.17-.917-5.012-.943a8.706,8.706,0,0,1,3.057-.953c-4.023-1.693-17.48-8.11-34.131-5.885a19.353,19.353,0,0,1,7.265-1.429c-4.876-1.521-17.446-.507-24.218,3.721-7.314,4.562-9.264,7.046-10.966,8.967,3.5-6.534,9.752-10.234,18.767-12.4" transform="translate(-42.449 -25.603)" fill="#006072"/>
        <path id="Path_149" data-name="Path 149" d="M146.76,88.414c5.061-3.153,12.448-6.478,17.553-4.917a57.453,57.453,0,0,0-17.4-4.633c9.805-.309,23.438,3.974,30.591,7.451,17.139,8.333,24.048,11.8,28.109,11.815-1.18.213-3.535-.106-5.242.086-2.321.259-3.384.152-5.91.563-1.029.167-3.457-1.328-4.149-2.139a25.05,25.05,0,0,0-2.565-2.028c-1.9-1.46-12.638-6.914-16.4-7.36s-7.8.172-12.677,3.786a14.062,14.062,0,0,1,4.769-1.693c-.975.7-3.828,2.2-4.808,4.714a9.85,9.85,0,0,0,.185,3.705,17.125,17.125,0,0,0,3.857,9.038c3.111,3.462,6.524,4.77,7.553,4.106h0a1.573,1.573,0,0,1-.156,1.059c-.273.588-1.273.583-2.223.689-7.987-.618-12.1-16.6-22.3-19.7-1.121-.056-6.69-.613-10.961-.877,7.572-.684,11.214-3.041,12.19-3.66" transform="translate(-68.966 -38.882)" fill="#fff"/>
        <path id="Path_150" data-name="Path 150" d="M194.05,129.172a.943.943,0,0,0-.366,0,5.2,5.2,0,0,0,2.472-2.256,11.673,11.673,0,0,1-4.564.1,3.948,3.948,0,0,0,2.438-2.174,12.122,12.122,0,0,1-4.851-.436,6.714,6.714,0,0,0,3.564-2.463,12.856,12.856,0,0,1-5.363-.684,13.4,13.4,0,0,0,2.925,5.824c2.96,3.3,5.851,4.339,6.553,4.278a6.7,6.7,0,0,0,1.9-2.068,20.853,20.853,0,0,1-4.7-.142" transform="translate(-96.017 -59.796)" fill="#fff"/>
        <path id="Path_151" data-name="Path 151" d="M223.993,107.163a10.3,10.3,0,0,0-1.95-1.49,3.518,3.518,0,0,0-1.648-1.429c-1.175-.507-2.438-.973-2.438-.973a5.109,5.109,0,0,0-1.838-1.358,14.363,14.363,0,0,0-2.092-.836,17.243,17.243,0,0,0-2.238-1.08,11.208,11.208,0,0,1-1.531-.659s-.673-.274-1.6-.583l-1.921-.628a5.024,5.024,0,0,1-1.3-.2,3.331,3.331,0,0,0-1.95-.122c-.312.507.122-.193-1.16,1.227a15.378,15.378,0,0,0,3.7-.35,4.688,4.688,0,0,1-1.814,2.028,13.707,13.707,0,0,0,4.266-.142,6.175,6.175,0,0,1-2.209,2.245,13.049,13.049,0,0,0,5-.319,7.792,7.792,0,0,1-2.55,2.418,16.586,16.586,0,0,0,6.426-.39,7.733,7.733,0,0,1-2.833,2.342,16.668,16.668,0,0,0,6.3.157,24.388,24.388,0,0,1-4.681,2.195,14.322,14.322,0,0,0,5.066.314,8.153,8.153,0,0,1-1.594,1.105,10.5,10.5,0,0,0,7.6-1.759s.488-.405-1-1.7" transform="translate(-103.677 -48.187)" fill="#fff"/>
        <path id="Path_152" data-name="Path 152" d="M187.33,121.3a16.64,16.64,0,0,0,2.7.639c-1.214.8-1.775,2.823-.878,2.534h0c.234.036.844.233,1.692.38-.663.76-.375,2.58.722,2.23h0c.488.061,1.1.142,1.8.167-.624.745-.9,2.413.288,1.987a.939.939,0,0,1,.366,0,16.445,16.445,0,0,0,1.819.177c-.629.583-.936,1.419.122,1.865a14.273,14.273,0,0,1-5.695-4.111,13.452,13.452,0,0,1-2.926-5.824" transform="translate(-95.991 -59.816)" fill="#a7b1b7"/>
        <path id="Path_153" data-name="Path 153" d="M224.2,103.72c-2.55.324-5.773,1.115-7.426.081-3.876-2.433-15.427-10.269-22.575-10.026a14.283,14.283,0,0,0-10.239,4.618h0c4.73-3.4,8.9-3.832,12.565-3.244,7.479,1.191,17.241,7.051,20.386,10.771.687.816,1.1,1.135,2.779,1.014a108.555,108.555,0,0,0,11.215-1.445,39.6,39.6,0,0,1-6.719-1.769" transform="translate(-94.264 -46.24)" fill="#a7b1b7"/>
        <path id="Path_154" data-name="Path 154" d="M144.181,123.114c-.371,1.135-2.409,1.455-3.876.755s-3.5-2.1-5.851-5.388c-1.975-2.773-6.885-12.413-15.681-14.563-5.807-1.419-16.729,2.747-35.023,1.206,0,0,7.66,10.442,16.9,17.6-3-3.335-6.148-8.663-4.91-12.489a5.54,5.54,0,0,0-2.316,2.372c.57-4.668,6.295-4.765,11.614-3.994,2.535.405,4.744.8,6.231,1.146A45.09,45.09,0,0,1,128.866,118c-1.078-2.382-3.993-7.664-7.172-10.254,7.211,3.234,11.873,17.4,20.093,17.4.853-.1,3.335-.157,2.394-2.027" transform="translate(-42.915 -51.097)" fill="#a7b1b7"/>
        <path id="Path_155" data-name="Path 155" d="M224.864,106.789c-2.745-2.534-6.909-4.952-12.189-7.2-5.636-2.4-8.513-2.1-8.513-2.1l-.054.081-.029.051h0c-.054.056-.127.117-.312.3h0l-.088.086h0a1.022,1.022,0,0,1-.1.106h-.024l-.122.132c.756-.446,2.462-.405,1.57.35h0c.536-.056.975-.127,1.37-.2h.029l.341-.071-.2.345-.049.081q-.107.182-.234.365c1.872-.507,3.735-.188,3.618.39a2.879,2.879,0,0,1-.761.71h.073c-.132.213-.283.441-.458.674a13.065,13.065,0,0,1,2.253-.938,3.253,3.253,0,0,1,2.292.36c.517.274-.293,1.211-.293,1.211a4.382,4.382,0,0,1,2.019-.411,3.831,3.831,0,0,1,2.438,1.637c.127.456-.809,1.014-.809,1.014a10.354,10.354,0,0,1,2.033-.2c1.868.172,3.252,1.135,3.242,1.723,0,.314-.834.618-.975.745a2.872,2.872,0,0,1,2.472.2c.609.507.19,1.242-.278,1.581a12.849,12.849,0,0,1-2.2,1.13c1.736-.309,4.081-.588,3.613.041-.331.411-.858.507-1.238.791,1.672-.416,2.813-.781,2.813-.781s.336-1.064-1.121-2.413" transform="translate(-104.241 -48.067)" fill="#a7b1b7"/>
        <path id="Path_156" data-name="Path 156" d="M56.047,165.65h6.49l-2.145,8.323h4.359L66.9,165.65h6.49l-5.4,20.975H61.489l1.887-7.314H59.017l-1.882,7.314H50.64l5.407-20.975Z" transform="translate(-25.949 -81.686)"/>
        <path id="Path_157" data-name="Path 157" d="M61.444,185.23h5.081l5.042-19.555H66.485L64.34,174H58.572l2.145-8.323H55.636L50.595,185.23h5.081l1.887-7.314H63.33Zm6.129,1.419h-7.9l1.882-7.314H58.625l-1.916,7.314H48.82l5.768-22.389h7.9l-2.145,8.318h2.925l2.145-8.318h7.923Z" transform="translate(-25.016 -81)"/>
        <path id="Path_158" data-name="Path 158" d="M29.426,166.684a3.176,3.176,0,0,0-2.76-1.014H18.09c-2.682,0-4.335,1.353-5.051,4.141l-.926,3.594c-.8,3.1.517,3.66,3.106,4.461l5.749,1.6a.363.363,0,0,1,.222.174.388.388,0,0,1,.036.287l-.429,1.663a.369.369,0,0,1-.351.284H16.032a.366.366,0,0,1-.289-.149.4.4,0,0,1-.067-.328l.419-1.521-5.315-1.445-1.029,3.984a3.732,3.732,0,0,0,.219,3.2,3.166,3.166,0,0,0,2.765,1.014h8.972c2.682,0,4.33-1.353,5.051-4.136l.975-3.807a3.739,3.739,0,0,0-.044-2.793c-.488-.892-1.633-1.267-3.067-1.663-1.043-.289-3.9-1.039-5.749-1.521a.368.368,0,0,1-.222-.177.394.394,0,0,1-.036-.289l.4-1.521a.368.368,0,0,1,.351-.279h3.988a.361.361,0,0,1,.288.149.392.392,0,0,1,.063.327l-.375,1.46,5.31,1.49,1.009-3.984a3.747,3.747,0,0,0-.224-3.2" transform="translate(-4.876 -81.695)"/>
        <path id="Path_159" data-name="Path 159" d="M10.534,178.584l-.878,3.325a3.117,3.117,0,0,0,.107,2.59,2.58,2.58,0,0,0,2.223.745h8.972c2.36,0,3.754-1.145,4.388-3.614l.975-3.8c.361-1.409.185-1.962,0-2.256-.366-.659-1.375-.978-2.652-1.333-.936-.258-3.379-.9-5.159-1.374l-.58-.152a1.043,1.043,0,0,1-.648-.5,1.117,1.117,0,0,1-.1-.834l.4-1.521a1.051,1.051,0,0,1,1.009-.8h4.037a1.025,1.025,0,0,1,.829.421,1.1,1.1,0,0,1,.18.943l-.2.781,3.993,1.12.834-3.279a3.13,3.13,0,0,0-.107-2.6h0a2.6,2.6,0,0,0-2.218-.745H17.36c-2.36,0-3.759,1.151-4.388,3.614l-.926,3.594c-.634,2.463.078,2.8,2.643,3.6l5.739,1.607a1.1,1.1,0,0,1,.736,1.328l-.439,1.647a1.055,1.055,0,0,1-1,.786H15.3a1.035,1.035,0,0,1-.829-.423,1.124,1.124,0,0,1-.185-.94l.234-.862-3.988-1.085Zm10.425,8.08H11.987a3.8,3.8,0,0,1-3.3-1.3,4.421,4.421,0,0,1-.341-3.817l1.229-4.689,6.636,1.81-.488,1.81h3.759l.283-1.1-5.446-1.521c-2.37-.735-4.6-1.424-3.589-5.327l.926-3.594c.8-3.1,2.721-4.663,5.71-4.663h8.572a3.818,3.818,0,0,1,3.3,1.3,4.427,4.427,0,0,1,.341,3.822l-1.185,4.653-6.626-1.86.444-1.728H18.866l-.254.978.263.066c1.789.471,4.232,1.115,5.178,1.379,1.59.436,2.852.867,3.481,1.992a4.408,4.408,0,0,1,.112,3.33l-.975,3.807c-.8,3.092-2.721,4.663-5.71,4.663" transform="translate(-4.146 -81.005)"/>
        <path id="Path_160" data-name="Path 160" d="M204.943,165.65h-7.411l-5.641,7.6,1.955-7.6h-6.938L181.5,186.625h6.938l2.18-8.455,1.512,8.455h7.411l-1.975-11.05,7.377-9.925Z" transform="translate(-93.004 -81.686)"/>
        <path id="Path_161" data-name="Path 161" d="M191.762,185.23h6.027l-1.863-10.523,6.719-9.033h-5.71l-5.441,7.319-1.2-.613,1.731-6.706H186.5L181.46,185.23h5.524l2.043-7.923,1.331.051,1.4,7.877Zm7.665,1.419H190.65l-1.063-5.961-1.531,5.961H179.68l5.773-22.389H193.8l-1.307,5.069,3.774-5.069H205.4l-8.04,10.812,2.067,11.577Z" transform="translate(-92.071 -81)"/>
        <path id="Path_162" data-name="Path 162" d="M148.046,175.357l1.136-4.41h3.135c.78,0,1.029.431.819,1.237l-.429,1.673c-.293,1.125-.751,1.521-2.194,1.521Zm8.157,11.237-1.243-6.97a6.579,6.579,0,0,0,3.608-4.2l1.512-5.87c.561-2.175-.678-3.939-2.77-3.939H144.087l-5.407,20.975h6.578l1.672-6.488h1.17l1.16,6.488Z" transform="translate(-71.062 -81.671)"/>
        <path id="Path_163" data-name="Path 163" d="M148,173.974h1.6c1.224,0,1.341-.233,1.536-.973l.429-1.673a1.057,1.057,0,0,0,.044-.324.694.694,0,0,0-.2,0h-2.633L148,174Zm1.58,1.419h-3.354l1.5-5.829h3.657a1.5,1.5,0,0,1,1.3.563,1.8,1.8,0,0,1,.18,1.566l-.429,1.673c-.38,1.48-1.155,2.028-2.852,2.028Zm-.7,9.833h5.568l-1.195-6.686.488-.223a5.9,5.9,0,0,0,3.223-3.731l1.511-5.87a2.619,2.619,0,0,0-.307-2.22,2.163,2.163,0,0,0-1.8-.826H143.691l-5.056,19.555H143.8l1.672-6.488h2.253Zm7.206,1.419h-8.338l-1.161-6.488h-.073l-1.672,6.488H136.86l5.768-22.389h13.75a3.472,3.472,0,0,1,2.886,1.379,4.063,4.063,0,0,1,.541,3.447l-1.512,5.87a7.232,7.232,0,0,1-3.5,4.42Z" transform="translate(-70.129 -80.998)"/>
        <path id="Path_164" data-name="Path 164" d="M102.82,179.154l3.579-7.862-.488,7.862Zm2.652,7.441h6.607l.3-20.975H103.3L92.82,186.595h6.607l1.346-2.965h4.876l-.18,2.965Z" transform="translate(-47.563 -81.671)"/>
        <path id="Path_165" data-name="Path 165" d="M102.719,177.773H104.1l.214-3.513Zm2.667,1.414h-4.822l4.037-8.87,1.3.35-.488,8.521Zm-.366,6.042h5.207l.283-19.555h-7.972L92.787,185.23h5.051l1.351-2.96h6.036l-.18,2.96Zm6.553,1.414h-8l.176-2.96h-3.73l-1.351,2.96H90.52l11.214-22.384H111.91l-.317,22.384Z" transform="translate(-46.384 -81)"/>
        <path id="Path_166" data-name="Path 166" d="M247.23,166.684a3.17,3.17,0,0,0-2.76-1.014H235.9c-2.682,0-4.335,1.353-5.051,4.141l-.926,3.594c-.8,3.1.512,3.66,3.106,4.461l5.753,1.612a.363.363,0,0,1,.222.174.388.388,0,0,1,.037.287l-.429,1.663a.374.374,0,0,1-.351.284h-4.422a.361.361,0,0,1-.288-.149.392.392,0,0,1-.063-.327l.414-1.521-5.31-1.445-1.053,4a3.747,3.747,0,0,0,.224,3.2,3.156,3.156,0,0,0,2.76,1.014h8.971c2.682,0,4.335-1.353,5.051-4.136l.975-3.807a3.745,3.745,0,0,0-.039-2.793c-.488-.892-1.633-1.267-3.067-1.663-1.048-.289-3.9-1.039-5.749-1.521a.362.362,0,0,1-.227-.175.388.388,0,0,1-.036-.291c.112-.436.3-1.151.4-1.521a.363.363,0,0,1,.351-.279h4a.361.361,0,0,1,.288.149.392.392,0,0,1,.063.327l-.376,1.46,5.31,1.49,1-3.969a3.713,3.713,0,0,0-.224-3.2" transform="translate(-116.475 -81.695)"/>
        <path id="Path_167" data-name="Path 167" d="M236.755,170.216ZM236.351,171.736Zm-8,6.838-.873,3.325a3.118,3.118,0,0,0,.107,2.59,2.575,2.575,0,0,0,2.219.745h8.972c2.365,0,3.759-1.146,4.388-3.614l.975-3.8c.366-1.409.19-1.962.029-2.256-.366-.659-1.375-.978-2.652-1.333-.946-.264-3.413-.907-5.193-1.379l-.546-.147a1.034,1.034,0,0,1-.648-.507,1.122,1.122,0,0,1-.107-.831l.4-1.521a1.051,1.051,0,0,1,1.009-.8h4a1.025,1.025,0,0,1,.83.421,1.114,1.114,0,0,1,.179.942l-.2.781,3.988,1.12.834-3.279a3.115,3.115,0,0,0-.1-2.6,2.58,2.58,0,0,0-2.223-.745h-8.562c-2.365,0-3.759,1.151-4.388,3.614l-.926,3.594c-.639,2.463.073,2.8,2.643,3.6l5.734,1.607a1.1,1.1,0,0,1,.741,1.328l-.429,1.668a1.061,1.061,0,0,1-1.009.806h-4.427a1.03,1.03,0,0,1-.828-.423,1.119,1.119,0,0,1-.181-.94l.229-.862-3.989-1.085Zm10.425,8.08h-8.972a3.807,3.807,0,0,1-3.3-1.3,4.421,4.421,0,0,1-.341-3.817l1.253-4.678,6.636,1.81-.488,1.81h3.759l.283-1.1-5.446-1.521c-2.375-.735-4.6-1.424-3.589-5.327l.926-3.594c.795-3.1,2.716-4.663,5.71-4.663h8.572a3.793,3.793,0,0,1,3.3,1.3h0c.663.9.775,2.144.341,3.822l-1.18,4.653-6.636-1.865.444-1.728h-3.369l-.258.978.239.061c1.794.471,4.257,1.12,5.207,1.384,1.59.436,2.852.862,3.481,1.992a4.388,4.388,0,0,1,.107,3.33L244.484,182c-.795,3.092-2.716,4.663-5.71,4.663" transform="translate(-115.762 -81.005)"/>
        <path id="Path_168" data-name="Path 168" d="M56.047,165.65h6.49l-2.145,8.323h4.359L66.9,165.65h6.49l-5.4,20.975H61.489l1.887-7.314H59.017l-1.882,7.314H50.64l5.407-20.975Z" transform="translate(-25.949 -81.686)" fill="#006072"/>
        <path id="Path_169" data-name="Path 169" d="M29.426,166.684a3.176,3.176,0,0,0-2.76-1.014H18.09c-2.682,0-4.335,1.353-5.051,4.141l-.926,3.594c-.8,3.1.517,3.66,3.106,4.461l5.749,1.6a.363.363,0,0,1,.222.174.388.388,0,0,1,.036.287l-.429,1.663a.369.369,0,0,1-.351.284H16.032a.366.366,0,0,1-.289-.149.4.4,0,0,1-.067-.328l.419-1.521-5.315-1.445-1.029,3.984a3.732,3.732,0,0,0,.219,3.2,3.166,3.166,0,0,0,2.765,1.014h8.972c2.682,0,4.33-1.353,5.051-4.136l.975-3.807a3.739,3.739,0,0,0-.044-2.793c-.488-.892-1.633-1.267-3.067-1.663-1.043-.289-3.9-1.039-5.749-1.521a.368.368,0,0,1-.222-.177.394.394,0,0,1-.036-.289l.4-1.521a.368.368,0,0,1,.351-.279h3.988a.361.361,0,0,1,.288.149.392.392,0,0,1,.063.327l-.375,1.46,5.31,1.49,1.009-3.984a3.747,3.747,0,0,0-.224-3.2" transform="translate(-4.876 -81.695)" fill="#006072"/>
        <path id="Path_170" data-name="Path 170" d="M204.943,165.65h-7.411l-5.641,7.6,1.955-7.6h-6.938L181.5,186.625h6.938l2.18-8.455,1.512,8.455h7.411l-1.975-11.05,7.377-9.925Z" transform="translate(-93.004 -81.686)" fill="#006072"/>
        <path id="Path_171" data-name="Path 171" d="M148.046,175.357l1.136-4.41h3.135c.78,0,1.029.431.819,1.237l-.429,1.673c-.293,1.125-.751,1.521-2.194,1.521Zm8.157,11.237-1.243-6.97a6.579,6.579,0,0,0,3.608-4.2l1.512-5.87c.561-2.175-.678-3.939-2.77-3.939H144.087l-5.407,20.975h6.578l1.672-6.488h1.17l1.16,6.488Z" transform="translate(-71.062 -81.671)" fill="#006072"/>
        <path id="Path_172" data-name="Path 172" d="M102.82,179.154l3.579-7.862-.488,7.862Zm2.652,7.441h6.607l.3-20.975H103.3L92.82,186.595h6.607l1.346-2.965h4.876l-.18,2.965Z" transform="translate(-47.563 -81.671)" fill="#006072"/>
        <path id="Path_173" data-name="Path 173" d="M247.23,166.684a3.17,3.17,0,0,0-2.76-1.014H235.9c-2.682,0-4.335,1.353-5.051,4.141l-.926,3.594c-.8,3.1.512,3.66,3.106,4.461l5.753,1.612a.363.363,0,0,1,.222.174.388.388,0,0,1,.037.287l-.429,1.663a.374.374,0,0,1-.351.284h-4.422a.361.361,0,0,1-.288-.149.392.392,0,0,1-.063-.327l.414-1.521-5.31-1.445-1.053,4a3.747,3.747,0,0,0,.224,3.2,3.156,3.156,0,0,0,2.76,1.014h8.971c2.682,0,4.335-1.353,5.051-4.136l.975-3.807a3.745,3.745,0,0,0-.039-2.793c-.488-.892-1.633-1.267-3.067-1.663-1.048-.289-3.9-1.039-5.749-1.521a.362.362,0,0,1-.227-.175.388.388,0,0,1-.036-.291c.112-.436.3-1.151.4-1.521a.363.363,0,0,1,.351-.279h4a.361.361,0,0,1,.288.149.392.392,0,0,1,.063.327l-.376,1.46,5.31,1.49,1-3.969a3.713,3.713,0,0,0-.224-3.2" transform="translate(-116.475 -81.695)" fill="#006072"/>
        <path id="Path_174" data-name="Path 174" d="M69.4,138.138l.848-3.274h2.326c.58,0,.765.319.609.917l-.322,1.262c-.215.836-.556,1.115-1.624,1.115Zm6.685,8.358-1.546-5.175a4.892,4.892,0,0,0,2.677-3.117l1.126-4.359a2.148,2.148,0,0,0-2.063-2.925h-9.82L62.45,146.5h4.876l1.243-4.82h.868L70.9,146.5Z" transform="translate(-32 -64.56)"/>
        <path id="Path_175" data-name="Path 175" d="M69.918,134.859h2.043a1.049,1.049,0,0,1-.034.213l-.322,1.242c-.137.507-.219.7-1.107.7H69.357l.561-2.169Zm5.622-5.069H65.3l-.107.416L61.18,145.777l-.18.715h6l.107-.411,1.136-4.4h.068l1.365,4.43.117.385h6.27l-.215-.72-1.409-4.724a5.4,5.4,0,0,0,2.55-3.264l1.126-4.359a3.073,3.073,0,0,0-.41-2.585,2.618,2.618,0,0,0-2.17-1.039Zm-6.875,7.776H70.5c1.068,0,1.409-.279,1.624-1.11l.322-1.247c.156-.6-.029-.917-.609-.917H69.508Zm6.875-7.218a2.155,2.155,0,0,1,2.063,2.925l-1.126,4.359a4.892,4.892,0,0,1-2.677,3.117l1.546,5.175H70.176l-1.463-4.82h-.887l-1.238,4.82H61.712l4.013-15.576Z" transform="translate(-31.257 -64.002)" fill="#006072"/>
        <path id="Path_176" data-name="Path 176" d="M46.478,122.57H37.3l-1.034,3.989H40.6l-2.8,10.878a1.355,1.355,0,0,1-1.57,1.212H33.045a1.114,1.114,0,0,1-.975-.335A1.249,1.249,0,0,1,32,137.255l.541-1.987-4.325-1.181-1.141,4.43c-.4,1.521-.395,2.5,0,3.041s1.326.8,2.984.8h7.314c3.179,0,4.213-.831,5.037-4.055l4.062-15.764Z" transform="translate(-13.722 -60.427)"/>
        <path id="Path_177" data-name="Path 177" d="M46.635,121.5H36.342l-.1.411L35.206,125.9l-.18.7h4.339l-2.618,10.173c-.171.664-.361.806-1.058.806H32.5c-.107,0-.444,0-.531-.122s0-.461.024-.573l.541-1.957.146-.547-.527-.142-4.325-1.181-.512-.157-.141.507-1.141,4.425c-.449,1.744-.419,2.834.1,3.548s1.546,1.014,3.413,1.014h7.314c3.413,0,4.666-1.014,5.554-4.435l4.062-15.769.18-.7Zm-.7.558-4.062,15.764c-.824,3.2-1.858,4.055-5.037,4.055H29.525c-1.658,0-2.579-.248-2.984-.8s-.4-1.521,0-3.041l1.141-4.43,4.325,1.181-.541,1.987a1.249,1.249,0,0,0,.068,1.059,1.11,1.11,0,0,0,.975.335h3.184a1.355,1.355,0,0,0,1.57-1.212l2.8-10.878h-4.34l1.034-3.989Z" transform="translate(-13.182 -59.909)" fill="#006072"/>
        <path id="Path_178" data-name="Path 178" d="M91.95,158.967h2.784l.712-2.757H92.662l-.712,2.757Z" transform="translate(-47.117 -77.031)"/>
        <path id="Path_179" data-name="Path 179" d="M95.405,155.11H91.5l-.1.411-.712,2.757-.18.7h3.9l.107-.411.707-2.757.185-.7Zm-.7.558L94,158.425h-2.76l.707-2.757Z" transform="translate(-46.379 -76.488)" fill="#006072"/>
      </g>
    </g>
  </g>
</svg>
