<svg xmlns="http://www.w3.org/2000/svg" width="200" height="166.667" viewBox="0 0 200 166.667">
  <g id="Group_460" data-name="Group 460" transform="translate(-87.8 -218)">
    <g id="Rectangle_84" data-name="Rectangle 84" transform="translate(87.8 218)" fill="#fff" stroke="#707070" stroke-width="1">
      <rect width="200" height="166.667" rx="10" stroke="none"/>
      <rect x="0.5" y="0.5" width="199" height="165.667" rx="9.5" fill="none"/>
    </g>
    <g id="Jr_Sharks_Logo" data-name="Jr Sharks Logo" transform="translate(93.379 226)">
      <g id="Layer_1" data-name="Layer 1">
        <path id="Path_138" data-name="Path 138" d="M20.367,63.812c8.6-1.863,19.719-3.913,29.906-5.521a39.227,39.227,0,0,1,1.668-4.32c1.9-4.085,6.484-8.971,11.168-11.966a39.554,39.554,0,0,1,6.9-3.706C70.659,26.161,68.042,12.077,52.9,0c26.451,3.223,44.659,23.083,52.438,33.214A103.46,103.46,0,0,1,143.8,43.4c.229.11.739.317,1.387.58a71.192,71.192,0,0,1,8.6,4.023c9.362,5.521,22.945,16.914,28.853,23.422,2.2,2.291,5.888,6.438,5.777,8.564-.085,1.96-2.421,3.126-8.329,4.141-4.089.69-9.094,1.194-13.451,1.58h-.4a4.6,4.6,0,0,1-1.367-.138,24.215,24.215,0,0,1-9.67,2.07,23.625,23.625,0,0,1-9.081-1.9l.851-.421a20.676,20.676,0,0,1-5.79-2.388l3.225-.959a40.136,40.136,0,0,1-4.246-1.284,13.216,13.216,0,0,0-4.776,3.954A13.657,13.657,0,0,0,138.4,84.2a10.725,10.725,0,0,1-1.165,3.085c1.4-.1,3.559-.483,3.559-.483a12.991,12.991,0,0,1-1.125,3.14h.039l2-.545a15.012,15.012,0,0,1-.9,3.271l1.721-.131a10.459,10.459,0,0,1-4.331,5.693,4.247,4.247,0,0,1,.144.918c6.641,4.907,9.565,7.025,11.22,11.379a94.832,94.832,0,0,1-17.272-7.315H131.9a5.97,5.97,0,0,1-.792.048c-3.683,0-7.851-2.981-13.674-7.108-2.826-2.015-6.032-4.3-9.755-6.652-5.129-3.25-12.745-5.969-21.538-7.722-.4,3.45,1.2,8.764,4.449,14.547,2.238.587,8.407,2.167,10.848,5.466a8.331,8.331,0,0,1-4.809,2.07l-.981.152a110.8,110.8,0,0,0,16.9,17.639l.268.228c3.723.69,15.048,2.947,24.7,7.177,8.132,3.547,18.417,8.612,23.762,13.622a8.043,8.043,0,0,1,2.493,4.886c-1.668-.407-6.543-2.836-9.912-3.2a15.879,15.879,0,0,0-1.668-.055,9.328,9.328,0,0,0-1.263.048h-.471a1.9,1.9,0,0,1-1.308-.462,7.777,7.777,0,0,1-1.426-2.291,18.022,18.022,0,0,0-1.1-1.953c-3.271-2.712-14.812-4.4-21.008-5.051a2,2,0,0,1-.236,1.118c-.654,1.1-3.271.538-3.337.538-1.59,2.595-2.892,7.28-2.82,14.4-8.584-5.976-10.429-20.261-10.756-24.3-4.41-3.25-14.786-11.041-25.784-20.434-14.2-12.159-24.286-22.5-29.932-30.716C33.485,72.639,20.871,71.583,9.31,71.583c-1.734,0-6.13-.048-9.31,0,2.7-3.851,7.727-4.962,20.367-7.708" transform="translate(0)" fill="#fff"/>
        <path id="Path_139" data-name="Path 139" d="M183.314,73.107c-6.1-6.728-19.628-17.942-28.571-23.194a90.509,90.509,0,0,0-9.892-4.548c-12.666-5.955-25.529-9.475-38.568-10.1C98.942,25.609,82.35,7.473,58.11,2.47,71.561,13.649,73.6,29.749,72.758,39.99a38.649,38.649,0,0,0-7.439,3.9c-4.724,2.988-9.009,7.777-10.7,11.435a38.288,38.288,0,0,0-1.845,4.913C32.921,63.336,7.117,68.518,4.5,71.113c14.341-.5,28.735.69,50.508,3.616,13,19.391,48.415,45.918,56.266,51.694h0s.765,15.113,8.505,22.469c0-9.082,2.951-12.718,3.095-13.015s1.963-.131,2.833-.048c.2,0,.334-.138.262-.3l-.772-1.656s19.026,1.546,23.815,5.521c.654.538,2.009,3.816,2.5,4.223s.6,0,4,.173,6.5,1.981,7.851,2.45c-1.014-2.988-11.09-9.282-24.757-15.251-9.905-4.32-21.59-6.583-24.75-7.149l-.523-.442a107.461,107.461,0,0,1-19.3-20.93c.491.345,1.145.773,1.8,1.208,2.46-.552,3.854-.393,5.476-1.339-1.642-1.718-6.791-3.347-9.951-4.141-4.246-7.4-5.672-13.539-4.58-17.211,9.127,1.7,17.462,4.527,23.141,8.115,11.7,7.4,18.411,14.154,23.435,13.533l.765-.09a103.145,103.145,0,0,0,14.917,6.963c-.451-1.38-4.652-4.831-10.4-9.04a2.38,2.38,0,0,0-.1-1.435c-.065-.2-.151-.435-.242-.69a10.112,10.112,0,0,0,3.834-3.651c-.726.055-1.407.076-2.041.083a8.418,8.418,0,0,0,1.524-2.878,30.354,30.354,0,0,1-3.926.752,9.45,9.45,0,0,0,2.964-3.575,29.46,29.46,0,0,1-4.658.324,8.722,8.722,0,0,0,2.172-2.905c-.994.152-1.91.235-2.728.283a4.5,4.5,0,0,1,1.485-3.492,20.151,20.151,0,0,1,6.961-4.223,24.02,24.02,0,0,0,4.364-.1,38.95,38.95,0,0,1-3.638,2.008,27.413,27.413,0,0,0,6.713,1.125,23.748,23.748,0,0,1-5.129,1.822,20.678,20.678,0,0,0,6.7,1.38l-1.747.863c6.359,2.07,12.9-.1,15.224-1.29a3.655,3.655,0,0,0,1.721.29c8.191-.69,20.537-1.974,20.642-4.486.046-1.008-1.825-3.851-5.424-7.591" transform="translate(-1.556 -0.765)"/>
        <path id="Path_140" data-name="Path 140" d="M211,77.341a29.479,29.479,0,0,1,4.011,3.209c1.577,1.622,4.253,4.624,4.253,4.624s-3.036-.828-3.886-1.132a13.209,13.209,0,0,1-1.6-.69,20.849,20.849,0,0,1-1.721-3.147c-.471-1.235-1.067-2.885-1.067-2.885" transform="translate(-72.949 -23.962)" fill="#e87200"/>
        <path id="Path_141" data-name="Path 141" d="M133,36.12h2.447c-6.739-8.661-21.2-24.374-41.552-30.55,17.148,6.376,32.34,20.937,39.1,30.55" transform="translate(-32.466 -1.726)" fill="#006072"/>
        <path id="Path_142" data-name="Path 142" d="M156.062,71.736A25.111,25.111,0,0,0,142.82,87.774c.137-7.115,3.827-13.5,7.91-16.424a37.664,37.664,0,0,1,5.332.386" transform="translate(-49.379 -22.112)" fill="#006072"/>
        <path id="Path_143" data-name="Path 143" d="M145.277,71.168c-3.814,2.415-7.714,7.287-8.845,14.644-.536-5.907,1.309-11.683,4.4-14.492a31.545,31.545,0,0,1,4.442-.159" transform="translate(-47.139 -22.048)" fill="#006072"/>
        <path id="Path_144" data-name="Path 144" d="M135.259,71.6c-3.2,2.574-5.626,6.031-5.888,12.808-1.086-5.293-.131-9.558,1.9-12.215a28.642,28.642,0,0,1,4-.593" transform="translate(-44.573 -22.19)" fill="#006072"/>
        <path id="Path_145" data-name="Path 145" d="M92.2,98.091a124.275,124.275,0,0,1-24.319,1.987c-12.5-.414-25.516-3.989-50-3.5,31.332-7.453,56.809-2.339,44.489-7.591,16.854-.2,24.4,8.681,29.86,9.089" transform="translate(-6.182 -27.578)" fill="#006072"/>
        <path id="Path_146" data-name="Path 146" d="M175.2,184.36s-9.716-6.653-15.048-13.07c0,0,9.042,7.819,15.048,13.07" transform="translate(-55.371 -53.085)" fill="#006072"/>
        <path id="Path_147" data-name="Path 147" d="M123,115.25a17.309,17.309,0,0,1,3.029.3s-2.964,10.689,14.165,31.054c-7.982-8.64-16.147-17.556-17.194-31.344" transform="translate(-42.527 -35.717)" fill="#006072"/>
        <path id="Path_148" data-name="Path 148" d="M108.016,54.432c19.157-4.679,40.564-3.188,63.358,7.591,3.029,1.435,8.466,3.6,11.122,5.334,14.551,9.523,26.3,20.992,31.941,27.755-3.1-.055-7.465-3.623-10.612-5.424-3.926-2.229-17.312-10.351-23.069-12.78a3.826,3.826,0,0,0,.366-2.76,10,10,0,0,1-2.408,1.29,1.464,1.464,0,0,1-1.577-.5,40.687,40.687,0,0,0-8.414-8.35c-.9-.607-2.911-1.249-6.726-1.284a11.561,11.561,0,0,1,4.1-1.3c-5.4-2.3-23.455-11.041-45.8-8.012a25.646,25.646,0,0,1,9.748-1.946c-6.543-2.07-23.409-.69-32.5,5.065C87.74,65.322,85.123,68.7,82.84,71.318c4.7-8.9,13.085-13.933,25.182-16.88" transform="translate(-28.642 -16.091)" fill="#006072"/>
        <path id="Path_149" data-name="Path 149" d="M150.92,91.872c6.791-4.292,16.7-8.819,23.553-6.694A76.231,76.231,0,0,0,151.13,78.87c13.157-.421,31.45,5.41,41.048,10.144,23,11.345,32.268,16.058,37.718,16.086-1.583.29-4.743-.145-7.033.117-3.114.352-4.541.207-7.93.766-1.381.228-4.639-1.808-5.568-2.912a33.693,33.693,0,0,0-3.441-2.76c-2.551-1.987-16.958-9.413-22.009-10.02s-10.468.235-17.011,5.155a18.693,18.693,0,0,1,6.4-2.3c-1.309.959-5.136,2.995-6.451,6.418a13.6,13.6,0,0,0,.249,5.044c.34,1.912,1,7.591,5.175,12.3s8.754,6.494,10.134,5.59h0a2.169,2.169,0,0,1-.209,1.442c-.366.8-1.708.793-2.983.938-10.717-.842-16.232-22.6-29.919-26.817-1.5-.076-8.976-.835-14.708-1.194,10.16-.932,15.048-4.14,16.356-4.982" transform="translate(-46.534 -24.436)" fill="#fff"/>
        <path id="Path_150" data-name="Path 150" d="M196.33,132.032a1.247,1.247,0,0,0-.491,0,7.008,7.008,0,0,0,3.317-3.071,15.442,15.442,0,0,1-6.124.138,5.325,5.325,0,0,0,3.271-2.96,16.041,16.041,0,0,1-6.51-.594,9.008,9.008,0,0,0,4.782-3.354,17.019,17.019,0,0,1-7.2-.932,18.345,18.345,0,0,0,3.925,7.929c3.971,4.5,7.851,5.907,8.793,5.824a9.077,9.077,0,0,0,2.552-2.816,27.582,27.582,0,0,1-6.307-.193" transform="translate(-64.786 -37.58)" fill="#fff"/>
        <path id="Path_151" data-name="Path 151" d="M231.4,110.576a13.839,13.839,0,0,0-2.617-2.029,4.741,4.741,0,0,0-2.211-1.946c-1.577-.69-3.271-1.325-3.271-1.325a6.863,6.863,0,0,0-2.467-1.849,19.113,19.113,0,0,0-2.807-1.139,22.994,22.994,0,0,0-3-1.47,14.925,14.925,0,0,1-2.054-.9s-.9-.373-2.146-.794l-2.578-.856A6.652,6.652,0,0,1,206.5,98a4.408,4.408,0,0,0-2.617-.166c-.418.69.163-.262-1.557,1.67a20.347,20.347,0,0,0,4.966-.476,6.353,6.353,0,0,1-2.434,2.76,18.132,18.132,0,0,0,5.725-.193,8.35,8.35,0,0,1-2.964,3.057,17.266,17.266,0,0,0,6.706-.435,10.521,10.521,0,0,1-3.422,3.292,21.944,21.944,0,0,0,8.623-.531,10.412,10.412,0,0,1-3.8,3.188,22.05,22.05,0,0,0,8.46.214,32.51,32.51,0,0,1-6.281,2.988,18.949,18.949,0,0,0,6.8.428,10.937,10.937,0,0,1-2.139,1.5c6.464.759,10.2-2.395,10.2-2.395s.654-.552-1.348-2.319" transform="translate(-69.955 -30.285)" fill="#fff"/>
        <path id="Path_152" data-name="Path 152" d="M187.33,121.3a22.058,22.058,0,0,0,3.618.87c-1.629,1.09-2.381,3.844-1.178,3.45h0c.314.048,1.132.317,2.27.518-.89,1.035-.5,3.513.968,3.036h0c.654.083,1.479.193,2.421.228-.837,1.014-1.21,3.285.386,2.705a1.243,1.243,0,0,1,.491,0,21.753,21.753,0,0,0,2.44.242c-.844.794-1.256,1.932.163,2.54a19.151,19.151,0,0,1-7.642-5.6,18.416,18.416,0,0,1-3.926-7.929" transform="translate(-64.769 -37.592)" fill="#a7b1b7"/>
        <path id="Path_153" data-name="Path 153" d="M237.955,107.316c-3.422.442-7.746,1.518-9.964.11-5.2-3.312-20.7-13.981-30.292-13.65a19.078,19.078,0,0,0-13.739,6.287h0c6.346-4.624,11.947-5.217,16.86-4.417,10.036,1.622,23.134,9.6,27.354,14.664.922,1.111,1.479,1.546,3.729,1.38a143.67,143.67,0,0,0,15.048-1.967,52.52,52.52,0,0,1-9.016-2.408" transform="translate(-63.604 -29.06)" fill="#a7b1b7"/>
        <path id="Path_154" data-name="Path 154" d="M164.838,130.16c-.5,1.546-3.232,1.981-5.2,1.028s-4.7-2.857-7.851-7.336c-2.65-3.775-9.238-16.9-21.041-19.826-7.792-1.932-22.447,3.74-47,1.642,0,0,10.278,14.216,22.683,23.96-4.024-4.541-8.25-11.794-6.588-17a7.492,7.492,0,0,0-3.108,3.23c.765-6.356,8.446-6.487,15.584-5.438,3.4.552,6.366,1.083,8.361,1.56A60.119,60.119,0,0,1,144.288,123.2c-1.446-3.243-5.358-10.434-9.624-13.96,9.676,4.4,15.931,23.684,26.962,23.684,1.145-.138,4.475-.214,3.212-2.76" transform="translate(-28.956 -32.113)" fill="#a7b1b7"/>
        <path id="Path_155" data-name="Path 155" d="M232.191,110.156c-3.683-3.451-9.271-6.742-16.356-9.806-7.563-3.271-11.423-2.857-11.423-2.857l-.072.11-.039.069h0c-.072.076-.17.159-.419.414h0l-.118.117h0a1.381,1.381,0,0,1-.137.145h-.033l-.164.179c1.014-.607,3.3-.552,2.107.476h0c.719-.076,1.308-.173,1.838-.269h.039l.458-.1-.262.469-.065.11q-.144.248-.314.5c2.512-.69,5.012-.255,4.855.531a3.886,3.886,0,0,1-1.021.966h.1c-.177.29-.379.6-.615.918a17.4,17.4,0,0,1,3.023-1.277,4.31,4.31,0,0,1,3.075.49c.694.373-.393,1.649-.393,1.649a5.807,5.807,0,0,1,2.709-.559,5.142,5.142,0,0,1,3.271,2.229c.17.621-1.086,1.38-1.086,1.38a13.7,13.7,0,0,1,2.728-.276c2.506.235,4.364,1.546,4.351,2.346,0,.428-1.119.842-1.309,1.014a3.8,3.8,0,0,1,3.317.269c.818.69.255,1.691-.373,2.153a17.152,17.152,0,0,1-2.957,1.539c2.329-.421,5.476-.8,4.848.055-.445.559-1.151.69-1.662,1.077,2.244-.566,3.775-1.063,3.775-1.063s.451-1.449-1.5-3.285" transform="translate(-70.335 -30.209)" fill="#a7b1b7"/>
        <path id="Path_156" data-name="Path 156" d="M57.9,165.65H66.6l-2.879,11.331h5.849l2.879-11.331h8.708l-7.249,28.556H65.2l2.532-9.958H61.88l-2.525,9.958H50.64L57.9,165.65Z" transform="translate(-17.509 -51.337)"/>
        <path id="Path_157" data-name="Path 157" d="M65.759,192.809h6.817l6.765-26.624H72.524l-2.879,11.331h-7.74l2.879-11.331H57.966L51.2,192.809h6.817l2.532-9.958h7.74Zm8.224,1.932H63.377l2.525-9.958H61.977l-2.571,9.958H48.82l7.74-30.481H67.165l-2.879,11.324h3.925l2.879-11.324H81.722Z" transform="translate(-16.879 -50.906)"/>
        <path id="Path_158" data-name="Path 158" d="M36.232,167.05c-.654-.938-1.9-1.38-3.7-1.38H21.021c-3.6,0-5.816,1.842-6.778,5.638L13,176.2c-1.073,4.216.694,4.982,4.168,6.073l7.714,2.181a.488.488,0,0,1,.3.238.535.535,0,0,1,.049.39l-.576,2.264a.5.5,0,0,1-.471.386H18.26a.489.489,0,0,1-.387-.2.547.547,0,0,1-.09-.446l.563-2.07-7.131-1.967-1.38,5.424c-.5,1.967-.406,3.4.294,4.361s1.9,1.38,3.71,1.38H25.875c3.6,0,5.81-1.843,6.778-5.631l1.308-5.183c.445-1.746.425-2.919-.059-3.8-.654-1.214-2.192-1.725-4.115-2.263-1.4-.393-5.234-1.415-7.714-2.07a.5.5,0,0,1-.3-.242.543.543,0,0,1-.049-.393l.536-2.07a.5.5,0,0,1,.471-.38h5.352a.482.482,0,0,1,.386.2.54.54,0,0,1,.085.446l-.5,1.988,7.125,2.029,1.354-5.424c.5-1.967.4-3.4-.3-4.361" transform="translate(-3.29 -51.343)"/>
        <path id="Path_159" data-name="Path 159" d="M11.368,183.758l-1.178,4.527c-.419,1.663-.373,2.816.144,3.526s1.472,1.014,2.983,1.014H25.356c3.167,0,5.038-1.559,5.888-4.92l1.309-5.176c.484-1.918.249-2.671,0-3.071-.491-.9-1.845-1.332-3.559-1.815-1.256-.352-4.534-1.228-6.922-1.87l-.779-.207a1.4,1.4,0,0,1-.869-.686,1.54,1.54,0,0,1-.139-1.135l.536-2.07a1.414,1.414,0,0,1,1.354-1.09h5.417a1.369,1.369,0,0,1,1.112.573,1.519,1.519,0,0,1,.242,1.284L28.68,173.7l5.358,1.525,1.119-4.465c.419-1.663.373-2.823-.144-3.533h0c-.5-.69-1.472-1.014-2.977-1.014H20.528c-3.167,0-5.044,1.567-5.888,4.92L13.4,176.029c-.851,3.354.1,3.816,3.546,4.9l7.7,2.188a1.494,1.494,0,0,1,.988,1.808l-.589,2.243a1.419,1.419,0,0,1-1.348,1.07H17.767a1.382,1.382,0,0,1-1.112-.576,1.548,1.548,0,0,1-.249-1.28l.314-1.173-5.352-1.477Zm13.988,11H13.318c-2.12,0-3.566-.58-4.429-1.774s-1.04-2.919-.458-5.2l1.649-6.383,8.9,2.464-.654,2.464h5.044l.379-1.5-7.308-2.07c-3.18-1-6.17-1.939-4.815-7.253l1.243-4.893c1.073-4.216,3.651-6.349,7.661-6.349h11.5c2.113,0,3.559.58,4.429,1.767s1.034,2.919.458,5.2l-1.59,6.335-8.891-2.533.6-2.353H22.55l-.34,1.332.353.09c2.4.642,5.679,1.518,6.948,1.877,2.133.593,3.827,1.18,4.671,2.712.615,1.125.654,2.519.15,4.534l-1.309,5.182c-1.073,4.21-3.651,6.349-7.661,6.349" transform="translate(-2.798 -50.91)"/>
        <path id="Path_160" data-name="Path 160" d="M212.957,165.65h-9.945l-7.57,10.345,2.624-10.345h-9.31L181.5,194.206h9.31l2.925-11.51,2.028,11.51h9.945l-2.65-15.044,9.9-13.512Z" transform="translate(-62.753 -51.337)"/>
        <path id="Path_161" data-name="Path 161" d="M195.892,192.809h8.087l-2.5-14.326,9.016-12.3h-7.661l-7.3,9.965-1.61-.835,2.323-9.13h-7.419l-6.758,26.624h7.413l2.741-10.786,1.786.069,1.884,10.724Zm10.285,1.932H194.4l-1.426-8.115-2.054,8.115H179.68l7.746-30.481h11.2l-1.753,6.9,5.064-6.9h12.254L203.4,178.979l2.774,15.762Z" transform="translate(-62.124 -50.906)"/>
        <path id="Path_162" data-name="Path 162" d="M151.248,178.877l1.524-6h4.207c1.047,0,1.38.586,1.1,1.684l-.576,2.277c-.393,1.532-1.008,2.07-2.944,2.07Zm10.946,15.3-1.668-9.489a8.92,8.92,0,0,0,4.842-5.714l2.028-7.991c.752-2.961-.909-5.362-3.716-5.362H145.936l-7.256,28.556h8.826l2.244-8.833h1.57l1.557,8.833Z" transform="translate(-47.948 -51.328)"/>
        <path id="Path_163" data-name="Path 163" d="M151.81,177.487h2.152c1.642,0,1.8-.317,2.061-1.325l.576-2.277a1.459,1.459,0,0,0,.059-.442.918.918,0,0,0-.275,0H152.85l-1.04,4.078Zm2.12,1.932h-4.5l2.015-7.936h4.907a2,2,0,0,1,1.74.766,2.485,2.485,0,0,1,.242,2.132l-.576,2.277c-.51,2.015-1.55,2.76-3.827,2.76Zm-.935,13.388h7.472l-1.6-9.1.654-.3a8,8,0,0,0,4.325-5.079l2.028-7.991a3.61,3.61,0,0,0-.412-3.022,2.885,2.885,0,0,0-2.421-1.125H146.026l-6.785,26.624h6.935l2.244-8.833h3.023Zm9.67,1.932H151.476l-1.557-8.833h-.1l-2.244,8.833H136.86l7.74-30.481h18.45a4.634,4.634,0,0,1,3.873,1.877,5.6,5.6,0,0,1,.726,4.693l-2.028,7.991a9.821,9.821,0,0,1-4.7,6.017Z" transform="translate(-47.319 -50.905)"/>
        <path id="Path_164" data-name="Path 164" d="M106.239,184.045l4.8-10.7-.654,10.7Zm3.559,10.13h8.865l.4-28.556H106.886L92.82,194.176h8.865l1.806-4.037h6.543l-.242,4.037Z" transform="translate(-32.092 -51.328)"/>
        <path id="Path_165" data-name="Path 165" d="M106.889,182.658h1.858l.288-4.782Zm3.579,1.925H104l5.417-12.076,1.74.476-.654,11.6Zm-.491,8.226h6.987l.379-26.624h-10.7L93.562,192.809h6.778l1.812-4.03h8.1l-.242,4.03Zm8.793,1.925H108.034l.236-4.03h-5.005l-1.812,4.03H90.52l15.048-30.474h13.654l-.425,30.474Z" transform="translate(-31.297 -50.906)"/>
        <path id="Path_166" data-name="Path 166" d="M254.041,167.05c-.654-.938-1.891-1.38-3.7-1.38h-11.5c-3.6,0-5.816,1.842-6.778,5.638l-1.243,4.893c-1.073,4.216.687,4.982,4.168,6.073l7.72,2.194a.488.488,0,0,1,.3.238.535.535,0,0,1,.049.39l-.576,2.264a.5.5,0,0,1-.471.386h-5.934a.482.482,0,0,1-.386-.2.54.54,0,0,1-.085-.446l.556-2.07-7.125-1.967-1.413,5.452c-.5,1.967-.4,3.4.3,4.361s1.891,1.38,3.7,1.38h12.038c3.6,0,5.816-1.843,6.778-5.631l1.309-5.183c.445-1.746.432-2.919-.052-3.8-.654-1.214-2.192-1.725-4.115-2.263-1.407-.393-5.234-1.415-7.714-2.07a.487.487,0,0,1-.3-.238.535.535,0,0,1-.049-.4c.15-.593.406-1.567.543-2.07a.489.489,0,0,1,.471-.38H245.9a.482.482,0,0,1,.386.2.54.54,0,0,1,.085.446l-.5,1.988,7.125,2.029,1.348-5.4c.5-1.967.406-3.4-.3-4.361" transform="translate(-78.59 -51.343)"/>
        <path id="Path_167" data-name="Path 167" d="M240.462,172.365ZM239.919,174.435Zm-10.73,9.309-1.171,4.527c-.419,1.663-.373,2.816.144,3.526s1.472,1.014,2.977,1.014h12.038c3.173,0,5.044-1.56,5.888-4.92l1.309-5.176c.491-1.918.255-2.671.039-3.071-.491-.9-1.845-1.332-3.559-1.815-1.269-.359-4.58-1.235-6.968-1.877l-.733-.2a1.391,1.391,0,0,1-.87-.69,1.547,1.547,0,0,1-.144-1.132l.543-2.07a1.414,1.414,0,0,1,1.354-1.09h5.371a1.369,1.369,0,0,1,1.114.573,1.534,1.534,0,0,1,.24,1.283l-.268,1.063,5.352,1.525,1.119-4.465c.425-1.663.379-2.823-.137-3.533s-1.472-1.015-2.983-1.015H238.355c-3.173,0-5.044,1.567-5.888,4.92l-1.243,4.893c-.857,3.354.1,3.816,3.546,4.9l7.694,2.188a1.493,1.493,0,0,1,.994,1.808l-.576,2.27a1.428,1.428,0,0,1-1.354,1.1h-5.941a1.376,1.376,0,0,1-1.111-.576,1.541,1.541,0,0,1-.243-1.28l.307-1.173-5.352-1.477Zm13.988,11H231.139c-2.113,0-3.559-.58-4.429-1.774s-1.034-2.919-.458-5.2l1.681-6.369,8.9,2.464-.654,2.464h5.044l.379-1.5-7.308-2.07c-3.186-1-6.17-1.939-4.815-7.253l1.243-4.893c1.066-4.216,3.644-6.349,7.661-6.349h11.5c2.12,0,3.566.573,4.429,1.767h0c.89,1.222,1.04,2.919.458,5.2l-1.583,6.335-8.9-2.54.6-2.353h-4.521l-.347,1.332.321.083c2.408.642,5.712,1.525,6.987,1.884,2.133.593,3.827,1.173,4.671,2.712.615,1.125.654,2.519.144,4.534l-1.308,5.183c-1.066,4.209-3.644,6.349-7.661,6.349" transform="translate(-78.109 -50.91)"/>
        <path id="Path_168" data-name="Path 168" d="M57.9,165.65H66.6l-2.879,11.331h5.849l2.879-11.331h8.708l-7.249,28.556H65.2l2.532-9.958H61.88l-2.525,9.958H50.64L57.9,165.65Z" transform="translate(-17.509 -51.337)" fill="#006072"/>
        <path id="Path_169" data-name="Path 169" d="M36.232,167.05c-.654-.938-1.9-1.38-3.7-1.38H21.021c-3.6,0-5.816,1.842-6.778,5.638L13,176.2c-1.073,4.216.694,4.982,4.168,6.073l7.714,2.181a.488.488,0,0,1,.3.238.535.535,0,0,1,.049.39l-.576,2.264a.5.5,0,0,1-.471.386H18.26a.489.489,0,0,1-.387-.2.547.547,0,0,1-.09-.446l.563-2.07-7.131-1.967-1.38,5.424c-.5,1.967-.406,3.4.294,4.361s1.9,1.38,3.71,1.38H25.875c3.6,0,5.81-1.843,6.778-5.631l1.308-5.183c.445-1.746.425-2.919-.059-3.8-.654-1.214-2.192-1.725-4.115-2.263-1.4-.393-5.234-1.415-7.714-2.07a.5.5,0,0,1-.3-.242.543.543,0,0,1-.049-.393l.536-2.07a.5.5,0,0,1,.471-.38h5.352a.482.482,0,0,1,.386.2.54.54,0,0,1,.085.446l-.5,1.988,7.125,2.029,1.354-5.424c.5-1.967.4-3.4-.3-4.361" transform="translate(-3.29 -51.343)" fill="#006072"/>
        <path id="Path_170" data-name="Path 170" d="M212.957,165.65h-9.945l-7.57,10.345,2.624-10.345h-9.31L181.5,194.206h9.31l2.925-11.51,2.028,11.51h9.945l-2.65-15.044,9.9-13.512Z" transform="translate(-62.753 -51.337)" fill="#006072"/>
        <path id="Path_171" data-name="Path 171" d="M151.248,178.877l1.524-6h4.207c1.047,0,1.38.586,1.1,1.684l-.576,2.277c-.393,1.532-1.008,2.07-2.944,2.07Zm10.946,15.3-1.668-9.489a8.92,8.92,0,0,0,4.842-5.714l2.028-7.991c.752-2.961-.909-5.362-3.716-5.362H145.936l-7.256,28.556h8.826l2.244-8.833h1.57l1.557,8.833Z" transform="translate(-47.948 -51.328)" fill="#006072"/>
        <path id="Path_172" data-name="Path 172" d="M106.239,184.045l4.8-10.7-.654,10.7Zm3.559,10.13h8.865l.4-28.556H106.886L92.82,194.176h8.865l1.806-4.037h6.543l-.242,4.037Z" transform="translate(-32.092 -51.328)" fill="#006072"/>
        <path id="Path_173" data-name="Path 173" d="M254.041,167.05c-.654-.938-1.891-1.38-3.7-1.38h-11.5c-3.6,0-5.816,1.842-6.778,5.638l-1.243,4.893c-1.073,4.216.687,4.982,4.168,6.073l7.72,2.194a.488.488,0,0,1,.3.238.535.535,0,0,1,.049.39l-.576,2.264a.5.5,0,0,1-.471.386h-5.934a.482.482,0,0,1-.386-.2.54.54,0,0,1-.085-.446l.556-2.07-7.125-1.967-1.413,5.452c-.5,1.967-.4,3.4.3,4.361s1.891,1.38,3.7,1.38h12.038c3.6,0,5.816-1.843,6.778-5.631l1.309-5.183c.445-1.746.432-2.919-.052-3.8-.654-1.214-2.192-1.725-4.115-2.263-1.407-.393-5.234-1.415-7.714-2.07a.487.487,0,0,1-.3-.238.535.535,0,0,1-.049-.4c.15-.593.406-1.567.543-2.07a.489.489,0,0,1,.471-.38H245.9a.482.482,0,0,1,.386.2.54.54,0,0,1,.085.446l-.5,1.988,7.125,2.029,1.348-5.4c.5-1.967.406-3.4-.3-4.361" transform="translate(-78.59 -51.343)" fill="#006072"/>
        <path id="Path_174" data-name="Path 174" d="M71.78,140.747l1.138-4.458h3.121c.779,0,1.027.435.818,1.249l-.432,1.718c-.288,1.139-.746,1.518-2.179,1.518Zm8.97,11.379-2.074-7.046a6.633,6.633,0,0,0,3.592-4.244l1.511-5.935c.556-2.2-.654-3.982-2.768-3.982H67.835L62.45,152.126h6.543l1.668-6.563h1.165l1.963,6.563Z" transform="translate(-21.592 -40.574)"/>
        <path id="Path_175" data-name="Path 175" d="M72.966,136.691h2.741a1.447,1.447,0,0,1-.046.29l-.432,1.691c-.183.69-.294.959-1.485.959H72.214l.752-2.954Zm7.544-6.9H66.77l-.144.566-5.384,21.2-.242.973h8.054l.144-.559,1.524-6h.092L72.646,152l.157.525h8.414l-.288-.98-1.891-6.432a7.337,7.337,0,0,0,3.422-4.444l1.511-5.935a4.235,4.235,0,0,0-.55-3.519A3.494,3.494,0,0,0,80.51,129.8Zm-9.225,10.586h2.46c1.433,0,1.891-.38,2.179-1.511l.432-1.7c.209-.814-.039-1.249-.818-1.249H72.417Zm9.225-9.827c2.087,0,3.324,1.78,2.768,3.982l-1.511,5.935a6.633,6.633,0,0,1-3.592,4.244l2.074,7.046H73.313l-1.963-6.563H70.16L68.5,151.756H61.955l5.385-21.206Z" transform="translate(-21.09 -40.224)" fill="#006072"/>
        <path id="Path_176" data-name="Path 176" d="M53.211,122.581H40.892L39.5,128.012h5.823l-3.762,14.809a1.824,1.824,0,0,1-2.107,1.649H35.187a1.482,1.482,0,0,1-1.308-.456,1.722,1.722,0,0,1-.092-1.442l.726-2.7-5.8-1.608-1.531,6.032c-.536,2.07-.53,3.409,0,4.14s1.78,1.09,4,1.09H41c4.266,0,5.653-1.132,6.758-5.521L53.2,122.54Z" transform="translate(-9.259 -37.977)"/>
        <path id="Path_177" data-name="Path 177" d="M53.782,121.5H39.971l-.137.559-1.387,5.438-.242.952h5.823L40.514,142.3c-.229.9-.484,1.1-1.42,1.1H34.822c-.144,0-.6,0-.713-.166s0-.628.033-.78l.726-2.664.2-.745-.707-.193-5.8-1.608-.687-.214-.19.69-1.531,6.025c-.6,2.374-.563,3.858.131,4.831s2.074,1.38,4.58,1.38h9.814c4.58,0,6.261-1.38,7.452-6.038l5.45-21.469.242-.952Zm-.936.759L47.4,143.718c-1.106,4.354-2.493,5.521-6.758,5.521H30.825c-2.224,0-3.461-.338-4-1.09s-.543-2.07,0-4.141l1.531-6.031,5.8,1.608-.726,2.705a1.722,1.722,0,0,0,.092,1.442,1.477,1.477,0,0,0,1.309.456H39.1a1.824,1.824,0,0,0,2.107-1.649l3.762-14.809H39.147l1.387-5.431Z" transform="translate(-8.894 -37.651)" fill="#006072"/>
        <path id="Path_178" data-name="Path 178" d="M91.95,159.964h3.736l.955-3.754H92.905l-.955,3.754Z" transform="translate(-31.791 -48.412)"/>
        <path id="Path_179" data-name="Path 179" d="M97.079,155.11H91.845l-.137.559-.955,3.754-.242.952h5.234l.144-.559.949-3.754.249-.952Zm-.936.759-.955,3.754h-3.7l.949-3.754Z" transform="translate(-31.294 -48.071)" fill="#006072"/>
      </g>
    </g>
  </g>
</svg>
