<svg id="Layer_1" data-name="Layer 1" xmlns="http://www.w3.org/2000/svg" width="84.421" height="64" viewBox="0 0 84.421 64">
  <path id="Path_138" data-name="Path 138" d="M9.125,27.106c3.852-.791,8.835-1.662,13.4-2.345a16.147,16.147,0,0,1,.747-1.835,14.143,14.143,0,0,1,5-5.083,18.058,18.058,0,0,1,3.09-1.574C31.659,11.113,30.486,5.13,23.7,0,35.551,1.369,43.709,9.805,47.195,14.109a48.374,48.374,0,0,1,17.233,4.327c.1.047.331.135.621.246A32.729,32.729,0,0,1,68.9,20.39a69.6,69.6,0,0,1,12.927,9.949c.985.973,2.638,2.735,2.588,3.638-.038.833-1.085,1.328-3.732,1.759-1.832.293-4.075.507-6.027.671h-.179a2.166,2.166,0,0,1-.613-.059,11.356,11.356,0,0,1-4.333.879,11.084,11.084,0,0,1-4.069-.806l.381-.179a9.538,9.538,0,0,1-2.594-1.014l1.445-.407a18.725,18.725,0,0,1-1.9-.545,5.863,5.863,0,0,0-2.14,1.68,6.432,6.432,0,0,0,1.351-.188,4.412,4.412,0,0,1-.522,1.31c.627-.041,1.595-.205,1.595-.205a5.334,5.334,0,0,1-.5,1.334H62.6l.9-.232a6.119,6.119,0,0,1-.4,1.389l.771-.056a4.479,4.479,0,0,1-1.941,2.418,1.718,1.718,0,0,1,.065.39c2.975,2.084,4.286,2.984,5.027,4.834a43.789,43.789,0,0,1-7.739-3.107H59.1a2.82,2.82,0,0,1-.355.021c-1.65,0-3.518-1.266-6.126-3.019-1.266-.856-2.7-1.826-4.371-2.826a30.542,30.542,0,0,0-9.65-3.28c-.179,1.466.539,3.723,1.993,6.179,1,.249,3.767.92,4.86,2.322a3.837,3.837,0,0,1-2.155.879l-.44.065a48.275,48.275,0,0,0,7.572,7.493l.12.1a56.943,56.943,0,0,1,11.066,3.049c3.644,1.507,8.252,3.658,10.647,5.786a3.359,3.359,0,0,1,1.117,2.075,29.3,29.3,0,0,0-4.441-1.357c-.273-.026-.525-.023-.747-.023a4.406,4.406,0,0,0-.566.021h-.211a.879.879,0,0,1-.586-.2,3.289,3.289,0,0,1-.639-.973,7.556,7.556,0,0,0-.492-.83c-1.466-1.152-6.637-1.87-9.413-2.146a.815.815,0,0,1-.106.475c-.293.469-1.466.229-1.495.229-.712,1.1-1.3,3.093-1.263,6.118-3.846-2.539-4.673-8.606-4.819-10.321C46.623,52.3,41.974,48.989,37.046,45c-6.364-5.165-10.881-9.559-13.411-13.047A152.347,152.347,0,0,0,4.171,30.407c-.777,0-2.747-.021-4.171,0,1.211-1.636,3.462-2.108,9.125-3.274" transform="translate(0)" fill="#fff"/>
  <path id="Path_139" data-name="Path 139" d="M84.617,32.475a68.5,68.5,0,0,0-12.8-9.852,41.665,41.665,0,0,0-4.432-1.932A47.591,47.591,0,0,0,50.1,16.4C46.814,12.3,39.38,4.6,28.519,2.47a18.017,18.017,0,0,1,6.563,15.938,17.668,17.668,0,0,0-3.333,1.656,13.455,13.455,0,0,0-4.8,4.857,15.744,15.744,0,0,0-.827,2.087C17.234,28.324,5.673,30.526,4.5,31.628c6.426-.211,12.874.293,22.63,1.536C32.955,41.4,48.822,52.669,52.34,55.123h0s.343,6.42,3.811,9.544c0-3.858,1.322-5.4,1.387-5.529s.879-.056,1.269-.021c.091,0,.15-.059.117-.129l-.346-.7s8.524.657,10.67,2.345c.293.229.9,1.621,1.12,1.794s.27,0,1.791.073a11.494,11.494,0,0,1,3.518,1.041c-.454-1.269-4.969-3.943-11.092-6.478a56.9,56.9,0,0,0-11.089-3.037l-.234-.188a46.649,46.649,0,0,1-8.647-8.891c.22.147.513.328.806.513a8.509,8.509,0,0,0,2.454-.569c-.736-.73-3.043-1.422-4.459-1.759-1.9-3.145-2.541-5.751-2.052-7.311A31.934,31.934,0,0,1,51.73,39.267c5.244,3.145,8.249,6.012,10.5,5.748l.343-.038a47.434,47.434,0,0,0,6.683,2.958c-.2-.586-2.084-2.052-4.661-3.84a.961.961,0,0,0-.047-.61c-.029-.085-.067-.185-.108-.293a4.438,4.438,0,0,0,1.718-1.551c-.325.023-.63.032-.915.035a3.518,3.518,0,0,0,.683-1.222,14.264,14.264,0,0,1-1.759.32A4.072,4.072,0,0,0,65.5,39.255a13.91,13.91,0,0,1-2.087.138,3.728,3.728,0,0,0,.973-1.234c-.446.065-.856.1-1.222.12a1.867,1.867,0,0,1,.665-1.483A9.119,9.119,0,0,1,66.943,35a11.347,11.347,0,0,0,1.955-.041,17.756,17.756,0,0,1-1.63.853,12.9,12.9,0,0,0,3.008.478,11.03,11.03,0,0,1-2.3.774,9.705,9.705,0,0,0,3,.586l-.783.366a10.178,10.178,0,0,0,6.821-.548,1.718,1.718,0,0,0,.771.123c3.67-.293,9.2-.838,9.248-1.905.021-.428-.818-1.636-2.43-3.224" transform="translate(-3.181 -1.746)"/>
  <path id="Path_140" data-name="Path 140" d="M210.993,77.329a13.111,13.111,0,0,1,1.8,1.363c.706.689,1.905,1.964,1.905,1.964s-1.36-.352-1.741-.481a6.1,6.1,0,0,1-.715-.293,8.73,8.73,0,0,1-.771-1.337c-.211-.525-.478-1.225-.478-1.225" transform="translate(-149.142 -54.655)" fill="#e87200"/>
  <path id="Path_141" data-name="Path 141" d="M111.421,18.547h1.1C109.5,14.868,103.016,8.194,93.9,5.57a41.235,41.235,0,0,1,17.521,12.977" transform="translate(-66.375 -3.937)" fill="#006072"/>
  <path id="Path_142" data-name="Path 142" d="M148.753,71.514a10.823,10.823,0,0,0-5.933,6.812,8.972,8.972,0,0,1,3.544-6.977,17.783,17.783,0,0,1,2.389.164" transform="translate(-100.955 -50.435)" fill="#006072"/>
  <path id="Path_143" data-name="Path 143" d="M140.343,71.153a8.769,8.769,0,0,0-3.963,6.22c-.24-2.509.586-4.963,1.973-6.156a14.9,14.9,0,0,1,1.99-.067" transform="translate(-96.373 -50.288)" fill="#006072"/>
  <path id="Path_144" data-name="Path 144" d="M131.758,71.6a6.486,6.486,0,0,0-2.638,5.441,6.111,6.111,0,0,1,.853-5.188,13.483,13.483,0,0,1,1.791-.252" transform="translate(-91.127 -50.612)" fill="#006072"/>
  <path id="Path_145" data-name="Path 145" d="M51.177,92.853a58.658,58.658,0,0,1-10.9.844c-5.6-.176-11.432-1.694-22.4-1.486,14.038-3.166,25.453-.994,19.933-3.224,7.551-.085,10.931,3.688,13.379,3.861" transform="translate(-12.639 -62.901)" fill="#006072"/>
  <path id="Path_146" data-name="Path 146" d="M166.892,176.842a39.446,39.446,0,0,1-6.742-5.552s4.051,3.321,6.742,5.552" transform="translate(-113.204 -121.079)" fill="#006072"/>
  <path id="Path_147" data-name="Path 147" d="M123,115.25a8.169,8.169,0,0,1,1.357.129s-1.328,4.541,6.346,13.191c-3.576-3.67-7.235-7.457-7.7-13.314" transform="translate(-86.945 -81.466)" fill="#006072"/>
  <path id="Path_148" data-name="Path 148" d="M94.12,52.987c8.583-1.987,18.174-1.354,28.387,3.224a54.334,54.334,0,0,1,4.983,2.266A68.792,68.792,0,0,1,141.8,70.267c-1.389-.023-3.345-1.539-4.755-2.3-1.759-.947-7.756-4.4-10.336-5.429a1.551,1.551,0,0,0,.164-1.173,4.566,4.566,0,0,1-1.079.548.677.677,0,0,1-.706-.214,17.805,17.805,0,0,0-3.77-3.547,6.122,6.122,0,0,0-3.013-.545,5.385,5.385,0,0,1,1.838-.551c-2.418-.979-10.509-4.69-20.519-3.4a12.032,12.032,0,0,1,4.368-.827c-2.931-.879-10.488-.293-14.56,2.152-4.4,2.638-5.57,4.075-6.593,5.186,2.1-3.779,5.863-5.918,11.283-7.17" transform="translate(-58.557 -36.701)" fill="#006072"/>
  <path id="Path_149" data-name="Path 149" d="M141.907,84.381c3.043-1.823,7.484-3.746,10.553-2.843A35.609,35.609,0,0,0,142,78.858c5.895-.179,14.091,2.3,18.391,4.309,10.3,4.819,14.457,6.821,16.9,6.833-.709.123-2.125-.062-3.151.05-1.4.15-2.034.088-3.553.325a4.442,4.442,0,0,1-2.495-1.237,14.987,14.987,0,0,0-1.542-1.173c-1.143-.844-7.6-4-9.861-4.256a10.364,10.364,0,0,0-7.622,2.19,8.676,8.676,0,0,1,2.867-.979c-.586.407-2.3,1.272-2.89,2.726a5.484,5.484,0,0,0,.111,2.143,9.7,9.7,0,0,0,2.319,5.227c1.87,2,3.922,2.758,4.541,2.374h0a.88.88,0,0,1-.094.613c-.164.34-.765.337-1.337.4-4.8-.358-7.273-9.6-13.4-11.391-.674-.032-4.022-.355-6.59-.507a15.922,15.922,0,0,0,7.328-2.116" transform="translate(-95.137 -55.736)" fill="#fff"/>
  <path id="Path_150" data-name="Path 150" d="M191.39,125.836a.588.588,0,0,0-.22,0,3.087,3.087,0,0,0,1.486-1.3,7.291,7.291,0,0,1-2.744.059,2.345,2.345,0,0,0,1.466-1.258,7.563,7.563,0,0,1-2.917-.252,4.042,4.042,0,0,0,2.143-1.425,8.014,8.014,0,0,1-3.224-.4,7.642,7.642,0,0,0,1.759,3.368c1.779,1.911,3.518,2.509,3.94,2.474a3.938,3.938,0,0,0,1.143-1.2,13.029,13.029,0,0,1-2.826-.082" transform="translate(-132.453 -85.715)" fill="#fff"/>
  <path id="Path_151" data-name="Path 151" d="M215.354,103.18a6.17,6.17,0,0,0-1.173-.862,2.093,2.093,0,0,0-.991-.827c-.706-.293-1.466-.563-1.466-.563a3.066,3.066,0,0,0-1.105-.786,8.834,8.834,0,0,0-1.258-.484,10.55,10.55,0,0,0-1.345-.624,6.88,6.88,0,0,1-.92-.381s-.4-.158-.961-.337l-1.155-.363a3.132,3.132,0,0,1-.78-.117,2.078,2.078,0,0,0-1.172-.07c-.188.293.073-.111-.7.709a9.6,9.6,0,0,0,2.225-.2,2.75,2.75,0,0,1-1.09,1.173,8.562,8.562,0,0,0,2.565-.082,3.641,3.641,0,0,1-1.328,1.3,8.146,8.146,0,0,0,3-.185,4.613,4.613,0,0,1-1.533,1.4,10.354,10.354,0,0,0,3.863-.226,4.614,4.614,0,0,1-1.7,1.354,10.409,10.409,0,0,0,3.79.091,14.934,14.934,0,0,1-2.814,1.269,8.943,8.943,0,0,0,3.046.182,4.913,4.913,0,0,1-.959.639,6.49,6.49,0,0,0,4.57-1.017s.293-.235-.6-.985" transform="translate(-143.02 -69.074)" fill="#fff"/>
  <path id="Path_152" data-name="Path 152" d="M187.33,121.3a10.334,10.334,0,0,0,1.621.369c-.73.463-1.067,1.633-.528,1.466h0c.141.021.507.135,1.017.22-.4.44-.226,1.492.434,1.29h0c.293.035.662.082,1.085.1-.375.431-.542,1.4.173,1.149a.586.586,0,0,1,.22,0,10.262,10.262,0,0,0,1.093.1c-.378.337-.563.821.073,1.079a8.593,8.593,0,0,1-3.424-2.377,7.672,7.672,0,0,1-1.759-3.368" transform="translate(-132.417 -85.743)" fill="#a7b1b7"/>
  <path id="Path_153" data-name="Path 153" d="M208.152,99.524c-1.533.188-3.471.645-4.464.047-2.33-1.407-9.275-5.939-13.572-5.8a8.7,8.7,0,0,0-6.156,2.67h0a9.978,9.978,0,0,1,7.554-1.876c4.5.689,10.365,4.078,12.256,6.229.413.472.662.657,1.671.586a67.712,67.712,0,0,0,6.742-.835,24.563,24.563,0,0,1-4.039-1.023" transform="translate(-130.035 -66.282)" fill="#a7b1b7"/>
  <path id="Path_154" data-name="Path 154" d="M120.081,114.893c-.223.657-1.448.841-2.33.437a9.254,9.254,0,0,1-3.518-3.116c-1.187-1.6-4.139-7.179-9.427-8.422-3.491-.821-10.057,1.589-21.056.7a59.9,59.9,0,0,0,10.163,10.178c-1.8-1.929-3.7-5.01-2.952-7.223a3.266,3.266,0,0,0-1.392,1.372c.343-2.7,3.784-2.755,6.982-2.31,1.524.234,2.852.46,3.746.662a27.6,27.6,0,0,1,10.576,4.769,18.881,18.881,0,0,0-4.312-5.93c4.335,1.87,7.138,10.06,12.08,10.06.513-.059,2.005-.091,1.439-1.173" transform="translate(-59.2 -73.244)" fill="#a7b1b7"/>
  <path id="Path_155" data-name="Path 155" d="M216.316,102.862a26.283,26.283,0,0,0-7.328-4.165c-3.389-1.389-5.118-1.214-5.118-1.214l-.032.047-.018.029h0c-.032.032-.076.067-.188.176h0l-.053.05h0a.606.606,0,0,1-.062.062H203.5l-.073.076c.454-.258,1.48-.234.944.2h0c.322-.032.586-.073.824-.114h.018l.205-.041-.117.2-.029.047q-.064.106-.141.211c1.126-.293,2.245-.108,2.175.226a1.707,1.707,0,0,1-.457.41h.044c-.079.123-.17.255-.276.39a8.031,8.031,0,0,1,1.354-.542,2.023,2.023,0,0,1,1.378.208c.311.158-.176.7-.176.7a2.724,2.724,0,0,1,1.214-.237,2.3,2.3,0,0,1,1.466.947c.076.264-.487.586-.487.586A6.462,6.462,0,0,1,212.59,101c1.123.1,1.955.657,1.949,1,0,.182-.5.358-.586.431a1.788,1.788,0,0,1,1.486.114c.366.293.114.718-.167.915a7.843,7.843,0,0,1-1.325.654c1.044-.179,2.454-.34,2.172.023-.2.237-.516.293-.744.457,1.005-.24,1.691-.451,1.691-.451s.2-.616-.674-1.4" transform="translate(-143.798 -68.902)" fill="#a7b1b7"/>
  <path id="Path_156" data-name="Path 156" d="M53.891,165.65h3.9l-1.29,4.813h2.621l1.29-4.813h3.9l-3.248,12.13h-3.9l1.134-4.23H55.676l-1.131,4.23h-3.9l3.251-12.13Z" transform="translate(-35.796 -117.092)"/>
  <path id="Path_157" data-name="Path 157" d="M56.409,176.387h3.054l3.031-11.309H59.44l-1.29,4.813H54.683l1.29-4.813H52.918l-3.031,11.309h3.054l1.134-4.23h3.468Zm3.685.821H55.342l1.132-4.23H54.715l-1.152,4.23H48.82l3.468-12.948h4.752l-1.29,4.81h1.759l1.29-4.81h4.763Z" transform="translate(-34.509 -116.11)"/>
  <path id="Path_158" data-name="Path 158" d="M21.486,166.256a1.949,1.949,0,0,0-1.659-.586H14.671a2.87,2.87,0,0,0-3.037,2.395l-.557,2.078c-.481,1.791.311,2.116,1.867,2.58l3.456.926a.217.217,0,0,1,.155.267l-.258.962a.22.22,0,0,1-.211.164H13.434a.223.223,0,0,1-.214-.276l.252-.879-3.2-.835-.619,2.3a2.086,2.086,0,0,0,.132,1.853,1.943,1.943,0,0,0,1.662.586h5.394a2.872,2.872,0,0,0,3.037-2.392l.586-2.2a2.086,2.086,0,0,0-.026-1.615c-.293-.516-.982-.733-1.844-.961-.627-.167-2.345-.6-3.456-.879a.22.22,0,0,1-.155-.27l.24-.879a.22.22,0,0,1,.211-.161h2.4a.22.22,0,0,1,.211.276l-.226.844,3.192.862.607-2.3a2.1,2.1,0,0,0-.135-1.853" transform="translate(-6.727 -117.106)"/>
  <path id="Path_159" data-name="Path 159" d="M9.56,172.548l-.528,1.923a1.741,1.741,0,0,0,.064,1.5,1.586,1.586,0,0,0,1.337.431h5.394a2.472,2.472,0,0,0,2.638-2.09l.586-2.2c.217-.815.111-1.134,0-1.3-.22-.381-.827-.566-1.595-.771-.563-.149-2.031-.522-3.1-.794l-.349-.088a.624.624,0,0,1-.451-.774l.24-.879a.627.627,0,0,1,.607-.463h2.427a.625.625,0,0,1,.607.789l-.12.451,2.4.648.5-1.9a1.748,1.748,0,0,0-.064-1.5h0a1.6,1.6,0,0,0-1.334-.431H13.664a2.472,2.472,0,0,0-2.638,2.09l-.557,2.078c-.381,1.425.047,1.621,1.589,2.081l3.45.929a.63.63,0,0,1,.443.768l-.264.953a.63.63,0,0,1-.6.454H12.427a.63.63,0,0,1-.61-.789l.141-.5-2.4-.627Zm6.267,4.673H10.433a2.325,2.325,0,0,1-1.985-.753,2.472,2.472,0,0,1-.205-2.207l.739-2.711,3.99,1.046-.293,1.047h2.26l.17-.636-3.274-.879c-1.425-.425-2.764-.824-2.157-3.081l.557-2.078a3.275,3.275,0,0,1,3.433-2.7H18.82a2.34,2.34,0,0,1,1.985.75,2.476,2.476,0,0,1,.205,2.21l-.712,2.691-3.984-1.076.267-1H14.569l-.152.566.158.038c1.076.273,2.544.645,3.113.8a3.121,3.121,0,0,1,2.093,1.152,2.46,2.46,0,0,1,.067,1.926l-.586,2.2a3.278,3.278,0,0,1-3.433,2.7" transform="translate(-5.72 -116.117)"/>
  <path id="Path_160" data-name="Path 160" d="M195.594,165.65h-4.456l-3.392,4.394,1.175-4.394h-4.171L181.5,177.78h4.171l1.31-4.889.909,4.889h4.456l-1.187-6.39,4.435-5.74Z" transform="translate(-128.296 -117.092)"/>
  <path id="Path_161" data-name="Path 161" d="M186.944,176.387h3.623l-1.12-6.085,4.039-5.224h-3.433l-3.271,4.233-.721-.355,1.041-3.878h-3.324l-3.028,11.309h3.321l1.228-4.582.8.029.844,4.555Zm4.608.821h-5.276l-.639-3.447-.92,3.447H179.68l3.471-12.948h5.018l-.786,2.931,2.269-2.931h5.49l-4.834,6.253,1.243,6.7Z" transform="translate(-127.01 -116.11)"/>
  <path id="Path_162" data-name="Path 162" d="M144.311,171.251l.683-2.55h1.885c.469,0,.619.249.493.715l-.258.967c-.176.651-.451.879-1.319.879Zm4.9,6.5-.748-4.031a3.852,3.852,0,0,0,2.169-2.427l.909-3.394a1.688,1.688,0,0,0-1.665-2.278h-7.95l-3.251,12.13h3.954L143.64,174h.7l.7,3.752Z" transform="translate(-98.028 -117.071)"/>
  <path id="Path_163" data-name="Path 163" d="M143.558,169.876h.964c.736,0,.806-.135.923-.563l.258-.967a.589.589,0,0,0,.026-.188.433.433,0,0,0-.123,0h-1.583l-.466,1.732Zm.95.821h-2.017l.9-3.371h2.2a.92.92,0,0,1,.78.325,1.008,1.008,0,0,1,.108.906l-.258.967c-.229.856-.695,1.173-1.715,1.173Zm-.419,5.687h3.348l-.718-3.866.293-.129a3.456,3.456,0,0,0,1.938-2.158l.909-3.395a1.466,1.466,0,0,0-.185-1.284,1.322,1.322,0,0,0-1.085-.478h-7.622l-3.04,11.309h3.107l1.005-3.752h1.354Zm4.333.821h-5.013l-.7-3.752h-.044l-1.005,3.752h-4.8l3.468-12.948h8.266a2.119,2.119,0,0,1,1.735.8,2.275,2.275,0,0,1,.325,1.993l-.909,3.395a4.215,4.215,0,0,1-2.1,2.556Z" transform="translate(-96.742 -116.106)"/>
  <path id="Path_164" data-name="Path 164" d="M98.832,173.447l2.152-4.547-.293,4.547Zm1.595,4.3H104.4l.179-12.13H99.122l-6.3,12.13h3.972l.809-1.715h2.931l-.108,1.715Z" transform="translate(-65.611 -117.071)"/>
  <path id="Path_165" data-name="Path 165" d="M97.854,172.075h.833l.129-2.031Zm1.6.818h-2.9l2.427-5.13.78.2-.293,4.928Zm-.22,3.494h3.131l.17-11.309H97.746l-5.863,11.309H94.92l.812-1.712h3.629l-.108,1.712Zm3.94.818h-4.81l.106-1.712H96.23l-.812,1.712h-4.9l6.742-12.945h6.118l-.191,12.945Z" transform="translate(-63.986 -116.11)"/>
  <path id="Path_166" data-name="Path 166" d="M239.284,166.256a1.945,1.945,0,0,0-1.659-.586h-5.153a2.87,2.87,0,0,0-3.037,2.395l-.557,2.078c-.481,1.791.308,2.116,1.867,2.58l3.459.932a.217.217,0,0,1,.155.267l-.258.962a.223.223,0,0,1-.211.164h-2.659a.22.22,0,0,1-.211-.276l.249-.879-3.192-.835-.633,2.316a2.1,2.1,0,0,0,.135,1.853,1.937,1.937,0,0,0,1.659.586h5.394a2.871,2.871,0,0,0,3.037-2.392l.586-2.2a2.09,2.09,0,0,0-.023-1.615c-.293-.516-.982-.733-1.844-.961-.63-.167-2.345-.6-3.456-.879a.217.217,0,0,1-.158-.27c.067-.252.182-.665.243-.879a.217.217,0,0,1,.211-.161h2.407a.22.22,0,0,1,.211.276l-.226.844,3.192.862.6-2.3a2.075,2.075,0,0,0-.135-1.853" transform="translate(-160.674 -117.106)"/>
  <path id="Path_167" data-name="Path 167" d="M232.431,167.709ZM232.188,168.588Zm-4.807,3.954-.525,1.923a1.742,1.742,0,0,0,.064,1.5,1.583,1.583,0,0,0,1.334.431h5.394a2.468,2.468,0,0,0,2.638-2.09l.586-2.2c.22-.815.114-1.134.018-1.3-.22-.381-.827-.566-1.595-.771-.569-.152-2.052-.525-3.122-.8l-.328-.085a.619.619,0,0,1-.39-.293.627.627,0,0,1-.064-.481l.243-.879a.627.627,0,0,1,.607-.463h2.407a.624.624,0,0,1,.607.788l-.12.451,2.4.648.5-1.9a1.74,1.74,0,0,0-.062-1.5,1.586,1.586,0,0,0-1.337-.431h-5.147a2.47,2.47,0,0,0-2.638,2.09l-.557,2.078c-.384,1.425.044,1.621,1.589,2.081l3.447.929a.63.63,0,0,1,.446.768l-.258.964a.633.633,0,0,1-.607.466h-2.662a.627.627,0,0,1-.607-.789l.138-.5-2.4-.627Zm6.267,4.673h-5.394a2.333,2.333,0,0,1-1.985-.753,2.472,2.472,0,0,1-.205-2.207l.753-2.706,3.99,1.047-.293,1.046h2.26l.17-.636-3.274-.879c-1.428-.425-2.764-.824-2.158-3.081l.557-2.078a3.272,3.272,0,0,1,3.433-2.7h5.153a2.325,2.325,0,0,1,1.985.75h0a2.447,2.447,0,0,1,.205,2.21l-.709,2.691-3.99-1.079.267-1h-2.026l-.155.566.144.035c1.079.273,2.559.648,3.131.8A3.11,3.11,0,0,1,237.6,170.4a2.449,2.449,0,0,1,.064,1.926l-.586,2.2a3.274,3.274,0,0,1-3.433,2.7" transform="translate(-159.69 -116.117)"/>
  <path id="Path_168" data-name="Path 168" d="M53.891,165.65h3.9l-1.29,4.813h2.621l1.29-4.813h3.9l-3.248,12.13h-3.9l1.134-4.23H55.676l-1.131,4.23h-3.9l3.251-12.13Z" transform="translate(-35.796 -117.092)" fill="#006072"/>
  <path id="Path_169" data-name="Path 169" d="M21.486,166.256a1.949,1.949,0,0,0-1.659-.586H14.671a2.87,2.87,0,0,0-3.037,2.395l-.557,2.078c-.481,1.791.311,2.116,1.867,2.58l3.456.926a.217.217,0,0,1,.155.267l-.258.962a.22.22,0,0,1-.211.164H13.434a.223.223,0,0,1-.214-.276l.252-.879-3.2-.835-.619,2.3a2.086,2.086,0,0,0,.132,1.853,1.943,1.943,0,0,0,1.662.586h5.394a2.872,2.872,0,0,0,3.037-2.392l.586-2.2a2.086,2.086,0,0,0-.026-1.615c-.293-.516-.982-.733-1.844-.961-.627-.167-2.345-.6-3.456-.879a.22.22,0,0,1-.155-.27l.24-.879a.22.22,0,0,1,.211-.161h2.4a.22.22,0,0,1,.211.276l-.226.844,3.192.862.607-2.3a2.1,2.1,0,0,0-.135-1.853" transform="translate(-6.727 -117.106)" fill="#006072"/>
  <path id="Path_170" data-name="Path 170" d="M195.594,165.65h-4.456l-3.392,4.394,1.175-4.394h-4.171L181.5,177.78h4.171l1.31-4.889.909,4.889h4.456l-1.187-6.39,4.435-5.74Z" transform="translate(-128.296 -117.092)" fill="#006072"/>
  <path id="Path_171" data-name="Path 171" d="M144.311,171.251l.683-2.55h1.885c.469,0,.619.249.493.715l-.258.967c-.176.651-.451.879-1.319.879Zm4.9,6.5-.748-4.031a3.852,3.852,0,0,0,2.169-2.427l.909-3.394a1.688,1.688,0,0,0-1.665-2.278h-7.95l-3.251,12.13h3.954L143.64,174h.7l.7,3.752Z" transform="translate(-98.028 -117.071)" fill="#006072"/>
  <path id="Path_172" data-name="Path 172" d="M98.832,173.447l2.152-4.547-.293,4.547Zm1.595,4.3H104.4l.179-12.13H99.122l-6.3,12.13h3.972l.809-1.715h2.931l-.108,1.715Z" transform="translate(-65.611 -117.071)" fill="#006072"/>
  <path id="Path_173" data-name="Path 173" d="M239.284,166.256a1.945,1.945,0,0,0-1.659-.586h-5.153a2.87,2.87,0,0,0-3.037,2.395l-.557,2.078c-.481,1.791.308,2.116,1.867,2.58l3.459.932a.217.217,0,0,1,.155.267l-.258.962a.223.223,0,0,1-.211.164h-2.659a.22.22,0,0,1-.211-.276l.249-.879-3.192-.835-.633,2.316a2.1,2.1,0,0,0,.135,1.853,1.937,1.937,0,0,0,1.659.586h5.394a2.871,2.871,0,0,0,3.037-2.392l.586-2.2a2.09,2.09,0,0,0-.023-1.615c-.293-.516-.982-.733-1.844-.961-.63-.167-2.345-.6-3.456-.879a.217.217,0,0,1-.158-.27c.067-.252.182-.665.243-.879a.217.217,0,0,1,.211-.161h2.407a.22.22,0,0,1,.211.276l-.226.844,3.192.862.6-2.3a2.075,2.075,0,0,0-.135-1.853" transform="translate(-160.674 -117.106)" fill="#006072"/>
  <path id="Path_174" data-name="Path 174" d="M66.63,135.094l.51-1.894h1.4c.349,0,.46.185.366.531l-.193.73c-.129.484-.334.645-.976.645Zm4.019,4.834-.929-2.993a2.864,2.864,0,0,0,1.609-1.8l.677-2.521a1.251,1.251,0,0,0-1.24-1.691h-5.9l-2.412,9.008h2.931l.747-2.788h.522l.879,2.788Z" transform="translate(-44.144 -92.543)"/>
  <path id="Path_175" data-name="Path 175" d="M66.361,132.721H67.59a.586.586,0,0,1-.021.123l-.193.718c-.082.293-.132.407-.665.407h-.686l.337-1.255Zm3.38-2.931H63.585l-.064.24-2.412,9.005-.108.413h3.608l.064-.237.683-2.547H65.4l.821,2.562.07.223h3.77l-.129-.416-.847-2.732a3.145,3.145,0,0,0,1.533-1.888l.677-2.521a1.721,1.721,0,0,0-.246-1.495,1.6,1.6,0,0,0-1.3-.6Zm-4.133,4.5h1.1c.642,0,.847-.161.976-.642l.193-.721c.094-.346-.018-.531-.366-.531h-1.4Zm4.133-4.174a1.255,1.255,0,0,1,1.24,1.691l-.677,2.521a2.864,2.864,0,0,1-1.609,1.8l.929,2.993H66.517l-.879-2.788H65.1l-.745,2.788H61.428l2.413-9.008Z" transform="translate(-43.119 -91.744)" fill="#006072"/>
  <path id="Path_176" data-name="Path 176" d="M38.622,122.558H33.1l-.621,2.307h2.609L33.4,131.155a.809.809,0,0,1-.944.7H30.546a.686.686,0,0,1-.586-.193.7.7,0,0,1-.041-.613l.325-1.149-2.6-.683-.686,2.562c-.24.879-.237,1.448,0,1.759s.8.463,1.794.463h4.4c1.911,0,2.533-.481,3.028-2.345l2.442-9.117Z" transform="translate(-18.929 -86.619)"/>
  <path id="Path_177" data-name="Path 177" d="M38.3,121.493H32.107l-.062.237-.621,2.31-.108.4h2.609l-1.574,5.883c-.1.384-.217.466-.636.466H29.8c-.064,0-.267,0-.32-.07s0-.267.015-.331l.325-1.131.088-.317-.317-.082-2.6-.683-.308-.091-.085.293-.686,2.559c-.27,1.008-.252,1.639.059,2.052s.929.586,2.052.586h4.4c2.052,0,2.805-.586,3.339-2.565l2.442-9.119.108-.4Zm-.419.322-2.442,9.116c-.5,1.85-1.117,2.345-3.028,2.345h-4.4c-1,0-1.551-.144-1.794-.463s-.243-.879,0-1.759l.686-2.562,2.6.683-.325,1.149a.7.7,0,0,0,.041.613.683.683,0,0,0,.586.193h1.914a.809.809,0,0,0,.944-.7l1.686-6.291H31.738l.621-2.307Z" transform="translate(-18.184 -85.877)" fill="#006072"/>
  <path id="Path_178" data-name="Path 178" d="M91.95,157.8h1.674l.428-1.595H92.378L91.95,157.8Z" transform="translate(-64.996 -110.42)"/>
  <path id="Path_179" data-name="Path 179" d="M93.453,155.11H91.108l-.062.237-.428,1.595-.108.4h2.345l.064-.237.425-1.595.111-.4Zm-.419.322-.428,1.595H90.947l.425-1.595Z" transform="translate(-63.978 -109.642)" fill="#006072"/>
</svg>
