<svg xmlns="http://www.w3.org/2000/svg" xmlns:xlink="http://www.w3.org/1999/xlink" width="171.995" height="199" viewBox="0 0 171.995 199">
  <defs>
    <radialGradient id="radial-gradient" cx="0.5" cy="0.5" r="0.5" gradientUnits="objectBoundingBox">
      <stop offset="0" stop-color="#070707"/>
      <stop offset="0.611" stop-color="#393939"/>
      <stop offset="1" stop-color="#595959"/>
    </radialGradient>
  </defs>
  <g id="Group_490" data-name="Group 490" transform="translate(-652.005 -513)">
    <g id="Group_40" data-name="Group 40" transform="translate(652.005 513)">
      <path id="Path_124" data-name="Path 124" d="M274.63,170.936,277.7,174l3.082-3.067V120.9H274.63Z" transform="translate(-127.201 -10.317)" fill="#006b77"/>
      <rect id="Rectangle_32" data-name="Rectangle 32" width="6.149" height="49.148" transform="translate(147.429 55.287)" fill="#006b77"/>
      <path id="Path_125" data-name="Path 125" d="M282.725,68.619v125.37a9.216,9.216,0,0,0,6.149-8.6v-129c0-5.074-4.142-8.313-9.216-8.313h-86c-4,0-7.381,0-8.6,6.135h82.357C275.845,54.157,282.725,60.163,282.725,68.619Z" transform="translate(-166.012 -41.869)" fill="#fff"/>
      <circle id="Ellipse_4" data-name="Ellipse 4" cx="9.216" cy="9.216" r="9.216" transform="translate(49.148 29.817)" fill="#ea7200"/>
      <path id="Path_126" data-name="Path 126" d="M280.49,65.786a9.216,9.216,0,0,0-9.216-9.216h-86a9.216,9.216,0,0,0-9.216,9.216v129A9.216,9.216,0,0,0,185.276,204h86a9.216,9.216,0,0,0,9.216-9.216Zm-12.283,119.78H243.626v-6.149h24.581Zm0-18.432h-67.58V161h67.58Zm0-12.283h-67.58v-6.077h67.58Zm0-12.283h-67.58v-6.149h67.58Zm0-12.283h-67.58v-6.149h67.58ZM228.275,61.873A15.365,15.365,0,1,1,212.91,77.252a15.365,15.365,0,0,1,15.365-15.379ZM188.343,99.626h79.863v6.149H188.343Zm0,12.283h79.863v6.149H188.343Zm0,11.395h6.149v6.134h-6.149Zm0,12.283h6.149v6.163h-6.149Zm0,12.283h6.149v6.149h-6.149Zm0,12.283h6.149V166.3h-6.149Zm0,19.321H212.91v6.149H188.343Z" transform="translate(-169.911 -38.19)" fill="#f2f996"/>
      <g id="Group_39" data-name="Group 39">
        <path id="Path_127" data-name="Path 127" d="M285.416,43.751h-86A14.978,14.978,0,0,0,184.34,55.877,14.892,14.892,0,0,0,171.77,70.5v129c0,8.471,6.894,16.254,15.365,16.254h86A15.766,15.766,0,0,0,288.2,202.732a15.838,15.838,0,0,0,12.556-15.523v-129C300.766,49.743,293.93,43.751,285.416,43.751Zm-3.067,156.587a9.216,9.216,0,0,1-9.216,9.216h-86a9.216,9.216,0,0,1-9.216-9.216v-129a9.216,9.216,0,0,1,9.216-9.216h86a9.216,9.216,0,0,1,9.216,9.216Zm12.283-13.186a9.216,9.216,0,0,1-6.149,8.6V70.5c0-8.456-6.88-14.462-15.351-14.462h-82.4c1.261-6.134,4.644-6.134,8.6-6.134h86c5.074,0,9.216,3.239,9.216,8.313Z" transform="translate(-171.77 -43.747)"/>
        <path id="Path_128" data-name="Path 128" d="M217.135,90.99A15.365,15.365,0,1,0,201.77,75.654,15.365,15.365,0,0,0,217.135,90.99Zm0-24.567a9.216,9.216,0,1,1-9.216,9.23A9.216,9.216,0,0,1,217.135,66.423Z" transform="translate(-158.771 -36.592)"/>
        <rect id="Rectangle_33" data-name="Rectangle 33" width="79.849" height="6.149" transform="translate(18.432 61.436)"/>
        <rect id="Rectangle_34" data-name="Rectangle 34" width="79.849" height="6.149" transform="translate(18.432 73.719)"/>
        <rect id="Rectangle_35" data-name="Rectangle 35" width="67.565" height="6.149" transform="translate(30.715 86.002)"/>
        <rect id="Rectangle_36" data-name="Rectangle 36" width="67.565" height="6.149" transform="translate(30.715 98.286)"/>
        <rect id="Rectangle_37" data-name="Rectangle 37" width="67.565" height="6.149" transform="translate(30.715 110.583)"/>
        <rect id="Rectangle_38" data-name="Rectangle 38" width="67.565" height="6.149" transform="translate(30.715 122.867)"/>
        <rect id="Rectangle_39" data-name="Rectangle 39" width="24.567" height="6.149" transform="translate(18.432 141.285)"/>
        <rect id="Rectangle_40" data-name="Rectangle 40" width="24.567" height="6.149" transform="translate(73.714 141.285)"/>
        <rect id="Rectangle_41" data-name="Rectangle 41" width="6.149" height="6.149" transform="translate(18.432 85.114)"/>
        <rect id="Rectangle_42" data-name="Rectangle 42" width="6.149" height="6.149" transform="translate(18.432 97.397)"/>
        <rect id="Rectangle_43" data-name="Rectangle 43" width="6.149" height="6.149" transform="translate(18.432 109.68)"/>
        <rect id="Rectangle_44" data-name="Rectangle 44" width="6.149" height="6.149" transform="translate(18.432 121.964)"/>
        <path id="Path_129" data-name="Path 129" d="M301.051,117.069V92.5c0-5.088-4.128-8.327-9.2-8.327h-3.082V80.219c0-1.706-1.434-2.179-3.067-2.179H273.417c-1.691,0-3.067.473-3.067,2.179V190.783a3.051,3.051,0,0,0,.889,2.164l6.149,6.149a3.067,3.067,0,0,0,4.3,0l6.135-6.149a3,3,0,0,0,.9-2.164V90.323h3.081c1.692,0,3.068.473,3.068,2.179v23.836l-2.752,5.5a3.1,3.1,0,0,0,0,2.752l2.752,5.49v9.388h6.134V129.352a3.066,3.066,0,0,0-.315-1.433L298.3,123.16l2.394-4.773a3.071,3.071,0,0,0,.358-1.319ZM282.633,84.1v49.148h-6.149V84.175Zm-3.082,108.543-3.067-3.067V139.471h6.149v50.036Z" transform="translate(-129.056 -28.888)" fill="#006b77"/>
      </g>
    </g>
    <g id="Component_59_1" data-name="Component 59 – 1" transform="translate(684.005 650)">
      <g id="Button_-_Secondary" data-name="Button - Secondary">
        <g id="Ellipse_2" data-name="Ellipse 2" stroke="#707070" stroke-width="1" fill="url(#radial-gradient)">
          <circle cx="28" cy="28" r="28" stroke="none"/>
          <circle cx="28" cy="28" r="27.5" fill="none"/>
        </g>
        <path id="Path_132" data-name="Path 132" d="M22.4,0A22.4,22.4,0,1,1,0,22.4,22.4,22.4,0,0,1,22.4,0Z" transform="translate(5.6 5.6)" fill="#006b77"/>
      </g>
      <g id="Layer_2" data-name="Layer 2" transform="translate(25.124 42.987) rotate(-135)">
        <g id="logos" transform="translate(3.395 0.428)">
          <path id="Path_3" data-name="Path 3" d="M13.942.894c.335.022.695.667.612,1.489l-.439,3.931c-.052.572-.3.971-.584.954l-12.368-.8C.878,6.432.633,6.007.569,5.436L.078,1.445C-.014.611.337.009.668.034l13.274.86" transform="translate(0 0)" fill="#ea7200"/>
        </g>
        <g id="logos-2" data-name="logos" transform="translate(9.044 0.46) rotate(90)">
          <path id="Path_3-2" data-name="Path 3" d="M27.811,1.269a1.369,1.369,0,0,1,1.28,1.511L28.345,6.7a1.081,1.081,0,0,1-1.14.934L2.34,6.4A1.411,1.411,0,0,1,1.113,5.35L-.012,1.34A1.1,1.1,0,0,1,1.124-.051L27.811,1.269" transform="translate(0 0)" fill="#ea7200"/>
        </g>
      </g>
    </g>
  </g>
</svg>
