<svg xmlns="http://www.w3.org/2000/svg" xmlns:xlink="http://www.w3.org/1999/xlink" width="115.71" height="115.71" viewBox="0 0 115.71 115.71">
  <defs>
    <clipPath id="clip-path">
      <circle id="Ellipse_13" data-name="Ellipse 13" cx="53.428" cy="53.428" r="53.428" transform="translate(73.073 73.407)" fill="#fff" stroke="#707070" stroke-width="8"/>
    </clipPath>
  </defs>
  <g id="Image" transform="translate(-69.363 -70.517)">
    <g id="Mask_Group_21" data-name="Mask Group 21" transform="translate(1 4.4)" clip-path="url(#clip-path)">
      <g id="Group_77" data-name="Group 77" transform="translate(79.773 78.292)">
        <path id="Path_33" data-name="Path 33" d="M194.55,100.938,182,98.052a4.963,4.963,0,0,0-4.579,1.3l-.023.023a8.255,8.255,0,0,1-1.388-4.584V89.111a29.519,29.519,0,0,0,5.351-8.571c3.33,2.215,6.212-4.806,6.212-7.863,0-2.253-1.332-3.543-3.446-3.446.1-1.068.143-2.128.143-3.164,0-13.228-10.356-18.168-23.126-18.168S138.02,52.84,138.02,66.068c0,1.045.046,2.114.143,3.191-2.1-.25-3.45,1.055-3.45,3.418,0,3.191,2.868,10.68,6.078,7.539a29.754,29.754,0,0,0,5.462,8.894V94.8a8.257,8.257,0,0,1-1.388,4.584h0a4.953,4.953,0,0,0-4.6-1.29l-12.65,2.979a16.517,16.517,0,0,0-12.733,16.077v14.977a4.949,4.949,0,0,0,4.954,4.954h82.584a4.954,4.954,0,0,0,4.958-4.954V117.038a16.517,16.517,0,0,0-12.827-16.1Z" transform="translate(-114.871 -34.667)" fill="#d7bb91"/>
        <path id="Path_34" data-name="Path 34" d="M215.378,150.983a8.261,8.261,0,0,1-2.932-6.313V140.71H182.71c1.559,4.477,12.114,14.241,21.679,18.27A38.662,38.662,0,0,0,215.378,150.983Z" transform="translate(-151.328 -84.55)" fill="#c5a578"/>
        <path id="Path_35" data-name="Path 35" d="M177.389,157.475c-2.452,2.419-4.778,4.482-6.864,6.2a14.8,14.8,0,0,1-18.829,0c-2.081-1.716-4.4-3.774-6.85-6.189a4.954,4.954,0,0,0-4.6-1.29l-12.65,2.979a16.517,16.517,0,0,0-12.733,16.077v15a4.949,4.949,0,0,0,4.954,4.954h82.593a4.954,4.954,0,0,0,4.958-4.954V175.167a16.517,16.517,0,0,0-12.827-16.1l-12.547-2.886A4.963,4.963,0,0,0,177.389,157.475Z" transform="translate(-114.86 -92.796)" fill="#006b77"/>
        <path id="Path_36" data-name="Path 36" d="M196.648,210.636a9.513,9.513,0,0,1-4.579-1.147l-5.749-3.177a9.533,9.533,0,0,0-4.584-1.152H140.484a9.514,9.514,0,0,0-4.579,1.152l-5.749,3.177a9.528,9.528,0,0,1-4.593,1.147h-10.7v6.845c0,2.271,2.216,4.107,4.954,4.107h82.593c2.738,0,4.958-1.85,4.958-4.107v-6.845Z" transform="translate(-114.86 -119.19)" fill="#006b77"/>
        <path id="Path_37" data-name="Path 37" d="M207.126,69.212c.1-1.068.143-2.128.143-3.164,0-13.228-10.356-18.168-23.126-18.168s-23.126,4.94-23.126,18.168c0,1.045.046,2.114.144,3.191-2.1-.25-3.45,1.055-3.45,3.418,0,3.191,2.868,10.68,6.077,7.539,3.478,8.557,10.236,15.587,20.351,15.587,9.986,0,16.7-6.85,20.217-15.263,3.33,2.216,6.212-4.806,6.212-7.863C210.572,70.4,209.24,69.105,207.126,69.212Z" transform="translate(-137.891 -34.656)" fill="#d1ba96"/>
        <path id="Path_38" data-name="Path 38" d="M186.067,116.608c-16.905,0-24.778-19.713-24.778-33.038h3.3c0,11.993,6.827,29.736,21.475,29.736s21.475-17.742,21.475-29.736h3.3C210.845,96.9,202.968,116.608,186.067,116.608Z" transform="translate(-139.815 -53.839)" fill="#231f20"/>
        <path id="Path_39" data-name="Path 39" d="M197.8,21.339a1.461,1.461,0,0,0-.777-.217h-2.211a1.568,1.568,0,0,0-1.166.541h0a1.536,1.536,0,0,1-2.313,0l-1.17-1.3a3.136,3.136,0,0,0-2.377-1.073h-3.871a3.145,3.145,0,0,0-2.313,1.073l-1.166,1.3a1.536,1.536,0,0,1-2.313,0h0a1.568,1.568,0,0,0-1.17-.541h-2.211a1.448,1.448,0,0,0-.772.217c-1.822,1.1-9.926,6.346-13.043,14.468h49.953C207.724,27.685,199.62,22.435,197.8,21.339Z" transform="translate(-139.621 -19.29)" fill="#231f20"/>
        <path id="Path_40" data-name="Path 40" d="M157.71,80l1.249,8.728a3.3,3.3,0,0,0,3.27,2.835h2.09V80Z" transform="translate(-137.891 -51.92)" fill="#231f20"/>
        <path id="Path_41" data-name="Path 41" d="M264.32,80l-1.249,8.728a3.3,3.3,0,0,1-3.27,2.835H257.71V80Z" transform="translate(-191.638 -51.92)" fill="#231f20"/>
        <path id="Path_42" data-name="Path 42" d="M207.441,55H157.488a1.656,1.656,0,0,0-1.642,1.448l-1.24,9.912a1.656,1.656,0,0,0,1.642,1.85h52.432a1.651,1.651,0,0,0,1.637-1.85l-1.239-9.912A1.647,1.647,0,0,0,207.441,55Z" transform="translate(-136.217 -38.483)" fill="#231f20"/>
        <path id="Path_43" data-name="Path 43" d="M206.81,96.784H173a3.3,3.3,0,0,1-3.279-2.891L168.43,83.57h42.95l-1.29,10.324A3.307,3.307,0,0,1,206.81,96.784Z" transform="translate(-143.652 -53.839)" fill="#d1ba96"/>
        <path id="Path_44" data-name="Path 44" d="M186.943,178.784l24.051-21.864-3.173-.736a4.963,4.963,0,0,0-4.579,1.3c-2.451,2.419-4.778,4.482-6.864,6.2a14.8,14.8,0,0,1-18.829,0c-2.081-1.716-4.4-3.774-6.85-6.189a4.954,4.954,0,0,0-4.6-1.29l-3.178.754Z" transform="translate(-140.691 -92.801)" fill="#fff"/>
        <path id="Path_45" data-name="Path 45" d="M196.62,174.14l8.436,7.664,8.432-7.664A14.8,14.8,0,0,1,196.62,174.14Z" transform="translate(-158.804 -102.518)" fill="#006472"/>
      </g>
    </g>
    <g id="Ellipse_15" data-name="Ellipse 15" transform="translate(69.363 70.517)" fill="none" stroke="#707070" stroke-width="8">
      <circle cx="57.855" cy="57.855" r="57.855" stroke="none"/>
      <circle cx="57.855" cy="57.855" r="53.855" fill="none"/>
    </g>
  </g>
</svg>
