<svg id="scout" xmlns="http://www.w3.org/2000/svg" xmlns:xlink="http://www.w3.org/1999/xlink" width="253" height="97" viewBox="0 0 253 97">
  <defs>
    <clipPath id="clip-path">
      <rect id="Rectangle_77" data-name="Rectangle 77" width="253" height="97" transform="translate(64 469)" fill="none" stroke="#707070" stroke-width="1"/>
    </clipPath>
  </defs>
  <g id="Mask_Group_15" data-name="Mask Group 15" transform="translate(-64 -469)" clip-path="url(#clip-path)">
    <g id="shape" transform="translate(-233.149 46.881)">
      <g id="Group_76" data-name="Group 76">
        <g id="Layer_2" data-name="Layer 2" transform="translate(315.796 449.697)">
          <g id="logos" transform="translate(0)">
            <path id="Path_4" data-name="Path 4" d="M9.849,376.172a8.432,8.432,0,0,1-4.941-1.784c-.161-.117-.321-.24-.636-.5-.11-.091-.22-.185-.479-.423C1.28,371.193-.68,366.622.225,361.187l7.507-40.9c.9-5.942,4.865-10.24,9.459-10.254H214.9c4.5.159,8.423,4.4,9.384,10.254l7.417,40.9c1.382,8.567-4.309,15.028-9.594,14.985H9.849" transform="translate(0 -310.03)" fill="#ea7200" stroke="#000" stroke-width="2"/>
          </g>
        </g>
        <path id="Path_5" data-name="Path 5" d="M474.1,445.859a27.66,27.66,0,0,1-11.958-3.28c-4.858-2.59-11.571-7.541-19.338-16.694L427.373,402.9,401.5,363.2l-17.161-25.73-24.458-39.561L341.4,268.42l-26.515-40.181L283.238,179.2,253.21,132.849,225.539,89.581,189.881,34.559,169.732,4.07S162.187-11.08,146.348.558c-8.011,5.713-4.207,14.554-2.62,17.848,2.7,5.437,32.43,52.3,32.43,52.3l19.7,30.157,20.194,32.148L238.061,167l20.329,31.643,15.84,25.6,26.77,42.4,39.037,59.132,21.785,34.066,20.209,31.729,27.656,42.777L429.9,465.5l20.356,29.468,4.216,5.746,5.39,7.346" transform="translate(-141.425 3.838)" fill="#ea7200" stroke="#000" stroke-width="2"/>
      </g>
    </g>
  </g>
  <!-- <text id="Text" transform="translate(128 36)" fill="#fff" stroke="#000" stroke-width="2" font-size="42" font-family="Interstate-RegularComp, Interstate"><tspan x="29.43" y="38">Scout</tspan></text> -->
  <g id="binoculars-svgrepo-com" transform="translate(44.734 38.803)">
    <g id="Group_37" data-name="Group 37" transform="translate(0 2.697)">
      <path id="Path_109" data-name="Path 109" d="M10.637,17.441c-1.247-.311-2.59-.667-2.594-.668-.549-.156-2.206.761-3.489,2.457L2.26,18.658c-.349-.1-1.71.783-2.129,2.257S.4,23.9.742,24l2.179.695c.146,2.249,1.1,4.063,1.672,4.226.005,0,1,.278,2.416.733a11.444,11.444,0,0,1,.256-6.817A10.983,10.983,0,0,1,10.637,17.441Z" transform="translate(0 0.614)" fill="#006b77"/>
      <path id="Path_110" data-name="Path 110" d="M62.456,19.4c-.038-.013-19.629-5.1-31.056-8.186-2.331,1.815-4.075,4.443-5.225,8.842a28.318,28.318,0,0,0-.989,6.83c-1.5-.4-2.989-.792-4.424-1.175a26.7,26.7,0,0,1,1-7.088,18.212,18.212,0,0,1,5.08-8.8c-1.881-.508-3.9-1.089-3.907-1.092-.825-.256-3.322,1.242-5.252,4.009L14.229,11.8c-.524-.162-2.575,1.278-3.2,3.682s.4,4.868.917,5.031l3.283,1.136a16.545,16.545,0,0,0,.414,2.8c-2.277,1.814-3.983,4.427-5.115,8.756C9.008,39,9.47,43.188,10.328,44.554c11.376,3.94,30.52,10.574,30.558,10.582,2.066.64,5.067-3.9,6.7-10.14a31.545,31.545,0,0,0,.976-5.773c4.66,1.614,7.953,2.755,7.97,2.759,2.066.638,5.068-3.906,6.7-10.14S64.523,20.032,62.456,19.4ZM44.775,44.13c-1.241,4.727-3.483,8.171-5.014,7.7s-1.768-4.681-.53-9.407,3.483-8.171,5.013-7.7S46.011,39.408,44.775,44.13ZM60.421,30.978c-1.239,4.726-3.484,8.171-5.013,7.7s-1.768-4.681-.53-9.405,3.481-8.173,5.011-7.7S61.661,26.249,60.421,30.978Z" transform="translate(0 -8.697)" fill="#006b77"/>
    </g>
  </g>
</svg>
