<svg xmlns="http://www.w3.org/2000/svg" xmlns:xlink="http://www.w3.org/1999/xlink" width="437" height="226" viewBox="0 0 437 226">
  <defs>
    <clipPath id="clip-path">
      <rect id="Rectangle_102" data-name="Rectangle 102" width="437" height="226" transform="translate(0 478)" fill="#fff" stroke="#707070" stroke-width="1"/>
    </clipPath>
    <filter id="shadow" x="78" y="120" width="356" height="132" filterUnits="userSpaceOnUse">
      <feOffset dx="6" dy="12" input="SourceAlpha"/>
      <feGaussianBlur stdDeviation="6" result="blur"/>
      <feFlood flood-opacity="0.329"/>
      <feComposite operator="in" in2="blur"/>
      <feComposite in="SourceGraphic"/>
    </filter>
  </defs>
  <g id="Mask_Group_25" data-name="Mask Group 25" transform="translate(0 -478)" clip-path="url(#clip-path)">
    <g id="Season_Button_-_Main" data-name="Season Button - Main" transform="translate(-390.887 -75.119)">
      <g transform="matrix(1, 0, 0, 1, 390.89, 553.12)" filter="url(#shadow)">
        <path id="shadow-2" data-name="shadow" d="M10,0H310a10,10,0,0,1,10,10V86a10,10,0,0,1-10,10H10A10,10,0,0,1,0,86V10A10,10,0,0,1,10,0Z" transform="translate(90 126)" fill="#fff"/>
      </g>
      <g id="shape">
        <g id="Group_76" data-name="Group 76" transform="translate(0)">
          <g id="Layer_2" data-name="Layer 2" transform="translate(474.614 674.86)">
            <g id="logos">
              <path id="Path_4" data-name="Path 4" d="M14.8,409.289a12.685,12.685,0,0,1-7.425-2.678c-.243-.175-.482-.359-.955-.752-.166-.136-.33-.277-.72-.635C1.923,401.817-1.023,394.958.338,386.8L11.62,325.419c1.354-8.917,7.311-15.367,14.216-15.389H322.969c6.77.238,12.659,6.6,14.1,15.389L348.219,386.8c2.076,12.856-6.476,22.553-14.419,22.488H14.8" transform="translate(0 -310.03)" fill="#ea7200" stroke="#000" stroke-width="2"/>
            </g>
          </g>
          <path id="Path_5" data-name="Path 5" d="M641.412,671.022A41.62,41.62,0,0,1,623.44,666.1c-7.3-3.887-17.39-11.316-29.063-25.053l-23.2-34.5L532.3,546.983,506.509,508.37,469.751,449,441.974,404.74l-39.849-60.3-47.566-73.589-45.13-69.563-41.587-64.932L214.25,53.785,183.968,8.03s-11.34-22.736-35.144-5.27c-12.039,8.573-6.323,21.842-3.938,26.784,4.062,8.16,48.74,78.481,48.74,78.481l29.6,45.257,30.35,48.244,33.08,51.015,30.553,47.487,23.806,38.418,40.233,63.633,58.669,88.74,32.742,51.123,30.372,47.616,41.564,64.2,30.372,46.75,30.593,44.223,6.337,8.623,8.1,11.024" transform="translate(-141.425 3.838)" fill="#ea7200" stroke="#000" stroke-width="2"/>
        </g>
      </g>
      <text id="Text_" data-name="Text " transform="translate(626.887 694.119)" fill="#fff" stroke="#000" stroke-width="2" font-size="54" font-family="Helvetica"><tspan x="11.459" y="42">Seas</tspan></text>
      <text id="Subtext" transform="translate(466.887 781.119)" fill="#006b77" font-size="30" font-family="Helvetica"><tspan x="3.075" y="23">Play matches and win the </tspan><tspan x="77.276" y="59">championship!</tspan></text>
      <g id="Group_21" data-name="Group 21" transform="translate(-863.925 -313.881)">
        <g id="Layer_2-2" data-name="Layer 2" transform="translate(1410.42 1070)">
          <g id="logos-2" data-name="logos">
            <path id="Path_3" data-name="Path 3" d="M30.866,10c.745,0,1.534-.971,1.337-2.265L31.167,1.549C31.042.651,30.493,0,29.853,0H2.367C1.736.024,1.2.664,1.064,1.549L.033,7.735C-.158,9.029.631,10.006,1.365,10h29.5" transform="translate(-0.004)" fill="#231f20"/>
          </g>
        </g>
        <g id="Layer_2-3" data-name="Layer 2" transform="translate(1397.117 1000)">
          <g id="Layer_1" data-name="Layer 1" transform="translate(0 0)">
            <g id="Group_1" data-name="Group 1">
              <g id="Layer_2-4" data-name="Layer 2" transform="translate(41.277 58.564)">
                <g id="logos-3" data-name="logos">
                  <path id="Path_4-2" data-name="Path 4" d="M1.292,318.693A1.573,1.573,0,0,1,.029,316.73l.985-5.357a1.418,1.418,0,0,1,1.241-1.343H28.187a1.456,1.456,0,0,1,1.231,1.343l.973,5.357a1.578,1.578,0,0,1-1.258,1.963H1.292" transform="translate(0 -310.03)" fill="#006b77"/>
                </g>
              </g>
              <path id="Path_5-2" data-name="Path 5" d="M187.85,58.558s-1.576.036-3.825-2.611L182,52.937l-3.393-5.2-2.251-3.37-3.208-5.181-2.424-3.863-3.478-5.263L163.1,23.639l-3.939-6.071-3.63-5.667L150.85,4.694,148.207.7s.1-.508-1.182-.648a1.536,1.536,0,0,0-1.333.259l-.9.907a1.559,1.559,0,0,0,0,1.36c.354.712,4.254,6.849,4.254,6.849l2.584,3.95,2.649,4.211,2.887,4.452,2.667,4.144,2.078,3.353,3.511,5.554,5.12,7.745L173.4,47.3l2.651,4.156,3.628,5.6,2.651,4.08,2.6,3.95,1.406,1.7" transform="translate(-144.64 0)" fill="#006b77"/>
            </g>
          </g>
        </g>
        <g id="Layer_2-5" data-name="Layer 2" transform="translate(1383 1000)">
          <g id="Layer_1-2" data-name="Layer 1" transform="translate(0 0)">
            <g id="Group_1-2" data-name="Group 1">
              <g id="Layer_2-6" data-name="Layer 2" transform="translate(0 58.564)">
                <g id="logos-4" data-name="logos">
                  <path id="Path_4-3" data-name="Path 4" d="M29.127,318.693a1.573,1.573,0,0,0,1.262-1.963l-.985-5.357a1.419,1.419,0,0,0-1.241-1.343H2.231A1.456,1.456,0,0,0,1,311.373L.028,316.73a1.578,1.578,0,0,0,1.258,1.963H29.127" transform="translate(0 -310.03)" fill="#006b77"/>
                </g>
              </g>
              <path id="Path_5-3" data-name="Path 5" d="M144.64,58.558s1.576.036,3.824-2.611l2.025-3.011,3.393-5.2,2.251-3.37,3.208-5.181,2.424-3.863,3.478-5.263,4.151-6.423,3.939-6.071,3.63-5.667,4.677-7.206L184.283.7s-.1-.508,1.182-.648A1.536,1.536,0,0,1,186.8.312l.9.907a1.559,1.559,0,0,1,0,1.36c-.354.712-4.254,6.849-4.254,6.849l-2.584,3.95-2.649,4.211-2.887,4.452-2.667,4.144-2.078,3.353-3.511,5.554-5.12,7.745L159.087,47.3l-2.651,4.156-3.628,5.6-2.651,4.08-2.6,3.95-1.406,1.7" transform="translate(-116.155 0)" fill="#006b77"/>
            </g>
          </g>
        </g>
      </g>
    </g>
  </g>
</svg>
