<svg id="sign" xmlns="http://www.w3.org/2000/svg" xmlns:xlink="http://www.w3.org/1999/xlink" width="410" height="120" viewBox="0 0 410 120">
  <defs>
    <clipPath id="clip-path">
      <rect id="Rectangle_88" data-name="Rectangle 88" width="410" height="120" transform="translate(416.149 655.119)" fill="none" stroke="#707070" stroke-width="1"/>
    </clipPath>
  </defs>
  <g id="Mask_Group_20" data-name="Mask Group 20" transform="translate(-416.149 -655.119)" clip-path="url(#clip-path)">
    <g id="shape">
      <g id="Group_76" data-name="Group 76">
        <g id="Layer_2" data-name="Layer 2" transform="translate(475.057 675.487)">
          <g id="logos" transform="translate(0)">
            <path id="Path_4" data-name="Path 4" d="M14.816,409.381a12.7,12.7,0,0,1-7.432-2.68c-.243-.175-.483-.36-.956-.753-.166-.136-.33-.278-.721-.635-3.781-3.41-6.73-10.276-5.368-18.441l11.293-61.439c1.355-8.926,7.318-15.382,14.229-15.4h297.41c6.776.238,12.671,6.607,14.116,15.4l11.157,61.439c2.078,12.868-6.482,22.574-14.432,22.509H14.816" transform="translate(0 -310.03)" fill="#ea7200" stroke="#000" stroke-width="2"/>
          </g>
        </g>
        <path id="Path_5" data-name="Path 5" d="M641.878,671.65a41.659,41.659,0,0,1-17.989-4.927c-7.307-3.89-17.406-11.327-29.09-25.076l-23.218-34.532-38.916-59.619L506.85,508.847l-36.792-59.424-27.8-44.3-39.887-60.356-47.611-73.658-45.172-69.628-41.626-64.992L214.318,53.838l-30.31-45.8s-11.35-22.757-35.177-5.275c-12.05,8.581-6.329,21.862-3.942,26.809,4.065,8.167,48.785,78.554,48.785,78.554l29.633,45.3,30.378,48.289L286.8,252.779l30.581,47.531,23.829,38.453,40.27,63.693L440.2,491.278l32.772,51.17,30.4,47.661,41.6,64.256,30.4,46.794L606,745.422l6.343,8.631,8.108,11.034" transform="translate(-141.425 3.838)" fill="#ea7200" stroke="#000" stroke-width="2"/>
      </g>
    </g>
  </g>
  <text id="Text" transform="translate(239 40)" fill="#fff" stroke="#000" stroke-width="2" font-size="54" font-family="Interstate-RegularComp, Interstate"><tspan x="30.444" y="49">Sign</tspan></text>
  <g id="Group_44" data-name="Group 44" transform="translate(-746 -417)">
    <g id="Layer_2-2" data-name="Layer 2" transform="translate(852.76 443)">
      <g id="Layer_1" data-name="Layer 1">
        <g id="Layer_2-3" data-name="Layer 2">
          <g id="Layer_1-2" data-name="Layer 1-2">
            <g id="Group_38" data-name="Group 38">
              <path id="Path_111" data-name="Path 111" d="M61.464,69.523l-9.68-2.241a3.828,3.828,0,0,0-3.532,1h-.018a6.358,6.358,0,0,1-1.07-3.536V60.4a22.77,22.77,0,0,0,4.128-6.611c2.569,1.709,4.792-3.707,4.792-6.065a2.39,2.39,0,0,0-2.658-2.658c.075-.824.111-1.641.111-2.44,0-10.2-7.988-14.015-17.839-14.015S17.857,32.42,17.857,42.625c0,.806.036,1.631.111,2.462-1.623-.193-2.662.813-2.662,2.637,0,2.462,2.212,8.238,4.688,5.816A22.888,22.888,0,0,0,24.208,60.4v4.385a6.358,6.358,0,0,1-1.07,3.536h0a3.821,3.821,0,0,0-3.55-1l-9.758,2.3A12.741,12.741,0,0,0,0,82.028V93.581A3.818,3.818,0,0,0,3.814,97.4H67.533a3.821,3.821,0,0,0,3.825-3.818h0V81.943a12.741,12.741,0,0,0-9.895-12.42Z" transform="translate(0 -18.402)" fill="#d7bb91"/>
              <path id="Path_112" data-name="Path 112" d="M93.05,129.357a6.372,6.372,0,0,1-2.262-4.863V121.44H67.85c1.2,3.454,9.344,10.985,16.723,14.093A29.873,29.873,0,0,0,93.05,129.357Z" transform="translate(-43.642 -78.112)" fill="#c5a578"/>
              <path id="Path_113" data-name="Path 113" d="M48.234,137.84c-1.891,1.866-3.686,3.457-5.295,4.785a11.417,11.417,0,0,1-14.525,0c-1.606-1.324-3.4-2.911-5.284-4.774a3.821,3.821,0,0,0-3.55-1l-9.758,2.3A12.741,12.741,0,0,0,0,151.555v11.571a3.818,3.818,0,0,0,3.814,3.821H67.533a3.821,3.821,0,0,0,3.825-3.818h0V151.487a12.741,12.741,0,0,0-9.895-12.42l-9.679-2.24A3.832,3.832,0,0,0,48.234,137.84Z" transform="translate(0 -87.946)" fill="#006b77"/>
              <path id="Path_114" data-name="Path 114" d="M63.091,190.094a7.31,7.31,0,0,1-3.532-.885l-4.435-2.451a7.368,7.368,0,0,0-3.536-.888H19.766a7.353,7.353,0,0,0-3.532.888L11.8,189.209a7.35,7.35,0,0,1-3.543.885H0v5.28c0,1.752,1.709,3.168,3.821,3.168H67.533c2.112,0,3.825-1.427,3.825-3.168v-5.28Z" transform="translate(0 -119.554)" fill="#006b77"/>
              <path id="Path_115" data-name="Path 115" d="M80.969,45.045c.075-.824.111-1.641.111-2.44,0-10.2-7.988-14.015-17.839-14.015S45.4,32.4,45.4,42.6c0,.806.036,1.631.111,2.462-1.623-.193-2.662.813-2.662,2.637,0,2.462,2.212,8.238,4.688,5.816,2.683,6.6,7.9,12.024,15.7,12.024,7.7,0,12.884-5.284,15.6-11.774,2.569,1.709,4.792-3.707,4.792-6.065A2.38,2.38,0,0,0,80.969,45.045Z" transform="translate(-27.562 -18.389)" fill="#d1ba96"/>
              <path id="Path_116" data-name="Path 116" d="M65.543,89.765C52.5,89.765,46.43,74.559,46.43,64.28h2.547c0,9.252,5.266,22.938,16.566,22.938S82.109,73.532,82.109,64.28h2.547C84.656,74.559,78.58,89.765,65.543,89.765Z" transform="translate(-29.864 -41.346)" fill="#231f20"/>
              <path id="Path_117" data-name="Path 117" d="M74.513,1.581a1.142,1.142,0,0,0-.6-.153H72.208a1.206,1.206,0,0,0-.9.417h0a1.185,1.185,0,0,1-1.67.114,1.149,1.149,0,0,1-.114-.114l-.9-1A2.426,2.426,0,0,0,66.789,0H63.8a2.426,2.426,0,0,0-1.784.828l-.9,1a1.185,1.185,0,0,1-1.67.114,1.149,1.149,0,0,1-.114-.114h0a1.22,1.22,0,0,0-.9-.4H56.727a1.131,1.131,0,0,0-.6.168c-1.406.831-7.657,4.881-10.061,11.146H84.6C82.166,6.476,75.915,2.426,74.513,1.581Z" transform="translate(-29.633)" fill="#231f20"/>
              <path id="Path_118" data-name="Path 118" d="M42.85,60.71l.963,6.733a2.547,2.547,0,0,0,2.522,2.187h1.613V60.71Z" transform="translate(-27.562 -39.049)" fill="#231f20"/>
              <path id="Path_119" data-name="Path 119" d="M147.949,60.71l-.963,6.733a2.54,2.54,0,0,1-2.523,2.187H142.85V60.71Z" transform="translate(-91.883 -39.049)" fill="#231f20"/>
              <path id="Path_120" data-name="Path 120" d="M80.5,35.71H41.969A1.277,1.277,0,0,0,40.7,36.827l-.96,7.646a1.281,1.281,0,0,0,1.12,1.427H81.455a1.274,1.274,0,0,0,1.274-1.274,1.068,1.068,0,0,0,0-.153l-.956-7.646A1.27,1.27,0,0,0,80.5,35.71Z" transform="translate(-25.557 -22.969)" fill="#231f20"/>
              <path id="Path_121" data-name="Path 121" d="M83.176,74.473H57.1a2.54,2.54,0,0,1-2.53-2.23l-1-7.964H86.7l-1,7.964A2.551,2.551,0,0,1,83.176,74.473Z" transform="translate(-34.457 -41.346)" fill="#d1ba96"/>
              <path id="Path_122" data-name="Path 122" d="M66.592,154.274l18.553-16.865-2.448-.582a3.828,3.828,0,0,0-3.532,1c-1.891,1.866-3.686,3.457-5.295,4.785a11.417,11.417,0,0,1-14.525,0c-1.606-1.324-3.4-2.911-5.284-4.774a3.821,3.821,0,0,0-3.55-1l-2.451.582Z" transform="translate(-30.913 -87.947)" fill="#fff"/>
              <path id="Path_123" data-name="Path 123" d="M81.76,154.85l6.508,5.912,6.5-5.912A11.417,11.417,0,0,1,81.76,154.85Z" transform="translate(-52.589 -99.601)" fill="#006472"/>
            </g>
            <g id="Group_40" data-name="Group 40" transform="translate(61.285 15.608)">
              <path id="Path_124" data-name="Path 124" d="M274.63,133.355l.764.764.767-.764V120.9H274.63Z" transform="translate(-237.931 -93.373)" fill="#006b77"/>
              <rect id="Rectangle_32" data-name="Rectangle 32" width="1.531" height="12.234" transform="translate(36.699 13.762)" fill="#006b77"/>
              <path id="Path_125" data-name="Path 125" d="M209.372,53.193V84.4A2.294,2.294,0,0,0,210.9,82.26V50.149a2.118,2.118,0,0,0-2.294-2.069H187.2c-1,0-1.837,0-2.141,1.527h20.5A3.62,3.62,0,0,1,209.372,53.193Z" transform="translate(-180.318 -46.534)" fill="#fff"/>
              <circle id="Ellipse_4" data-name="Ellipse 4" cx="2.294" cy="2.294" r="2.294" transform="translate(12.234 7.422)" fill="#ea7200"/>
              <path id="Path_126" data-name="Path 126" d="M202.056,58.864a2.294,2.294,0,0,0-2.294-2.294H178.354a2.294,2.294,0,0,0-2.294,2.294V90.975a2.294,2.294,0,0,0,2.294,2.294h21.407a2.294,2.294,0,0,0,2.294-2.294ZM199,88.681h-6.119V87.15H199Zm0-4.588H182.175V82.566H199Zm0-3.058H182.175V79.522H199Zm0-3.058H182.175V76.447H199Zm0-3.058H182.175V73.389H199Zm-9.94-17.029a3.825,3.825,0,1,1-3.825,3.828,3.825,3.825,0,0,1,3.825-3.828Zm-9.94,9.4H199v1.531h-19.88Zm0,3.058H199v1.531h-19.88Zm0,2.836h1.531v1.527h-1.531Zm0,3.058h1.531v1.534h-1.531Zm0,3.058h1.531v1.531h-1.531Zm0,3.058h1.531v1.531h-1.531Zm0,4.81h6.115V88.7h-6.115Z" transform="translate(-174.529 -51.995)" fill="#f2f996"/>
              <g id="Group_39" data-name="Group 39">
                <path id="Path_127" data-name="Path 127" d="M200.06,43.748H178.652a3.728,3.728,0,0,0-3.753,3.018,3.707,3.707,0,0,0-3.129,3.639V82.516a4.025,4.025,0,0,0,3.825,4.046H197a3.925,3.925,0,0,0,3.75-3.24,3.942,3.942,0,0,0,3.125-3.864V47.348A3.629,3.629,0,0,0,200.06,43.748ZM199.3,82.727A2.294,2.294,0,0,1,197,85.021H175.595a2.294,2.294,0,0,1-2.294-2.294V50.616a2.294,2.294,0,0,1,2.294-2.294H197a2.294,2.294,0,0,1,2.294,2.294Zm3.058-3.282a2.294,2.294,0,0,1-1.531,2.141V50.406a3.643,3.643,0,0,0-3.821-3.6H176.49c.314-1.527,1.156-1.527,2.141-1.527h21.407a2.118,2.118,0,0,1,2.294,2.069Z" transform="translate(-171.77 -43.747)"/>
                <path id="Path_128" data-name="Path 128" d="M205.595,67.91a3.825,3.825,0,1,0-3.825-3.818A3.825,3.825,0,0,0,205.595,67.91Zm0-6.115a2.294,2.294,0,1,1-2.294,2.3A2.294,2.294,0,0,1,205.595,61.794Z" transform="translate(-191.066 -54.368)"/>
                <rect id="Rectangle_33" data-name="Rectangle 33" width="19.877" height="1.531" transform="translate(4.588 15.293)"/>
                <rect id="Rectangle_34" data-name="Rectangle 34" width="19.877" height="1.531" transform="translate(4.588 18.351)"/>
                <rect id="Rectangle_35" data-name="Rectangle 35" width="16.819" height="1.531" transform="translate(7.646 21.408)"/>
                <rect id="Rectangle_36" data-name="Rectangle 36" width="16.819" height="1.531" transform="translate(7.646 24.466)"/>
                <rect id="Rectangle_37" data-name="Rectangle 37" width="16.819" height="1.531" transform="translate(7.646 27.527)"/>
                <rect id="Rectangle_38" data-name="Rectangle 38" width="16.819" height="1.531" transform="translate(7.646 30.585)"/>
                <rect id="Rectangle_39" data-name="Rectangle 39" width="6.115" height="1.531" transform="translate(4.588 35.17)"/>
                <rect id="Rectangle_40" data-name="Rectangle 40" width="6.115" height="1.531" transform="translate(18.35 35.17)"/>
                <rect id="Rectangle_41" data-name="Rectangle 41" width="1.531" height="1.531" transform="translate(4.588 21.187)"/>
                <rect id="Rectangle_42" data-name="Rectangle 42" width="1.531" height="1.531" transform="translate(4.588 24.245)"/>
                <rect id="Rectangle_43" data-name="Rectangle 43" width="1.531" height="1.531" transform="translate(4.588 27.303)"/>
                <rect id="Rectangle_44" data-name="Rectangle 44" width="1.531" height="1.531" transform="translate(4.588 30.36)"/>
                <path id="Path_129" data-name="Path 129" d="M277.992,87.755V81.64a2.115,2.115,0,0,0-2.291-2.073h-.767v-.985c0-.425-.357-.542-.764-.542h-3.058c-.421,0-.764.118-.764.542V106.1a.759.759,0,0,0,.221.539l1.531,1.531a.764.764,0,0,0,1.07,0l1.527-1.531a.746.746,0,0,0,.225-.539V81.1h.767c.421,0,.764.118.764.542v5.933l-.685,1.37a.771.771,0,0,0,0,.685l.685,1.367v2.337h1.527V90.813a.764.764,0,0,0-.079-.357l-.6-1.185.6-1.188a.764.764,0,0,0,.089-.328Zm-4.585-8.206V91.783h-1.531V79.567Zm-.767,27.02-.764-.764V93.332h1.531v12.455Z" transform="translate(-235.178 -65.805)" fill="#006b77"/>
              </g>
            </g>
          </g>
        </g>
      </g>
    </g>
    <g id="Group_42" data-name="Group 42" transform="translate(834 465)">
      <g id="Group_41" data-name="Group 41">
        <g id="Path_131" data-name="Path 131" transform="translate(0 10)" fill="#f2f996">
          <path d="M 27 7.5 L 3 7.5 C 1.621500015258789 7.5 0.5 6.378499984741211 0.5 5 L 0.5 3 C 0.5 1.621500015258789 1.621500015258789 0.5 3 0.5 L 27 0.5 C 28.37849998474121 0.5 29.5 1.621500015258789 29.5 3 L 29.5 5 C 29.5 6.378499984741211 28.37849998474121 7.5 27 7.5 Z" stroke="none"/>
          <path d="M 3 1 C 1.897199630737305 1 1 1.897200107574463 1 3 L 1 5 C 1 6.102799892425537 1.897199630737305 7 3 7 L 27 7 C 28.1028003692627 7 29 6.102799892425537 29 5 L 29 3 C 29 1.897200107574463 28.1028003692627 1 27 1 L 3 1 M 3 0 L 27 0 C 28.65685081481934 0 30 1.34315013885498 30 3 L 30 5 C 30 6.65684986114502 28.65685081481934 8 27 8 L 3 8 C 1.3431396484375 8 0 6.65684986114502 0 5 L 0 3 C 0 1.34315013885498 1.3431396484375 0 3 0 Z" stroke="none" fill="#707070"/>
        </g>
        <g id="Path_130" data-name="Path 130" transform="translate(19) rotate(90)" fill="#f2f996">
          <path d="M 27 7.5 L 3 7.5 C 1.621500015258789 7.5 0.5 6.378499984741211 0.5 5 L 0.5 3 C 0.5 1.621500015258789 1.621500015258789 0.5 3 0.5 L 27 0.5 C 28.37849998474121 0.5 29.5 1.621500015258789 29.5 3 L 29.5 5 C 29.5 6.378499984741211 28.37849998474121 7.5 27 7.5 Z" stroke="none"/>
          <path d="M 3 1 C 1.897199630737305 1 1 1.897200107574463 1 3 L 1 5 C 1 6.102799892425537 1.897199630737305 7 3 7 L 27 7 C 28.1028003692627 7 29 6.102799892425537 29 5 L 29 3 C 29 1.897200107574463 28.1028003692627 1 27 1 L 3 1 M 3 0 L 27 0 C 28.65685081481934 0 30 1.34315013885498 30 3 L 30 5 C 30 6.65684986114502 28.65685081481934 8 27 8 L 3 8 C 1.3431396484375 8 0 6.65684986114502 0 5 L 0 3 C 0 1.34315013885498 1.3431396484375 0 3 0 Z" stroke="none" fill="#707070"/>
        </g>
      </g>
      <rect id="Rectangle_45" data-name="Rectangle 45" width="8" height="6" transform="translate(11 11)" fill="#f2f996"/>
    </g>
  </g>
</svg>
