<svg id="Layer_2" data-name="Layer 2" xmlns="http://www.w3.org/2000/svg" width="77.242" height="64" viewBox="0 0 77.242 64">
  <g id="Layer_1" data-name="Layer 1">
    <g id="Group_602" data-name="Group 602">
      <g id="Group_586" data-name="Group 586">
        <path id="Path_1926" data-name="Path 1926" d="M50.134,10.467c-4.322.9-6.753,1.35-7.746,1.524.242-.866,2.724-8.837,3.455-11.046A19.086,19.086,0,0,0,39.942,0a42.8,42.8,0,0,0-8.59,1A34.559,34.559,0,0,0,17.325,6.926,22.73,22.73,0,0,0,9.206,18.732c-.968,3.221-.921,5.957.136,8.131S12.5,30.676,15.548,31.7l4.158,1.442.373.125a13.846,13.846,0,0,1,1.8.681,3.3,3.3,0,0,1-.113.475c-.361,1.2-1.423,2.92-6.465,3.971a13.174,13.174,0,0,1-2.646.306,4.239,4.239,0,0,1-4.4-2.724L5.728,30.935c-.892,3.082-2.665,9.19-3.424,11.712C1.727,44.571.656,47.936,0,50a20.19,20.19,0,0,0,5.7.885,46.789,46.789,0,0,0,9.341-1.109A37.247,37.247,0,0,0,29.08,44.168a23.779,23.779,0,0,0,5.323-5.11L32.748,44.57c-1.815,6.042-2.965,9.584-5.454,12.109-.881.895-6.027,4.98-9.078,7.321,2.5-.293,6.823-.85,10.895-1.634C35.606,61.113,40.9,58.613,44,55.325c2.828-3,3.983-6.326,5.2-10.37l3.424-11.392c5.243-17.45,5.69-18.04,7.354-20.233l4.78-6.237C61.655,7.847,54.473,9.563,50.134,10.467ZM38.787,24.24a7.634,7.634,0,0,0-.7-1.8c-1.133-2.078-3.143-3.541-6.327-4.587-2.073-.673-4.8-1.6-6.158-2.093.3-1.065.961-2.513,5.56-3.455a11.458,11.458,0,0,1,2.286-.245,6.711,6.711,0,0,1,5.277,2.188C40.49,16.187,40.889,16.666,38.787,24.24Z" fill="#010101"/>
        <g id="Group_583" data-name="Group 583" transform="translate(2.21 1.802)">
          <path id="Path_1927" data-name="Path 1927" d="M50.579,42.23c.963-3.207.953-5.658-.053-7.49-.9-1.652-2.587-2.839-5.311-3.738l-3.748-1.243-.458-.147c-2.758-.882-3.6-1.252-3.038-3.132.426-1.42,1.6-3.435,6.855-4.51a13.238,13.238,0,0,1,2.647-.282A8.858,8.858,0,0,1,53.7,24.046l.532.494.191-.7c.249-.921.681-2.451,1.288-4.486,1.114-3.7,1.693-5.255,1.7-5.27l.172-.455-.47-.125a13.591,13.591,0,0,0-3.151-.272,41.076,41.076,0,0,0-8.223.966A32.907,32.907,0,0,0,32.43,19.789a21,21,0,0,0-7.49,10.895c-1.672,5.567-.015,8.988,5.212,10.758l4.159,1.43.357.12c2.608.867,3.478,1.276,2.843,3.388-.784,2.611-3.268,4.268-7.824,5.217a14.922,14.922,0,0,1-3.014.345,6,6,0,0,1-6.022-3.74l-.527-1.094-.3,1.181c0,.023-.591,2.352-1.78,6.309-1.08,3.594-1.634,5.078-1.645,5.093l-.174.459.475.123a13.5,13.5,0,0,0,3.016.248h0a44.959,44.959,0,0,0,8.973-1.07,35.537,35.537,0,0,0,13.37-5.325A21.876,21.876,0,0,0,50.579,42.23Z" transform="translate(-16.23 -13.23)" fill="#fff"/>
          <path id="Path_1928" data-name="Path 1928" d="M48.758,34.233l-3.744-1.242c-2.86-.923-4.539-1.3-3.782-3.813.648-2.158,2.552-3.865,7.188-4.814,4.973-1.019,7.824.851,9.26,2.179.272-1.005.7-2.513,1.292-4.494,1.134-3.776,1.709-5.3,1.709-5.3s-3.437-.912-11.167.7c-10.456,2.179-17.742,7.126-20.463,16.178-1.8,5.992.618,8.751,4.935,10.214l4.148,1.433c2.587.867,4.309,1.294,3.481,4.051-.9,3-3.824,4.618-8.155,5.521-6.187,1.29-8.344-1.183-9.522-3.635,0,0-.579,2.315-1.785,6.328-1.1,3.658-1.655,5.122-1.655,5.122s3.5.9,11.789-.827c9.653-2.013,18.385-6.361,21.552-16.912C55.774,38.505,53.565,35.818,48.758,34.233Z" transform="translate(-19.918 -16.046)" fill="#00788a"/>
          <g id="Group_582" data-name="Group 582" transform="translate(14.992 10.264)">
            <path id="Path_1929" data-name="Path 1929" d="M155.3,105.335a6.831,6.831,0,0,0-.7-.475,38.1,38.1,0,0,0-5.363-2.35,13.522,13.522,0,0,0-6.4-3.628,5.188,5.188,0,0,0-1.664-.05c2.3,1.272,2.519,1.87,2.645,2.487-.782-.075-1.433-.1-1.956-.112-.3-.01-.6-.015-.9-.02s-.553-.011-.817-.019c-.473-.014-1.089-.038-1.724-.108a12.022,12.022,0,0,1-1.309-.219,14.934,14.934,0,0,1-7.5-5.159,13.913,13.913,0,0,1-2.574-7.081,9.252,9.252,0,0,0-.716,3.379,6.71,6.71,0,0,0,.607,3.233l-.112.674c-.173,1.061.389,2.066,1.674,2.988l.069.282a2.738,2.738,0,0,0,2.244,1.991l.177.222a4.352,4.352,0,0,0,1.634,1.162,12.814,12.814,0,0,1,1.395.817.884.884,0,0,1,.208.681c0,.512-.242,1.975-2.3,3.324a12.177,12.177,0,0,0,7.523-2.848l.071-.052c.18-.136.351-.257.517-.375a.779.779,0,0,1,.545,1.065,6.945,6.945,0,0,0,1.536.261,2.43,2.43,0,0,0,1.788-.485l.118.039a13.188,13.188,0,0,1,3.677,1.761c.316.218.554.429.67.519a70.7,70.7,0,0,1,6.91-1.77l.157-.03Z" transform="translate(-126.316 -88.6)" fill="#fff"/>
            <g id="Group_581" data-name="Group 581" transform="translate(0.363 1.524)">
              <path id="Path_1930" data-name="Path 1930" d="M180.869,184.553l-2.771-.193c.313.294-1.121,2.054-1.114,2.35a2.23,2.23,0,0,1-.037.49,3.506,3.506,0,0,0,.983-.373,2.371,2.371,0,0,1-1.053.6c-.044.128-.1.257-.153.387a9.214,9.214,0,0,0,1.942-.681,6.256,6.256,0,0,1-2.126,1.053c-.069.127-.144.252-.226.376a11.439,11.439,0,0,0,3.139-1.061,7.776,7.776,0,0,1-3.484,1.529,4.584,4.584,0,0,1-.64.64c3.443-.409,5.457-2.228,6.982-3.283,1.4.362,1,1.241,1,1.241,2.062.34,2.451-.1,2.85-.409a13.809,13.809,0,0,1,4.617,2.315c.372-.1.586-.2,1.257-.38C192.26,189.092,194.521,187.026,180.869,184.553Z" transform="translate(-169.018 -172.843)" fill="#a7b1b7"/>
              <path id="Path_1931" data-name="Path 1931" d="M152.22,116.143a46.927,46.927,0,0,1,4.589-1.246c-9.669-5.08-13.067-3.021-17.484-4.028a14.763,14.763,0,0,1-7.723-5.311,13.086,13.086,0,0,1-2.391-5.767,14.718,14.718,0,0,0-.229,2.062c-.049,1.958.511,3.877,3.6,6.218a8.551,8.551,0,0,1-3.1-2.458c-.361,2.209,3.132,3.692,5.626,4.587a9.19,9.19,0,0,1-3.889-1.468c.43,1.72,2.285,1.882,4.444,2.021a8.891,8.891,0,0,1-2.093.05c.724.908,1.747,1,2.959,1.907a1.258,1.258,0,0,1,.409.942c1.226-1.153,3.591-.731,4.766-.681a12.493,12.493,0,0,0-3.594-.9,27.343,27.343,0,0,1,12.846,3.277C151.254,115.526,151.937,115.96,152.22,116.143Z" transform="translate(-128.979 -99.79)" fill="#010101"/>
              <path id="Path_1932" data-name="Path 1932" d="M245.943,168.795c.158-.321.078-1.527-1.833-2.555,1.207,0,4.126,1.788,6.492,3.629-.462-.067-.861-.425-1.362-.35a1.263,1.263,0,0,1-.9-.272,1.122,1.122,0,0,0-.885-.211.727.727,0,0,1-.545-.1.632.632,0,0,0-.44-.068C246.318,168.931,246.113,168.817,245.943,168.795Z" transform="translate(-228.431 -157.191)" fill="#a7b1b7"/>
              <path id="Path_1933" data-name="Path 1933" d="M243.29,166a15.57,15.57,0,0,1,6.74,4.986,1.113,1.113,0,0,0,1.114-.193C248.686,167.934,244.916,166.037,243.29,166Z" transform="translate(-227.723 -156.983)" fill="#010101"/>
              <path id="Path_1934" data-name="Path 1934" d="M252.92,172.62a2.789,2.789,0,0,1,.272.319,15.287,15.287,0,0,1,2.788,2.62c.417.17.848.34,1.261.492A16.454,16.454,0,0,0,252.92,172.62Z" transform="translate(-236.042 -162.702)" fill="#010101"/>
              <path id="Path_1935" data-name="Path 1935" d="M257.69,180.67a2.261,2.261,0,0,1,.035.23,11.306,11.306,0,0,1,1.079,1.058c.246.109.522.229.817.351A12.571,12.571,0,0,0,257.69,180.67Z" transform="translate(-240.162 -169.656)" fill="#010101"/>
              <path id="Path_1936" data-name="Path 1936" d="M229.823,199.88a5.615,5.615,0,0,1-1.708.11,3.87,3.87,0,0,0,1.253-.332,13.292,13.292,0,0,0-2.758-.428c1.226.409,1,1.241,1,1.241C229.407,200.532,229.719,199.979,229.823,199.88Z" transform="translate(-213.314 -185.688)" fill="#010101"/>
            </g>
          </g>
          <path id="Path_1937" data-name="Path 1937" d="M208.977,73.97c-.026,0-2.2.572-8.491,1.882-5.978,1.246-8.336,1.626-8.359,1.634l-.486.078.4,1.431c.531,1.947.641,2.353-4.518,19.523l-3.063,10.193c-1.9,6.315-3.121,10.042-5.9,12.857a34.269,34.269,0,0,1-4.932,3.64l5.105-.987c6.618-1.38,11.048-3.449,13.944-6.514,2.558-2.707,3.637-5.838,4.783-9.651l3.422-11.392c5.344-17.764,5.826-18.408,7.644-20.806l1.679-2.209Z" transform="translate(-152.195 -65.422)" fill="#fff"/>
        </g>
        <path id="Path_1938" data-name="Path 1938" d="M220.414,80.264c-1.923,2.536-2.357,3.021-7.762,21.006l-3.422,11.393c-2.126,7.073-4.222,12.906-18.4,15.86l-3.094.644c5.447-3.268,6.824-7.267,9.327-15.6l3.064-10.193c5.242-17.446,5.084-17.694,4.5-19.821l-.246-.9s2.315-.37,8.379-1.634c6.368-1.332,8.507-1.889,8.507-1.889Z" transform="translate(-162.173 -68.354)" fill="#00788a"/>
        <g id="Group_585" data-name="Group 585" transform="translate(3.692 2.896)" opacity="0.25">
          <g id="Group_584" data-name="Group 584">
            <path id="Path_1939" data-name="Path 1939" d="M182.158,136.793l4.2,1.388a13.854,13.854,0,0,1,2.291.964,11.029,11.029,0,0,0-3.3-1.612l-4.2-1.388A17.8,17.8,0,0,1,179,135.36,8.838,8.838,0,0,0,182.158,136.793Z" transform="translate(-158.315 -119.822)" fill="#fff"/>
            <path id="Path_1940" data-name="Path 1940" d="M87.322,46.489c-2.25-1.728-2.748-4.3-1.634-8.021,2.481-8.251,9.387-13.679,20.25-15.943a63.142,63.142,0,0,1,8.8-1.132,31.7,31.7,0,0,0-10.229.806c-10.863,2.265-17.348,7.374-19.827,15.62C83.413,42.037,84.23,44.788,87.322,46.489Z" transform="translate(-76.347 -21.264)" fill="#fff"/>
            <path id="Path_1941" data-name="Path 1941" d="M72.086,244.221c5-1.042,7.874-3.03,8.791-6.081.673-2.239-.17-3.229-1.565-3.9.735.666,1.046,1.634.558,3.252-.917,3.05-3.791,5.039-8.791,6.081-3.3.688-5.53.336-7.09-.474C65.548,244.335,68,245.072,72.086,244.221Z" transform="translate(-58.968 -205.237)" fill="#fff"/>
            <path id="Path_1942" data-name="Path 1942" d="M30.772,285.87a6.83,6.83,0,0,1-.9-1.02c-.3,1.089-.737,2.636-1.32,4.576-.7,2.326-1.178,3.764-1.438,4.517C27.4,293.977,29.752,289.4,30.772,285.87Z" transform="translate(-27.11 -248.954)" fill="#fff"/>
          </g>
          <path id="Path_1943" data-name="Path 1943" d="M216.474,120.768l3.063-10.193c5.246-17.459,5.137-17.86,4.529-20.09L224,90.263c1.156-.207,3.162-.577,7.173-1.414,2.179-.453,5.967-1.856,6.243-2.22-1.314.3-3.5.791-6.892,1.5-4.011.836-6.373,1.28-7.531,1.487l.063.222c.606,2.229.716,2.631-4.529,20.09l-3.063,10.193c-2.12,7.056-3.5,11.152-7.218,14.3C208.247,134.422,212.71,133.189,216.474,120.768Z" transform="translate(-183.582 -77.728)" fill="#fff"/>
        </g>
      </g>
      <g id="Group_601" data-name="Group 601" transform="translate(25.982 0.065)">
        <g id="Group_589" data-name="Group 589" transform="translate(32.106 38.764)">
          <g id="Group_587" data-name="Group 587">
            <path id="Path_1944" data-name="Path 1944" d="M434.451,301.489a8.821,8.821,0,0,0-2.7-1.476.519.519,0,0,0-.136-.023.5.5,0,0,0-.466.3c-.136.287-.112.833.754,1.81a6.241,6.241,0,0,0,2.262,1.352,18.368,18.368,0,0,0,4.237,1.257l-1.077-.9C437.31,303.8,435.817,302.554,434.451,301.489Z" transform="translate(-430.468 -297.966)" fill="#fff"/>
            <path id="Path_1945" data-name="Path 1945" d="M439.825,288.2l-1.226-.8a15.91,15.91,0,0,0-8.084-2.257,14.992,14.992,0,0,0-1.77.038h-.019c-.02,0-.482.074-.953.167-.771.155-1.243.272-1.226.681s.535.453,1.034.479a9.714,9.714,0,0,1,3.813.9,20.056,20.056,0,0,0,3.9,1.194,2.032,2.032,0,0,0,.857-.253,3.5,3.5,0,0,1-.768-.545c.15-.01.351-.015.622-.007C436.569,287.822,438.633,288.036,439.825,288.2Z" transform="translate(-426.546 -285.132)" fill="#fff"/>
          </g>
          <g id="Group_588" data-name="Group 588" transform="translate(0.363 0.371)">
            <path id="Path_1946" data-name="Path 1946" d="M434.007,302.738a8.53,8.53,0,0,1,2.587,1.414c1.382,1.07,2.86,2.315,2.86,2.315s-.689-.2-1.563-.513c-.384-.136-1.269-1.1-1.216-.471a6.566,6.566,0,0,1-2.129-1.257C433.567,303.117,433.8,302.669,434.007,302.738Z" transform="translate(-433.197 -300.706)" fill="#010101"/>
            <path id="Path_1947" data-name="Path 1947" d="M445.949,313.8c.409.167.831.335,1.215.473-.49-.381-1.456-1.117-2.6-1.907A3.789,3.789,0,0,0,445.949,313.8Z" transform="translate(-442.47 -309.032)" fill="#a7b1b7"/>
            <path id="Path_1948" data-name="Path 1948" d="M431.14,287.905s5.447-.545,9.616,2.161c-1.779-.343-3.5-.357-3.627-.1s.613.625.613.625-.242.163-3.851-1.166a10.1,10.1,0,0,0-3.927-.923C427.912,288.4,431.14,287.905,431.14,287.905Z" transform="translate(-429.271 -287.86)" fill="#a7b1b7"/>
            <path id="Path_1949" data-name="Path 1949" d="M437.069,290.2c.041-.08.24-.136.545-.158a11.167,11.167,0,0,0-2.638-1.347,14.492,14.492,0,0,0-3.813-.56l-.093.007s-3.227.492-1.177.594a10.1,10.1,0,0,1,3.927.923c3.609,1.329,3.851,1.166,3.851,1.166S436.945,290.456,437.069,290.2Z" transform="translate(-429.211 -288.102)" fill="#010101"/>
          </g>
        </g>
        <g id="Group_596" data-name="Group 596" transform="translate(21.089)">
          <path id="Path_1950" data-name="Path 1950" d="M374.073,31.056c.421-.614,1.709-2.587,1.743-3.677a3.108,3.108,0,0,0-.251-1.532,2.027,2.027,0,0,0,.1-1.17,11.587,11.587,0,0,1-.3-1.153l-.041-.188-.184-.074a4.263,4.263,0,0,0-.388-1.923,8.051,8.051,0,0,0-1.38-1.738l.388-.934,1-2.344a9.815,9.815,0,0,0,.136-7.43A32.953,32.953,0,0,0,372,3.84c-.592-.874-1.149-1.634-1.61-2.188-.678-.828-1.061-1.122-1.456-1.134L367.724.48l-2.071,6.6,3.813,5.532a8.071,8.071,0,0,1,.817,5.664,4.177,4.177,0,0,0-1.761-1.118h-.059a2.238,2.238,0,0,0-1.642,1.813c-.091.8-.1,1.068.289,1.407a.688.688,0,0,1,.136.159,2.089,2.089,0,0,0-.392,1.117,2.5,2.5,0,0,0-1.6,1.8,2.51,2.51,0,0,0-1.211,1.182c-.607,1.081-.6,1.833-.381,2.179.075.118.253.464.4.754a2.552,2.552,0,0,0,.482,1.751,2.755,2.755,0,0,0-.874,1.38,2.5,2.5,0,0,0-.855,1.667,17.214,17.214,0,0,1-4.246,2.461l-.449.18a8.444,8.444,0,0,0-1.061.482l-.016.01-.01.016a2.63,2.63,0,0,0-.08.513c-.037.272-.086.646-.1.7l-.019.054.049.03.067.044a8.083,8.083,0,0,0,3.177,1.159,4.162,4.162,0,0,0,.568.052,8.611,8.611,0,0,0,2.133-.226l-3.531,8.469a1.358,1.358,0,0,0-.764-.366H358.5c-.106,0-.306.008-.527.025-.933.053-1.141.256-1.186.328-.1.127-.35.464-.545.744a1.647,1.647,0,0,0-.391-.063.932.932,0,0,0-.44.086c-.207.037-.444.075-.545.09a1.65,1.65,0,0,0-.212.064c-.123.039-.272.089-.395.121a4.168,4.168,0,0,0-.953-.136,2.823,2.823,0,0,0-2.1.745.136.136,0,0,1-.1.023,8.212,8.212,0,0,1-2.567-1.478l-.069-.05a6.627,6.627,0,0,1-1.3-1.024.045.045,0,0,1,0,.035.057.057,0,0,1-.033.031l-.025-.067h0l-.026-.067a2.137,2.137,0,0,0-1.373,1.1,1.287,1.287,0,0,0,.151,1.089,37.657,37.657,0,0,0,2.346,3.962,2.529,2.529,0,0,0,.079,2.341c.039.061.086.15.143.259.388.749,1.2,2.307,4.208,2.394h.059a2.982,2.982,0,0,0,1.5.817l-.485,1.028-.7.1-.926,2.043,1.3,2.545,2.779-.744.745-1.84-.409-.749,1.089-2.7a2.187,2.187,0,0,0,.338-.177,5.616,5.616,0,0,0,2.179-.545c.737-.38,1.957-1.175,1.922-2.246.1-.086.232-.2.339-.316.038-.039.1-.094.163-.151a1.613,1.613,0,0,0,.6-.817,1.753,1.753,0,0,0-.074-.714c-.015-.059-.052-.211-.052-.238.022-.146.029-.505.031-.8.294-.181.64-.448.7-.734a2.6,2.6,0,0,0-.1-1.468c-.042-.068-.094-.169-.148-.272a3.429,3.429,0,0,0-.456-.731l-.012-.012a1.238,1.238,0,0,0-.118-.112,6.909,6.909,0,0,0-1.04-.641l4.047-9.775h0a.738.738,0,0,0,.191.2,3.559,3.559,0,0,0,1.625.418h0a3.338,3.338,0,0,0,1.509-.3c1.52-.7,2.2-1.032,2.342-1.486.022-.067.05-.168.086-.283.067-.225.242-.81.321-.975l.114-.086.025-.019a6.41,6.41,0,0,0,.931-.768,8.9,8.9,0,0,0,.527-1.053c.591-.961.572-1.168.562-1.257Z" transform="translate(-345.648 -0.48)" fill="#fff"/>
          <path id="Path_1951" data-name="Path 1951" d="M499.9,21.164l-1,2.4c.865.193,1.739.347,2.6.545l1.345-3.236,1-2.346a9.457,9.457,0,0,0,.136-7.147,33.033,33.033,0,0,0-2.86-4.987c-.587-.865-1.136-1.612-1.589-2.161-.681-.827-.97-1-1.193-1.006l-.938-.029L495.47,9.369l3.71,5.379A8.134,8.134,0,0,1,499.9,21.164Z" transform="translate(-475.067 -2.83)" fill="#010101"/>
          <path id="Path_1952" data-name="Path 1952" d="M520.289,13.6c-1.039-2.552-4.728-7.943-5.368-7.963l-.251-.008a6.335,6.335,0,0,1,.666.718c.443.535.978,1.265,1.55,2.109a35.687,35.687,0,0,1,2.848,4.9,11.711,11.711,0,0,1,.985,4.942A9.587,9.587,0,0,0,520.289,13.6Z" transform="translate(-491.652 -4.929)" fill="#f3901d"/>
          <path id="Path_1953" data-name="Path 1953" d="M502.373,24.049,501.4,26.4c.379.082,1,1.2,1.375,1.275l2.349-5.879a10.885,10.885,0,0,0-.055-7.528c-1.039-2.551-4.645-7.847-5.285-7.867L498,12.082l3.622,5.259A8.51,8.51,0,0,1,502.373,24.049Z" transform="translate(-477.252 -5.594)" fill="#f3901d"/>
          <g id="Group_590" data-name="Group 590" transform="translate(6.828 54.012)">
            <path id="Path_1954" data-name="Path 1954" d="M401.307,397.585a11.305,11.305,0,0,0-2.082-.485l-1.969,4.177-.693.1-.772,1.708,1.089,2.13,2.315-.622.621-1.514-.409-.749Z" transform="translate(-395.79 -397.1)" fill="#010101"/>
            <path id="Path_1955" data-name="Path 1955" d="M409.188,397.13c-1.178,2.842-2.188,4.731-2.188,4.731l.73,1.273,2.44-5.874C409.786,397.2,409.587,397.157,409.188,397.13Z" transform="translate(-405.473 -397.126)" fill="#f3901d"/>
            <path id="Path_1956" data-name="Path 1956" d="M399.9,433.9l-.867-1.659-.528,1.193.9,1.611Z" transform="translate(-398.131 -427.455)" fill="#f3901d"/>
          </g>
          <path id="Path_1957" data-name="Path 1957" d="M411.269,407.758l-.779,1.732a1.688,1.688,0,0,0,1.388-.033c1.2.072,1.264-2.007,1.264-2.007Z" transform="translate(-401.66 -352.028)" fill="#010101"/>
          <path id="Path_1958" data-name="Path 1958" d="M447.643,139s1.719-2.451,1.753-3.588-.287-1.475-.287-1.475a2.308,2.308,0,0,0,.166-1.089c-.124-.32-.319-1.208-.319-1.208l-.241-.1a4.3,4.3,0,0,0-.335-1.992,7.855,7.855,0,0,0-2.055-2.274,4.167,4.167,0,0,0-1.868-.283s-1.621-1.472-2.022-1.439a1.885,1.885,0,0,0-1.311,1.5c-.086.8-.071.887.166,1.089a1.132,1.132,0,0,1,.319.475,1.685,1.685,0,0,0-.418,1.343,2.154,2.154,0,0,0-1.676,1.814s-.647.069-1.211,1.074-.515,1.606-.388,1.809.462.881.462.881a2.15,2.15,0,0,0,.654,1.863,2.47,2.47,0,0,0-1.089,1.521,2.047,2.047,0,0,0-.817,1.652,13.169,13.169,0,0,1-5.472,2.909s-1.562,1.015,1.449,1.987a7.365,7.365,0,0,0,5.382-.6.38.38,0,0,0,.188.076c.4.012,1.4-.026,1.4-.026a.5.5,0,0,0,.169.272,3.338,3.338,0,0,0,2.774.084c1.307-.6,2.051-.953,2.149-1.268a8.322,8.322,0,0,1,.486-1.4c.113-.093.933-.69,1.049-.842s.5-1.006.5-1.006a4.88,4.88,0,0,0,.52-1.05Z" transform="translate(-419.589 -108.523)" fill="#010101"/>
          <path id="Path_1959" data-name="Path 1959" d="M497.811,186.41a17.356,17.356,0,0,1-1.471,1.608c.475.451,1.907,1.713,3.174,1.531a2.339,2.339,0,0,0,2.217-2.043S500.788,188.408,497.811,186.41Z" transform="translate(-475.818 -161.09)" fill="#a7b1b7"/>
          <path id="Path_1960" data-name="Path 1960" d="M518.91,171.014s1.893,1.892,2.683,1.593a2.385,2.385,0,0,0,1.352-2.07,3.473,3.473,0,0,1-2.236-.978,2.734,2.734,0,0,1-1.047.123S519.226,170.846,518.91,171.014Z" transform="translate(-495.315 -146.534)" fill="#a7b1b7"/>
          <path id="Path_1961" data-name="Path 1961" d="M538,146.769l1.642,1.471a1.086,1.086,0,0,0,.658-1.156,4.278,4.278,0,0,0-1.483-2.933A3.553,3.553,0,0,1,538,146.769Z" transform="translate(-511.805 -124.585)" fill="#a7b1b7"/>
          <path id="Path_1962" data-name="Path 1962" d="M527.792,178.273l-.022.71a9.118,9.118,0,0,0,3.347-2.79,7.559,7.559,0,0,0,1.307-2.709l-.365-1.144a9.519,9.519,0,0,1-1.412,3.345A8.74,8.74,0,0,1,527.792,178.273Z" transform="translate(-502.968 -148.936)" fill="#a7b1b7"/>
          <path id="Path_1963" data-name="Path 1963" d="M527.445,196.85a8.37,8.37,0,0,0,2.9-1.887,7.775,7.775,0,0,0,1.729-2.812,3.689,3.689,0,0,1-.978,2.924,7.375,7.375,0,0,1-3.677,2.42Z" transform="translate(-502.666 -166.048)" fill="#a7b1b7"/>
          <path id="Path_1964" data-name="Path 1964" d="M508.19,223.125l.8.025s.319.5.718.511a1.162,1.162,0,0,0,.58-.094s-.906-.161-.861-.915a18.05,18.05,0,0,1,.237-1.791,14.9,14.9,0,0,0,.351,2.3.81.81,0,0,0,.768.313,6.683,6.683,0,0,0,2.357-1.395c.4-.373.8-.731.8-.731a4.914,4.914,0,0,1-3.046,2.706,4,4,0,0,1-2.134.068Z" transform="translate(-486.055 -190.848)" fill="#a7b1b7"/>
          <path id="Path_1965" data-name="Path 1965" d="M495.9,240.333a4.825,4.825,0,0,1-1.745.29c-.355-.011-.752-.493-.752-.493l-.317-.765-.249.874a6.569,6.569,0,0,0,.917.565,4.3,4.3,0,0,0,1.981-.143,21.608,21.608,0,0,0,2.179-1.055s-.112.741-.136,1.073a1.2,1.2,0,0,1-.409.534c.587-.3.926-.516.99-.716a8.546,8.546,0,0,1,.486-1.4c.113-.093.933-.69,1.049-.842a11.219,11.219,0,0,0,.5-1.006C499.445,238.531,496.266,240.122,495.9,240.333Z" transform="translate(-472.795 -205.006)" fill="#a7b1b7"/>
          <path id="Path_1966" data-name="Path 1966" d="M498.7,265.153a2.706,2.706,0,0,1-1.739-.053l-.324.545a.354.354,0,0,0,.083.086,3.342,3.342,0,0,0,1.483.351,2.348,2.348,0,0,1-1.039-.338l.252-.262A3.921,3.921,0,0,0,498.7,265.153Z" transform="translate(-476.078 -229.064)" fill="#a7b1b7"/>
          <path id="Path_1967" data-name="Path 1967" d="M475.483,226.753a4.028,4.028,0,0,1-.308-3,2.047,2.047,0,0,0-.817,1.652,2.967,2.967,0,0,0,.577,1.924Z" transform="translate(-456.826 -193.345)" fill="#a7b1b7"/>
          <path id="Path_1968" data-name="Path 1968" d="M456.51,258.821a11.7,11.7,0,0,0,2.555-1.531,2.88,2.88,0,0,0,.452.534A9.932,9.932,0,0,1,456.51,258.821Z" transform="translate(-441.413 -222.317)" fill="#a7b1b7"/>
          <path id="Path_1969" data-name="Path 1969" d="M435.187,239.206a10.011,10.011,0,0,0,1.961-1.019s-.212-1.95.078-2.307a13.169,13.169,0,0,1-5.472,2.909,1.009,1.009,0,0,0-.384.5A5.713,5.713,0,0,0,435.187,239.206Z" transform="translate(-419.696 -203.823)" fill="#a7b1b7"/>
          <path id="Path_1970" data-name="Path 1970" d="M449.482,245.33a28.344,28.344,0,0,1-3.752,1.8,11.473,11.473,0,0,0,3.778-1.311C449.5,245.673,449.487,245.5,449.482,245.33Z" transform="translate(-432.101 -211.986)" fill="#fff"/>
          <path id="Path_1971" data-name="Path 1971" d="M448.6,241.223a12.058,12.058,0,0,0,3.357-1.732,4.863,4.863,0,0,1,.027-.511A30.186,30.186,0,0,1,448.6,241.223Z" transform="translate(-434.58 -206.501)" fill="#fff"/>
          <path id="Path_1972" data-name="Path 1972" d="M482.168,185.961a6.531,6.531,0,0,1-2.193-2.643,2.739,2.739,0,0,1-.074-1.627c-.372.8-.321,1.284-.21,1.463.127.2.462.881.462.881a2.15,2.15,0,0,0,.654,1.863,2.08,2.08,0,0,0-.253.182.252.252,0,0,1,.039.272,2.293,2.293,0,0,0-.364,1.721,7.2,7.2,0,0,0,.56,1.3s-.362-1.254.049-1.619c.7.421.422.012.651-.953a3.309,3.309,0,0,0,.966.409l.332.033s-.882-.531-.98-.631.074-.441.074-.441,1.253.659,1.471.8A4.076,4.076,0,0,0,482.168,185.961Z" transform="translate(-461.368 -157.012)" fill="#a7b1b7"/>
          <path id="Path_1973" data-name="Path 1973" d="M482.594,172.334c-.026.046-.05.091-.074.136.041-.056.72-.953,1.4-.562a.992.992,0,0,1-.113-.648S483.157,171.329,482.594,172.334Z" transform="translate(-463.881 -148.003)" fill="#a7b1b7"/>
          <path id="Path_1974" data-name="Path 1974" d="M493.177,158.788a2,2,0,0,0,1.715.34c-1.5-.424-1.118-1.189-1.118-1.189a2.118,2.118,0,0,0-1.653,1.682h0a2.628,2.628,0,0,0,1.618,1.841c-1.145-1.069-1.226-1.634-1.14-1.96A1.944,1.944,0,0,1,493.177,158.788Z" transform="translate(-472.173 -136.497)" fill="#a7b1b7"/>
          <path id="Path_1975" data-name="Path 1975" d="M506.155,140.086a8.093,8.093,0,0,1,3.113-.15l-.39-.316a19.4,19.4,0,0,0-1.953-.06,3.573,3.573,0,0,0-2.5,1.167,1.686,1.686,0,0,0-.418,1.343,2.518,2.518,0,0,0,2.451,1.074,2.948,2.948,0,0,1-1.962-1.215C504.223,141.411,504.837,140.511,506.155,140.086Z" transform="translate(-482.412 -120.62)" fill="#a7b1b7"/>
          <path id="Path_1976" data-name="Path 1976" d="M504.917,125.6a1.887,1.887,0,0,0-1.311,1.5c-.01.089-.018.167-.026.24.283-.545,1.009-1.213,1.362-1.174a11.253,11.253,0,0,1,1.623.556C506.067,126.281,505.2,125.575,504.917,125.6Z" transform="translate(-482.073 -108.558)" fill="#a7b1b7"/>
          <path id="Path_1977" data-name="Path 1977" d="M349,338.471a33.873,33.873,0,0,0,2.529,4.208,2.093,2.093,0,0,0-.067,2.169c.381.59.85,2.474,4.271,2.491a2.87,2.87,0,0,0,2.538.907,4.569,4.569,0,0,0,2.4-.579,5.257,5.257,0,0,0,2.126-.512c.609-.315,1.907-1.1,1.708-2.079a4.991,4.991,0,0,0,.456-.409c.184-.195.614-.492.669-.779s-.155-.738-.128-.937.03-.953.03-.953.655-.357.707-.6a2.232,2.232,0,0,0-.052-1.2,4.262,4.262,0,0,0-.658-1.043,3.137,3.137,0,0,0-1.39-.512,8.38,8.38,0,0,1-1.3-.041s-1.089-1.013-1.465-1a3.47,3.47,0,0,0-1.279.212l-.844.953a1.307,1.307,0,0,0-.545-.018,8.09,8.09,0,0,0-.914.335s-1.546-.346-1.736-.33-1.348.18-1.7.636c-.222.29-1.2.651-1.456-.219-.285-.136-2.058-1.339-2.058-1.339S348.767,337.1,349,338.471Z" transform="translate(-348.526 -291.69)" fill="#010101"/>
          <path id="Path_1978" data-name="Path 1978" d="M370.491,379.673a2.682,2.682,0,0,0,.516-.917,6.36,6.36,0,0,1-.787.583c-.195.083-.4-.136-.453-.236.3-.08,1.1-1.181,1.1-1.181a4.194,4.194,0,0,1-1.554,1.089c-1.167.553-2.878-.946-2.878-.946a4.537,4.537,0,0,0,2.9.3c-3.087-.124-3.723-1.416-3.858-1.849a2.419,2.419,0,0,1,.246-1.251l-.177-.309a2.093,2.093,0,0,0-.067,2.169c.381.59.85,2.474,4.271,2.491a2.87,2.87,0,0,0,2.538.907,4.57,4.57,0,0,0,2.4-.579C371.315,380.721,370.676,379.814,370.491,379.673Z" transform="translate(-362.544 -323.963)" fill="#a7b1b7"/>
          <path id="Path_1979" data-name="Path 1979" d="M398.745,338.582a4.147,4.147,0,0,0-1.442-.754c-.18.063-1.25.2-1.25.2s-1.077-1.089-1.454-1.089a4.148,4.148,0,0,0-1.429.2c-.116.131-.718.976-.718.976a1.389,1.389,0,0,0-.663-.109c-.268.059-.877.165-.877.165s-1.457,0-1.648.018-1.348.18-1.7.636a.3.3,0,0,1-.136.094,10.328,10.328,0,0,1,1.758-.379,5.618,5.618,0,0,1,1.739.764,3.406,3.406,0,0,1,.558,1.128c.022.282-.06,1.953-.06,1.953a8.652,8.652,0,0,0,.471-1.874c.189-.012.545.395.594.953a7.806,7.806,0,0,1-.123,2.07,3.1,3.1,0,0,0,.384-1.439,3.351,3.351,0,0,0,.828.054,2.077,2.077,0,0,0,.79-.2,3.365,3.365,0,0,1-1.171,2.955c-1.1,1.089-1.589,1.634-1.589,1.634a1.034,1.034,0,0,0,.7-.187,7.975,7.975,0,0,0,2.323-2.372,3.28,3.28,0,0,0,.478-2.1,2.657,2.657,0,0,0,1.212-.392,4.733,4.733,0,0,1-.272,2.628,9.589,9.589,0,0,1-1.423,1.956,4.043,4.043,0,0,0,1.193-.734c.056-.083.2-.241.37-.481.991-.011,1.226-.492,1.226-.492a7.452,7.452,0,0,1-.927.012,4.782,4.782,0,0,0,.5-1.385,3.273,3.273,0,0,0,1.232-.735l.227-.631a11.772,11.772,0,0,1-1.359.631,6.484,6.484,0,0,0-.136-1.66,9.457,9.457,0,0,0,1.592-1.2.873.873,0,0,0,.37-.633A1,1,0,0,0,398.745,338.582Z" transform="translate(-381.74 -291.12)" fill="#a7b1b7"/>
          <path id="Path_1980" data-name="Path 1980" d="M360.977,356.4s1.148,3.159,3.58,3.505a2.587,2.587,0,0,1-2.282-.889A7.953,7.953,0,0,1,360.977,356.4Z" transform="translate(-358.887 -307.93)" fill="#a7b1b7"/>
          <path id="Path_1981" data-name="Path 1981" d="M396.33,372.118a7.075,7.075,0,0,1,2.269.044,1.333,1.333,0,0,1,.167,1.023,2.238,2.238,0,0,0-2.069-.618A2.521,2.521,0,0,0,396.33,372.118Z" transform="translate(-389.428 -321.444)" fill="#a7b1b7"/>
          <path id="Path_1982" data-name="Path 1982" d="M369.054,349.424c-.264.212-.938-.042-1.409-.264a3.283,3.283,0,0,1-1.595.829,6.349,6.349,0,0,0,2.9,3.508,13.151,13.151,0,0,1,.906-1.449l.936-.016A4.707,4.707,0,0,0,369.054,349.424Z" transform="translate(-363.272 -301.676)" fill="#a7b1b7"/>
          <path id="Path_1983" data-name="Path 1983" d="M372.488,360.332a18,18,0,0,1-2.928-2.262,7.3,7.3,0,0,0,2.671,2.68C372.32,360.6,372.408,360.457,372.488,360.332Z" transform="translate(-366.304 -309.373)" fill="#fff"/>
          <path id="Path_1984" data-name="Path 1984" d="M371.679,352a3.137,3.137,0,0,1-.389.21,11.23,11.23,0,0,0,3.029,2.38l.061-.086.69-.012A29.662,29.662,0,0,1,371.679,352Z" transform="translate(-367.798 -304.129)" fill="#fff"/>
          <path id="Path_1985" data-name="Path 1985" d="M384.594,352.461c-.346-.47-.714-.918-.968-1.217-.18-.031-.272,0-.576-.044C383.475,351.553,384.216,352.164,384.594,352.461Z" transform="translate(-377.957 -303.438)" fill="#fff"/>
          <g id="Group_591" data-name="Group 591" transform="translate(7.501 47.014)">
            <path id="Path_1986" data-name="Path 1986" d="M400.92,345.76h0a3.094,3.094,0,0,1,1.058.238,5.269,5.269,0,0,1,.681.466l.622-.041a6.152,6.152,0,0,0-.64-.692A9.705,9.705,0,0,0,400.92,345.76Z" transform="translate(-400.894 -345.707)" fill="#fff"/>
            <path id="Path_1987" data-name="Path 1987" d="M400.73,346.12h0Z" transform="translate(-400.73 -346.064)" fill="#fff"/>
          </g>
          <path id="Path_1988" data-name="Path 1988" d="M418.746,354.649a6.1,6.1,0,0,0-.986-1.339,2.457,2.457,0,0,1,1.234,1.292C419.189,355.016,418.746,354.649,418.746,354.649Z" transform="translate(-407.94 -305.261)" fill="#010101"/>
          <path id="Path_1989" data-name="Path 1989" d="M426.337,338.313s.433-.091,1.02.579.7.688.7.688l.722.136s.395.161.372.415a1.6,1.6,0,0,1-.98,1.089,7.879,7.879,0,0,1-2.334.283,2.733,2.733,0,0,0-.817-1.362,1.781,1.781,0,0,1-.663-.568l.6-.308a4.3,4.3,0,0,1,.99,1.023,4.554,4.554,0,0,1,.8-.232l.409-.862S426.6,338.365,426.337,338.313Z" transform="translate(-413.641 -292.303)" fill="#010101"/>
          <path id="Path_1990" data-name="Path 1990" d="M420.29,360.109c.1,0,.255.109.38.305a10.107,10.107,0,0,0,3.989-.784C422.107,360,420.29,360.109,420.29,360.109Z" transform="translate(-410.125 -310.72)" fill="#fff"/>
          <path id="Path_1991" data-name="Path 1991" d="M419.021,344.72c-.009.015-.552-.242-.851-.053l.508.136a15.512,15.512,0,0,1,1.734,1.907A4.478,4.478,0,0,0,419.021,344.72Z" transform="translate(-408.294 -297.735)" fill="#fff"/>
          <g id="Group_592" data-name="Group 592" transform="translate(12.861 30.757)">
            <path id="Path_1992" data-name="Path 1992" d="M448.605,227.99l-1.341.462-7.174,17.212,2.311-.59,6.424-15.514Z" transform="translate(-440.09 -227.764)" fill="#010101"/>
            <path id="Path_1993" data-name="Path 1993" d="M450.953,226.33l-7.283,17.487a.791.791,0,0,0,.908.306l7.171-17.237A1.225,1.225,0,0,1,450.953,226.33Z" transform="translate(-443.183 -226.33)" fill="#f3901d"/>
          </g>
          <path id="Path_1994" data-name="Path 1994" d="M516.979,26.074a35.322,35.322,0,0,0-3.579-6l-1.61,6.549,1.743,2.53a6.49,6.49,0,0,1,.916,2.315l3.055-3.557a9.229,9.229,0,0,0-.526-1.833Z" transform="translate(-489.164 -17.402)" fill="#fff"/>
          <path id="Path_1995" data-name="Path 1995" d="M531.03,27.737a7.057,7.057,0,0,0-.428-1.585,35.352,35.352,0,0,0-3.568-5.978l-.425-.014q.286.4.59.848a35.7,35.7,0,0,1,2.848,4.9,12.124,12.124,0,0,1,.625,1.83A1.582,1.582,0,0,1,531.03,27.737Z" transform="translate(-501.966 -17.48)" fill="#fff"/>
          <g id="Group_595" data-name="Group 595" transform="translate(22.882 4.307)">
            <g id="Group_593" data-name="Group 593" transform="translate(2.871)">
              <path id="Path_1996" data-name="Path 1996" d="M548.678,54.87l-.151-.29h-.447c.052.1.072.136.121.234Z" transform="translate(-546.265 -51.52)" fill="#a7b1b7"/>
              <path id="Path_1997" data-name="Path 1997" d="M539.67,40c.061.1.061.1.121.2l.509.114-.177-.3Z" transform="translate(-539 -38.926)" fill="#a7b1b7"/>
              <path id="Path_1998" data-name="Path 1998" d="M534.9,32.355l.451.025c-.065-.1-.136-.2-.155-.245l-.449-.025C534.775,32.152,534.839,32.253,534.9,32.355Z" transform="translate(-534.75 -32.11)" fill="#a7b1b7"/>
              <path id="Path_1999" data-name="Path 1999" d="M550.842,59.157c-.044-.094-.056-.118-.1-.217h-.448c.048.1.093.2.136.29Z" transform="translate(-548.174 -55.286)" fill="#a7b1b7"/>
            </g>
            <g id="Group_594" data-name="Group 594" transform="translate(0 0.227)">
              <path id="Path_2000" data-name="Path 2000" d="M513.67,38.834l.188.272,2.567-5.137c-.061-.094-.06-.1-.121-.189Z" transform="translate(-513.67 -33.78)" fill="#a7b1b7"/>
              <path id="Path_2001" data-name="Path 2001" d="M523.525,41.591c-.061-.1-.1-.159-.158-.261L521.1,46.825l.2.285Z" transform="translate(-520.088 -40.302)" fill="#a7b1b7"/>
              <path id="Path_2002" data-name="Path 2002" d="M528.134,55.922c-.049-.1-.05-.1-.1-.2l-2.82,4.358c.057.089.144.238.2.335Z" transform="translate(-523.638 -52.732)" fill="#a7b1b7"/>
              <path id="Path_2003" data-name="Path 2003" d="M532.635,60.687c-.048-.112-.1-.227-.157-.347L530,65.557c.042.136.08.285.116.432Z" transform="translate(-527.776 -56.723)" fill="#a7b1b7"/>
            </g>
          </g>
        </g>
        <g id="Group_600" data-name="Group 600" transform="translate(0 8.393)">
          <path id="Path_2004" data-name="Path 2004" d="M225.24,87.624a8.331,8.331,0,0,0-3.312-4.445l-.039-.027a7.29,7.29,0,0,0-2.36-.978c.584-5.126-.974-13.7-2.465-17.043-.538-1.208-1.612-3-2.869-3.021,1.39,2.506,1.738,6.1,1.777,8.729a10.463,10.463,0,0,0-3.018-3.609,28.933,28.933,0,0,1,1.789,8.586c-.513-.9-1.738-2.842-3.082-3.251a29.706,29.706,0,0,1,1.151,5.153,17.042,17.042,0,0,0-1.57-1.612,25.487,25.487,0,0,1,.447,3.515l-.583-.6a5.048,5.048,0,0,1-1.043,3.813c.591.161.09.257.09.257a49.98,49.98,0,0,0-7.573,3.268l-.1.059a3.564,3.564,0,0,0-1.4,2.1,8.166,8.166,0,0,0-3.132,2.33,19.14,19.14,0,0,0-4.494-.409c-.835.015-1.3.022-1.77.064-.187.016-.347.035-.479.057h-.035l-.034.014a.545.545,0,0,0-.316.388c-.238.866.983,3.012,3.632,6.377l.056.071.083.037a43.688,43.688,0,0,0,14.142,3.094c2.168.053,6.264.874,10.919-1.351a10.882,10.882,0,0,0,4.807-4.273C225.035,93.451,226.334,92.353,225.24,87.624Z" transform="translate(-190.786 -62.11)" fill="#fff"/>
          <g id="Group_597" data-name="Group 597" transform="translate(1.021 23.403)">
            <path id="Path_2005" data-name="Path 2005" d="M202.375,239.433c-.008-.018-.979-1.9-.325-5.473-2.909.81-3.651,5.387-3.685,5.563l-.084.451,4.26-.2Z" transform="translate(-198.28 -233.96)" fill="#fff"/>
            <path id="Path_2006" data-name="Path 2006" d="M228.092,257.387s-.625-.56-.829-2.587a3.2,3.2,0,0,0-1.977,2.563l-.075.419,3.791.449Z" transform="translate(-221.543 -251.962)" fill="#fff"/>
          </g>
          <path id="Path_2007" data-name="Path 2007" d="M201.8,243.269s.993-3.929,2.814-5.059a9.143,9.143,0,0,0,.443,5.07S202.77,243.321,201.8,243.269Z" transform="translate(-200.3 -214.228)" fill="#a7b1b7"/>
          <path id="Path_2008" data-name="Path 2008" d="M228.66,260.879a4.931,4.931,0,0,1,1.291-2.089,3.63,3.63,0,0,0,.848,2.34Z" transform="translate(-223.502 -232.006)" fill="#a7b1b7"/>
          <path id="Path_2009" data-name="Path 2009" d="M204.614,238.21c-2.043.917-2.814,5.059-2.814,5.059.489.026,2.518.064,2.518.064A3.768,3.768,0,0,1,204.614,238.21Z" transform="translate(-200.3 -214.228)" fill="#010101"/>
          <path id="Path_2010" data-name="Path 2010" d="M229.96,258.712V258.7c-.993.437-1.29,2.1-1.29,2.1l1.442.136h.01S229.087,260.412,229.96,258.712Z" transform="translate(-223.511 -231.928)" fill="#010101"/>
          <path id="Path_2011" data-name="Path 2011" d="M201.024,219.563a12.688,12.688,0,0,1,3.294-2.248c.241-.369.606-1.543,1.328-1.971s7.964-4.2,14.411-4.622a7.17,7.17,0,0,1,4.415,1.089,9.753,9.753,0,0,1,3.454,5.641,7.759,7.759,0,0,1,.147,2c-.042,1.845-1.216,4.269-5.2,7.361-9.669,3.214-20.836.02-24.682-1.644-1.853-2.634-4.189-5.732-4.189-5.732A34.158,34.158,0,0,1,201.024,219.563Z" transform="translate(-193.562 -190.463)" fill="#a7b1b7"/>
          <path id="Path_2012" data-name="Path 2012" d="M350.813,92.283a8.007,8.007,0,0,0-1.721-3.193,19.913,19.913,0,0,1,.409,6.772,15.422,15.422,0,0,0-2.809-4.373c2.307,5.95,1.5,9.124,1.5,9.124S346.925,97.7,345.3,96.6a13.79,13.79,0,0,1,1.183,5.8,13.026,13.026,0,0,0-1.634-1.988,26.465,26.465,0,0,1,.449,4.524,2.381,2.381,0,0,0,.839,1.362c.991.621,4.587-.084,5.879-.215C352.7,102.411,351.993,96.84,350.813,92.283Z" transform="translate(-323.869 -85.416)" fill="#a7b1b7"/>
          <path id="Path_2013" data-name="Path 2013" d="M227.554,273.814c-1.833,4.9-4.351,5.745-4.351,5.745s1.86-2.563,1.972-4.117c-3.449,5.379-4.883,5.111-4.883,5.111a15.815,15.815,0,0,0,1.961-4.031c-2.587,3.151-3.661,5.1-6.545,5.82-1.177-.211-1.39-.652-5.639-2.662a34.341,34.341,0,0,0-10.272-3.1,26.943,26.943,0,0,1,5,2.071,7.347,7.347,0,0,0-1.3-.3,4.157,4.157,0,0,1,1.2.776,37.345,37.345,0,0,0-8.054-1.883,18.521,18.521,0,0,1-3.132-3.609s-1.08.409,3.474,6.2a46.6,46.6,0,0,0,19.718,3.12C225.31,281.985,227.509,276.259,227.554,273.814Z" transform="translate(-193.043 -244.833)" fill="#010101"/>
          <path id="Path_2014" data-name="Path 2014" d="M248.976,218.174a3.379,3.379,0,0,0-1.283,2.05,9.988,9.988,0,0,0-3.055,2.167c-.1.121-.176.212-.238.282l3.063.616a12.851,12.851,0,0,1,3.091-2.479c.72-1.424,1.3-3.076,2.021-3.364a41.261,41.261,0,0,1,7.3-2.843,2.116,2.116,0,0,1-.35-.332C255.743,214.6,249.544,217.837,248.976,218.174Z" transform="translate(-237.099 -193.549)" fill="#010101"/>
          <path id="Path_2015" data-name="Path 2015" d="M327.8,242.983a5.1,5.1,0,0,1-.776-1.709c.7.65,1.072.47,1.072.47a11.611,11.611,0,0,0,2.848-1.483,1.478,1.478,0,0,1-.693.061s1.81-3.193,7.53-2.942c-2.481.512-3.927,1.441-4.02,2.074a2.923,2.923,0,0,1-1.559,2.921,9.879,9.879,0,0,0,1.8,0A17.525,17.525,0,0,1,327.8,242.983Z" transform="translate(-308.467 -213.499)" fill="#010101"/>
          <path id="Path_2016" data-name="Path 2016" d="M344.42,259.363a6.908,6.908,0,0,0,2.237-.068,2.448,2.448,0,0,0,1.41-2.165A24.034,24.034,0,0,0,344.42,259.363Z" transform="translate(-323.498 -230.572)" fill="#f3901d"/>
          <path id="Path_2017" data-name="Path 2017" d="M320.443,262.1a2.683,2.683,0,0,1-1.163-.893,1.9,1.9,0,0,1,1.313-1.162,2.75,2.75,0,0,0-.622.975A3.448,3.448,0,0,0,320.443,262.1Z" transform="translate(-301.781 -233.086)" fill="#010101"/>
          <path id="Path_2018" data-name="Path 2018" d="M294.54,249.327l.669.071A15.042,15.042,0,0,1,296,247.31,8.516,8.516,0,0,0,294.54,249.327Z" transform="translate(-280.411 -222.089)" fill="#010101"/>
          <path id="Path_2019" data-name="Path 2019" d="M275.1,250.014a1.437,1.437,0,0,1-.93-.319,3.277,3.277,0,0,1,.545-1.585A12.494,12.494,0,0,0,275.1,250.014Z" transform="translate(-262.815 -222.78)" fill="#f3901d"/>
          <path id="Path_2020" data-name="Path 2020" d="M335.93,222.791a7.882,7.882,0,0,1,4.085-.994,19.789,19.789,0,0,0-2.92,1.076S336.919,222.539,335.93,222.791Z" transform="translate(-316.164 -200.039)" fill="#010101"/>
          <path id="Path_2021" data-name="Path 2021" d="M383.86,263.109s2.532-.953,2.168,2.42C387.164,264.664,386.576,260.687,383.86,263.109Z" transform="translate(-357.567 -235.07)" fill="#010101"/>
          <path id="Path_2022" data-name="Path 2022" d="M314.4,239.06s1.517-2.469,6.091-3.97c-.289,1.521-3.756,3.072-3.756,3.072a2.087,2.087,0,0,1,.907-1.17A8.439,8.439,0,0,0,314.4,239.06Z" transform="translate(-297.566 -211.533)" fill="#fff"/>
          <path id="Path_2023" data-name="Path 2023" d="M379.742,224.3c-.041-1.611-1.333-3.354-2.724-4.67a15.635,15.635,0,0,0-3.257-1,4.522,4.522,0,0,0-1.114.212,8.67,8.67,0,0,1-1.984,1.051l-.912.851c.639-.124,4.572-.64,5.863.993a6.506,6.506,0,0,1,1.483,4.2,8.38,8.38,0,0,0-.462-4.618S378.2,220.809,379.742,224.3Z" transform="translate(-345.378 -197.315)" fill="#fff"/>
          <path id="Path_2024" data-name="Path 2024" d="M329.7,277.84a5.814,5.814,0,0,0-1.761.662,17.679,17.679,0,0,1-2.164.983c-.866.305-1,.409-1.527.545a19.344,19.344,0,0,1-2.822.52c-.163.008,5.793,2.981,6.4,3.316.067.037.034.146.109.136a1.5,1.5,0,0,0,.242-.129,4.161,4.161,0,0,0,2.19-2.34C331.026,280.011,330.725,278.31,329.7,277.84Z" transform="translate(-303.635 -248.461)" fill="#010101"/>
          <path id="Path_2025" data-name="Path 2025" d="M343.084,288.667c.475-.227.844-.586,1.562-1.015a3.791,3.791,0,0,0,.409-.731c.236-1.54.346-2.408-.282-2.7a1.222,1.222,0,0,0-.5-.177,2.264,2.264,0,0,0-.942.331,2.268,2.268,0,0,1-1.213.409l-.2.089a.744.744,0,0,1-.836.334,15.151,15.151,0,0,1-1.45.448c-.071.018-.065.394-.144.409-.285.078-.339.03-.178.2.094.049-.372.193-.29.236a2.78,2.78,0,0,1,1.848.983l.11.061Z" transform="translate(-318.824 -253.819)" fill="#a7b1b7"/>
          <path id="Path_2026" data-name="Path 2026" d="M218.095,279.576s-2.846-2.285-9.424-4.653a38.069,38.069,0,0,0-7.181-1.791,33.308,33.308,0,0,0-7.23-.191c.241.863,3.892-.343,11.439,1.551,7.155,1.8,10.579,5.2,11.616,5.6s2.242-1.008,2.578-1.785A4.672,4.672,0,0,1,218.095,279.576Z" transform="translate(-193.787 -244.129)" fill="#fff"/>
          <g id="Group_598" data-name="Group 598" transform="translate(23.452 21.252)">
            <path id="Path_2027" data-name="Path 2027" d="M366.813,220.19A13.344,13.344,0,0,0,363,222.009a5.039,5.039,0,0,1,.914.083,12.35,12.35,0,0,1,4.358-.828A11.951,11.951,0,0,0,366.813,220.19Z" transform="translate(-363 -219.914)" fill="#010101"/>
            <path id="Path_2028" data-name="Path 2028" d="M405.024,222.941a7.774,7.774,0,0,0-3.289-4.685l-.143-.02a10.412,10.412,0,0,0-2.382-.01,8.011,8.011,0,0,1,2.142,1.341,3.25,3.25,0,0,1,1.173.3A7.135,7.135,0,0,1,405.024,222.941Z" transform="translate(-394.279 -218.163)" fill="#010101"/>
          </g>
          <path id="Path_2029" data-name="Path 2029" d="M372.17,104.135q.667-.1,1.33-.161a14.961,14.961,0,0,0,1.719-7.264,17.242,17.242,0,0,1-.9,7.218c.245,0,.483,0,.718.016a18.873,18.873,0,0,0,.572-3.936,23.812,23.812,0,0,1,0,4l.2.03c.681-4.178-.923-14.215-2.359-16.955l.531,3.1A16.126,16.126,0,0,1,372.17,104.135Z" transform="translate(-347.469 -83.68)" fill="#fff"/>
          <path id="Path_2030" data-name="Path 2030" d="M341.31,71.329c-.534-2.15-1.42-3.911-2.334-4.329,2.054,4.693,1.269,11.861,1.269,11.861a31.893,31.893,0,0,0-2.378-6.237c-.067-.072-.136-.136-.2-.21,2.436,6.791,1.166,11.067,1.166,11.067a21.452,21.452,0,0,0-1.937-5.435,4.492,4.492,0,0,0-.618-.519,29.847,29.847,0,0,1,1.178,6.6,18.581,18.581,0,0,0-1.19-2.326q-.2-.221-.443-.462a14.755,14.755,0,0,1,.272,3.874,3.348,3.348,0,0,0-.613-1.13,3.966,3.966,0,0,1-1.08,3.187s2.073-.453,2.714-.05a2.764,2.764,0,0,0,.5.176A18.585,18.585,0,0,0,341.31,71.329Z" transform="translate(-314.842 -66.334)" fill="#010101"/>
          <path id="Path_2031" data-name="Path 2031" d="M335.27,286.9s1.446-1.907,1.618-2.27a4.88,4.88,0,0,1-.237,2.954Z" transform="translate(-315.594 -254.327)" fill="#010101"/>
          <g id="Group_599" data-name="Group 599" transform="translate(18.994 29.971)">
            <path id="Path_2032" data-name="Path 2032" d="M340.239,284.63a5.4,5.4,0,0,1-1.089,2.389c.681.35,1.307.681,1.848.983A4.726,4.726,0,0,0,340.239,284.63Z" transform="translate(-337.939 -284.298)" fill="#fff"/>
            <path id="Path_2033" data-name="Path 2033" d="M356.675,291.73a4.439,4.439,0,0,1-1.355,2.988,5.138,5.138,0,0,0-.632-2.371,9.307,9.307,0,0,1-1.208,1.849c1.117.626,1.886,1.111,2.225,1.332a3.734,3.734,0,0,0,1.441-1.226A5.213,5.213,0,0,0,356.675,291.73Z" transform="translate(-350.318 -290.431)" fill="#fff"/>
            <path id="Path_2034" data-name="Path 2034" d="M331.486,297.13a7.11,7.11,0,0,1-1.226.2,4.519,4.519,0,0,1,.8.285A3.547,3.547,0,0,0,331.486,297.13Z" transform="translate(-330.26 -295.095)" fill="#fff"/>
            <path id="Path_2035" data-name="Path 2035" d="M357.783,282.19a10.828,10.828,0,0,0-2.4.953c-.252.109-.827.35-1.134.463a5.584,5.584,0,0,1,.2,1.208,12.5,12.5,0,0,0,.869-1.389,5.427,5.427,0,0,1,.967,2.084,8.125,8.125,0,0,0,.869-2.815,3.607,3.607,0,0,1,1.065,2.628A2.851,2.851,0,0,0,357.783,282.19Z" transform="translate(-350.983 -282.19)" fill="#fff"/>
          </g>
        </g>
      </g>
    </g>
  </g>
</svg>
