<svg xmlns="http://www.w3.org/2000/svg" width="161.064" height="134.309" viewBox="0 0 161.064 134.309">
  <g id="Layer_2" data-name="Layer 2" transform="translate(0.006 0.02)">
    <g id="ClassicShark" transform="translate(-0.006 -0.02)">
      <g id="Group_612" data-name="Group 612">
        <g id="Group_611" data-name="Group 611">
          <path id="Path_2036" data-name="Path 2036" d="M209.717,236.362a3.3,3.3,0,0,0-1.817,1.553,2.708,2.708,0,0,1,.547.607,2.508,2.508,0,0,1,.352,1.117c0,.171,1.474-.032,1.474-.032.412-.1,1.548-3.156,1.548-3.156s.241-.681.13-.83S211.093,235.825,209.717,236.362Zm6.817,2.243c-.283-.431-.964-.64-1.237-1.39-.125-.338-.2-.765-.487-.927a5.95,5.95,0,0,0-.584,4.231,2.883,2.883,0,0,0,2.28-.885S216.752,238.906,216.534,238.605Z" transform="translate(-111.547 -126.396)" fill="#fff"/>
          <path id="Path_2037" data-name="Path 2037" d="M153.327,68.394l-8,1.594c-.32.065-32.325,6.372-52.5,6.372C72.9,76.346,41.507,70.247,40.2,69.974L30,68.037,92.755,169.425,155.566,67.87Z" transform="translate(-16.094 -36.407)" fill="#231f20"/>
          <path id="Path_2038" data-name="Path 2038" d="M151.882,76.9c-1.325.26-32.724,6.419-52.962,6.419-20.155,0-51.762-6.155-53.092-6.419L41.36,76l57.49,91.651L156.341,76Z" transform="translate(-22.189 -40.769)" fill="#f3901d"/>
          <path id="Path_2039" data-name="Path 2039" d="M153.883,78.992h0c-1.33.26-32.77,6.428-53.1,6.428-20.225,0-51.906-6.168-53.245-6.433l-2.707-.533,55.882,89.074L156.6,78.45Z" transform="translate(-24.051 -42.083)" fill="#00788a"/>
          <path id="Path_2040" data-name="Path 2040" d="M156.79,84.187c-5.316.992-32.789,5.951-51.308,5.951s-45.913-5.089-51.238-6.113L53.59,83.9l51.822,82.539,52.031-82.377Z" transform="translate(-28.751 -45.008)" fill="#fff"/>
          <path id="Path_2041" data-name="Path 2041" d="M37,72.92l22.57,36s-1.641-14.64,6.3-18.315S83.344,79.756,83.344,79.756Z" transform="translate(-19.85 -39.116)" fill="#231f20"/>
          <path id="Path_2042" data-name="Path 2042" d="M167.655,100.086c-8.453,3.624-10.451,4.8-11.044,5.6a.175.175,0,0,0-.023.037,171.01,171.01,0,0,0-19.238-14.6s4.129-.162,3.328-.677A57.839,57.839,0,0,0,137.049,84c-2.433,0-11.619.987-16.656.987-2.373,0-4.908-.088-7.531-.241a14.076,14.076,0,0,1,.542,1.418c-1.571.12-5.561,1.033-6.664,1.182a41.051,41.051,0,0,0-5.3,1.191C86.765,91.684,81.612,98.589,81.38,98.983l.232.463.125.751c0,.107,2.1.195,2.1,1.585,0,3.244,1.9,10.2,4.634,16.828-1.525.139,8.921,19.877,7.207,19.831l1.279,1.854c9.677,2.489,13.074,2.841,22.065,2.646h.982c2.317,1.52,4.945,3.244,7.5,4.787,1.539.927,3.569,2.238,5.719,3.619.927.584,3.6-.63,4.435-.093,0,0,31.051-49.927,31.255-51.679Z" transform="translate(-43.662 -45.061)" fill="#fff"/>
          <path id="Path_2043" data-name="Path 2043" d="M88,153.75c.171.463.6,1.168.927,1.956,2.665,0,4.6-.463,6.3-.519,0,0,7.457,7.74,7.61,4.922s-4.634-8.569-8.88-7.934S87.412,151.71,88,153.75Z" transform="translate(-47.164 -81.614)" fill="#00788a"/>
          <path id="Path_2044" data-name="Path 2044" d="M178.349,142.3c-1.812-4.046-2.081-4.857-2.081-4.857s-1.543-7.03-2.781-8.578a10.409,10.409,0,0,0-3.4-2.5s-.241-.315-.672-.857a125.474,125.474,0,0,0,7.8-16.462c4.25-11.067,6.025-15.8,4.593-15.261s-11.308,5.71-17.347,8.3-10.029,4.463-10.622,5.265c-.269.357-.463.658-.64.927a169.919,169.919,0,0,0-19.965-15.238c-9.408-6.066-10.659-6.664-15.076-7.021a96.593,96.593,0,0,0-16.007.616,29.905,29.905,0,0,0-4.458,1.015C83.241,90.7,74.7,97.712,74.7,97.712a125.5,125.5,0,0,0,6.21,20.5c2.665,0,4.764-.417,6.488-.463,9.176,5.524,7.943,7.99,5.1,9.528,4.287,3.147,11.415,9.009,12.745,9.459a38.863,38.863,0,0,1,5.246,2.225c2.8,1.52,8.5,5.538,13.94,8.838s16.749,11.072,19.381,11.517a51.649,51.649,0,0,0,8.425,1,10.516,10.516,0,0,0,3.244-.584,21.839,21.839,0,0,0,5.483.834,10.691,10.691,0,0,0,4.685-1.071s2.039,1.247,6.46,1.6c0,0,2.9.241,5.617.209,2.808.065,4.852-.431,5.167-.825C183.406,159.823,180.166,146.341,178.349,142.3Z" transform="translate(-40.078 -46.075)" fill="#231f20"/>
          <g id="Group_603" data-name="Group 603" transform="translate(87.719 99.747)">
            <path id="Path_2045" data-name="Path 2045" d="M217.758,227.162a63.244,63.244,0,0,1-7.6-.283l-.686-.12.6-.371a28.314,28.314,0,0,0,2.572-1.747,42,42,0,0,1-7.879-.352l-.463-.116.343-.338c.334-.324.83-.728,1.353-1.154a20.056,20.056,0,0,0,1.59-1.39,52.627,52.627,0,0,1-6.025.385H201l.463-.533a11.764,11.764,0,0,0,1.553-2.03h-.079a31.2,31.2,0,0,1-4.4.6h-.463l.338-.426c.385-.57.779-1.168,1.038-1.613l-.389.074a7.6,7.6,0,0,1-3.142.292l-.343-.107.213-.306a4.349,4.349,0,0,0,.663-1.265,5.125,5.125,0,0,1-2.781.153l-.357-.148.273-.287a2.753,2.753,0,0,0,.5-.857,17.5,17.5,0,0,0-4.815.51c4.76.181,9.579,7.559,10.826,8.926s4.987,3.156,9.691,3.708a20.855,20.855,0,0,0,6.808-.241A9.731,9.731,0,0,0,217.758,227.162Z" transform="translate(-189.27 -215.209)" fill="#fff"/>
            <path id="Path_2046" data-name="Path 2046" d="M219.559,222.445c-5.158-2.781-8.277-5.353-14.51-6.6a29.313,29.313,0,0,0-4.741-.561,3.6,3.6,0,0,1-.408.876,7.184,7.184,0,0,0,2.507-.371l.324-.1v.357a3.323,3.323,0,0,1-.607,1.576,10.777,10.777,0,0,0,2.53-.348l1.39-.278-.195.463a13.344,13.344,0,0,1-1.043,1.747c.987-.074,2.646-.366,3.8-.575l.927-.167-.111.408a6.993,6.993,0,0,1-1.543,2.317c1.52,0,4.106-.232,6.025-.463l.556-.065-.315.463a12.133,12.133,0,0,1-2.136,1.988c-.334.273-.64.528-.927.765a48.848,48.848,0,0,0,7.906.2l.621-.042-.408.491a13.552,13.552,0,0,1-2.577,1.923c1.821.185,5.042.181,6.891.181h1.163l-.436.463a11,11,0,0,1-1.2,1.108,26.091,26.091,0,0,0,3.383.524,18.729,18.729,0,0,0,5.441-.236C229.143,227.2,224.713,225.244,219.559,222.445Z" transform="translate(-194.974 -215.247)" fill="#fff"/>
          </g>
          <path id="Path_2047" data-name="Path 2047" d="M132.785,104.739a34.486,34.486,0,0,1,6.025,6.428c3.063,4.171,5.1,7.378,4.532,7.735s-2.832-.714-2.832-.714a82.533,82.533,0,0,1,9.464,7.369c4.532,4.171,6.859,6.553,6.859,6.553s7.369-.116,8.161,1.789,1.135,2.734,1.7,3.81,4.078,6.423,4.533,6.423,1.826,0,2.164-.361a8.8,8.8,0,0,0,.894-1.543s.463,2.618-.463,3.93a109.877,109.877,0,0,0,16.614,9.63c6.368,2.813,12.077,5.1,12.643,4.5s-2.526-12.462-4.324-16.526-2.081-4.857-2.081-4.857-1.543-7.03-2.781-8.578a10.409,10.409,0,0,0-3.4-2.5,141.816,141.816,0,0,0-11.9-13.44A169.6,169.6,0,0,0,153.654,94.52C144.246,88.453,143,87.856,138.578,87.5a69.438,69.438,0,0,0-15.187,1.057,64.1,64.1,0,0,0-8.731,2.618,59.432,59.432,0,0,1,10.428,6.905Z" transform="translate(-61.519 -46.887)" fill="#00788a"/>
          <path id="Path_2048" data-name="Path 2048" d="M215.53,193a27.054,27.054,0,0,1,3.175,3.708c1.191,1.789,3.175,5.061,3.175,5.061s-2.665-1.251-3.4-1.668a13.55,13.55,0,0,1-1.358-.89,20.55,20.55,0,0,1-1.075-3.277C215.813,194.664,215.53,193,215.53,193Z" transform="translate(-115.641 -103.546)" fill="#f3901d"/>
          <g id="Group_604" data-name="Group 604" transform="translate(78.934 77.868)">
            <path id="Path_2049" data-name="Path 2049" d="M184.7,181.22l1.344,1.946s-1.451,6.294-1.293,8.147A26.708,26.708,0,0,1,184.7,181.22Z" transform="translate(-177.789 -175.093)" fill="#00788a"/>
            <path id="Path_2050" data-name="Path 2050" d="M177.687,174.31l1.344,2.238s-1.233,6.952-.927,9.324a29.508,29.508,0,0,1-.417-11.563Z" transform="translate(-174.064 -171.386)" fill="#00788a"/>
            <path id="Path_2051" data-name="Path 2051" d="M170.683,168l1.344,1.946s-1.061,7.29-.751,10.414a30.634,30.634,0,0,1-.593-12.36Z" transform="translate(-170.313 -168)" fill="#00788a"/>
          </g>
          <path id="Path_2052" data-name="Path 2052" d="M120.346,128.429s-11.73-7.74-19.441-9.941-8.384-2.5-8.843-2.141-1.752,1.39-1.752,1.39,1.131-2.377,1.7-2.377,5.33.834,12.073,3.569C110.7,121.593,116.268,125.509,120.346,128.429Z" transform="translate(-48.454 -61.888)" fill="#00788a"/>
          <path id="Path_2053" data-name="Path 2053" d="M47.268,156.46s-7.063.765-20.155,1.3S.066,158.416,0,158.689c-.255,1.071,16.874,9.3,37.539,15.048,22.319,6.2,25.262,7.271,37.761,7a25.894,25.894,0,0,0-5.186-5.445C67.646,173.241,55.68,161.1,47.268,156.46Z" transform="translate(0.006 -83.94)" fill="#231f20"/>
          <path id="Path_2054" data-name="Path 2054" d="M126.551,58.216a42.46,42.46,0,0,1,14.367.269c7.651,1.515,20.795,6.437,21.573,5.923,1.363-.89-9.918-23.742-20.2-36.677C133.122,16.21,119.919,4.461,110.145-.011c-1.061-.463,8.245,16.156,12.073,27.135S125.4,43.659,125.4,43.659s-9.144-.528-15.595,1.08S113.8,55.273,126.551,58.216Z" transform="translate(-57.861 0.02)" fill="#231f20"/>
          <path id="Path_2055" data-name="Path 2055" d="M141.02,224.425a7.591,7.591,0,0,1-1.057-1.168,2.7,2.7,0,0,0-.389-1.465c-.06-.366-.6-.5-1.223-.491a10.289,10.289,0,0,0-2.864-.088,65.045,65.045,0,0,1-12.925.927s-11.243.06-16.874-.352-8.106-.857-8.551-.556a136.166,136.166,0,0,0-13.662,11.892c-4.857,5.13-8.805,10.423-11.174,13.44s-3.383,4.815-3.323,5.052c.032.12.607,1.043.681,1.237.121.3,4.5-.222,8.041-.32s8.208-.144,8.374-.385a47.863,47.863,0,0,1,7.526-12.3c4.894-5.543,10.358-11.03,10.914-10.979s14.056-.385,20.35-1.043,14.492-1.571,14.992-1.928S141.418,224.893,141.02,224.425Z" transform="translate(-37.006 -118.634)" fill="#231f20"/>
          <g id="Group_607" data-name="Group 607" transform="translate(36.281 107.639)">
            <g id="Group_605" data-name="Group 605">
              <path id="Path_2056" data-name="Path 2056" d="M109.468,241.742c-2.225-.144-3.962-.209-5.3-.222-1.237,1.135-2.428,2.289-3.457,3.379l-.709.746c3.36-.394,9.056-.927,12.735-.375.658-.742,1.33-1.483,1.988-2.2A11.384,11.384,0,0,0,109.468,241.742Z" transform="translate(-89.934 -237.218)" fill="#fff"/>
              <path id="Path_2057" data-name="Path 2057" d="M95.181,250.942c-1.108,1.214-2.16,2.428-3.151,3.606,1.39-.144,3.416-.273,6.447-.371a20.861,20.861,0,0,1,5.927.463c.176-.222.334-.412.463-.565l.06-.074c.927-1.061,1.988-2.317,3.11-3.569A63.485,63.485,0,0,0,95.181,250.942Z" transform="translate(-85.658 -241.914)" fill="#fff"/>
              <path id="Path_2058" data-name="Path 2058" d="M96.739,259.827c-3.443.111-5.561.264-6.952.426l-1.047,1.274c1.01-.176,2.4-.385,4.273-.593l.607-.074c3.411-.385,6.674-.755,8.5-.394l.195-.26A21.228,21.228,0,0,0,96.739,259.827Z" transform="translate(-83.892 -247.03)" fill="#fff"/>
              <path id="Path_2059" data-name="Path 2059" d="M86.14,271.482c3.082-.139,4.431-.2,6.122.185.463-.853.969-1.7,1.46-2.5a12.878,12.878,0,0,0-4.885-.871c-2.873-.028-5.473,0-7.6.125-.732.927-1.39,1.8-2.03,2.6l-.927,1.214a62.169,62.169,0,0,1,6.952-.714Z" transform="translate(-78.28 -251.581)" fill="#fff"/>
              <path id="Path_2060" data-name="Path 2060" d="M91.967,262.581l-.607.065c-2.266.26-3.819.51-4.843.709l-.927,1.154c2.048-.093,4.491-.13,7.169-.1a13.214,13.214,0,0,1,5.167.927c.76-1.224,1.506-2.317,2.141-3.244A43.714,43.714,0,0,0,91.967,262.581Z" transform="translate(-82.202 -248.218)" fill="#fff"/>
              <path id="Path_2061" data-name="Path 2061" d="M110.448,240l-.218.195c1.261.028,2.822.093,4.76.218a11.98,11.98,0,0,1,5.6,1.464l.426-.463a10.872,10.872,0,0,0-1.173-.463C118.377,240.408,112.974,240.1,110.448,240Z" transform="translate(-95.423 -236.403)" fill="#fff"/>
              <path id="Path_2062" data-name="Path 2062" d="M115.483,232.239c-1.131.927-2.354,1.993-3.573,3.073,2.725.134,7.559.44,8.991.927a11.129,11.129,0,0,1,1.39.589c1.154-1.219,2.225-2.285,3.073-3.026a14.173,14.173,0,0,0-4.672-1.237A37.932,37.932,0,0,0,115.483,232.239Z" transform="translate(-96.324 -232.238)" fill="#fff"/>
            </g>
            <g id="Group_606" data-name="Group 606" transform="translate(14.381 2.267)">
              <path id="Path_2063" data-name="Path 2063" d="M112.75,266.9c.042.246.079.491.12.723.644-1.029,1.316-2.007,2.007-2.934-.037-.255-.083-.538-.13-.83C114.136,264.731,113.45,265.779,112.75,266.9Z" transform="translate(-111.156 -251.472)" fill="#fff"/>
              <path id="Path_2064" data-name="Path 2064" d="M119.36,257.144c.264-.324.533-.644.8-.955.037-.037,1.122-1.265,2.618-2.892-.037-.287-.088-.649-.144-1.047q-1.314,1.495-2.781,3.175l-.065.074c-.176.2-.385.463-.621.765C119.23,256.481,119.3,256.806,119.36,257.144Z" transform="translate(-114.6 -245.243)" fill="#fff"/>
              <path id="Path_2065" data-name="Path 2065" d="M132.71,244.885l.264,1.029.4-.422c-.042-.352-.1-.765-.144-1.173Z" transform="translate(-121.865 -240.988)" fill="#fff"/>
              <path id="Path_2066" data-name="Path 2066" d="M137.637,237.13c-.746.7-1.705,1.659-2.827,2.855.046.371.1.788.148,1.186.969-1,1.909-1.928,2.711-2.66C137.679,238.062,137.646,237.566,137.637,237.13Z" transform="translate(-122.992 -237.13)" fill="#fff"/>
              <path id="Path_2067" data-name="Path 2067" d="M110.617,272.578c-.037-.246-.079-.491-.116-.728-.4.672-.8,1.363-1.191,2.062.042.25.074.514.116.76Q110.005,273.6,110.617,272.578Z" transform="translate(-109.31 -255.759)" fill="#fff"/>
              <path id="Path_2068" data-name="Path 2068" d="M129.56,246.5c-.621.672-1.274,1.39-1.96,2.169.051.357.1.728.148,1.057.649-.7,1.353-1.455,2.072-2.206C129.723,247.153,129.639,246.8,129.56,246.5Z" transform="translate(-119.124 -242.158)" fill="#fff"/>
              <path id="Path_2069" data-name="Path 2069" d="M118.127,262.08c-.056.079-.107.158-.167.236.046.287.093.584.139.867.065-.083.125-.167.195-.25C118.233,262.627,118.178,262.326,118.127,262.08Z" transform="translate(-113.951 -250.517)" fill="#fff"/>
            </g>
          </g>
          <g id="Group_608" data-name="Group 608" transform="translate(33.199 103.455)">
            <path id="Path_2070" data-name="Path 2070" d="M167.743,225.388a1.2,1.2,0,0,1-.8-.959v-.371c0-.612-.051-.63-.385-.626a5.906,5.906,0,0,1-1.071-.1,4.3,4.3,0,0,0-1.724,0l-.412.07a65.692,65.692,0,0,1-12.592.839c-.111,0-11.327.056-16.906-.357l-5.1-.463a17.806,17.806,0,0,0-3.161-.181c-.246.171-2.113,1.6-4.523,3.592a39.455,39.455,0,0,1,4.634.338,13.588,13.588,0,0,1,5.038,1.39,2.564,2.564,0,0,1,1.256-.709c.825.06,14.339-.158,20.526-.806l11.021-1.117a26.234,26.234,0,0,0,2.734-.311h.088c.417,0,1.1-.046,1.687-.1A1.993,1.993,0,0,0,167.743,225.388Z" transform="translate(-98.157 -223.21)" fill="#f3901d"/>
            <path id="Path_2071" data-name="Path 2071" d="M82.6,276.2l-.927.042a61.4,61.4,0,0,0-7.457.806,26.5,26.5,0,0,0-2.581,3.708c.927-.042,2.317-.125,3.573-.2l4.018-.218c2.248-.065,6.488-.2,7.415-.3a41.023,41.023,0,0,1,1.8-3.708A21.7,21.7,0,0,0,82.6,276.2Z" transform="translate(-71.63 -251.578)" fill="#f3901d"/>
          </g>
          <path id="Path_2072" data-name="Path 2072" d="M318.211,115.484a25.682,25.682,0,0,0,.195-2.915,21.67,21.67,0,0,0-3.9-.709,28.2,28.2,0,0,0-3.9.352,22.482,22.482,0,0,0-1.682,2.924,16.3,16.3,0,0,0,.362,2.4s-2.095,3.916-3.541,6.822-3.819,7.415-7.188,12.925c-3.036,4.954-5.311,8.694-5.311,8.694l1.043,2.558.978-.755.25-.1.853.074s1.548-1.854,3.541-3.93,6.433-9.375,9.269-13.519a78.226,78.226,0,0,0,5.561-10.279,9.014,9.014,0,0,0,2.22-.528c.806-.38,1-1.636,1-1.636S318.04,116.81,318.211,115.484Z" transform="translate(-157.342 -60.01)" fill="#231f20"/>
          <g id="Group_610" data-name="Group 610" transform="translate(136.598 52.99)">
            <path id="Path_2073" data-name="Path 2073" d="M332.26,116.211l3.161.065a9.733,9.733,0,0,0,1.219-1.715c-.616-.074-1.854-.213-2.892-.241a12.884,12.884,0,0,0-3.17.5,16.491,16.491,0,0,0-1.047,1.659A11.785,11.785,0,0,1,332.26,116.211Z" transform="translate(-313.407 -114.32)" fill="#f3901d"/>
            <g id="Group_609" data-name="Group 609" transform="translate(0 3.482)">
              <path id="Path_2074" data-name="Path 2074" d="M296.874,149.616l.375-.371-.185.57a1.891,1.891,0,0,1-.12.463c.176-.056.723-.343.723-.343s-.857,1.594-1.094,1.933c.065-.042.82-.667.885-.709.82-.589,5.316-7,9.389-14,1.886-3.244,6.321-11.271,8.768-15.2-.431-.051-1.075-.093-1.641-.121a3.675,3.675,0,0,0-1.854.334l-.528.195a11.043,11.043,0,0,0-.686,1.14c0,.028-2.034,3.87-3.467,6.743s-4.231,8.055-6.993,12.754a59.025,59.025,0,0,1-5.3,7.7C295.442,150.445,296.7,149.787,296.874,149.616Z" transform="translate(-294.96 -121.834)" fill="#f3901d"/>
              <path id="Path_2075" data-name="Path 2075" d="M296.251,184.29l-.3.088a3.518,3.518,0,0,1-1.214.593c.07.153.556,1.177.626,1.335.116-.083.324-.246.389-.3-.042-.13-.093-.287-.153-.463C295.838,185.129,296.079,184.559,296.251,184.29Z" transform="translate(-294.74 -155.345)" fill="#f3901d"/>
            </g>
          </g>
          <path id="Path_2076" data-name="Path 2076" d="M210.253,239.606s-1.455.2-1.474.032a2.507,2.507,0,0,0-.352-1.117,2.706,2.706,0,0,0-.547-.607,3.3,3.3,0,0,1,1.817-1.553c1.39-.538,2.123-.89,2.234-.742s-.13.83-.13.83S210.675,239.486,210.253,239.606Z" transform="translate(-111.536 -126.396)" fill="#231f20"/>
          <path id="Path_2077" data-name="Path 2077" d="M211.943,237.05l-.463.185-.83.329a2.98,2.98,0,0,0-1.39,1.047,3.1,3.1,0,0,1,.361.463,5.668,5.668,0,0,1,.463.8A17.877,17.877,0,0,0,211.943,237.05Z" transform="translate(-112.277 -127.181)" fill="#f3901d"/>
          <path id="Path_2078" data-name="Path 2078" d="M302.108,193.9s1.27-.755,1.168-.927a3.708,3.708,0,0,1-.463-1.284,3.629,3.629,0,0,1,.023-.927,3.165,3.165,0,0,0-2.442-.278c-1.427.389-2.243.542-2.234.751a4.819,4.819,0,0,0,.2.783S301.724,194.078,302.108,193.9Z" transform="translate(-159.977 -102.126)" fill="#231f20"/>
          <path id="Path_2079" data-name="Path 2079" d="M300.32,192.006l.491-.134.867-.227a2.743,2.743,0,0,1,1.77.083,4.671,4.671,0,0,0,0,.658,3.136,3.136,0,0,0,.139.626,17.9,17.9,0,0,0-3.267-1.006Z" transform="translate(-161.136 -102.76)" fill="#f3901d"/>
          <path id="Path_2080" data-name="Path 2080" d="M223.677,239.417c-.283-.431-.964-.64-1.237-1.39-.125-.338-.2-.765-.487-.927a5.951,5.951,0,0,0-.584,4.231,2.883,2.883,0,0,0,2.28-.885S223.894,239.718,223.677,239.417Z" transform="translate(-118.69 -127.208)" fill="#231f20"/>
          <path id="Path_2081" data-name="Path 2081" d="M223.554,241.55l.07-.065-.06-.093a10.528,10.528,0,0,1-.848-1.576l-.1-.227-.065.213a5.821,5.821,0,0,0-.222,2.229v.139l.417-.111a3.194,3.194,0,0,0,.806-.51Z" transform="translate(-119.276 -128.544)" fill="#f3901d"/>
        </g>
        <path id="Path_2082" data-name="Path 2082" d="M176.977,276.93a2.781,2.781,0,1,1-2.748,2.781,2.72,2.72,0,0,1,2.748-2.781Zm0,.426A2.345,2.345,0,1,0,179.2,279.7a2.28,2.28,0,0,0-2.225-2.345Zm-.538,3.944h-.463v-3.082a5.509,5.509,0,0,1,.871-.074,1.631,1.631,0,0,1,.959.232.746.746,0,0,1,.283.64.779.779,0,0,1-.6.751v.023c.269.046.463.292.514.746a2.5,2.5,0,0,0,.2.765h-.519a2.262,2.262,0,0,1-.209-.788.575.575,0,0,0-.663-.538h-.371Zm0-1.705h.357c.4,0,.746-.148.746-.528,0-.273-.195-.542-.746-.542a2.969,2.969,0,0,0-.357.023Z" transform="translate(-93.481 -148.579)" fill="#231f20"/>
      </g>
    </g>
  </g>
</svg>
