<svg id="Group_616" data-name="Group 616" xmlns="http://www.w3.org/2000/svg" width="76.749" height="64" viewBox="0 0 76.749 64">
  <path id="Path_2036" data-name="Path 2036" d="M208.766,235.956a1.572,1.572,0,0,0-.866.74,1.291,1.291,0,0,1,.261.289,1.2,1.2,0,0,1,.168.532c0,.082.7-.015.7-.015.2-.049.738-1.5.738-1.5s.115-.325.062-.4S209.422,235.7,208.766,235.956Zm3.249,1.069c-.135-.205-.459-.3-.59-.663-.06-.161-.1-.364-.232-.442a2.835,2.835,0,0,0-.278,2.016,1.374,1.374,0,0,0,1.087-.422S212.118,237.168,212.014,237.025Z" transform="translate(-161.987 -183.556)" fill="#fff"/>
  <path id="Path_2037" data-name="Path 2037" d="M88.767,68.12l-3.814.76c-.152.031-15.4,3.037-25.016,3.037-9.5-.007-24.453-2.913-25.078-3.043L30,67.95l29.9,48.313L89.834,67.87Z" transform="translate(-23.374 -52.877)" fill="#231f20"/>
  <path id="Path_2038" data-name="Path 2038" d="M94.025,76.428c-.632.124-15.593,3.059-25.237,3.059-9.6,0-24.665-2.933-25.3-3.059L41.36,76l27.395,43.673L96.15,76Z" transform="translate(-32.225 -59.212)" fill="#f3901d"/>
  <path id="Path_2039" data-name="Path 2039" d="M96.8,78.708h0c-.634.124-15.615,3.063-25.3,3.063-9.637,0-24.734-2.939-25.372-3.065l-1.29-.254L71.459,120.9,98.089,78.45Z" transform="translate(-34.929 -61.121)" fill="#00788a"/>
  <path id="Path_2040" data-name="Path 2040" d="M102.766,84.037c-2.533.473-15.624,2.836-24.449,2.836S56.439,84.448,53.9,83.96l-.311-.06,24.694,39.331,24.793-39.254Z" transform="translate(-41.754 -65.367)" fill="#fff"/>
  <path id="Path_2041" data-name="Path 2041" d="M37,72.92,47.755,90.072s-.782-6.976,3-8.727a56.772,56.772,0,0,0,8.326-5.168Z" transform="translate(-28.828 -56.812)" fill="#231f20"/>
  <path id="Path_2042" data-name="Path 2042" d="M122.491,91.665c-4.028,1.727-4.98,2.286-5.263,2.668a.084.084,0,0,0-.011.018,81.488,81.488,0,0,0-9.167-6.959s1.968-.077,1.586-.322A27.561,27.561,0,0,0,107.907,84c-1.159,0-5.536.47-7.937.47-1.131,0-2.339-.042-3.589-.115a6.709,6.709,0,0,1,.258.676c-.749.057-2.65.492-3.176.563a19.561,19.561,0,0,0-2.524.568c-6.994,1.5-9.45,4.79-9.56,4.978l.11.221.06.358c0,.051,1,.093,1,.755a27.208,27.208,0,0,0,2.208,8.019c-.727.066,4.251,9.472,3.434,9.45l.61.883a30.57,30.57,0,0,0,10.514,1.261h.468c1.1.724,2.356,1.546,3.575,2.281.733.442,1.7,1.067,2.725,1.725.442.278,1.714-.3,2.113-.044,0,0,14.8-23.791,14.893-24.626Z" transform="translate(-63.407 -65.445)" fill="#fff"/>
  <path id="Path_2043" data-name="Path 2043" d="M87.949,152.9c.082.221.285.557.442.932,1.27,0,2.191-.221,3-.247,0,0,3.553,3.688,3.626,2.345s-2.208-4.083-4.231-3.781S87.671,151.928,87.949,152.9Z" transform="translate(-68.492 -118.526)" fill="#00788a"/>
  <path id="Path_2044" data-name="Path 2044" d="M124.09,112.768c-.863-1.928-.992-2.314-.992-2.314s-.735-3.35-1.325-4.088a4.96,4.96,0,0,0-1.621-1.19s-.115-.15-.32-.409a59.79,59.79,0,0,0,3.717-7.844c2.025-5.274,2.871-7.528,2.189-7.272s-5.388,2.721-8.266,3.955-4.779,2.127-5.062,2.509c-.128.17-.221.314-.3.442a80.969,80.969,0,0,0-9.514-7.261c-4.483-2.891-5.079-3.176-7.184-3.346a46.028,46.028,0,0,0-7.628.294,14.251,14.251,0,0,0-2.124.484,27.57,27.57,0,0,0-10.956,4.8,59.8,59.8,0,0,0,2.959,9.768c1.27,0,2.27-.2,3.092-.221,4.373,2.632,3.785,3.807,2.429,4.54,2.043,1.5,5.439,4.293,6.073,4.507a18.518,18.518,0,0,1,2.5,1.06c1.336.724,4.05,2.639,6.643,4.211s7.981,5.276,9.235,5.488a24.611,24.611,0,0,0,4.015.477,5.011,5.011,0,0,0,1.546-.278,10.406,10.406,0,0,0,2.612.4,5.1,5.1,0,0,0,2.233-.51,7.515,7.515,0,0,0,3.078.764s1.38.115,2.677.1a4.633,4.633,0,0,0,2.462-.393C126.5,121.12,124.956,114.7,124.09,112.768Z" transform="translate(-58.202 -66.917)" fill="#231f20"/>
  <g id="Group_603" data-name="Group 603" transform="translate(41.799 47.531)">
    <path id="Path_2045" data-name="Path 2045" d="M202.845,220.9a30.137,30.137,0,0,1-3.622-.135l-.327-.057.287-.177a13.488,13.488,0,0,0,1.226-.833,20.011,20.011,0,0,1-3.754-.168l-.221-.055.163-.161c.159-.155.4-.347.645-.55a9.559,9.559,0,0,0,.757-.663,25.085,25.085,0,0,1-2.871.183h-.267l.221-.254a5.606,5.606,0,0,0,.74-.967h-.038a14.872,14.872,0,0,1-2.1.285h-.221l.161-.2c.183-.272.371-.557.495-.769l-.186.035a3.621,3.621,0,0,1-1.5.139l-.163-.051.1-.146a2.072,2.072,0,0,0,.316-.6,2.442,2.442,0,0,1-1.325.073l-.17-.071.13-.137a1.312,1.312,0,0,0,.236-.409,8.34,8.34,0,0,0-2.295.243c2.268.086,4.565,3.6,5.159,4.253a8.371,8.371,0,0,0,4.618,1.767,9.938,9.938,0,0,0,3.244-.115A4.637,4.637,0,0,0,202.845,220.9Z" transform="translate(-189.27 -215.209)" fill="#fff"/>
    <path id="Path_2046" data-name="Path 2046" d="M209.268,218.694c-2.458-1.325-3.944-2.551-6.914-3.147a13.968,13.968,0,0,0-2.259-.267,1.717,1.717,0,0,1-.194.417,3.424,3.424,0,0,0,1.195-.177l.155-.046v.17a1.583,1.583,0,0,1-.289.751,5.135,5.135,0,0,0,1.206-.166l.662-.133-.093.221a6.36,6.36,0,0,1-.5.833c.47-.035,1.261-.174,1.813-.274l.442-.079-.053.194a3.332,3.332,0,0,1-.735,1.1c.724,0,1.957-.11,2.871-.221l.265-.031-.15.221a5.781,5.781,0,0,1-1.018.947l-.442.364a23.279,23.279,0,0,0,3.768.1l.3-.02-.194.234a6.457,6.457,0,0,1-1.228.916c.868.088,2.4.086,3.284.086h.554l-.208.221a5.243,5.243,0,0,1-.572.528,12.429,12.429,0,0,0,1.612.25,8.924,8.924,0,0,0,2.593-.113C213.835,220.96,211.724,220.028,209.268,218.694Z" transform="translate(-197.553 -215.264)" fill="#fff"/>
  </g>
  <path id="Path_2047" data-name="Path 2047" d="M123.3,95.663a16.434,16.434,0,0,1,2.871,3.063c1.46,1.988,2.429,3.516,2.16,3.686s-1.349-.34-1.349-.34a39.329,39.329,0,0,1,4.51,3.511c2.16,1.988,3.268,3.123,3.268,3.123s3.511-.055,3.889.852.541,1.3.81,1.815a18.453,18.453,0,0,0,2.16,3.061c.216,0,.87,0,1.031-.172a4.2,4.2,0,0,0,.426-.735,3.09,3.09,0,0,1-.221,1.873,52.356,52.356,0,0,0,7.917,4.589c3.034,1.34,5.755,2.429,6.024,2.142s-1.2-5.938-2.06-7.875-.992-2.314-.992-2.314-.735-3.35-1.325-4.088a4.96,4.96,0,0,0-1.621-1.19,67.579,67.579,0,0,0-5.671-6.4,80.814,80.814,0,0,0-11.883-9.465c-4.483-2.891-5.079-3.176-7.184-3.346a33.088,33.088,0,0,0-7.237.5A30.542,30.542,0,0,0,114.66,89.2a28.32,28.32,0,0,1,4.969,3.29Z" transform="translate(-89.337 -68.096)" fill="#00788a"/>
  <path id="Path_2048" data-name="Path 2048" d="M215.53,193a12.892,12.892,0,0,1,1.513,1.767c.568.852,1.513,2.412,1.513,2.412s-1.27-.6-1.621-.8a6.455,6.455,0,0,1-.647-.424,9.794,9.794,0,0,1-.512-1.561C215.665,193.793,215.53,193,215.53,193Z" transform="translate(-167.932 -150.374)" fill="#f3901d"/>
  <g id="Group_604" data-name="Group 604" transform="translate(37.613 37.105)">
    <path id="Path_2049" data-name="Path 2049" d="M184.463,181.22l.64.928a23.615,23.615,0,0,0-.616,3.882A12.727,12.727,0,0,1,184.463,181.22Z" transform="translate(-181.169 -178.301)" fill="#00788a"/>
    <path id="Path_2050" data-name="Path 2050" d="M177.486,174.31l.64,1.067a25.022,25.022,0,0,0-.442,4.443,14.061,14.061,0,0,1-.2-5.51Z" transform="translate(-175.76 -172.917)" fill="#00788a"/>
    <path id="Path_2051" data-name="Path 2051" d="M170.489,168l.64.928a30.859,30.859,0,0,0-.358,4.962,14.6,14.6,0,0,1-.283-5.89Z" transform="translate(-170.313 -168)" fill="#00788a"/>
  </g>
  <path id="Path_2052" data-name="Path 2052" d="M104.622,121.588s-5.589-3.688-9.264-4.737-3.995-1.19-4.214-1.02-.835.663-.835.663.539-1.133.808-1.133a24.4,24.4,0,0,1,5.753,1.7A37.437,37.437,0,0,1,104.622,121.588Z" transform="translate(-70.365 -89.88)" fill="#00788a"/>
  <path id="Path_2053" data-name="Path 2053" d="M22.521,156.46s-3.366.364-9.6.618S.028,157.392,0,157.522c-.121.51,8.041,4.432,17.888,7.171,10.636,2.955,12.038,3.465,17.994,3.337a12.339,12.339,0,0,0-2.471-2.595C32.231,164.457,26.529,158.673,22.521,156.46Z" transform="translate(0.006 -121.903)" fill="#231f20"/>
  <path id="Path_2054" data-name="Path 2054" d="M116.757,27.73a20.233,20.233,0,0,1,6.846.128c3.646.722,9.909,3.067,10.28,2.822.649-.424-4.726-11.314-9.624-17.477C119.889,7.713,113.6,2.115,108.939-.016c-.506-.221,3.929,7.7,5.753,12.93s1.517,7.879,1.517,7.879a30.32,30.32,0,0,0-7.431.515C105.7,22.074,110.682,26.328,116.757,27.73Z" transform="translate(-84.025 0.02)" fill="#231f20"/>
  <path id="Path_2055" data-name="Path 2055" d="M103.3,222.7a3.616,3.616,0,0,1-.5-.557,1.287,1.287,0,0,0-.186-.7c-.029-.174-.287-.236-.583-.234a4.9,4.9,0,0,0-1.365-.042,30.994,30.994,0,0,1-6.159.442s-5.358.029-8.041-.168-3.862-.409-4.074-.265a64.889,64.889,0,0,0-6.51,5.667c-2.314,2.445-4.2,4.967-5.324,6.4a9.278,9.278,0,0,0-1.583,2.407c.015.057.289.5.325.59a35.851,35.851,0,0,0,3.832-.152,34.063,34.063,0,0,0,3.991-.183,22.807,22.807,0,0,1,3.586-5.861c2.332-2.641,4.936-5.256,5.2-5.232s6.7-.183,9.7-.5,6.906-.749,7.144-.919S103.495,222.918,103.3,222.7Z" transform="translate(-53.741 -172.285)" fill="#231f20"/>
  <g id="Group_607" data-name="Group 607" transform="translate(17.288 51.291)">
    <g id="Group_605" data-name="Group 605">
      <path id="Path_2056" data-name="Path 2056" d="M104.512,241.626c-1.06-.068-1.888-.1-2.526-.106-.59.541-1.157,1.091-1.647,1.61l-.338.356a27.091,27.091,0,0,1,6.069-.179c.314-.353.634-.707.947-1.047A5.424,5.424,0,0,0,104.512,241.626Z" transform="translate(-95.203 -239.47)" fill="#fff"/>
      <path id="Path_2057" data-name="Path 2057" d="M93.532,250.591c-.528.579-1.029,1.157-1.5,1.718.663-.068,1.628-.13,3.072-.177a9.94,9.94,0,0,1,2.825.221c.084-.106.159-.2.221-.269l.029-.035c.442-.506.947-1.1,1.482-1.7A30.252,30.252,0,0,0,93.532,250.591Z" transform="translate(-88.993 -246.288)" fill="#fff"/>
      <path id="Path_2058" data-name="Path 2058" d="M92.552,259.816c-1.641.053-2.65.126-3.313.2l-.5.607c.481-.084,1.142-.183,2.036-.283l.289-.035a16.842,16.842,0,0,1,4.052-.188l.093-.124A10.116,10.116,0,0,0,92.552,259.816Z" transform="translate(-86.43 -253.718)" fill="#fff"/>
      <path id="Path_2059" data-name="Path 2059" d="M82.025,269.811a10.291,10.291,0,0,1,2.917.088c.221-.406.462-.808.7-1.19a6.137,6.137,0,0,0-2.328-.415c-1.369-.013-2.608,0-3.622.06-.349.442-.663.859-.967,1.241l-.442.579a29.62,29.62,0,0,1,3.313-.34Z" transform="translate(-78.28 -260.327)" fill="#fff"/>
      <path id="Path_2060" data-name="Path 2060" d="M88.629,262.288l-.289.031c-1.08.124-1.82.243-2.308.338l-.442.55c.976-.044,2.14-.062,3.416-.049a6.3,6.3,0,0,1,2.462.442c.362-.583.718-1.1,1.02-1.546A20.829,20.829,0,0,0,88.629,262.288Z" transform="translate(-83.976 -255.444)" fill="#fff"/>
      <path id="Path_2061" data-name="Path 2061" d="M110.334,240l-.1.093c.6.013,1.345.044,2.268.1a5.709,5.709,0,0,1,2.668.7l.2-.221a5.179,5.179,0,0,0-.559-.221A25.872,25.872,0,0,0,110.334,240Z" transform="translate(-103.174 -238.286)" fill="#fff"/>
      <path id="Path_2062" data-name="Path 2062" d="M113.613,232.239c-.539.442-1.122.95-1.7,1.464a26.622,26.622,0,0,1,4.284.442,5.3,5.3,0,0,1,.663.28c.55-.581,1.06-1.089,1.464-1.442a6.754,6.754,0,0,0-2.226-.59A18.075,18.075,0,0,0,113.613,232.239Z" transform="translate(-104.483 -232.238)" fill="#fff"/>
    </g>
    <g id="Group_606" data-name="Group 606" transform="translate(6.853 1.08)">
      <path id="Path_2063" data-name="Path 2063" d="M112.75,265.309c.02.117.038.234.057.345.307-.49.627-.956.956-1.4-.018-.121-.04-.256-.062-.4C113.41,264.275,113.083,264.774,112.75,265.309Z" transform="translate(-111.99 -257.957)" fill="#fff"/>
      <path id="Path_2064" data-name="Path 2064" d="M119.261,254.582c.126-.155.254-.307.382-.455.018-.018.534-.6,1.248-1.378-.018-.137-.042-.309-.068-.5q-.626.712-1.325,1.513l-.031.035c-.084.095-.183.221-.3.364C119.2,254.266,119.23,254.421,119.261,254.582Z" transform="translate(-116.993 -248.911)" fill="#fff"/>
      <path id="Path_2065" data-name="Path 2065" d="M132.71,244.589l.126.49.192-.2c-.02-.168-.046-.364-.068-.559Z" transform="translate(-127.542 -242.732)" fill="#fff"/>
      <path id="Path_2066" data-name="Path 2066" d="M136.157,237.13c-.356.331-.813.791-1.347,1.36.022.177.046.375.071.565.462-.475.91-.919,1.292-1.268C136.177,237.574,136.162,237.338,136.157,237.13Z" transform="translate(-129.179 -237.13)" fill="#fff"/>
      <path id="Path_2067" data-name="Path 2067" d="M109.933,272.2c-.018-.117-.038-.234-.055-.347-.192.32-.382.649-.568.983.02.119.035.245.055.362Q109.641,272.683,109.933,272.2Z" transform="translate(-109.31 -264.183)" fill="#fff"/>
      <path id="Path_2068" data-name="Path 2068" d="M128.534,246.5c-.3.32-.607.663-.934,1.034.024.17.049.347.071.5.309-.333.645-.693.987-1.051C128.611,246.811,128.572,246.644,128.534,246.5Z" transform="translate(-123.561 -244.431)" fill="#fff"/>
      <path id="Path_2069" data-name="Path 2069" d="M118.04,262.08c-.026.038-.051.075-.079.113.022.137.044.278.066.413.031-.04.06-.08.093-.119C118.09,262.341,118.064,262.2,118.04,262.08Z" transform="translate(-116.05 -256.57)" fill="#fff"/>
    </g>
  </g>
  <g id="Group_608" data-name="Group 608" transform="translate(15.82 49.298)">
    <path id="Path_2070" data-name="Path 2070" d="M143.311,224.248a.572.572,0,0,1-.382-.457v-.177c0-.292-.024-.3-.183-.3a2.814,2.814,0,0,1-.51-.046,2.046,2.046,0,0,0-.822,0l-.2.033a31.3,31.3,0,0,1-6,.4c-.053,0-5.4.026-8.056-.17l-2.429-.221a8.484,8.484,0,0,0-1.506-.086c-.117.082-1.007.764-2.155,1.711a18.8,18.8,0,0,1,2.208.161,6.475,6.475,0,0,1,2.4.663,1.222,1.222,0,0,1,.6-.338c.393.029,6.833-.075,9.781-.384l5.251-.532a12.5,12.5,0,0,0,1.3-.148h.042c.2,0,.523-.022.8-.046A.95.95,0,0,0,143.311,224.248Z" transform="translate(-110.152 -223.21)" fill="#f3901d"/>
    <path id="Path_2071" data-name="Path 2071" d="M76.855,276.136l-.442.02a29.261,29.261,0,0,0-3.553.384,12.628,12.628,0,0,0-1.23,1.767c.442-.02,1.1-.06,1.7-.1l1.915-.1c1.071-.031,3.092-.095,3.533-.141a19.553,19.553,0,0,1,.857-1.767A10.34,10.34,0,0,0,76.855,276.136Z" transform="translate(-71.63 -264.405)" fill="#f3901d"/>
  </g>
  <path id="Path_2072" data-name="Path 2072" d="M305.144,113.587a12.24,12.24,0,0,0,.093-1.389,10.326,10.326,0,0,0-1.857-.338,13.435,13.435,0,0,0-1.857.168,10.714,10.714,0,0,0-.8,1.393,7.771,7.771,0,0,0,.172,1.144s-1,1.866-1.687,3.251-1.82,3.533-3.425,6.159c-1.446,2.361-2.531,4.143-2.531,4.143l.5,1.219.466-.36.119-.046.406.035s.738-.883,1.687-1.873,3.065-4.468,4.417-6.442a37.276,37.276,0,0,0,2.65-4.9,4.3,4.3,0,0,0,1.058-.252c.384-.181.475-.78.475-.78S305.063,114.219,305.144,113.587Z" transform="translate(-228.488 -87.153)" fill="#231f20"/>
  <g id="Group_610" data-name="Group 610" transform="translate(65.091 25.251)">
    <path id="Path_2073" data-name="Path 2073" d="M330.831,115.221l1.506.031a4.637,4.637,0,0,0,.581-.817c-.294-.035-.883-.1-1.378-.115a6.139,6.139,0,0,0-1.51.239,7.853,7.853,0,0,0-.5.791A5.616,5.616,0,0,1,330.831,115.221Z" transform="translate(-321.847 -114.32)" fill="#f3901d"/>
    <g id="Group_609" data-name="Group 609" transform="translate(0 1.659)">
      <path id="Path_2074" data-name="Path 2074" d="M295.972,135.072l.179-.177-.088.272a.9.9,0,0,1-.057.221c.084-.027.345-.163.345-.163s-.409.76-.521.921c.031-.02.391-.318.422-.338a46.782,46.782,0,0,0,4.474-6.669c.9-1.546,3.012-5.371,4.178-7.241-.205-.024-.512-.044-.782-.057a1.751,1.751,0,0,0-.883.159l-.252.093a5.258,5.258,0,0,0-.327.543c0,.013-.969,1.844-1.652,3.213s-2.016,3.838-3.332,6.077a28.128,28.128,0,0,1-2.524,3.67C295.289,135.468,295.89,135.154,295.972,135.072Z" transform="translate(-295.059 -121.834)" fill="#f3901d"/>
      <path id="Path_2075" data-name="Path 2075" d="M295.46,184.29l-.141.042a1.676,1.676,0,0,1-.579.283c.033.073.265.561.3.636.055-.04.155-.117.186-.141-.02-.062-.044-.137-.073-.221C295.263,184.69,295.378,184.418,295.46,184.29Z" transform="translate(-294.74 -170.497)" fill="#f3901d"/>
    </g>
  </g>
  <path id="Path_2076" data-name="Path 2076" d="M209.011,237.5s-.693.1-.7.015a1.2,1.2,0,0,0-.168-.532,1.289,1.289,0,0,0-.261-.289,1.572,1.572,0,0,1,.866-.74c.663-.256,1.011-.424,1.064-.353s-.062.4-.062.4S209.212,237.445,209.011,237.5Z" transform="translate(-161.971 -183.556)" fill="#231f20"/>
  <path id="Path_2077" data-name="Path 2077" d="M210.539,237.05l-.221.088-.4.157a1.42,1.42,0,0,0-.663.5,1.475,1.475,0,0,1,.172.221,2.7,2.7,0,0,1,.221.382A8.518,8.518,0,0,0,210.539,237.05Z" transform="translate(-163.046 -184.696)" fill="#f3901d"/>
  <path id="Path_2078" data-name="Path 2078" d="M300.041,192.042s.605-.36.557-.442a1.767,1.767,0,0,1-.221-.612,1.732,1.732,0,0,1,.011-.442,1.508,1.508,0,0,0-1.164-.133c-.68.186-1.069.258-1.064.358a2.3,2.3,0,0,0,.095.373A8.378,8.378,0,0,0,300.041,192.042Z" transform="translate(-232.314 -148.312)" fill="#231f20"/>
  <path id="Path_2079" data-name="Path 2079" d="M300.32,191.76l.234-.064.413-.108a1.307,1.307,0,0,1,.844.04,2.222,2.222,0,0,0,0,.314,1.5,1.5,0,0,0,.066.3,8.529,8.529,0,0,0-1.557-.479Z" transform="translate(-233.997 -149.234)" fill="#f3901d"/>
  <path id="Path_2080" data-name="Path 2080" d="M222.386,238.2c-.135-.205-.459-.3-.59-.663-.06-.161-.1-.364-.232-.442a2.836,2.836,0,0,0-.278,2.016,1.374,1.374,0,0,0,1.087-.422S222.49,238.348,222.386,238.2Z" transform="translate(-172.359 -184.735)" fill="#231f20"/>
  <path id="Path_2081" data-name="Path 2081" d="M222.9,240.524l.033-.031-.029-.044a5.018,5.018,0,0,1-.4-.751l-.046-.108-.031.1a2.774,2.774,0,0,0-.106,1.062v.066l.2-.053a1.523,1.523,0,0,0,.384-.243Z" transform="translate(-173.21 -186.675)" fill="#f3901d"/>
</svg>
