<svg xmlns="http://www.w3.org/2000/svg" xmlns:xlink="http://www.w3.org/1999/xlink" width="431.797" height="428.757" viewBox="0 0 431.797 428.757">
  <defs>
    <clipPath id="clip-path">
      <rect id="Rectangle_85" data-name="Rectangle 85" width="136" height="326" transform="translate(-18.332 128.897)" fill="none" stroke="#707070" stroke-width="1"/>
    </clipPath>
  </defs>
  <g id="Hockey_Visual" data-name="Hockey Visual" transform="translate(0 1.435)">
    <g id="shape" transform="matrix(0.839, 0.545, -0.545, 0.839, 163.422, 0)">
      <g id="Group_46" data-name="Group 46">
        <g id="Layer_2" data-name="Layer 2" transform="translate(184.507 261.583)">
          <g id="logos" transform="translate(0 0)">
            <path id="Path_4" data-name="Path 4" d="M5.754,348.5a4.94,4.94,0,0,1-2.887-1.038c-.094-.068-.187-.139-.371-.291-.064-.053-.128-.108-.28-.246a7.938,7.938,0,0,1-2.085-7.141l4.386-23.792c.526-3.457,2.842-5.957,5.526-5.965H125.555c2.632.092,4.921,2.559,5.483,5.965l4.333,23.792c.807,4.983-2.517,8.742-5.605,8.717H5.754" transform="translate(0 -310.03)" fill="#fff" stroke="#000" stroke-width="2"/>
          </g>
        </g>
        <path id="Path_5" data-name="Path 5" d="M335.8,257.745a16.218,16.218,0,0,1-6.987-1.908c-2.838-1.507-6.76-4.386-11.3-9.711l-9.018-13.373-15.115-23.088L283.352,194.7l-14.29-23.012-10.8-17.156-15.492-23.373-18.491-28.524L206.737,75.671,190.57,50.5,169.736,18.5,157.964.762S153.555-8.051,144.3-1.281c-4.68,3.323-2.458,8.466-1.531,10.382,1.579,3.163,18.948,30.42,18.948,30.42l11.509,17.542,11.8,18.7,12.86,19.774,11.877,18.406,9.255,14.891L234.658,153.5l22.807,34.4,12.728,19.816L282,226.168l16.158,24.883,11.807,18.121,11.893,17.141,2.463,3.342,3.149,4.273" transform="translate(-141.425 3.838)" fill="#fff" stroke="#000" stroke-width="2"/>
      </g>
    </g>
    <g id="Mask_Group_18" data-name="Mask Group 18" transform="translate(171.927 -28.475)" clip-path="url(#clip-path)">
      <g id="shape-2" data-name="shape" transform="matrix(0.839, 0.545, -0.545, 0.839, -8.505, 28.475)">
        <g id="Group_46-2" data-name="Group 46">
          <g id="Layer_2-2" data-name="Layer 2" transform="translate(184.507 261.583)">
            <g id="logos-2" data-name="logos" transform="translate(0 0)">
              <path id="Path_4-2" data-name="Path 4" d="M5.754,348.5a4.94,4.94,0,0,1-2.887-1.038c-.094-.068-.187-.139-.371-.291-.064-.053-.128-.108-.28-.246a7.938,7.938,0,0,1-2.085-7.141l4.386-23.792c.526-3.457,2.842-5.957,5.526-5.965H125.555c2.632.092,4.921,2.559,5.483,5.965l4.333,23.792c.807,4.983-2.517,8.742-5.605,8.717H5.754" transform="translate(0 -310.03)" fill="#002f6c" stroke="#000" stroke-width="2"/>
            </g>
          </g>
          <path id="Path_5-2" data-name="Path 5" d="M335.8,257.745a16.218,16.218,0,0,1-6.987-1.908c-2.838-1.507-6.76-4.386-11.3-9.711l-9.018-13.373-15.115-23.088L283.352,194.7l-14.29-23.012-10.8-17.156-15.492-23.373-18.491-28.524L206.737,75.671,190.57,50.5,169.736,18.5,157.964.762S153.555-8.051,144.3-1.281c-4.68,3.323-2.458,8.466-1.531,10.382,1.579,3.163,18.948,30.42,18.948,30.42l11.509,17.542,11.8,18.7,12.86,19.774,11.877,18.406,9.255,14.891L234.658,153.5l22.807,34.4,12.728,19.816L282,226.168l16.158,24.883,11.807,18.121,11.893,17.141,2.463,3.342,3.149,4.273" transform="translate(-141.425 3.838)" fill="#002f6c" stroke="#000" stroke-width="2"/>
        </g>
      </g>
    </g>
  </g>
</svg>
