<svg xmlns="http://www.w3.org/2000/svg" xmlns:xlink="http://www.w3.org/1999/xlink" width="431.797" height="428.757" viewBox="0 0 431.797 428.757">
  <defs>
    <clipPath id="clip-path">
      <rect id="Rectangle_68" data-name="Rectangle 68" width="136" height="336" transform="translate(-28 115)" fill="none" stroke="#707070" stroke-width="1"/>
    </clipPath>
  </defs>
  <g id="Hockey_Visual" data-name="Hockey Visual" transform="translate(0 1.435)">
    <g id="shape" transform="matrix(0.839, -0.545, 0.545, 0.839, 0, 174.285)">
      <g id="Group_46" data-name="Group 46">
        <g id="Layer_2" data-name="Layer 2" transform="translate(0 261.583)">
          <g id="logos">
            <path id="Path_4" data-name="Path 4" d="M129.739,348.5a4.94,4.94,0,0,0,2.887-1.038c.094-.068.187-.139.371-.291.064-.053.128-.108.28-.246a7.938,7.938,0,0,0,2.085-7.141l-4.386-23.792c-.526-3.457-2.842-5.957-5.526-5.965H9.939c-2.632.092-4.921,2.559-5.483,5.965L.123,339.787c-.807,4.983,2.517,8.742,5.605,8.716H129.739" transform="translate(0 -310.03)" fill="#fff" stroke="#000" stroke-width="2"/>
          </g>
        </g>
        <path id="Path_5" data-name="Path 5" d="M141.425,257.745a16.218,16.218,0,0,0,6.987-1.908c2.838-1.507,6.76-4.386,11.3-9.711l9.018-13.373,15.115-23.088L193.869,194.7l14.29-23.012,10.8-17.156,15.492-23.373,18.491-28.524,17.544-26.963L286.651,50.5,307.485,18.5,319.257.762s4.408-8.813,13.662-2.043c4.68,3.323,2.458,8.466,1.531,10.382-1.579,3.163-18.948,30.42-18.948,30.42L303.994,57.063l-11.8,18.7-12.86,19.774-11.877,18.406L258.2,128.834,242.563,153.5l-22.807,34.4-12.728,19.816L195.22,226.168l-16.158,24.883-11.807,18.121-11.893,17.141-2.463,3.342-3.149,4.273" transform="translate(-15.796 3.838)" fill="#fff" stroke="#000" stroke-width="2"/>
      </g>
    </g>
    <g id="Mask_Group_9" data-name="Mask Group 9" transform="translate(172.371 -24.964)" clip-path="url(#clip-path)">
      <g id="shape-2" data-name="shape" transform="matrix(0.839, -0.545, 0.545, 0.839, -172.168, 199.181)">
        <g id="Group_46-2" data-name="Group 46">
          <g id="Layer_2-2" data-name="Layer 2" transform="translate(0 261.583)">
            <g id="logos-2" data-name="logos">
              <path id="Path_4-2" data-name="Path 4" d="M129.739,348.5a4.94,4.94,0,0,0,2.887-1.038c.094-.068.187-.139.371-.291.064-.053.128-.108.28-.246a7.938,7.938,0,0,0,2.085-7.141l-4.386-23.792c-.526-3.457-2.842-5.957-5.526-5.965H9.939c-2.632.092-4.921,2.559-5.483,5.965L.123,339.787c-.807,4.983,2.517,8.742,5.605,8.716H129.739" transform="translate(0 -310.03)" fill="#e06d00" stroke="#000" stroke-width="2"/>
            </g>
          </g>
          <path id="Path_5-2" data-name="Path 5" d="M141.425,257.745a16.218,16.218,0,0,0,6.987-1.908c2.838-1.507,6.76-4.386,11.3-9.711l9.018-13.373,15.115-23.088L193.869,194.7l14.29-23.012,10.8-17.156,15.492-23.373,18.491-28.524,17.544-26.963L286.651,50.5,307.485,18.5,319.257.762s4.408-8.813,13.662-2.043c4.68,3.323,2.458,8.466,1.531,10.382-1.579,3.163-18.948,30.42-18.948,30.42L303.994,57.063l-11.8,18.7-12.86,19.774-11.877,18.406L258.2,128.834,242.563,153.5l-22.807,34.4-12.728,19.816L195.22,226.168l-16.158,24.883-11.807,18.121-11.893,17.141-2.463,3.342-3.149,4.273" transform="translate(-15.796 3.838)" fill="#e06d00" stroke="#000" stroke-width="2"/>
        </g>
      </g>
    </g>
  </g>
</svg>
