<?xml version="1.0" encoding="utf-8"?>
<!-- Generator: Adobe Illustrator 27.1.1, SVG Export Plug-In . SVG Version: 6.00 Build 0)  -->
<svg version="1.1" xmlns="http://www.w3.org/2000/svg" xmlns:xlink="http://www.w3.org/1999/xlink" x="0px" y="0px"
	 viewBox="0 0 396 126" style="enable-background:new 0 0 396 126;" xml:space="preserve">
<style type="text/css">
	.st0{fill:rgba(0,0,0,0);}
	.st1{fill:#00437B;}
	.st2{fill:#288DCC;}
	.st3{fill:#A2DCEB;}
	.st4{fill:none;}
</style>
<g id="background">
	<rect class="st0" width="396" height="126"/>
</g>
<g id="New_Co_logo">
	<g>
		<path class="st1" d="M133.65,93.7v1.12h-12.42V93.7c2.6-0.26,3.6-1.07,3.6-3.76V77.81c0.05-5.62-0.87-7.02-4.43-7.02
			c-2.56,0-4.71,1.37-5.99,3.53v15.61c-0.04,2.71,0.99,3.5,3.61,3.76v1.12h-12.55V93.7c2.65-0.26,3.68-1.04,3.74-3.76l0.01-12.38
			c0-3.05-0.26-6.76-3.96-6.76c-2.34,0-5.17,1.37-6.6,3.41v15.74c0.04,2.72,1.09,3.5,3.75,3.76v1.12H89.82v-1.14
			c2.9-0.26,3.65-1.27,3.61-3.74V75.48c0.02-3.23-0.35-3.71-3.61-3.74v-1.33l8.82-3.14v4.8c2.94-3.25,6.31-4.73,9.01-4.72
			c2.9,0,5.22,2.13,5.96,4.93c2.16-2.49,5.7-4.94,8.95-4.93c7.07,0,7.47,6.15,7.47,11.42v11.16
			C130.04,92.63,131.03,93.43,133.65,93.7z M155.79,84.8c-1.76,3.12-4.9,6.3-8.81,6.33c-6.35-0.03-9.11-7.11-9.23-12.7h18.04
			c-0.15-6.21-3.78-11.07-10.37-11.07c-7.26-0.01-11.94,6.13-11.94,14.56c0.01,7.12,4.38,13.44,11.19,13.39
			c6.11,0.06,10.53-4.93,12.35-10.2L155.79,84.8z M144.2,69.71c3.63-0.03,5.19,3.16,5.38,6.49h-11.59
			C138.51,72.61,140.29,69.71,144.2,69.71z M76.39,67.35c-5.26,0-9.05,2.69-11.04,6.76l-0.38-12h-1.42c-0.92,2.29-1.9,2.4-3.99,1.75
			c-0.97-0.33-2.15-0.78-3.57-1.16c-1.42-0.39-3.1-0.69-5.11-0.69c-11.77-0.02-20,8.77-19.97,20.64
			c-0.03,13.02,8.68,20.49,20.1,20.53c5.7-0.04,10.95-2.7,14.48-7.18l-1.12-1.43c-4.02,4.06-7.12,5.62-12.88,5.64
			c-9.38-0.02-13.59-8.84-13.56-17.09c-0.03-10.65,4.21-18.87,13.19-18.42c9.86,0.49,12.53,7.78,12.61,16.97
			c-0.03,7.24,5.11,13.68,12.66,13.63c8.16,0.06,13.13-7.02,13.13-14.84C89.51,72.75,84.16,67.4,76.39,67.35z M83.69,83.96
			c-0.44,5.1-2.94,9.74-7.31,9.35c-5.35-0.48-7.57-7.09-6.85-15.39c0.49-5.16,3.02-8.91,7.18-8.6
			C83.16,69.94,84.16,78.6,83.69,83.96z M305.32,91.61c-0.25,0.14-0.58,0.21-1.01,0.21c-0.69,0-1.16-0.38-1.41-1.23
			c-0.14-0.39-0.21-1.13-0.21-2.26V76.96c0-2.55-0.37-4.52-1.11-5.89c-1.39-2.49-4.02-3.72-7.85-3.72c-3.3,0-5.83,0.74-7.54,2.25
			c-1.73,1.49-2.61,2.94-2.61,4.37c0,0.72,0.23,1.4,0.72,2c0.49,0.62,1.23,0.9,2.13,0.9c0.57,0,1.08-0.11,1.52-0.38
			c0.76-0.46,1.15-1.29,1.15-2.41c0-0.76-0.23-1.49-0.23-2.24c0-0.86,0.4-1.52,1.26-2.01c0.88-0.5,1.77-0.74,2.74-0.74
			c2.05,0,3.36,0.65,3.99,1.86c0.36,0.74,0.56,2.06,0.56,4.05v2.1c-5.24,1.98-8.76,3.55-10.53,4.71c-2.82,1.9-4.26,4.29-4.26,7.15
			c0,1.86,0.63,3.38,1.88,4.58c1.24,1.21,2.71,1.82,4.43,1.82c1.61,0,3.29-0.55,5.06-1.6c1-0.61,2.18-1.5,3.53-2.68
			c0.1,1.11,0.43,2.06,1,2.89c0.63,0.93,1.64,1.39,3.02,1.39c1.16,0,2.31-0.37,3.43-1.11c0.78-0.53,1.46-1.15,2.08-1.88v-2.13
			C306.5,90.72,305.96,91.25,305.32,91.61z M297.41,87.85c0,1.03-0.55,1.9-1.67,2.58c-1.13,0.7-2.3,1.03-3.52,1.03
			c-0.9,0-1.71-0.25-2.41-0.77c-1.1-0.8-1.65-2.05-1.65-3.77c0-2.09,1.31-4.01,4.04-5.72c1.38-0.85,3.11-1.64,5.21-2.36V87.85z
			 M360.63,91.75c-1.37-1.17-3.44-3.52-6.18-7.1l-5.06-6.77l1.46-1.31c3.7-3.52,6.18-5.61,7.45-6.34c1.58-0.9,3.48-1.2,5.24-1.29
			v-1.15h-12.41v1.15c0.68,0.03,1.77,0.08,2.46,0.27c0.36,0.08,0.51,0.3,0.51,0.66c0,0.18-0.06,0.42-0.26,0.71
			c-0.19,0.29-0.57,0.69-1.14,1.21l-7.59,6.83l-0.02-19.01l-9.9,2.77v1.11c0.69-0.06,1.37-0.12,2.07-0.12
			c0.84,0,1.49,0.18,1.92,0.53c0.4,0.32,0.63,1.11,0.63,2.49v23.38c0,1.59-0.3,2.56-0.83,3c-0.84,0.66-2.84,0.83-3.74,0.88
			c-0.92-0.01-2.36-0.12-3.07-0.88c-0.51-0.57-0.8-1.51-0.8-2.86V76.5c0-3.78-1.04-6.46-3.22-7.99c-1.11-0.77-2.36-1.15-3.72-1.15
			c-1.67,0-3.27,0.45-4.8,1.39c-0.99,0.58-2.05,1.4-3.73,2.88v-4.4l-9.08,2.87v1.37l0,0c0,0,0.81-0.13,1.36-0.14
			c1.11-0.02,1.76,0.35,2.1,1c0.2,0.46,0.32,1.29,0.32,2.52v14.61c0,1.75-0.27,2.81-0.77,3.26c-0.7,0.65-2.03,0.87-2.89,0.96v1.14
			h12.85v-1.15c-0.93-0.01-2.22-0.11-3.01-0.72c-0.57-0.44-0.88-1.28-0.88-2.66V74.14c1.03-1,1.86-1.72,2.51-2.13
			c1.16-0.77,2.3-1.15,3.43-1.15c1.65,0,2.73,0.54,3.33,1.58c0.6,1.07,0.91,2.45,0.91,4.1v12.33c0,1.96-0.27,3.16-0.78,3.7
			c-0.73,0.74-2.05,0.99-2.99,1.11v1.14h27.27v-1.15c-0.81-0.01-2.28-0.04-3.1-0.42c-0.9-0.41-1.38-1.24-1.38-2.55V80.37l8.54,11.43
			c0.25,0.33,0.5,0.73,0.5,1.15c0,0.23-0.07,0.36-0.28,0.46c-0.26,0.11-0.54,0.18-0.86,0.2l-1.17,0.05v1.15h13.24v-1.14
			C363.33,93.53,361.94,92.87,360.63,91.75z M185.59,89.93l-0.12-23.15l-8.65,3.5c-0.3-1.86-1.97-2.93-3.87-2.93
			c-2.82-0.01-5.23,2.92-6.48,4.95v-5.03l-9.54,3.26v1.26c4.45-1.34,4.31,0.98,4.33,5.14v12.99c-0.02,2.45-0.82,3.47-4.33,3.76v1.13
			h13.86v-1.13c-2.83-0.22-4.35-0.7-4.32-3.76v-14.2c0-1.61,1.86-4.37,3.48-4.48c2.57-0.18,1.91,2.33,4.5,2.4
			c1.46,0.04,2.45-1.25,4.12-1.35c1.94-0.12,1.81,2.06,1.81,3.66v13.97c-0.05,2.45-0.86,3.5-4.45,3.74v1.14h13.99v-1.13
			C187.09,93.47,185.53,92.99,185.59,89.93z M235.85,95.21l-14.1-33.22h-1.39l-9.43,22.51c-1.65,3.96-4.17,6.36-8.63,6.36
			c-5.89,0.12-8.9-5.94-8.9-11.36c0.02-4.87,2.44-10.15,7.34-10.18c3.02,0.03,4.35,1.69,4.31,3.97c0.03,1.39,1.37,2.75,2.78,2.7
			c1.43,0.05,2.78-1.21,2.79-2.7c-0.27-4.15-5.49-5.94-8.81-5.94c-8.75-0.01-13.15,6.84-13.12,14.56
			c-0.04,7.42,4.6,13.44,10.96,13.39c3.86,0.01,6.65-1.76,8.74-4.31c-0.91,2.24-1.9,4.83-3.14,6.86c-0.98,1.63-2.15,2.92-4.18,3.12
			v1.35h11.71v-1.36c-1.38-0.03-3.92-0.26-3.96-2.42c0.04-2.17,2.32-6.66,3.09-8.96h15.06l2.02,4.89c1.91,4.51,2.87,6.16-2.66,6.49
			v1.35h15.07v-1.36C237.93,101.04,236.9,97.54,235.85,95.21z M213.09,86.87l6.42-15.86l6.51,15.86H213.09z M277.8,80.23
			c-1.52-1.17-3.28-2.04-5.34-2.6c1.55-0.43,2.78-0.94,3.63-1.56c1.68-1.22,2.51-3.04,2.51-5.4c0-3.13-1.19-5.36-3.61-6.65
			c-2.38-1.3-5.58-1.92-9.59-1.92h-14.16v1.19c0.8,0.03,3.11,0.14,3.94,0.9c0.55,0.44,0.86,1.53,0.86,3.33v21.9
			c0,1.82-0.3,2.9-0.83,3.33c-0.85,0.71-3.16,0.85-3.96,0.91v1.16h16.46c2.79,0,5.16-0.36,7.08-1.12c3.67-1.47,5.52-4.14,5.52-8.04
			C280.3,83.34,279.46,81.51,277.8,80.23z M261.45,65.72c0-0.8,0.11-1.19,0.27-1.3c0.21-0.15,0.79-0.23,1.84-0.23
			c2.74,0,4.75,0.28,6.08,0.82c2.37,1.01,3.55,2.9,3.55,5.78c0,2.43-1.02,4.1-3.07,5.02c-1.09,0.49-2.44,0.75-4.11,0.78l-4.56,0.1
			V65.72z M271.78,91.31c-1.7,0.97-3.82,1.45-6.35,1.45c-1.8,0-2.88-0.12-3.35-0.35c-0.42-0.19-0.63-0.69-0.63-1.48V78.86l0.77,0.01
			h1.45c3.12,0,5.66,0.51,7.67,1.51c1.95,0.96,2.93,2.77,2.93,5.47C274.27,88.59,273.44,90.4,271.78,91.31z"/>
		<path class="st2" d="M76.36,61.6c18.73-14.74,111.46-48.7,217.92-3.64l22.01-4.25C190.35,5.86,95.32,44.79,76.36,61.6z"/>
		<path class="st3" d="M76.36,61.6C94.31,44.55,180.54,6.42,305.01,42.62l20.22-3.9C184.62-0.38,94.74,42.52,76.36,61.6z"/>
		<path class="st1" d="M76.36,61.6c16.35-9.86,88.24-30.6,151.56-8.47l20.67-3.99C167.35,24.17,92.95,49.71,76.36,61.6z"/>
	</g>
	<g>
		<g>
			<rect x="365.1" y="76.32" class="st4" width="2.05" height="26"/>
			
				<rect x="355.89" y="82.05" transform="matrix(8.888985e-11 -1 1 8.888985e-11 261.0723 452.7592)" class="st4" width="2.05" height="27.59"/>
			<g>
				<path d="M367.15,92.21c0-1.47,1.2-2.59,2.63-2.59c1.42,0,2.61,1.12,2.61,2.59c0,1.48-1.19,2.61-2.61,2.61
					C368.35,94.82,367.15,93.7,367.15,92.21z M371.88,92.21c0-1.23-0.92-2.17-2.11-2.17c-1.21,0-2.12,0.95-2.12,2.17
					c0,1.25,0.92,2.18,2.12,2.18C370.96,94.4,371.88,93.46,371.88,92.21z M369.24,93.76h-0.46v-3.04h1.16c0.7,0,1.05,0.29,1.05,0.86
					c0,0.55-0.36,0.78-0.74,0.83l0.82,1.34h-0.55l-0.81-1.33h-0.47V93.76z M369.24,92.03h0.5c0.55,0,0.78-0.07,0.78-0.48
					c0-0.31-0.18-0.45-0.67-0.45h-0.62V92.03z"/>
			</g>
		</g>
	</g>
</g>
<g id="measure">
	<rect class="st4" width="396" height="126"/>
</g>
</svg>
