<svg id="Layer_2" data-name="Layer 2" xmlns="http://www.w3.org/2000/svg" width="162.738" viewBox="0 0 162.738 134.838">
  <g id="Layer_1" data-name="Layer 1">
    <g id="Group_602" data-name="Group 602">
      <g id="Group_586" data-name="Group 586">
        <path id="Path_1926" data-name="Path 1926"
          d="M105.625,22.052C96.518,23.952,91.4,24.9,89.3,25.263c.511-1.825,5.738-18.618,7.279-23.272A40.211,40.211,0,0,0,84.152,0a90.181,90.181,0,0,0-18.1,2.115C54,4.622,44.07,8.823,36.5,14.592A47.888,47.888,0,0,0,19.4,39.465c-2.04,6.786-1.94,12.55.287,17.132s6.645,8.034,13.075,10.2l8.759,3.038.786.264a29.171,29.171,0,0,1,3.79,1.435,6.95,6.95,0,0,1-.238,1c-.76,2.531-3,6.151-13.62,8.366a27.756,27.756,0,0,1-5.575.646c-5.408,0-7.615-2.3-9.264-5.738L12.068,65.175C10.188,71.668,6.453,84.536,4.855,89.85,3.638,93.9,1.383,100.994,0,105.352a42.537,42.537,0,0,0,12.013,1.865,98.577,98.577,0,0,0,19.679-2.335c12.182-2.539,21.857-6.407,29.575-11.827A50.1,50.1,0,0,0,72.483,82.29L68.994,93.9c-3.825,12.73-6.246,20.193-11.491,25.512-1.856,1.885-12.7,10.492-19.126,15.425,5.276-.617,14.374-1.79,22.953-3.443,13.686-2.64,24.83-7.907,31.374-14.833,5.959-6.312,8.392-13.327,10.952-21.849l7.213-24c11.046-36.765,11.987-38.008,15.493-42.627l10.071-13.141C129.9,16.532,114.766,20.147,105.625,22.052ZM81.719,51.071a16.084,16.084,0,0,0-1.475-3.787c-2.387-4.378-6.622-7.46-13.33-9.663C62.547,36.2,56.809,34.255,53.94,33.21c.625-2.244,2.026-5.294,11.715-7.279a24.141,24.141,0,0,1,4.817-.516A14.139,14.139,0,0,1,81.59,30.026C85.305,34.1,86.146,35.113,81.719,51.071Z"
          fill="#010101" />
        <g id="Group_583" data-name="Group 583" transform="translate(4.657 3.796)">
          <path id="Path_1927" data-name="Path 1927"
            d="M88.6,74.328c2.028-6.757,2.008-11.921-.112-15.78-1.9-3.48-5.451-5.982-11.19-7.876l-7.9-2.62-.964-.31c-5.81-1.859-7.589-2.637-6.4-6.6.9-2.993,3.374-7.236,14.443-9.5a27.891,27.891,0,0,1,5.578-.594,18.663,18.663,0,0,1,13.121,4.969L96.3,37.058l.4-1.478c.525-1.94,1.435-5.164,2.714-9.451,2.347-7.8,3.566-11.072,3.578-11.1l.362-.958-.99-.264a28.634,28.634,0,0,0-6.639-.574A86.541,86.541,0,0,0,78.4,15.264c-11.477,2.393-20.913,6.358-28.04,11.784A44.241,44.241,0,0,0,34.581,50c-3.523,11.729-.032,18.936,10.98,22.666l8.762,3.013.752.252c5.494,1.828,7.328,2.688,5.991,7.138-1.653,5.5-6.886,8.992-16.483,10.992a31.438,31.438,0,0,1-6.349.726c-7.893,0-10.926-4.209-12.687-7.879l-1.11-2.3-.623,2.488c0,.049-1.245,4.955-3.75,13.293-2.275,7.572-3.443,10.7-3.466,10.731l-.367.967,1,.258a28.448,28.448,0,0,0,6.355.522h0a94.721,94.721,0,0,0,18.9-2.255c11.666-2.433,20.882-6.1,28.169-11.218A46.089,46.089,0,0,0,88.6,74.328Z"
            transform="translate(-16.23 -13.23)" fill="#fff" />
          <path id="Path_1928" data-name="Path 1928"
            d="M80.035,53.872l-7.887-2.617c-6.025-1.945-9.563-2.743-7.968-8.034,1.366-4.548,5.377-8.143,15.143-10.142,10.478-2.146,16.483,1.793,19.51,4.591.574-2.117,1.466-5.294,2.723-9.468,2.39-7.956,3.6-11.17,3.6-11.17S97.915,15.11,81.63,18.5C59.6,23.095,44.251,33.518,38.518,52.59c-3.8,12.624,1.3,18.437,10.4,21.519l8.739,3.018c5.451,1.828,9.078,2.726,7.334,8.536-1.9,6.312-8.057,9.729-17.18,11.632-13.035,2.717-17.579-2.493-20.061-7.658,0,0-1.219,4.878-3.761,13.333C21.671,110.675,20.5,113.76,20.5,113.76s7.371,1.9,24.838-1.742c20.336-4.241,38.733-13.4,45.407-35.632C94.817,62.873,90.163,57.212,80.035,53.872Z"
            transform="translate(-19.275 -15.555)" fill="#00788a" />
          <g id="Group_582" data-name="Group 582" transform="translate(31.585 21.625)">
            <path id="Path_1929" data-name="Path 1929"
              d="M187.37,123.859a14.386,14.386,0,0,0-1.466-1,80.265,80.265,0,0,0-11.3-4.952c-5.273-4.915-10.329-7.1-13.485-7.643a10.929,10.929,0,0,0-3.506-.106c4.846,2.68,5.308,3.939,5.572,5.239-1.647-.158-3.018-.2-4.12-.235-.64-.02-1.268-.032-1.9-.043s-1.165-.023-1.721-.04c-1-.029-2.3-.08-3.632-.227a25.328,25.328,0,0,1-2.757-.462c-4.591-1.047-11.93-5.5-15.8-10.868-3.609-5.01-4.8-9.589-5.423-14.92a19.494,19.494,0,0,0-1.509,7.118,14.138,14.138,0,0,0,1.28,6.811l-.235,1.42c-.364,2.235.821,4.352,3.526,6.295l.146.594c.539,2.152,2.086,3.523,4.728,4.195l.373.468a9.168,9.168,0,0,0,3.443,2.447,27,27,0,0,1,2.938,1.721,1.862,1.862,0,0,1,.439,1.435c0,1.079-.511,4.16-4.852,7,7.761,0,12.828-3.793,15.849-6l.149-.109c.379-.287.74-.542,1.09-.789a1.641,1.641,0,0,1,1.148,2.244,14.632,14.632,0,0,0,3.236.551,5.12,5.12,0,0,0,3.767-1.021l.25.083a27.785,27.785,0,0,1,7.747,3.71c.666.459,1.168.9,1.412,1.093a148.957,148.957,0,0,1,14.558-3.73l.33-.063Z"
              transform="translate(-126.316 -88.6)" fill="#fff" />
            <g id="Group_581" data-name="Group 581" transform="translate(0.764 3.211)">
              <path id="Path_1930" data-name="Path 1930"
                d="M187,184.767l-5.839-.407c.66.62-2.361,4.327-2.347,4.952a4.7,4.7,0,0,1-.077,1.033,7.385,7.385,0,0,0,2.072-.786,5,5,0,0,1-2.218,1.262c-.092.27-.2.542-.321.815a19.411,19.411,0,0,0,4.091-1.435,13.18,13.18,0,0,1-4.479,2.218c-.146.267-.3.531-.476.792a24.1,24.1,0,0,0,6.613-2.235,16.382,16.382,0,0,1-7.339,3.222,9.658,9.658,0,0,1-1.348,1.348c7.253-.861,11.5-4.694,14.71-6.917,2.941.763,2.106,2.614,2.106,2.614,4.344.717,5.164-.218,6.005-.861a29.094,29.094,0,0,1,9.726,4.878c.783-.212,1.234-.43,2.648-.8C211,194.33,215.762,189.978,187,184.767Z"
                transform="translate(-162.031 -160.096)" fill="#a7b1b7" />
              <path id="Path_1931" data-name="Path 1931"
                d="M177.944,134.243a98.871,98.871,0,0,1,9.669-2.625c-20.371-10.7-27.529-6.364-36.837-8.487-5.276-1.205-12.776-6.008-16.271-11.19-4.143-6.143-4.9-10.748-5.038-12.151a31,31,0,0,0-.482,4.344c-.1,4.126,1.076,8.168,7.592,13.1a18.016,18.016,0,0,1-6.536-5.179c-.76,4.654,6.6,7.778,11.852,9.663a19.362,19.362,0,0,1-8.194-3.093c.907,3.624,4.814,3.965,9.362,4.258a18.733,18.733,0,0,1-4.41.106c1.526,1.914,3.681,2.106,6.235,4.017a2.65,2.65,0,0,1,.861,1.985c2.582-2.43,7.566-1.541,10.042-1.435-2.344-1.26-6.008-1.618-7.572-1.891,3.32-.232,16.354.778,27.065,6.9C175.91,132.943,177.347,133.858,177.944,134.243Z"
                transform="translate(-128.979 -99.79)" fill="#010101" />
              <path id="Path_1932" data-name="Path 1932"
                d="M247.972,171.623c.333-.677.164-3.216-3.862-5.383,2.542,0,8.693,3.767,13.677,7.646-.973-.141-1.813-.9-2.869-.737a2.66,2.66,0,0,1-1.891-.574,2.363,2.363,0,0,0-1.865-.445,1.532,1.532,0,0,1-1.148-.212,1.331,1.331,0,0,0-.927-.143C248.761,171.909,248.331,171.668,247.972,171.623Z"
                transform="translate(-211.077 -147.175)" fill="#a7b1b7" />
              <path id="Path_1933" data-name="Path 1933"
                d="M243.29,166a32.8,32.8,0,0,1,14.2,10.5,2.345,2.345,0,0,0,2.347-.407C254.658,170.074,246.716,166.077,243.29,166Z"
                transform="translate(-210.493 -147.003)" fill="#010101" />
              <path id="Path_1934" data-name="Path 1934"
                d="M252.92,172.62a5.875,5.875,0,0,1,.574.671,32.208,32.208,0,0,1,5.873,5.52c.878.359,1.787.717,2.657,1.036A34.666,34.666,0,0,0,252.92,172.62Z"
                transform="translate(-217.36 -151.724)" fill="#010101" />
              <path id="Path_1935" data-name="Path 1935"
                d="M257.69,180.67a4.77,4.77,0,0,1,.075.485,23.815,23.815,0,0,1,2.272,2.229c.519.23,1.1.482,1.721.74A26.486,26.486,0,0,0,257.69,180.67Z"
                transform="translate(-220.761 -157.464)" fill="#010101" />
              <path id="Path_1936" data-name="Path 1936"
                d="M233.378,200.6a11.83,11.83,0,0,1-3.6.232,8.154,8.154,0,0,0,2.64-.7,28,28,0,0,0-5.81-.9c2.582.861,2.106,2.614,2.106,2.614C232.5,201.973,233.16,200.808,233.378,200.6Z"
                transform="translate(-198.598 -170.699)" fill="#010101" />
            </g>
          </g>
          <path id="Path_1937" data-name="Path 1937"
            d="M248.1,74.324c-.055,0-4.645,1.205-17.889,3.965-12.6,2.625-17.562,3.426-17.611,3.443l-1.024.164.838,3.015c1.119,4.1,1.351,4.958-9.52,41.132l-6.453,21.476c-4,13.3-6.576,21.157-12.421,27.088-3.231,3.277-10.392,7.669-10.392,7.669l10.756-2.08c13.944-2.906,23.277-7.268,29.377-13.723,5.388-5.7,7.663-12.3,10.076-20.334l7.21-24c11.259-37.425,12.274-38.782,16.1-43.835l3.538-4.654Z"
            transform="translate(-128.47 -56.315)" fill="#fff" />
        </g>
        <path id="Path_1938" data-name="Path 1938"
          d="M256.579,81.52c-4.051,5.342-4.966,6.364-16.354,44.257l-7.21,24c-4.479,14.9-8.894,27.191-38.756,33.414l-6.519,1.357c11.477-6.886,14.377-15.31,19.651-32.866l6.456-21.476c11.043-36.757,10.711-37.279,9.491-41.76l-.519-1.9s4.878-.78,17.654-3.443C253.888,80.3,258.4,79.13,258.4,79.13Z"
          transform="translate(-133.875 -56.426)" fill="#00788a" />
        <g id="Group_585" data-name="Group 585" transform="translate(7.778 6.101)" opacity="0.25">
          <g id="Group_584" data-name="Group 584">
            <path id="Path_1939" data-name="Path 1939"
              d="M185.654,138.378l8.84,2.924a29.186,29.186,0,0,1,4.826,2.031,23.236,23.236,0,0,0-6.946-3.4l-8.84-2.924A37.5,37.5,0,0,1,179,135.36C180.495,136.723,182.925,137.506,185.654,138.378Z"
              transform="translate(-135.421 -102.624)" fill="#fff" />
            <path id="Path_1940" data-name="Path 1940"
              d="M90.878,74.408c-4.74-3.641-5.79-9.066-3.443-16.9C92.662,40.125,107.212,28.688,130.1,23.92c9.181-1.917,13.735-1.885,18.543-2.384-2.674-.353-9.649-.78-21.55,1.7C104.2,28.005,90.542,38.771,85.32,56.143,82.643,65.029,84.365,70.825,90.878,74.408Z"
              transform="translate(-67.755 -21.264)" fill="#fff" />
            <path id="Path_1941" data-name="Path 1941"
              d="M81.047,255.268c10.533-2.195,16.589-6.384,18.52-12.811,1.417-4.717-.359-6.8-3.3-8.217,1.549,1.4,2.2,3.443,1.176,6.852-1.931,6.427-7.988,10.616-18.52,12.811-6.946,1.449-11.652.709-14.937-1C67.272,255.509,72.448,257.061,81.047,255.268Z"
              transform="translate(-53.409 -173.134)" fill="#fff" />
            <path id="Path_1942" data-name="Path 1942"
              d="M34.825,287a14.391,14.391,0,0,1-1.905-2.149c-.628,2.3-1.552,5.555-2.78,9.64-1.472,4.9-2.482,7.93-3.03,9.517C27.724,304.079,32.676,294.427,34.825,287Z"
              transform="translate(-27.11 -209.223)" fill="#fff" />
          </g>
          <path id="Path_1943" data-name="Path 1943"
            d="M225.577,158.554l6.453-21.476c11.052-36.782,10.822-37.629,9.543-42.326l-.129-.468c2.436-.436,6.662-1.217,15.112-2.978,4.591-.955,12.573-3.911,13.152-4.677-2.769.64-7.379,1.667-14.521,3.156-8.45,1.762-13.428,2.7-15.866,3.133l.132.468c1.277,4.7,1.509,5.543-9.543,42.326l-6.453,21.476c-4.467,14.865-7.365,23.5-15.206,30.126C208.244,187.32,217.646,184.723,225.577,158.554Z"
            transform="translate(-156.278 -67.876)" fill="#fff" />
        </g>
      </g>
      <g id="Group_601" data-name="Group 601" transform="translate(54.739 0.138)">
        <g id="Group_589" data-name="Group 589" transform="translate(67.643 81.671)">
          <g id="Group_587" data-name="Group 587">
            <path id="Path_1944" data-name="Path 1944"
              d="M438.174,303.148a18.587,18.587,0,0,0-5.689-3.11,1.093,1.093,0,0,0-.287-.049,1.05,1.05,0,0,0-.981.625c-.287.605-.235,1.756,1.59,3.813a13.148,13.148,0,0,0,4.766,2.849,38.7,38.7,0,0,0,8.926,2.648l-2.269-1.891C444.2,308.026,441.052,305.392,438.174,303.148Z"
              transform="translate(-429.784 -295.727)" fill="#fff" />
            <path id="Path_1945" data-name="Path 1945"
              d="M454.522,291.59l-2.582-1.681c-5.684-3.69-12.4-4.622-17.031-4.754a31.6,31.6,0,0,0-3.73.08h-.04c-.043,0-1.016.155-2.008.353-1.624.327-2.62.574-2.582,1.435s1.128.955,2.178,1.01c3.027.149,3.779.327,8.034,1.9,4.393,1.618,7.236,2.487,8.223,2.516a4.281,4.281,0,0,0,1.8-.534,7.379,7.379,0,0,1-1.618-1.148c.316-.02.74-.032,1.311-.014C447.662,290.8,452.011,291.249,454.522,291.59Z"
              transform="translate(-426.546 -285.132)" fill="#fff" />
          </g>
          <g id="Group_588" data-name="Group 588" transform="translate(0.764 0.783)">
            <path id="Path_1946" data-name="Path 1946"
              d="M434.208,302.745a17.974,17.974,0,0,1,5.451,2.978c2.912,2.255,6.025,4.878,6.025,4.878s-1.452-.422-3.294-1.082c-.809-.287-2.674-2.327-2.562-.993a13.832,13.832,0,0,1-4.484-2.648C433.281,303.545,433.778,302.6,434.208,302.745Z"
              transform="translate(-432.501 -298.464)" fill="#010101" />
            <path id="Path_1947" data-name="Path 1947"
              d="M447.487,315.391c.861.353,1.75.706,2.559,1-1.033-.8-3.067-2.353-5.486-4.017A7.984,7.984,0,0,0,447.487,315.391Z"
              transform="translate(-440.156 -305.338)" fill="#a7b1b7" />
            <path id="Path_1948" data-name="Path 1948"
              d="M433.2,287.955s11.477-1.148,20.259,4.553c-3.747-.723-7.374-.752-7.641-.218s1.291,1.317,1.291,1.317-.511.344-8.114-2.456c-4.3-1.584-5.119-1.787-8.275-1.945C426.4,288.991,433.2,287.955,433.2,287.955Z"
              transform="translate(-429.261 -287.86)" fill="#a7b1b7" />
            <path id="Path_1949" data-name="Path 1949"
              d="M445.766,292.49c.086-.169.5-.287,1.148-.333a23.526,23.526,0,0,0-5.558-2.838,30.533,30.533,0,0,0-8.034-1.179l-.2.014s-6.8,1.036-2.479,1.251c3.156.158,3.971.362,8.275,1.945,7.6,2.8,8.114,2.456,8.114,2.456S445.5,293.02,445.766,292.49Z"
              transform="translate(-429.211 -288.06)" fill="#010101" />
          </g>
        </g>
        <g id="Group_596" data-name="Group 596" transform="translate(44.432)">
          <path id="Path_1950" data-name="Path 1950"
            d="M405.536,64.9c.887-1.294,3.6-5.451,3.672-7.747a6.548,6.548,0,0,0-.528-3.228,4.271,4.271,0,0,0,.218-2.465,24.4,24.4,0,0,1-.634-2.43l-.086-.4-.387-.155a8.981,8.981,0,0,0-.818-4.051,16.961,16.961,0,0,0-2.906-3.661l.818-1.968L407,33.86a20.678,20.678,0,0,0,.287-15.654,69.422,69.422,0,0,0-6.111-10.647c-1.248-1.842-2.422-3.443-3.391-4.611C396.352,1.2,395.546.583,394.714.557L392.16.48l-4.364,13.9,8.034,11.654c1.882,2.706,2.7,8.424,1.721,11.933-1.836-1.564-3.05-2.335-3.71-2.356h-.123a4.715,4.715,0,0,0-3.46,3.819c-.192,1.681-.212,2.249.608,2.964a1.45,1.45,0,0,1,.287.336,4.4,4.4,0,0,0-.826,2.353,5.271,5.271,0,0,0-3.363,3.79,5.289,5.289,0,0,0-2.551,2.49c-1.28,2.278-1.254,3.862-.8,4.591.158.25.534.978.838,1.59a5.377,5.377,0,0,0,1.016,3.69,5.8,5.8,0,0,0-1.842,2.906,5.276,5.276,0,0,0-1.8,3.512,36.268,36.268,0,0,1-8.946,5.185l-.947.379a17.79,17.79,0,0,0-2.235,1.016l-.034.02-.02.034a5.548,5.548,0,0,0-.169,1.082c-.077.574-.181,1.36-.221,1.478l-.04.115.1.063.141.092a17.03,17.03,0,0,0,6.694,2.442,8.769,8.769,0,0,0,1.2.109,18.143,18.143,0,0,0,4.493-.476l-7.44,17.843a2.861,2.861,0,0,0-1.61-.772h-.066c-.224,0-.646.017-1.11.052-1.965.112-2.4.539-2.5.691-.218.267-.737.978-1.148,1.567a3.472,3.472,0,0,0-.823-.132,1.962,1.962,0,0,0-.927.181c-.436.077-.935.158-1.148.189a3.474,3.474,0,0,0-.448.135c-.258.083-.574.186-.832.255a8.782,8.782,0,0,0-2.008-.287,5.948,5.948,0,0,0-4.421,1.569.287.287,0,0,1-.207.049c-1.133-.032-4.605-2.4-5.408-3.113l-.146-.106a13.96,13.96,0,0,1-2.746-2.158.094.094,0,0,1,0,.075.12.12,0,0,1-.069.066l-.052-.141h0l-.055-.141c-1.578.6-2.553,1.377-2.892,2.313a2.712,2.712,0,0,0,.318,2.3,79.33,79.33,0,0,0,4.944,8.346,5.328,5.328,0,0,0,.166,4.932c.083.129.181.316.3.545.818,1.578,2.519,4.86,8.866,5.044h.123a6.284,6.284,0,0,0,3.156,1.721l-1.021,2.166-1.469.212-1.951,4.3,2.743,5.362,5.856-1.567,1.569-3.876-.861-1.578,2.3-5.7a4.608,4.608,0,0,0,.712-.373,11.833,11.833,0,0,0,4.591-1.148c1.552-.8,4.123-2.476,4.048-4.731.212-.181.488-.428.714-.666.08-.083.209-.2.344-.318a3.4,3.4,0,0,0,1.26-1.722,3.692,3.692,0,0,0-.155-1.5c-.032-.123-.109-.445-.109-.5.046-.307.06-1.064.066-1.676.62-.382,1.349-.944,1.478-1.546,0-.02.419-2.086-.209-3.093-.089-.143-.2-.356-.313-.574a7.224,7.224,0,0,0-.961-1.541l-.026-.026a2.608,2.608,0,0,0-.25-.235,14.557,14.557,0,0,0-2.192-1.351l8.527-20.595h0a1.554,1.554,0,0,0,.4.419,7.5,7.5,0,0,0,3.423.881h0a7.032,7.032,0,0,0,3.179-.631c3.2-1.48,4.631-2.175,4.935-3.13.046-.141.106-.353.181-.6.141-.473.511-1.707.677-2.054l.241-.181.052-.04a13.5,13.5,0,0,0,1.962-1.618,18.767,18.767,0,0,0,1.11-2.218c1.245-2.026,1.205-2.462,1.185-2.648Z"
            transform="translate(-345.648 -0.48)" fill="#fff" />
          <path id="Path_1951" data-name="Path 1951"
            d="M504.8,41.047l-2.1,5.064c1.822.407,3.664.732,5.483,1.148l2.835-6.817,2.1-4.944a19.924,19.924,0,0,0,.287-15.057,69.6,69.6,0,0,0-6.025-10.507c-1.237-1.822-2.393-3.4-3.348-4.553-1.435-1.742-2.043-2.106-2.513-2.12l-1.977-.06-4.077,13,7.816,11.333C505.538,30.775,506.29,37.466,504.8,41.047Z"
            transform="translate(-452.484 -2.42)" fill="#010101" />
          <path id="Path_1952" data-name="Path 1952"
            d="M526.508,22.423c-2.189-5.377-9.962-16.736-11.31-16.776l-.528-.017a13.358,13.358,0,0,1,1.4,1.512c.932,1.128,2.06,2.665,3.265,4.444a75.193,75.193,0,0,1,6,10.329,24.673,24.673,0,0,1,2.074,10.412A20.2,20.2,0,0,0,526.508,22.423Z"
            transform="translate(-466.175 -4.152)" fill="#f3901d" />
          <path id="Path_1953" data-name="Path 1953"
            d="M507.213,43.584l-2.057,4.952c.8.172,2.1,2.525,2.9,2.686L513,38.836a22.932,22.932,0,0,0-.115-15.861C510.7,17.6,503.1,6.443,501.753,6.4L498,18.37l7.632,11.081C508.091,32.988,508.693,40.009,507.213,43.584Z"
            transform="translate(-454.288 -4.701)" fill="#f3901d" />
          <g id="Group_590" data-name="Group 590" transform="translate(14.387 113.796)">
            <path id="Path_1954" data-name="Path 1954"
              d="M407.413,398.121c-1.845-.353-2.433-.935-4.387-1.021l-4.149,8.8-1.46.212-1.627,3.6,2.3,4.487,4.878-1.311,1.308-3.191-.861-1.578Z"
              transform="translate(-395.79 -397.1)" fill="#010101" />
            <path id="Path_1955" data-name="Path 1955"
              d="M411.611,397.13C409.129,403.118,407,407.1,407,407.1l1.538,2.683,5.141-12.375C412.87,397.288,412.451,397.187,411.611,397.13Z"
              transform="translate(-403.784 -397.121)" fill="#f3901d" />
            <path id="Path_1956" data-name="Path 1956" d="M401.441,435.735l-1.828-3.495-1.113,2.513,1.894,3.394Z"
              transform="translate(-397.722 -422.158)" fill="#f3901d" />
          </g>
          <path id="Path_1957" data-name="Path 1957"
            d="M412.131,408.1l-1.641,3.65a3.556,3.556,0,0,0,2.924-.069c2.528.152,2.663-4.229,2.663-4.229Z"
            transform="translate(-391.886 -290.684)" fill="#010101" />
          <path id="Path_1958" data-name="Path 1958"
            d="M465.792,153.887s3.621-5.164,3.693-7.56-.605-3.107-.605-3.107a4.863,4.863,0,0,0,.35-2.3c-.261-.674-.671-2.545-.671-2.545l-.508-.2a9.052,9.052,0,0,0-.706-4.2,16.551,16.551,0,0,0-4.33-4.791,8.779,8.779,0,0,0-3.936-.6s-3.414-3.1-4.261-3.033a3.971,3.971,0,0,0-2.763,3.156c-.181,1.69-.149,1.868.35,2.3a2.385,2.385,0,0,1,.671,1,3.551,3.551,0,0,0-.881,2.829,4.538,4.538,0,0,0-3.532,3.822s-1.363.146-2.551,2.264-1.085,3.383-.818,3.81.973,1.856.973,1.856a4.529,4.529,0,0,0,1.377,3.925,5.2,5.2,0,0,0-2.3,3.2c-1.721,1.587-1.77,3.01-1.721,3.48-6.76,5.391-11.528,6.128-11.528,6.128s-3.291,2.137,3.053,4.186c4.771,1.541,9.356-.287,11.339-1.274a.8.8,0,0,0,.4.161c.841.026,2.949-.055,2.949-.055a1.056,1.056,0,0,0,.356.574,7.032,7.032,0,0,0,5.844.178c2.754-1.274,4.321-2.008,4.527-2.671a17.533,17.533,0,0,1,1.024-2.947c.238-.2,1.965-1.455,2.209-1.773s1.047-2.12,1.047-2.12a10.283,10.283,0,0,0,1.1-2.212Z"
            transform="translate(-406.687 -89.67)" fill="#010101" />
          <path id="Path_1959" data-name="Path 1959"
            d="M499.439,186.41a36.572,36.572,0,0,1-3.1,3.388c1,.95,4.017,3.609,6.688,3.225,4.47-.646,4.671-4.3,4.671-4.3S505.711,190.619,499.439,186.41Z"
            transform="translate(-453.104 -133.064)" fill="#a7b1b7" />
          <path id="Path_1960" data-name="Path 1960"
            d="M518.91,172.624s3.988,3.985,5.652,3.357c2.746-1.042,2.849-4.361,2.849-4.361a7.317,7.317,0,0,1-4.711-2.06,5.758,5.758,0,0,1-2.206.258S519.576,172.268,518.91,172.624Z"
            transform="translate(-469.199 -121.049)" fill="#a7b1b7" />
          <path id="Path_1961" data-name="Path 1961"
            d="M538,149.667l3.46,3.1a2.288,2.288,0,0,0,1.386-2.436,9.012,9.012,0,0,0-3.125-6.18A7.484,7.484,0,0,1,538,149.667Z"
            transform="translate(-482.811 -102.929)" fill="#a7b1b7" />
          <path id="Path_1962" data-name="Path 1962"
            d="M527.816,184.841l-.046,1.495a19.212,19.212,0,0,0,7.052-5.879,15.927,15.927,0,0,0,2.754-5.707l-.769-2.41a20.056,20.056,0,0,1-2.975,7.047A18.415,18.415,0,0,1,527.816,184.841Z"
            transform="translate(-475.517 -123.031)" fill="#a7b1b7" />
          <path id="Path_1963" data-name="Path 1963"
            d="M527.472,202.051a17.634,17.634,0,0,0,6.111-3.977,16.38,16.38,0,0,0,3.644-5.925,7.771,7.771,0,0,1-2.06,6.16,15.538,15.538,0,0,1-7.747,5.1Z"
            transform="translate(-475.267 -137.157)" fill="#a7b1b7" />
          <path id="Path_1964" data-name="Path 1964"
            d="M508.19,225.631l1.681.052s.671,1.05,1.512,1.076a2.448,2.448,0,0,0,1.222-.2s-1.908-.339-1.813-1.928a38.029,38.029,0,0,1,.5-3.773s.425,4.456.74,4.84a1.707,1.707,0,0,0,1.618.66,14.079,14.079,0,0,0,4.966-2.938c.841-.786,1.676-1.541,1.676-1.541a10.352,10.352,0,0,1-6.418,5.7,8.419,8.419,0,0,1-4.5.143Z"
            transform="translate(-461.554 -157.63)" fill="#a7b1b7" />
          <path id="Path_1965" data-name="Path 1965"
            d="M499.293,243.746a10.165,10.165,0,0,1-3.675.611c-.749-.023-1.584-1.039-1.584-1.039l-.669-1.612-.525,1.842a13.837,13.837,0,0,0,1.931,1.191c.875.41,3.231-.052,4.175-.3a45.537,45.537,0,0,0,4.591-2.224s-.235,1.561-.287,2.261a2.524,2.524,0,0,1-.861,1.125c1.237-.623,1.951-1.087,2.086-1.509a18.005,18.005,0,0,1,1.024-2.947c.238-.2,1.965-1.455,2.209-1.773s1.047-2.12,1.047-2.12C506.755,239.95,500.059,243.3,499.293,243.746Z"
            transform="translate(-450.608 -169.317)" fill="#a7b1b7" />
          <path id="Path_1966" data-name="Path 1966"
            d="M500.987,265.212c-2.746.476-3.664-.112-3.664-.112l-.683,1.148a.746.746,0,0,0,.175.181,7.041,7.041,0,0,0,3.125.74,4.946,4.946,0,0,1-2.189-.712l.531-.551A8.261,8.261,0,0,0,500.987,265.212Z"
            transform="translate(-453.318 -189.177)" fill="#a7b1b7" />
          <path id="Path_1967" data-name="Path 1967"
            d="M476.733,230.076s-1.435-1.905-.648-6.326c-1.721,1.587-1.77,3.01-1.721,3.48,0,0-.143,2.622,1.217,4.054Z"
            transform="translate(-437.426 -159.691)" fill="#a7b1b7" />
          <path id="Path_1968" data-name="Path 1968"
            d="M456.51,260.515a24.65,24.65,0,0,0,5.383-3.225,6.066,6.066,0,0,0,.953,1.125A20.925,20.925,0,0,1,456.51,260.515Z"
            transform="translate(-424.702 -183.608)" fill="#a7b1b7" />
          <path id="Path_1969" data-name="Path 1969"
            d="M439.412,242.886a21.092,21.092,0,0,0,4.132-2.146s-.448-4.109.164-4.86c-6.76,5.391-11.528,6.128-11.528,6.128a2.126,2.126,0,0,0-.809,1.044A12.037,12.037,0,0,0,439.412,242.886Z"
            transform="translate(-406.775 -168.34)" fill="#a7b1b7" />
          <path id="Path_1970" data-name="Path 1970"
            d="M453.634,245.33a59.715,59.715,0,0,1-7.9,3.8c2.708-.115,6.8-2.155,7.959-2.763C453.666,246.053,453.646,245.7,453.634,245.33Z"
            transform="translate(-417.015 -175.079)" fill="#fff" />
          <path id="Path_1971" data-name="Path 1971"
            d="M448.6,243.705c2.445-.559,5.767-2.743,7.072-3.65a10.236,10.236,0,0,1,.057-1.076A63.594,63.594,0,0,1,448.6,243.705Z"
            transform="translate(-419.062 -170.551)" fill="#fff" />
          <path id="Path_1972" data-name="Path 1972"
            d="M485,190.688c-.574-.063-3.982-3.463-4.619-5.569a5.77,5.77,0,0,1-.155-3.429c-.783,1.678-.677,2.706-.442,3.081.267.43.973,1.856.973,1.856a4.529,4.529,0,0,0,1.377,3.925,4.387,4.387,0,0,0-.534.384.531.531,0,0,1,.083.574,4.832,4.832,0,0,0-.766,3.627,15.172,15.172,0,0,0,1.179,2.749s-.763-2.642.1-3.411c1.472.887.889.026,1.371-2.008a6.973,6.973,0,0,0,2.034.861l.7.069s-1.859-1.119-2.066-1.328.155-.93.155-.93,2.64,1.389,3.1,1.684A8.589,8.589,0,0,0,485,190.688Z"
            transform="translate(-441.175 -129.698)" fill="#a7b1b7" />
          <path id="Path_1973" data-name="Path 1973"
            d="M482.675,173.524c-.055.1-.106.192-.155.287.086-.118,1.518-2.008,2.944-1.185a2.089,2.089,0,0,1-.238-1.366S483.863,171.406,482.675,173.524Z"
            transform="translate(-443.249 -122.261)" fill="#a7b1b7" />
          <path id="Path_1974" data-name="Path 1974"
            d="M494.346,159.727s.981,1.059,3.612.717c-3.156-.892-2.356-2.5-2.356-2.5a4.461,4.461,0,0,0-3.483,3.543h0a5.537,5.537,0,0,0,3.409,3.879c-2.413-2.252-2.582-3.443-2.4-4.129A4.1,4.1,0,0,1,494.346,159.727Z"
            transform="translate(-450.095 -112.762)" fill="#a7b1b7" />
          <path id="Path_1975" data-name="Path 1975"
            d="M508.571,140.667a17.049,17.049,0,0,1,6.559-.316l-.821-.666a40.871,40.871,0,0,0-4.114-.126,7.528,7.528,0,0,0-5.271,2.459,3.551,3.551,0,0,0-.881,2.829c2.482,2.978,5.164,2.264,5.164,2.264a6.21,6.21,0,0,1-4.134-2.559C504.5,143.459,505.794,141.563,508.571,140.667Z"
            transform="translate(-458.547 -99.656)" fill="#a7b1b7" />
          <path id="Path_1976" data-name="Path 1976"
            d="M506.4,125.6a3.975,3.975,0,0,0-2.763,3.156c-.02.186-.037.353-.055.5.6-1.148,2.126-2.556,2.869-2.473a23.712,23.712,0,0,1,3.42,1.171C508.819,127.038,506.986,125.552,506.4,125.6Z"
            transform="translate(-458.267 -89.699)" fill="#a7b1b7" />
          <path id="Path_1977" data-name="Path 1977"
            d="M349.017,339.436s3.664,7.038,5.328,8.866a4.409,4.409,0,0,0-.141,4.571c.8,1.242,1.79,5.213,9,5.248a6.046,6.046,0,0,0,5.348,1.911c3.19-.229,4.4-.726,5.067-1.219a11.075,11.075,0,0,0,4.479-1.079c1.283-.663,4.017-2.313,3.6-4.381a10.511,10.511,0,0,0,.961-.861c.387-.41,1.294-1.036,1.409-1.641s-.327-1.555-.27-1.974.063-2.008.063-2.008,1.38-.752,1.489-1.265a4.7,4.7,0,0,0-.109-2.528,8.979,8.979,0,0,0-1.386-2.2,6.61,6.61,0,0,0-2.929-1.079,17.653,17.653,0,0,1-2.743-.086s-2.3-2.135-3.087-2.112a7.312,7.312,0,0,0-2.694.448l-1.779,2.008a2.754,2.754,0,0,0-1.148-.037,17.036,17.036,0,0,0-1.925.706s-3.256-.729-3.658-.694-2.84.379-3.578,1.34c-.468.611-2.528,1.371-3.067-.462-.6-.287-4.335-2.82-4.335-2.82S348.532,336.547,349.017,339.436Z"
            transform="translate(-348.023 -240.875)" fill="#010101" />
          <path id="Path_1978" data-name="Path 1978"
            d="M376.338,384.89a5.652,5.652,0,0,0,1.087-1.931,13.4,13.4,0,0,1-1.658,1.228c-.41.175-.835-.287-.955-.5.628-.169,2.324-2.488,2.324-2.488a8.836,8.836,0,0,1-3.274,2.3c-2.459,1.165-6.062-1.994-6.062-1.994a9.56,9.56,0,0,0,6.1.64c-6.5-.261-7.844-2.984-8.128-3.9a5.1,5.1,0,0,1,.519-2.637l-.373-.651a4.409,4.409,0,0,0-.141,4.571c.8,1.242,1.79,5.213,9,5.248a6.046,6.046,0,0,0,5.348,1.911c3.19-.23,4.4-.726,5.067-1.219C378.074,387.1,376.728,385.186,376.338,384.89Z"
            transform="translate(-359.596 -267.516)" fill="#a7b1b7" />
          <path id="Path_1979" data-name="Path 1979"
            d="M411.27,340.4c-.591-.485-2.66-1.721-3.038-1.589s-2.634.425-2.634.425-2.27-2.3-3.064-2.3a8.737,8.737,0,0,0-3.01.425c-.244.275-1.512,2.057-1.512,2.057a2.925,2.925,0,0,0-1.4-.23c-.565.123-1.848.347-1.848.347s-3.07,0-3.472.037-2.84.379-3.578,1.34a.626.626,0,0,1-.287.2,21.757,21.757,0,0,1,3.7-.8c.531.109,3.277,1.067,3.664,1.61a7.177,7.177,0,0,1,1.176,2.376c.046.594-.126,4.114-.126,4.114a18.226,18.226,0,0,0,.993-3.948c.4-.026,1.148.832,1.251,2.008a16.442,16.442,0,0,1-.258,4.361,6.525,6.525,0,0,0,.809-3.033,7.06,7.06,0,0,0,1.744.115,4.375,4.375,0,0,0,1.664-.416s.7,3.11-2.467,6.226c-2.327,2.3-3.348,3.443-3.348,3.443a2.178,2.178,0,0,0,1.478-.393,16.8,16.8,0,0,0,4.895-5,6.91,6.91,0,0,0,1.007-4.43,5.6,5.6,0,0,0,2.554-.826s.617,3.265-.574,5.537a20.2,20.2,0,0,1-3,4.12,8.517,8.517,0,0,0,2.513-1.546c.118-.175.419-.508.78-1.013,2.089-.023,2.582-1.036,2.582-1.036a15.693,15.693,0,0,1-1.954.026,10.074,10.074,0,0,0,1.053-2.918,6.9,6.9,0,0,0,2.6-1.549l.479-1.328a24.8,24.8,0,0,1-2.863,1.328,13.662,13.662,0,0,0-.287-3.5,19.92,19.92,0,0,0,3.354-2.519,1.839,1.839,0,0,0,.78-1.334A2.1,2.1,0,0,0,411.27,340.4Z"
            transform="translate(-375.442 -240.405)" fill="#a7b1b7" />
          <path id="Path_1980" data-name="Path 1980"
            d="M360.981,356.4s2.419,6.656,7.543,7.385a5.451,5.451,0,0,1-4.809-1.874C362.545,360.411,360.846,356.925,360.981,356.4Z"
            transform="translate(-356.576 -254.281)" fill="#a7b1b7" />
          <path id="Path_1981" data-name="Path 1981"
            d="M396.33,372.2a14.907,14.907,0,0,1,4.78.092,2.809,2.809,0,0,1,.353,2.155s-1.32-1.693-4.358-1.3A5.313,5.313,0,0,0,396.33,372.2Z"
            transform="translate(-381.788 -265.437)" fill="#a7b1b7" />
          <path id="Path_1982" data-name="Path 1982"
            d="M372.379,349.717c-.557.448-1.977-.089-2.97-.557a6.915,6.915,0,0,1-3.36,1.747c.516,2.479,3.71,6.352,6.111,7.391a27.709,27.709,0,0,1,1.908-3.053l1.971-.034S375.165,351.49,372.379,349.717Z"
            transform="translate(-360.196 -249.119)" fill="#a7b1b7" />
          <path id="Path_1983" data-name="Path 1983"
            d="M375.729,362.836a37.931,37.931,0,0,1-6.169-4.766,15.376,15.376,0,0,0,5.626,5.646C375.376,363.4,375.559,363.1,375.729,362.836Z"
            transform="translate(-362.699 -255.472)" fill="#fff" />
          <path id="Path_1984" data-name="Path 1984"
            d="M372.111,352a6.61,6.61,0,0,1-.821.442,23.66,23.66,0,0,0,6.381,5.015l.129-.181,1.455-.026A62.488,62.488,0,0,1,372.111,352Z"
            transform="translate(-363.933 -251.144)" fill="#fff" />
          <path id="Path_1985" data-name="Path 1985"
            d="M386.3,353.857c-.729-.99-1.5-1.934-2.04-2.565-.379-.066-.574,0-1.214-.092C383.945,351.943,385.506,353.231,386.3,353.857Z"
            transform="translate(-372.319 -250.573)" fill="#fff" />
          <g id="Group_591" data-name="Group 591" transform="translate(15.804 99.051)">
            <path id="Path_1986" data-name="Path 1986"
              d="M400.92,345.82h0a6.519,6.519,0,0,1,2.229.5,11.106,11.106,0,0,1,1.435.981l1.311-.086a12.959,12.959,0,0,0-1.349-1.457A20.446,20.446,0,0,0,400.92,345.82Z"
              transform="translate(-400.865 -345.707)" fill="#fff" />
            <path id="Path_1987" data-name="Path 1987" d="M400.73,346.12h0Z" transform="translate(-400.73 -346.001)"
              fill="#fff" />
          </g>
          <path id="Path_1988" data-name="Path 1988"
            d="M419.837,356.13a12.842,12.842,0,0,0-2.077-2.82,5.177,5.177,0,0,1,2.6,2.723C420.77,356.905,419.837,356.13,419.837,356.13Z"
            transform="translate(-397.07 -252.078)" fill="#010101" />
          <path id="Path_1989" data-name="Path 1989"
            d="M428.526,338.318s.912-.192,2.149,1.219,1.483,1.449,1.483,1.449l1.521.287s.832.339.783.875a3.381,3.381,0,0,1-2.066,2.3c-1.412.646-4.918.6-4.918.6s-.6-2.2-1.721-2.869a3.754,3.754,0,0,1-1.4-1.2l1.268-.648a9.059,9.059,0,0,1,2.086,2.155,9.6,9.6,0,0,1,1.684-.488l.861-1.816S429.086,338.427,428.526,338.318Z"
            transform="translate(-401.776 -241.381)" fill="#010101" />
          <path id="Path_1990" data-name="Path 1990"
            d="M420.29,360.64c.215,0,.536.23.8.643,1.435-.046,6.226-.287,8.4-1.653C424.117,360.419,420.29,360.64,420.29,360.64Z"
            transform="translate(-398.874 -256.585)" fill="#fff" />
          <path id="Path_1991" data-name="Path 1991"
            d="M419.963,344.856c-.02.032-1.162-.511-1.793-.112l1.07.287a32.676,32.676,0,0,1,3.652,4.017C422.916,348.3,421.438,346.165,419.963,344.856Z"
            transform="translate(-397.362 -245.865)" fill="#fff" />
          <g id="Group_592" data-name="Group 592" transform="translate(27.097 64.8)">
            <path id="Path_1992" data-name="Path 1992"
              d="M458.031,227.99l-2.826.973L440.09,265.226l4.869-1.242L458.493,231.3Z"
              transform="translate(-440.09 -227.514)" fill="#010101" />
            <path id="Path_1993" data-name="Path 1993"
              d="M459.014,226.33,443.67,263.173a1.666,1.666,0,0,0,1.914.646L460.693,227.5A2.582,2.582,0,0,1,459.014,226.33Z"
              transform="translate(-442.643 -226.33)" fill="#f3901d" />
          </g>
          <path id="Path_1994" data-name="Path 1994"
            d="M522.721,32.72a74.417,74.417,0,0,0-7.54-12.65l-3.391,13.8,3.672,5.331a13.673,13.673,0,0,1,1.931,4.878l6.436-7.494a19.442,19.442,0,0,0-1.107-3.862Z"
            transform="translate(-464.121 -14.449)" fill="#fff" />
          <path id="Path_1995" data-name="Path 1995"
            d="M535.923,36.124a14.874,14.874,0,0,0-.9-3.34,74.485,74.485,0,0,0-7.517-12.6l-.9-.029q.6.844,1.242,1.787a75.2,75.2,0,0,1,6,10.329,25.542,25.542,0,0,1,1.317,3.856A3.334,3.334,0,0,1,535.923,36.124Z"
            transform="translate(-474.689 -14.514)" fill="#fff" />
          <g id="Group_595" data-name="Group 595" transform="translate(48.208 9.075)">
            <g id="Group_593" data-name="Group 593" transform="translate(6.048)">
              <path id="Path_1996" data-name="Path 1996" d="M549.34,55.191l-.318-.611h-.941c.109.207.152.287.255.493Z"
                transform="translate(-544.255 -48.133)" fill="#a7b1b7" />
              <path id="Path_1997" data-name="Path 1997" d="M539.67,40c.129.207.129.207.255.416l1.073.241-.373-.64Z"
                transform="translate(-538.258 -37.736)" fill="#a7b1b7" />
              <path id="Path_1998" data-name="Path 1998"
                d="M535.074,32.626l.95.052c-.138-.212-.287-.425-.327-.516l-.947-.052C534.8,32.2,534.937,32.411,535.074,32.626Z"
                transform="translate(-534.75 -32.11)" fill="#a7b1b7" />
              <path id="Path_1999" data-name="Path 1999"
                d="M551.452,59.4c-.092-.2-.118-.25-.218-.456h-.944c.1.209.2.413.287.611Z"
                transform="translate(-545.831 -51.242)" fill="#a7b1b7" />
            </g>
            <g id="Group_594" data-name="Group 594" transform="translate(0 0.479)">
              <path id="Path_2000" data-name="Path 2000"
                d="M513.67,44.427l.4.574,5.408-10.822c-.129-.2-.126-.2-.255-.4Z" transform="translate(-513.67 -33.78)"
                fill="#a7b1b7" />
              <path id="Path_2001" data-name="Path 2001"
                d="M526.21,41.881c-.129-.215-.2-.336-.333-.551L521.1,52.907l.413.6Z"
                transform="translate(-518.968 -39.164)" fill="#a7b1b7" />
              <path id="Path_2002" data-name="Path 2002"
                d="M531.37,56.145c-.1-.207-.106-.209-.218-.425L525.21,64.9c.121.186.3.5.413.706Z"
                transform="translate(-521.899 -49.425)" fill="#a7b1b7" />
              <path id="Path_2003" data-name="Path 2003"
                d="M535.552,61.072c-.1-.235-.209-.479-.33-.732L530,71.332c.089.287.169.6.244.91Z"
                transform="translate(-525.315 -52.72)" fill="#a7b1b7" />
            </g>
          </g>
        </g>
        <g id="Group_600" data-name="Group 600" transform="translate(0 17.683)">
          <path id="Path_2004" data-name="Path 2004"
            d="M263.376,115.863c-1.274-5.5-6.6-9.121-6.978-9.365l-.083-.057a15.359,15.359,0,0,0-4.972-2.06c1.231-10.8-2.051-28.864-5.193-35.907-1.133-2.545-3.4-6.329-6.045-6.364,2.929,5.279,3.661,12.842,3.744,18.391-1-1.813-3.681-6.123-6.358-7.6a60.958,60.958,0,0,1,3.77,18.09C240.179,89.1,237.6,85,234.768,84.139A62.584,62.584,0,0,1,237.192,95a35.9,35.9,0,0,0-3.308-3.4A53.7,53.7,0,0,1,234.825,99L233.6,97.742c.27,4.946-1.69,7.646-2.2,8.034,1.245.339.189.542.189.542-7.666,2.886-12.079,4.619-15.955,6.886l-.215.123a7.509,7.509,0,0,0-2.952,4.427,17.2,17.2,0,0,0-6.6,4.909c-2.235-.763-7.709-.892-9.468-.861s-2.731.046-3.73.135c-.393.034-.732.075-1.01.121h-.075l-.072.029a1.148,1.148,0,0,0-.666.818c-.5,1.825,2.072,6.347,7.652,13.436l.118.149.175.077c3.366,1.455,14.022,5.52,29.8,6.519,4.568.112,13.2,1.842,23-2.846a22.927,22.927,0,0,0,10.128-9C262.943,128.14,265.68,125.828,263.376,115.863Z"
            transform="translate(-190.786 -62.11)" fill="#fff" />
          <g id="Group_597" data-name="Group 597" transform="translate(2.15 49.306)">
            <path id="Path_2005" data-name="Path 2005"
              d="M206.908,245.491c-.017-.037-2.063-4-.686-11.531-6.128,1.707-7.692,11.35-7.764,11.72l-.178.95,8.975-.43Z"
              transform="translate(-198.28 -233.96)" fill="#fff" />
            <path id="Path_2006" data-name="Path 2006"
              d="M231.281,260.251s-1.317-1.179-1.747-5.451c-3.549,1.053-4.137,5.245-4.166,5.4l-.158.884,7.988.947Z"
              transform="translate(-217.483 -248.821)" fill="#fff" />
          </g>
          <path id="Path_2007" data-name="Path 2007"
            d="M201.8,248.869s2.092-8.277,5.928-10.659c-1.036,6.659.932,10.682.932,10.682S203.843,248.978,201.8,248.869Z"
            transform="translate(-198.64 -187.684)" fill="#a7b1b7" />
          <path id="Path_2008" data-name="Path 2008"
            d="M228.66,263.191s1.125-3.38,2.72-4.4c.287,3.558,1.787,4.929,1.787,4.929Z"
            transform="translate(-217.793 -202.36)" fill="#a7b1b7" />
          <path id="Path_2009" data-name="Path 2009"
            d="M207.728,238.21c-4.3,1.931-5.928,10.659-5.928,10.659,1.03.055,5.305.135,5.305.135C206.379,248.539,203.068,243.159,207.728,238.21Z"
            transform="translate(-198.64 -187.684)" fill="#010101" />
          <path id="Path_2010" data-name="Path 2010"
            d="M231.387,258.726V258.7c-2.092.921-2.717,4.427-2.717,4.427l3.038.287h.02S229.548,262.307,231.387,258.726Z"
            transform="translate(-217.8 -202.296)" fill="#010101" />
          <path id="Path_2011" data-name="Path 2011"
            d="M208.8,229.374a26.732,26.732,0,0,1,6.94-4.737c.508-.778,1.277-3.251,2.8-4.152s16.779-8.84,30.361-9.738a15.106,15.106,0,0,1,9.3,2.3c3.914,3.6,6.12,6.57,7.276,11.884a16.347,16.347,0,0,1,.31,4.206c-.089,3.888-2.562,8.995-10.96,15.508-20.371,6.771-43.9.043-52-3.463C198.921,235.629,194,229.1,194,229.1S198.175,228.456,208.8,229.374Z"
            transform="translate(-193.078 -168.066)" fill="#a7b1b7" />
          <path id="Path_2012" data-name="Path 2012"
            d="M357.414,95.818a16.869,16.869,0,0,0-3.627-6.728,41.956,41.956,0,0,1,.861,14.268,32.493,32.493,0,0,0-5.919-9.213c4.86,12.535,3.156,19.223,3.156,19.223s-2.663-6.128-6.085-8.461a29.056,29.056,0,0,1,2.493,12.217,27.452,27.452,0,0,0-3.443-4.189,55.76,55.76,0,0,1,.947,9.531,5.017,5.017,0,0,0,1.767,2.869c2.089,1.308,9.663-.178,12.386-.453C361.391,117.156,359.9,105.418,357.414,95.818Z"
            transform="translate(-300.647 -81.349)" fill="#a7b1b7" />
          <path id="Path_2013" data-name="Path 2013"
            d="M265.358,274.007c-3.862,10.329-9.167,12.1-9.167,12.1s3.919-5.4,4.155-8.673c-7.268,11.333-10.289,10.768-10.289,10.768s3.188-4.691,4.132-8.493c-5.451,6.639-7.712,10.748-13.789,12.263-2.479-.445-2.929-1.374-11.881-5.609a72.352,72.352,0,0,0-21.642-6.522s7.2,2.212,10.527,4.364a15.475,15.475,0,0,0-2.729-.634,8.759,8.759,0,0,1,2.528,1.635,78.674,78.674,0,0,0-16.968-3.968c-5.21-5.061-6.6-7.6-6.6-7.6s-2.275.861,7.319,13.057c6.725,2.909,21.651,7.434,41.542,6.573C260.629,291.222,265.263,279.157,265.358,274.007Z"
            transform="translate(-192.649 -212.949)" fill="#010101" />
          <path id="Path_2014" data-name="Path 2014"
            d="M254.04,222.5c-1.518.9-2.333,2.883-2.7,4.318a21.043,21.043,0,0,0-6.436,4.565c-.209.255-.37.448-.5.594l6.453,1.3a27.077,27.077,0,0,1,6.513-5.222c1.518-3,2.746-6.481,4.258-7.087,4.287-1.721,7.664-4.034,15.37-5.991a4.459,4.459,0,0,1-.737-.7C268.3,214.97,255.237,221.784,254.04,222.5Z"
            transform="translate(-229.017 -170.613)" fill="#010101" />
          <path id="Path_2015" data-name="Path 2015"
            d="M328.655,249.2a10.75,10.75,0,0,1-1.635-3.6c1.478,1.369,2.258.99,2.258.99s4.8-1.816,6-3.124a3.114,3.114,0,0,1-1.46.129s3.813-6.728,15.863-6.2c-5.228,1.079-8.275,3.036-8.47,4.37s.465,3.888-3.285,6.154a20.816,20.816,0,0,0,3.8,0A36.923,36.923,0,0,1,328.655,249.2Z"
            transform="translate(-287.932 -187.083)" fill="#010101" />
          <path id="Path_2016" data-name="Path 2016"
            d="M344.42,261.835a14.556,14.556,0,0,0,4.714-.143c1.911-1.173,3.125-2.792,2.97-4.562A50.633,50.633,0,0,0,344.42,261.835Z"
            transform="translate(-300.34 -201.176)" fill="#f3901d" />
          <path id="Path_2017" data-name="Path 2017"
            d="M321.73,264.37a5.652,5.652,0,0,1-2.45-1.882,3.992,3.992,0,0,1,2.766-2.447,5.8,5.8,0,0,0-1.311,2.054A7.263,7.263,0,0,0,321.73,264.37Z"
            transform="translate(-282.413 -203.251)" fill="#010101" />
          <path id="Path_2018" data-name="Path 2018"
            d="M294.54,251.559l1.409.149a31.684,31.684,0,0,1,1.667-4.4A17.942,17.942,0,0,0,294.54,251.559Z"
            transform="translate(-264.771 -194.173)" fill="#010101" />
          <path id="Path_2019" data-name="Path 2019"
            d="M276.13,252.121a3.027,3.027,0,0,1-1.96-.671,6.9,6.9,0,0,1,1.148-3.34A26.327,26.327,0,0,0,276.13,252.121Z"
            transform="translate(-250.246 -194.744)" fill="#f3901d" />
          <path id="Path_2020" data-name="Path 2020"
            d="M335.93,223.906a16.605,16.605,0,0,1,8.607-2.094,41.691,41.691,0,0,0-6.151,2.267S338.013,223.375,335.93,223.906Z"
            transform="translate(-294.286 -175.971)" fill="#010101" />
          <path id="Path_2021" data-name="Path 2021"
            d="M383.86,263.962s5.334-2.008,4.568,5.1C390.821,267.239,389.581,258.861,383.86,263.962Z"
            transform="translate(-328.464 -204.889)" fill="#010101" />
          <path id="Path_2022" data-name="Path 2022"
            d="M314.4,243.454s3.2-5.2,12.834-8.364c-.608,3.2-7.913,6.473-7.913,6.473a4.4,4.4,0,0,1,1.911-2.465A17.779,17.779,0,0,0,314.4,243.454Z"
            transform="translate(-278.933 -185.46)" fill="#fff" />
          <path id="Path_2023" data-name="Path 2023"
            d="M390.8,230.574c-.086-3.394-2.809-7.067-5.738-9.838a32.938,32.938,0,0,0-6.863-2.106,9.526,9.526,0,0,0-2.347.448,18.267,18.267,0,0,1-4.18,2.215l-1.922,1.793c1.346-.261,9.632-1.348,12.352,2.092a13.707,13.707,0,0,1,3.125,8.846,17.656,17.656,0,0,0-.973-9.729S387.547,223.221,390.8,230.574Z"
            transform="translate(-318.402 -173.722)" fill="#fff" />
          <path id="Path_2024" data-name="Path 2024"
            d="M338.863,277.84a12.248,12.248,0,0,0-3.71,1.394,37.268,37.268,0,0,1-4.559,2.072c-1.825.643-2.112.861-3.216,1.148a40.763,40.763,0,0,1-5.945,1.1c-.344.017,12.205,6.281,13.485,6.986.141.077.072.307.23.287a3.161,3.161,0,0,0,.511-.273,8.767,8.767,0,0,0,4.614-4.929C341.652,282.413,341.017,278.83,338.863,277.84Z"
            transform="translate(-283.943 -215.944)" fill="#010101" />
          <path id="Path_2025" data-name="Path 2025"
            d="M347.594,293.785c1-.479,1.779-1.234,3.291-2.138a7.987,7.987,0,0,0,.861-1.541c.5-3.245.729-5.073-.594-5.69a2.573,2.573,0,0,0-1.056-.373,4.77,4.77,0,0,0-1.985.7,4.778,4.778,0,0,1-2.556.861l-.416.186a1.567,1.567,0,0,1-1.762.7,31.911,31.911,0,0,1-3.056.944c-.149.037-.138.829-.3.861-.6.164-.714.063-.376.43.2.1-.783.407-.611.5,1.948.31,2.45.729,3.893,2.072l.232.129Z"
            transform="translate(-296.482 -220.367)" fill="#a7b1b7" />
          <path id="Path_2026" data-name="Path 2026"
            d="M244.476,287.048s-6-4.814-19.854-9.8a80.207,80.207,0,0,0-15.129-3.773,70.171,70.171,0,0,0-15.232-.4c.508,1.819,8.2-.723,24.1,3.268,15.074,3.784,22.288,10.946,24.474,11.8s4.723-2.123,5.431-3.761C247.244,285.929,244.476,287.048,244.476,287.048Z"
            transform="translate(-193.263 -212.367)" fill="#fff" />
          <g id="Group_598" data-name="Group 598" transform="translate(49.411 44.774)">
            <path id="Path_2027" data-name="Path 2027"
              d="M371.034,220.19A28.114,28.114,0,0,0,363,224.023a10.615,10.615,0,0,1,1.925.175,26.017,26.017,0,0,1,9.181-1.744A25.181,25.181,0,0,0,371.034,220.19Z"
              transform="translate(-363 -219.608)" fill="#010101" />
            <path id="Path_2028" data-name="Path 2028"
              d="M411.458,228.23a16.379,16.379,0,0,0-6.929-9.87l-.3-.043a21.934,21.934,0,0,0-5.018-.02,16.878,16.878,0,0,1,4.513,2.826,6.848,6.848,0,0,1,2.47.626C408.291,222.971,409.711,224.973,411.458,228.23Z"
              transform="translate(-388.821 -218.163)" fill="#010101" />
          </g>
          <path id="Path_2029" data-name="Path 2029"
            d="M372.17,123.013q1.406-.209,2.8-.339c1.1-1.888,3.472-6.886,3.621-15.3a36.326,36.326,0,0,1-1.9,15.206c.516,0,1.019,0,1.512.034a39.765,39.765,0,0,0,1.205-8.292,50.18,50.18,0,0,1,0,8.418l.419.063c1.435-8.8-1.945-29.948-4.969-35.721l1.119,6.53S381.845,108.679,372.17,123.013Z"
            transform="translate(-320.128 -79.916)" fill="#fff" />
          <path id="Path_2030" data-name="Path 2030"
            d="M348.958,76.121c-1.125-4.53-2.993-8.24-4.918-9.121,4.327,9.887,2.674,24.99,2.674,24.99s-2.2-8.3-5.01-13.141c-.141-.152-.287-.287-.427-.442,5.133,14.308,2.456,23.318,2.456,23.318s-1.492-7.15-4.08-11.451a9.464,9.464,0,0,0-1.3-1.093c1.856,4.8,2.482,13.9,2.482,13.9a39.139,39.139,0,0,0-2.508-4.9q-.427-.465-.932-.973a31.086,31.086,0,0,1,.574,8.163,7.055,7.055,0,0,0-1.291-2.381c.158,4.714-2.275,6.714-2.275,6.714s4.367-.955,5.718-.106a5.824,5.824,0,0,0,1.056.37C350.462,99.134,351.064,85.38,348.958,76.121Z"
            transform="translate(-293.195 -65.597)" fill="#010101" />
          <path id="Path_2031" data-name="Path 2031"
            d="M335.27,289.413s3.047-4.017,3.409-4.783c.955,2.706-.5,6.223-.5,6.223Z"
            transform="translate(-293.815 -220.786)" fill="#010101" />
          <g id="Group_599" data-name="Group 599" transform="translate(40.017 63.144)">
            <path id="Path_2032" data-name="Path 2032"
              d="M341.445,284.63a11.379,11.379,0,0,1-2.3,5.032c1.435.737,2.754,1.435,3.893,2.072C343.293,289.858,343.1,286.635,341.445,284.63Z"
              transform="translate(-336.599 -283.93)" fill="#fff" />
            <path id="Path_2033" data-name="Path 2033"
              d="M360.211,291.73a9.353,9.353,0,0,1-2.855,6.295,10.825,10.825,0,0,0-1.331-5,19.608,19.608,0,0,1-2.545,3.9c2.353,1.32,3.974,2.341,4.688,2.806a7.867,7.867,0,0,0,3.035-2.582A10.983,10.983,0,0,0,360.211,291.73Z"
              transform="translate(-346.818 -288.993)" fill="#fff" />
            <path id="Path_2034" data-name="Path 2034"
              d="M332.842,297.13a14.983,14.983,0,0,1-2.582.416,9.515,9.515,0,0,1,1.681.6A7.477,7.477,0,0,0,332.842,297.13Z"
              transform="translate(-330.26 -292.844)" fill="#fff" />
            <path id="Path_2035" data-name="Path 2035"
              d="M361.693,282.19c-1.079.166-1.911.605-5.053,2.008-.531.23-1.742.737-2.39.975a11.762,11.762,0,0,1,.427,2.545,26.354,26.354,0,0,0,1.831-2.927,11.434,11.434,0,0,1,2.037,4.39,17.118,17.118,0,0,0,1.831-5.931,7.6,7.6,0,0,1,2.244,5.537C363.83,286.02,362.829,282.947,361.693,282.19Z"
              transform="translate(-347.367 -282.19)" fill="#fff" />
          </g>
        </g>
      </g>
    </g>
  </g>
</svg>