<svg xmlns="http://www.w3.org/2000/svg" width="276.416" height="200" viewBox="0 0 276.416 200">
  <g id="binoculars-svgrepo-com" transform="translate(0 -2.697)">
    <g id="Group_37" data-name="Group 37" transform="translate(0 2.697)">
      <path id="Path_109" data-name="Path 109" d="M10.637,17.441c-1.247-.311-2.59-.667-2.594-.668-.549-.156-2.206.761-3.489,2.457L2.26,18.658c-.349-.1-1.71.783-2.129,2.257S.4,23.9.742,24l2.179.695c.146,2.249,1.1,4.063,1.672,4.226.005,0,1,.278,2.416.733a11.444,11.444,0,0,1,.256-6.817A10.983,10.983,0,0,1,10.637,17.441Z" transform="translate(0 79.96)" fill="#006b77"/>
      <path id="Path_110" data-name="Path 110" d="M267.587,54.713c-.183-.056-95.712-21.94-151.431-35.209-11.366,7.807-19.868,19.11-25.477,38.031A108.442,108.442,0,0,0,85.855,86.91C78.527,85.2,71.281,83.5,64.284,81.855c-.176-9.7,1.777-19.946,4.9-30.484C73.6,36.529,80.774,25.155,93.953,13.515c-9.17-2.183-19.016-4.683-19.053-4.7-4.023-1.1-16.2,5.343-25.609,17.243-9.9-2.352-16.828-4-16.857-4.009-2.555-.7-12.555,5.5-15.617,15.839-3.084,10.349,1.931,20.936,4.471,21.638.029.007,6.586,2.008,16.006,4.886a63.385,63.385,0,0,0,2.019,12.034c-11.1,7.8-19.42,19.04-24.941,37.659-7.4,24.91-5.147,42.939-.962,48.815,55.47,16.948,148.817,45.48,149,45.515,10.073,2.752,24.706-16.786,32.68-43.613a121.148,121.148,0,0,0,4.758-24.832c22.724,6.944,38.781,11.851,38.862,11.865,10.073,2.745,24.714-16.8,32.665-43.613C279.371,81.447,277.667,57.451,267.587,54.713ZM181.376,161.1c-6.05,20.332-16.982,35.146-24.449,33.124s-8.62-20.135-2.584-40.46,16.982-35.146,24.442-33.124S187.4,140.787,181.376,161.1Zm76.292-56.566c-6.043,20.325-16.99,35.146-24.442,33.117s-8.62-20.135-2.584-40.453,16.975-35.153,24.435-33.124S263.71,84.193,257.668,104.532Z" transform="translate(0 -8.697)" fill="#006b77"/>
    </g>
  </g>
</svg>
