<svg id="Comerica_Logo" data-name="Comerica Logo" xmlns="http://www.w3.org/2000/svg" width="96.714" height="20" viewBox="0 0 96.714 20">
  <g id="g10" transform="translate(0)">
    <g id="g12">
      <path id="path14" d="M88.442-23.869a3.827,3.827,0,0,0,3.83-4.522L89.307-40.754a3.848,3.848,0,0,0-3.763-3.093H6.774a3.93,3.93,0,0,0-3.757,3.093L.083-28.391a3.847,3.847,0,0,0,3.824,4.522H88.442" transform="translate(0 43.847)" fill="#213366"/>
      <path id="path16" d="M57.456-25.813a1.976,1.976,0,0,0,1.939-1.427L61.514-32.3h.314l3.166,7.462c.236.521.5,1.318,1.211,1.293l.035.305H62.857v-.3c1.237-.074,1.023-.446.6-1.46L63-26.1H59.613a10.526,10.526,0,0,0-.693,2.012c.01.485.579.537.889.544v.305h-2.63v-.3a1.229,1.229,0,0,0,.94-.7,11.068,11.068,0,0,0,.7-1.539,2.431,2.431,0,0,1-1.963.968c-1.428.013-2.469-1.341-2.462-3.008a2.95,2.95,0,0,1,2.948-3.269c.744,0,1.917.4,1.979,1.335a.627.627,0,0,1-.627.606.646.646,0,0,1-.623-.606c.006-.513-.29-.886-.968-.893-1.1.007-1.644,1.191-1.651,2.287,0,1.218.678,2.581,2,2.552Zm5.328-.9-1.46-3.562L59.881-26.71ZM32.224-25.186c.61-.057.787-.28.778-.837v-3.245c.047-.718-.127-.843-.809-.839v-.3l1.981-.7v.916c0,.115.024.118.113.044a2.883,2.883,0,0,1,.3-.288,2.668,2.668,0,0,1,1.613-.656,1.416,1.416,0,0,1,1.339,1.107,2.986,2.986,0,0,1,2.01-1.107c1.588,0,1.678,1.38,1.678,2.562v2.508c0,.606.225.786.812.846v.25H39.246v-.25c.583-.06.809-.24.809-.846v-2.724c.012-1.261-.2-1.576-1-1.576a1.545,1.545,0,0,0-1.345.793v3.507c-.009.608.222.786.811.846v.25H35.7v-.25c.6-.06.827-.231.84-.846l0-2.778c0-.687-.057-1.521-.89-1.521a1.952,1.952,0,0,0-1.482.764v3.536c.01.611.244.786.842.846v.25H32.193v-.25Zm12.457-5.908a2.3,2.3,0,0,1,2.33,2.487H42.956c.029,1.254.649,2.847,2.075,2.851a2.5,2.5,0,0,0,1.979-1.421l.278.069a3.1,3.1,0,0,1-2.776,2.29C42.983-24.8,42-26.225,42-27.825,42-29.718,43.049-31.1,44.681-31.094Zm-.273.53c-.88,0-1.281.65-1.4,1.456h2.605C45.572-29.856,45.223-30.572,44.408-30.564Zm-15.16-.088c-.936-.071-1.5.773-1.612,1.931-.162,1.865.336,3.35,1.538,3.458.981.087,1.542-.955,1.641-2.1C30.92-28.569,30.694-30.514,29.248-30.652ZM26.29-32.272h.319l.085,2.7a2.636,2.636,0,0,1,2.478-1.52,2.824,2.824,0,0,1,2.948,2.948,3.07,3.07,0,0,1-2.948,3.331,2.906,2.906,0,0,1-2.842-3.061c-.019-2.063-.618-3.7-2.832-3.811-2.019-.1-2.971,1.747-2.964,4.139-.007,1.852.939,3.835,3.046,3.839a3.552,3.552,0,0,0,2.893-1.265l.252.319a4.155,4.155,0,0,1-3.253,1.612,4.3,4.3,0,0,1-4.514-4.612,4.394,4.394,0,0,1,4.488-4.636,4.264,4.264,0,0,1,1.147.154c.318.084.583.186.8.259C25.863-31.734,26.084-31.76,26.29-32.272Zm25.273,7.087c.781-.057.961-.286.972-.837v-3.245c.03-.891-.393-.82-1-.486a.646.646,0,0,1-.487.056.433.433,0,0,1-.291-.183l-.067-.089a.6.6,0,0,0-.5-.249c-.245,0-.78.645-.776,1.009v3.187c0,.687.336.795.972.843v.253H47.266v-.253c.787-.062.966-.292.972-.843v-2.918c-.006-.934.027-1.456-.972-1.156v-.283l2.143-.731v1.129c.281-.456.823-1.115,1.454-1.112a.824.824,0,0,1,.871.658l1.943-.788.027,5.2c-.013.689.338.795.977.843v.253H51.537v-.253Zm17.777-.263c.12-.1.188-.342.188-.748v-4.919c0-.4-.069-.649-.194-.748a1.784,1.784,0,0,0-.885-.2v-.268h3.183a4.529,4.529,0,0,1,2.154.431,1.557,1.557,0,0,1,.809,1.494,1.406,1.406,0,0,1-.563,1.212,2.574,2.574,0,0,1-.816.351,3.4,3.4,0,0,1,1.2.584,1.455,1.455,0,0,1,.563,1.219,1.8,1.8,0,0,1-1.242,1.806,4.36,4.36,0,0,1-1.589.25h-3.7v-.259A1.955,1.955,0,0,0,69.34-25.449Zm4.039-4.931a1.274,1.274,0,0,0-.794-1.3,3.823,3.823,0,0,0-1.365-.186.886.886,0,0,0-.415.052c-.034.024-.062.111-.062.291v2.468l1.024-.022a2.336,2.336,0,0,0,.924-.176A1.128,1.128,0,0,0,73.379-30.38ZM73.625-27a1.237,1.237,0,0,0-.658-1.227,3.816,3.816,0,0,0-1.725-.339h-.325l-.175,0v2.709c0,.178.048.291.141.332a2.113,2.113,0,0,0,.753.079,2.851,2.851,0,0,0,1.426-.324A1.265,1.265,0,0,0,73.625-27Zm6.384.6a2.01,2.01,0,0,0,.043.508c.055.191.164.276.316.276a.468.468,0,0,0,.229-.048,2.441,2.441,0,0,0,.39-.308v.477a2.285,2.285,0,0,1-.468.422,1.376,1.376,0,0,1-.769.25.759.759,0,0,1-.679-.314,1.323,1.323,0,0,1-.224-.646,5.827,5.827,0,0,1-.794.6,2.239,2.239,0,0,1-1.135.361,1.386,1.386,0,0,1-1-.408,1.375,1.375,0,0,1-.421-1.029,1.9,1.9,0,0,1,.956-1.6,14.238,14.238,0,0,1,2.366-1.058v-.524a2.252,2.252,0,0,0-.127-.908.912.912,0,0,0-.9-.419,1.221,1.221,0,0,0-.615.167.5.5,0,0,0-.282.453c0,.169.051.334.051.5a.585.585,0,0,1-.258.543.621.621,0,0,1-.34.085.574.574,0,0,1-.477-.2.682.682,0,0,1-.163-.447,1.369,1.369,0,0,1,.588-.981,2.487,2.487,0,0,1,1.691-.506,1.845,1.845,0,0,1,1.766.834A2.811,2.811,0,0,1,80.009-29v2.605M77.65-28a1.576,1.576,0,0,0-.9,1.283.972.972,0,0,0,.37.847.866.866,0,0,0,.539.173,1.477,1.477,0,0,0,.792-.233.672.672,0,0,0,.374-.579v-2.019A5.68,5.68,0,0,0,77.65-28Zm3.967,2.6a1.043,1.043,0,0,0,.172-.733v-3.314a1.51,1.51,0,0,0-.072-.564.472.472,0,0,0-.471-.228.545.545,0,0,0-.111.011l-.2.022v-.307c.418-.118.867-.265,1.27-.4l.61-.2c.044,0,.08.012.091.055a.26.26,0,0,1,.013.094v.835a6.8,6.8,0,0,1,.893-.7,2.053,2.053,0,0,1,1.08-.309,1.431,1.431,0,0,1,.834.257,2.042,2.042,0,0,1,.727,1.8v3.048a.945.945,0,0,0,.176.643,1,1,0,0,0,.688.2,1.829,1.829,0,0,0,.841-.2.88.88,0,0,0,.186-.675v-5.25c0-.311-.053-.49-.141-.562a.7.7,0,0,0-.431-.117c-.158,0-.313.015-.465.026v-.25l.627-.163c.45-.116.836-.227,1.152-.331a2.014,2.014,0,0,1,.348-.1c.058,0,.087.015.1.073v4.167l1.7-1.536a1.538,1.538,0,0,0,.254-.273.292.292,0,0,0,.06-.158.135.135,0,0,0-.116-.151,3.052,3.052,0,0,0-.551-.058V-31h2.786v.258a2.7,2.7,0,0,0-1.177.29,12.226,12.226,0,0,0-1.674,1.425l-.325.3,1.133,1.519a11.168,11.168,0,0,0,1.39,1.594,1.685,1.685,0,0,0,1,.432v.258H91.051v-.261l.26-.01a.578.578,0,0,0,.195-.044.1.1,0,0,0,.061-.1.443.443,0,0,0-.109-.261L89.54-28.172v2.317a.562.562,0,0,0,.308.573,1.985,1.985,0,0,0,.7.093v.261H84.419v-.258a1.156,1.156,0,0,0,.671-.249,1.3,1.3,0,0,0,.176-.829v-2.805a1.861,1.861,0,0,0-.206-.922.784.784,0,0,0-.747-.354,1.4,1.4,0,0,0-.77.258,3.948,3.948,0,0,0-.566.479v3.661a.722.722,0,0,0,.2.6,1.192,1.192,0,0,0,.678.16v.261H80.965v-.258a1.206,1.206,0,0,0,.651-.215" transform="translate(-10.311 37.841)" fill="#fff"/>
      <path id="path18" d="M89.877-23.642a2.635,2.635,0,0,0,2.649-3.228L89.688-39.165a2.811,2.811,0,0,0-2.709-2.17H8.21a2.75,2.75,0,0,0-2.644,2.17L2.73-26.871a2.637,2.637,0,0,0,2.612,3.228Zm0-.959A1.832,1.832,0,0,0,91.6-26.576L88.639-38.843a1.621,1.621,0,0,0-1.66-1.468H8.21a1.7,1.7,0,0,0-1.659,1.468L3.62-26.576A1.841,1.841,0,0,0,5.342-24.6H89.877" transform="translate(-1.435 42.481)" fill="#fff" fill-rule="evenodd"/>
      <path id="path20" d="M205.455-6.265l.358-.007c.385-.005.541-.057.535-.344,0-.212-.133-.307-.472-.3l-.434,0Zm.029,1.2-.322.011-.041-2.127.8-.015c.491-.011.743.184.75.589a.545.545,0,0,1-.5.588l.594.93-.389.009-.58-.917-.331,0Zm1.82-1.115a1.475,1.475,0,0,0-1.5-1.487,1.482,1.482,0,0,0-1.452,1.547,1.478,1.478,0,0,0,1.514,1.5A1.476,1.476,0,0,0,207.3-6.176ZM204-6.108a1.818,1.818,0,0,1,1.8-1.845A1.814,1.814,0,0,1,207.66-6.18a1.809,1.809,0,0,1-1.79,1.854A1.816,1.816,0,0,1,204-6.108" transform="translate(-110.946 24.326)" fill="#100f0d"/>
    </g>
  </g>
</svg>
